<?xml version="1.0" encoding="utf-8"?>
<svg viewBox="0 0 500 500" xmlns="http://www.w3.org/2000/svg">
  <path style="stroke: rgb(0, 0, 0); stroke-width: 0px; fill: rgb(66, 147, 247);" d="M 1.864 497.616 C 1.368 497.746 1.019 497.673 0.833 497.382 C 1.16 497.47 1.504 497.548 1.864 497.616 Z M 496.042 224.082 C 496.042 346.153 397.083 445.111 275.013 445.111 C 239.82 445.111 206.548 436.885 177.015 422.253 C 161.111 445.057 30.223 502.942 1.864 497.616 C 12.569 494.816 92.078 397.759 97.899 356.333 C 70.318 319.455 53.984 273.676 53.984 224.082 C 53.984 102.011 152.943 3.053 275.013 3.053 C 397.083 3.053 496.042 102.011 496.042 224.082 Z M 159.436 163.107 C 131.373 163.107 108.625 185.856 108.625 213.918 C 108.625 241.981 131.373 264.729 159.436 264.729 C 187.498 264.729 210.246 241.981 210.246 213.918 C 210.246 185.856 187.498 163.107 159.436 163.107 Z M 280.305 163.107 C 252.242 163.107 229.494 185.856 229.494 213.918 C 229.494 241.981 252.242 264.729 280.305 264.729 C 308.367 264.729 331.116 241.981 331.116 213.918 C 331.116 185.856 308.367 163.107 280.305 163.107 Z M 401.175 163.338 C 373.112 163.338 350.364 186.086 350.364 214.149 C 350.364 242.211 373.112 264.96 401.175 264.96 C 429.237 264.96 451.986 242.211 451.986 214.149 C 451.986 186.086 429.237 163.338 401.175 163.338 Z"/>
</svg>