<?xml version="1.0" encoding="utf-8"?>
<svg id="svg2" viewBox="0 0 707.42 398.84" version="1.0" xmlns="http://www.w3.org/2000/svg">
  <path id="path3377" style="opacity: 0.28358; fill-rule: evenodd; fill: rgb(66, 148, 247); stroke: rgb(216, 188, 0); stroke-width: 4px;" d="M 675.416 403.611 L 684.841 398.85 C 695.46 396.813 700.084 390.7 700.084 390.7 L 669.931 390.524 L 655.03 403.444 L 675.416 403.611 Z"/>
  <rect id="rect2453" style="stroke-linejoin: bevel; stroke-linecap: round; fill: rgb(66, 148, 247); stroke: rgb(216, 188, 0); stroke-width: 4px;" rx="19.999" ry="21.165" height="376.999" width="531.378" y="14.101" x="89.209"/>
  <rect id="rect3225" style="stroke-linejoin: bevel; stroke-linecap: round; fill: rgb(66, 148, 247); stroke: rgb(216, 188, 0); stroke-width: 8px;" rx="17" ry="17" height="369.103" width="524.844" y="17.645" x="92.03"/>
  <rect id="rect3227" style="opacity: 0.87065; stroke: rgb(216, 188, 0); stroke-width: 12px; stroke-linejoin: round; fill: rgb(54, 121, 202);" height="298.903" width="471.033" y="42.785" x="117.892"/>
  <rect id="rect3279" style="stroke-linejoin: bevel; stroke-linecap: round; fill: rgb(66, 148, 247); stroke: rgb(216, 188, 0); stroke-width: 13px;" height="25.237" width="692.105" y="365.22" x="8.46"/>
  <path id="rect3323" style="opacity: 0.87065; stroke-linejoin: bevel; stroke-linecap: round; fill: rgb(66, 148, 247); stroke: rgb(216, 187, 0); stroke-opacity: 0.74; stroke-width: 8px;" d="M 298.986 369.187 L 298.986 370.96 C 298.986 376.485 303.355 380.932 308.781 380.932 L 393.941 380.932 C 399.368 380.932 403.737 376.485 403.737 370.96 L 403.737 369.187 L 298.986 369.187 Z"/>
  <rect id="rect3481" style="fill: rgb(66, 148, 247); stroke: rgb(216, 188, 0); stroke-width: 4px;" height="0.818" width="525.775" y="368.746" x="91.54"/>
</svg>