<?xml version="1.0" encoding="utf-8"?>
<svg id="svg2" viewBox="0 0 128 96" version="1.0" xmlns="http://www.w3.org/2000/svg">
  <defs id="defs4">
    <filter id="filter3842" height="1.329" width="1.2115" y="-.16452" x="-.10576">
      <feGaussianBlur id="feGaussianBlur3844" stdDeviation="2.5548707"/>
    </filter>
    <filter id="filter3920" height="1.3669" width="1.1749" y="-.18346" x="-.087464">
      <feGaussianBlur id="feGaussianBlur3922" stdDeviation="2.1631241"/>
    </filter>
    <filter id="filter3968">
      <feGaussianBlur id="feGaussianBlur3970" stdDeviation="1.1167048"/>
    </filter>
    <filter id="filter4036" height="6.9919" width="2.4818" y="-2.996" x="-.74089">
      <feGaussianBlur id="feGaussianBlur4038" stdDeviation="51.518058"/>
    </filter>
    <filter id="filter3345" height="1.7751" width="1.1326" y="-.38756" x="-.066316">
      <feGaussianBlur id="feGaussianBlur3347" stdDeviation="2.3089849"/>
    </filter>
  </defs>
  <path id="path3378" style="filter: url(#filter3968); fill: rgb(66, 148, 247); stroke-width: 5.28709px; stroke: rgb(216, 188, 0);" d="M 107.426 69.147 L 74.918 90.294 L 15.005 73.845" transform="matrix(1, 0, 0, 1, -0.2537216446124768, 1.7849199551039698)"/>
  <path id="path3276" style="fill-rule: evenodd; fill: rgb(66, 148, 247); stroke-width: 3px; stroke: rgb(216, 188, 0);" d="M 62.567 1.871 L 107.547 9.221 L 107.547 52.731 L 62.427 53.271 L 62.567 1.871 Z" transform="matrix(1, 0, 0, 1, -0.2537216446124768, 1.7849199551039698)"/>
  <path id="path3274" style="fill-rule: evenodd; fill: rgb(66, 148, 247); stroke-width: 3px; stroke: rgb(216, 188, 0);" d="M 14.777 14.221 L 62.707 1.871 L 62.567 56.471 L 15.037 58.871 L 14.777 14.221 Z" transform="matrix(1, 0, 0, 1, -0.2537216446124768, 1.7849199551039698)"/>
  <path id="path3264" style="fill-rule: evenodd; fill: rgb(66, 148, 247); stroke-width: 3px; stroke: rgb(216, 188, 0);" d="M 14.817 14.311 L 74.677 24.861 L 74.677 90.551 L 14.817 74.491 L 14.817 14.311 Z" transform="matrix(1, 0, 0, 1, -0.2537216446124768, 1.7849199551039698)"/>
  <path id="path3266" style="fill-rule: evenodd; fill: rgb(66, 148, 247); stroke-width: 3px; stroke: rgb(216, 188, 0);" d="M 74.677 90.631 L 74.677 24.841 L 107.897 9.771 L 107.897 69.511 L 74.677 90.631 Z" transform="matrix(1, 0, 0, 1, -0.2537216446124768, 1.7849199551039698)"/>
  <path id="path3640" style="filter: url(#filter3842); fill-rule: evenodd; fill-opacity: 0.75648; fill: rgb(66, 148, 247); stroke-width: 5.28709px; stroke: rgb(216, 188, 0);" d="M 74.135 25.285 C 69.046 46.041 39.805 19.609 39.805 19.609 L 41.242 40.56 L 74.135 25.285 Z" transform="matrix(1, 0, 0, 1, -0.2537216446124768, 1.7849199551039698)"/>
  <path id="path2501" style="filter: url(#filter3345); fill: rgb(66, 148, 247); stroke-width: 3px; stroke: rgb(216, 188, 0);" d="M 102.807 12.221 L 74.547 25.521 L 20.237 15.551" transform="matrix(1, 0, 0, 1, -0.2537216446124768, 1.7849199551039698)"/>
  <path id="path3268" style="fill-rule: evenodd; fill: rgb(66, 148, 247); stroke-width: 3px; stroke: rgb(216, 188, 0);" d="M 14.777 14.221 L 74.687 24.841 L 59.967 48.631 L 1.767 36.131 L 14.777 14.221 Z" transform="matrix(1, 0, 0, 1, -0.2537216446124768, 1.7849199551039698)"/>
  <path id="path3846" style="filter: url(#filter3920); fill-rule: evenodd; fill-opacity: 0.75648; fill: rgb(66, 148, 247); stroke-width: 5.28709px; stroke: rgb(216, 188, 0);" d="M 74.918 24.894 L 92.615 24.845 L 108.601 30.766 L 74.918 24.894 Z" transform="matrix(1, 0, 0, 1, -0.2537216446124768, 1.7849199551039698)"/>
  <path id="path3270" style="fill-rule: evenodd; fill: rgb(66, 148, 247); stroke-width: 3px; stroke: rgb(216, 188, 0);" d="M 74.677 24.841 L 94.537 38.871 L 126.897 23.811 L 107.717 9.261 L 74.677 24.841 Z" transform="matrix(1, 0, 0, 1, -0.2537216446124768, 1.7849199551039698)"/>
  <path id="use3972" style="filter: url(#filter4036); fill: rgb(66, 148, 247); stroke-width: 5.28709px; stroke: rgb(216, 188, 0);" d="M 107.426 69.147 L 15.005 73.845" transform="matrix(1, 0, 0, 1, -0.2537216446124768, 1.7849199551039698)"/>
</svg>