<?xml version="1.0" encoding="utf-8"?>
<svg version="1.1" id="Capa_1" x="0px" y="0px" width="628.254px" height="613.516px" viewBox="0 0 628.254 613.516" enable-background="new 0 0 628.254 613.516" xmlns="http://www.w3.org/2000/svg" xmlns:bx="https://boxy-svg.com">
  <circle style="fill: rgb(66, 148, 247); stroke: rgb(216, 188, 0); stroke-width: 20.9949px;" cx="298.909" cy="96.936" r="90.751" transform="matrix(0.772158, 0, 0, 0.743805, 76.400436, 20.722906)"/>
  <circle style="fill: rgb(66, 148, 247); stroke: rgb(216, 188, 0); stroke-width: 20.9949px;" cx="107.594" cy="418.498" r="90.751" transform="matrix(0.772158, 0, 0, 0.743805, -4.20932, 147.242706)"/>
  <circle style="fill: rgb(66, 148, 247); stroke: rgb(216, 188, 0); stroke-width: 20.9949px;" cx="557.815" cy="365.719" r="90.751" transform="matrix(0.772158, 0, 0, 0.743805, 116.615082, 182.965836)"/>
  <circle style="fill: rgb(66, 148, 247); stroke: rgb(216, 188, 0); stroke-width: 20.9949px;" cx="364.617" cy="465.385" r="90.751" transform="matrix(0.772158, 0, 0, 0.743805, 25.419521, 189.83107)"/>
  <path d="M 67.628 267.768 H 232.306 L 232.306 239.514 L 305.019 292.723 L 232.306 345.931 L 232.306 317.677 H 67.628 V 267.768 Z" style="stroke: rgb(216, 188, 0); fill: rgb(66, 148, 247); stroke-width: 16px;" transform="matrix(-0.549469, 0.835514, -0.839286, -0.543734, 517.251038, 269.952606)" bx:shape="arrow 67.628 239.514 237.391 106.417 49.909 72.713 0 1@109aecac"/>
  <path d="M 67.628 267.769 H 232.306 L 232.306 239.515 L 305.019 292.723 L 232.306 345.932 L 232.306 317.678 H 67.628 V 267.769 Z" style="stroke: rgb(216, 188, 0); fill: rgb(66, 148, 247); stroke-width: 16px;" transform="matrix(0.531262, 0.847207, -0.84356, 0.537078, 589.26239, -45.670574)" bx:shape="arrow 67.628 239.515 237.391 106.417 49.909 72.713 0 1@e61512f2"/>
  <path d="M 67.629 267.769 H 232.308 L 232.308 239.515 L 305.021 292.724 L 232.308 345.932 L 232.308 317.678 H 67.629 V 267.769 Z" style="stroke: rgb(216, 188, 0); fill: rgb(66, 148, 247); stroke-width: 16px;" transform="matrix(-0.000447, 1, -1.000003, 0.006417, 599.444458, 133.220093)" bx:shape="arrow 67.629 239.515 237.392 106.417 49.909 72.713 0 1@a60063f0"/>
</svg>