<?xml version="1.0" encoding="utf-8"?>
<svg viewBox="0 0 512 512" xmlns="http://www.w3.org/2000/svg" xmlns:bx="https://boxy-svg.com">
  <path id="s1" d="M 110.836 199.964 C 124.54 211.382 124.54 225.656 110.836 242.787 C 97.133 259.915 97.133 274.189 110.836 285.608" style="stroke-width: 30px; stroke-linecap: round; fill: rgba(66, 148, 247, 0); stroke: rgb(216, 188, 0);"/>
  <path id="s2" d="M 172.501 199.964 C 186.205 211.382 186.205 225.656 172.501 242.787 C 158.798 259.915 158.798 274.189 172.501 285.608" style="stroke-width: 30px; stroke-linecap: round; fill: rgba(66, 148, 247, 0); stroke: rgb(216, 188, 0);"/>
  <path id="s3" d="M 234.166 199.964 C 247.87 211.382 247.87 225.656 234.166 242.787 C 220.463 259.915 220.463 274.189 234.166 285.608" style="stroke-width: 30px; stroke-linecap: round; fill: rgba(66, 148, 247, 0); stroke: rgb(216, 188, 0);"/>
  <path d="M 65.855 307.26 C 67.5 344.807 88.778 440.387 113.231 464.265 L 175.717 464.265 L 238.239 464.265 C 248.243 454.296 252.457 424.32 262.734 398.49 C 266.913 388.041 279.211 341.073 281.439 341.861 C 331.628 332.2 313.779 411.028 259.582 407.088 C 252.901 420.073 244.362 457.708 252.34 433.199 C 351.792 405.724 344.303 334.598 287.252 325.793 C 284.238 321.175 290.027 311.543 288.451 306.643 L 175.708 306.334 L 65.855 307.26 Z M 28.62 466.458 C 36.215 483.987 63.631 494.07 78.808 497.222 L 179.562 497.222 L 280.291 497.222 C 295.468 494.073 322.12 484.82 329.723 467.28 L 188.544 468.891 L 28.62 466.458 Z" style="fill: rgb(66, 148, 247); stroke: rgb(216, 188, 0); stroke-width: 24px;"/>
  <path style="stroke: rgb(216, 188, 0); stroke-width: 12.752px; fill: rgb(66, 148, 247);" transform="matrix(-0.079066, 0.347168, -0.347168, -0.079066, 541.429626, 72.036057)" d="M 218.184 65.727 L 256.888 65.727 L 265.056 124.842 A 102.818 102.818 0 0 1 288.127 134.398 L 335.703 98.374 L 363.071 125.742 L 327.046 173.318 A 102.818 102.818 0 0 1 336.602 196.389 L 395.717 204.556 L 395.717 243.261 L 336.602 251.429 A 102.818 102.818 0 0 1 327.046 274.5 L 363.071 322.076 L 335.703 349.444 L 288.127 313.419 A 102.818 102.818 0 0 1 265.056 322.975 L 256.888 382.09 L 218.184 382.09 L 210.016 322.975 A 102.818 102.818 0 0 1 186.945 313.419 L 139.369 349.444 L 112.001 322.076 L 148.026 274.5 A 102.818 102.818 0 0 1 138.469 251.429 L 79.354 243.261 L 79.354 204.556 L 138.469 196.389 A 102.818 102.818 0 0 1 148.026 173.318 L 112.001 125.742 L 139.369 98.374 L 186.945 134.398 A 102.818 102.818 0 0 1 210.016 124.842 Z M 237.536 176.454 A 47.454 47.454 0 0 0 237.536 271.363 A 47.454 47.454 0 0 0 237.536 176.454" bx:shape="cog 237.536 223.909 47.454 102.818 158.181 0.38 8 1@bf548324"/>
  <path style="stroke: rgb(216, 188, 0); stroke-width: 12.752px; fill: rgb(66, 148, 247);" transform="matrix(-0.106043, 0.395755, -0.395755, -0.106043, 468.669342, 147.170456)" d="M 218.184 65.727 L 256.888 65.727 L 265.056 124.842 A 102.818 102.818 0 0 1 288.127 134.398 L 335.703 98.374 L 363.071 125.742 L 327.046 173.318 A 102.818 102.818 0 0 1 336.602 196.389 L 395.717 204.556 L 395.717 243.261 L 336.602 251.429 A 102.818 102.818 0 0 1 327.046 274.5 L 363.071 322.076 L 335.703 349.444 L 288.127 313.419 A 102.818 102.818 0 0 1 265.056 322.975 L 256.888 382.09 L 218.184 382.09 L 210.016 322.975 A 102.818 102.818 0 0 1 186.945 313.419 L 139.369 349.444 L 112.001 322.076 L 148.026 274.5 A 102.818 102.818 0 0 1 138.469 251.429 L 79.354 243.261 L 79.354 204.556 L 138.469 196.389 A 102.818 102.818 0 0 1 148.026 173.318 L 112.001 125.742 L 139.369 98.374 L 186.945 134.398 A 102.818 102.818 0 0 1 210.016 124.842 Z M 237.536 176.454 A 47.454 47.454 0 0 0 237.536 271.363 A 47.454 47.454 0 0 0 237.536 176.454" bx:shape="cog 237.536 223.909 47.454 102.818 158.181 0.38 8 1@bf548324" bx:origin="1.137 0.54"/>
  <path style="stroke: rgb(216, 188, 0); stroke-width: 12.752px; fill: rgb(66, 148, 247);" transform="matrix(-0.120339, 0.449107, -0.449107, -0.120339, 443.570618, 4.356786)" d="M 218.184 65.727 L 256.888 65.727 L 265.056 124.842 A 102.818 102.818 0 0 1 288.127 134.398 L 335.703 98.374 L 363.071 125.742 L 327.046 173.318 A 102.818 102.818 0 0 1 336.602 196.389 L 395.717 204.556 L 395.717 243.261 L 336.602 251.429 A 102.818 102.818 0 0 1 327.046 274.5 L 363.071 322.076 L 335.703 349.444 L 288.127 313.419 A 102.818 102.818 0 0 1 265.056 322.975 L 256.888 382.09 L 218.184 382.09 L 210.016 322.975 A 102.818 102.818 0 0 1 186.945 313.419 L 139.369 349.444 L 112.001 322.076 L 148.026 274.5 A 102.818 102.818 0 0 1 138.469 251.429 L 79.354 243.261 L 79.354 204.556 L 138.469 196.389 A 102.818 102.818 0 0 1 148.026 173.318 L 112.001 125.742 L 139.369 98.374 L 186.945 134.398 A 102.818 102.818 0 0 1 210.016 124.842 Z M 237.536 176.454 A 47.454 47.454 0 0 0 237.536 271.363 A 47.454 47.454 0 0 0 237.536 176.454" bx:shape="cog 237.536 223.909 47.454 102.818 158.181 0.38 8 1@bf548324" bx:origin="1.137 0.54"/>
</svg>