<?xml version="1.0" encoding="utf-8"?>
<svg id="svg11846" viewBox="0 0 574.29 575.78" version="1.1" xmlns="http://www.w3.org/2000/svg" xmlns:xlink="http://www.w3.org/1999/xlink">
  <title id="title12297">puzzle</title>
  <defs id="defs11848">
    <clipPath id="clipPath1016">
      <path id="path1018" d="m766.11 3738.8h-12.726v13.47h12.726v-13.47"/>
    </clipPath>
    <linearGradient id="linearGradient11592" gradientUnits="userSpaceOnUse" gradientTransform="matrix(153.29,153.29,153.29,-153.29,73.571,224.37)">
      <stop id="stop1022" style="stop-color:#9bb852" offset="0"/>
      <stop id="stop1024" style="stop-color:#aed659" offset="1"/>
    </linearGradient>
    <clipPath id="clipPath712">
      <path id="path714" d="m3711.8 1621c1.65 2.4 3.19 5 4.64 7.76h0.61c1.34 0 2.67 0.06 3.99 0.19-2.82-3.21-5.89-5.89-9.24-7.95m-582.76 582.77c2.06 3.35 4.74 6.42 7.95 9.24-0.15-1.52-0.21-3.05-0.19-4.6-2.76-1.45-5.36-2.99-7.76-4.64"/>
    </clipPath>
    <linearGradient id="linearGradient11554" gradientUnits="userSpaceOnUse" gradientTransform="matrix(152.32,152.32,152.32,-152.32,223.42,72.625)">
      <stop id="stop718" style="stop-color:#c14d9d" offset="0"/>
      <stop id="stop720" style="stop-color:#da45a4" offset="1"/>
    </linearGradient>
    <clipPath id="clipPath680">
      <path id="path682" d="m3752.3 753.38h-13.46v12.73l13.46-0.007v-12.72"/>
    </clipPath>
    <clipPath id="clipPath204">
      <path id="path206" d="m0 4505.7v-4505.7h4505.7v4505.7h-4505.7z"/>
    </clipPath>
    <clipPath id="clipPath178">
      <path id="path180" d="m0 4505.7v-4505.7h4505.7v4505.7h-4505.7z"/>
    </clipPath>
    <clipPath id="clipPath114">
      <path id="path116" d="m3217.1 1932.8c19.99 128.64-54.89 140.42-95.98 231.75-5.9 13.11-7.38 25.56-3.18 36.77-1.62-4.35-2.39-8.88-2.39-13.56 0.01-7.4 1.97-15.18 5.58-23.21 36.39-80.89 99.29-99.38 99.3-191.94 0-11.94-1.05-25.11-3.33-39.81"/>
    </clipPath>
    <linearGradient id="linearGradient11502" gradientUnits="userSpaceOnUse" gradientTransform="matrix(153.68,153.68,153.68,-153.68,223.84,223.84)">
      <stop id="stop120" style="stop-color:#296793" offset="0"/>
      <stop id="stop122" style="stop-color:#429bd4" offset="1"/>
    </linearGradient>
    <clipPath id="clipPath98">
      <path id="path100" d="m3175.4 1839.8c20.92 24.68 35.84 55.66 41.66 92.98-5.8-37.25-20.66-68.2-41.53-92.87-0.04-0.03-0.09-0.08-0.13-0.11"/>
    </clipPath>
    <linearGradient id="linearGradient3032" gradientUnits="userSpaceOnUse" gradientTransform="matrix(153.68,153.68,153.68,-153.68,223.84,223.84)" xlink:href="#linearGradient11502"/>
    <linearGradient id="linearGradient3036" gradientUnits="userSpaceOnUse" gradientTransform="matrix(152.32,152.32,152.32,-152.32,223.42,72.625)" xlink:href="#linearGradient11554"/>
  </defs>
  <g id="g94" transform="matrix(0.083207, 0, 0, -0.083207, 262.072998, 403.476013)">
    <g id="g96" clip-path="url(#clipPath98)">
      <path id="path108" style="fill:url(#linearGradient3032)" d="m3175.4 1839.8c20.92 24.68 35.84 55.66 41.66 92.98-5.8-37.25-20.66-68.2-41.53-92.87-0.04-0.03-0.09-0.08-0.13-0.11"/>
    </g>
  </g>
  <g id="g110" transform="matrix(0.083207, 0, 0, -0.083207, 262.072998, 403.476013)">
    <g id="g112" clip-path="url(#clipPath114)">
      <path id="path124" style="fill:url(#linearGradient3032)" d="m3217.1 1932.8c19.99 128.64-54.89 140.42-95.98 231.75-5.9 13.11-7.38 25.56-3.18 36.77-1.62-4.35-2.39-8.88-2.39-13.56 0.01-7.4 1.97-15.18 5.58-23.21 36.39-80.89 99.29-99.38 99.3-191.94 0-11.94-1.05-25.11-3.33-39.81"/>
    </g>
  </g>
  <g id="g174" transform="matrix(0.083207, 0, 0, -0.083207, 262.072998, 403.476013)">
    <g id="g176" clip-path="url(#clipPath178)">
      <path id="path182" style="fill:#dedddb" d="m1712.4 2533.1c0 11.94-1.04 25.11-3.33 39.81-0.04 0.28-0.09 0.58-0.13 0.86 0.04-0.28 0.09-0.58 0.13-0.86 2.29-14.7 3.33-27.87 3.33-39.81m-3.5 40.89c-0.02 0.13-0.05 0.29-0.07 0.43 0.02-0.14 0.05-0.3 0.07-0.43m-357.21 113.32c0.01 0.02 0.01 0.02 0.02 0.03 40.01 33.93 93.55 50.89 147.11 50.89-53.56 0-107.13-16.99-147.13-50.92m147.2 50.92h-0.03 0.03m-744.39 87.7c0.008 0.03 0.016 0.07 0.024 0.1-0.008-0.04-0.016-0.07-0.024-0.1m0.039 0.17c0.016 0.06 0.027 0.13 0.039 0.19-0.012-0.06-0.027-0.13-0.039-0.19m0.047 0.21c8.016 36.63 20.527 57.59 35.805 66.58-15.274-8.99-27.789-29.96-35.805-66.58m424.57 33.22c82.16 96.63 65.19 272.63-50.99 336.37 116.13-63.71 133.16-239.59 51.13-336.24-0.05-0.05-0.09-0.08-0.14-0.13"/>
    </g>
  </g>
  <g id="g200" transform="matrix(0.083207, 0, 0, -0.083207, 262.072998, 403.476013)">
    <g id="g202" clip-path="url(#clipPath204)">
      <path id="path208" style="fill:#dedddb" d="m790.4 2892.9c0.02 0.01 0.04 0.02 0.055 0.03-0.015-0.01-0.035-0.02-0.055-0.03m33.481 224.74c3.051 0.89 6.144 2.05 9.281 3.46 21.488 9.66 38.574 21.2 53.813 32.93-15.239-11.73-32.321-23.27-53.809-32.93-3.133-1.41-6.234-2.57-9.285-3.46m304.28 78.26c-0.27 0.14-0.52 0.28-0.78 0.42 0.26-0.14 0.51-0.28 0.78-0.42m-0.8 0.43c-0.13 0.07-0.25 0.14-0.38 0.21 0.13-0.07 0.26-0.14 0.38-0.21m-0.4 0.22c-0.13 0.07-0.26 0.14-0.38 0.2 0.13-0.06 0.25-0.13 0.38-0.2m-0.39 0.21c-0.12 0.06-0.25 0.13-0.37 0.2 0.13-0.07 0.25-0.13 0.37-0.2m-0.42 0.22c-0.25 0.14-0.49 0.26-0.74 0.39 0.25-0.13 0.49-0.26 0.74-0.39m-0.81 0.43c-0.12 0.06-0.23 0.12-0.36 0.19 0.12-0.06 0.25-0.13 0.36-0.19m-0.38 0.2c-0.11 0.06-0.23 0.12-0.34 0.18 0.12-0.06 0.22-0.12 0.34-0.18m-0.42 0.22c-0.11 0.06-0.23 0.12-0.34 0.18 0.12-0.06 0.23-0.12 0.34-0.18m-0.42 0.22c-0.1 0.05-0.19 0.09-0.29 0.15 0.1-0.05 0.2-0.1 0.29-0.15m-0.38 0.19c-0.11 0.06-0.22 0.12-0.33 0.17 0.11-0.05 0.22-0.11 0.33-0.17m-0.44 0.23c-0.08 0.04-0.18 0.09-0.27 0.13 0.09-0.04 0.18-0.09 0.27-0.13m-0.36 0.18c-0.11 0.06-0.21 0.11-0.32 0.16 0.1-0.05 0.21-0.1 0.32-0.16m-0.45 0.23c-0.09 0.04-0.17 0.08-0.25 0.12 0.08-0.03 0.17-0.08 0.25-0.12m-0.42 0.21c-0.09 0.04-0.16 0.08-0.25 0.12 0.09-0.04 0.16-0.08 0.25-0.12m-0.4 0.2-0.24 0.12 0.24-0.12m-0.45 0.22c-0.06 0.03-0.13 0.07-0.19 0.09 0.07-0.03 0.13-0.06 0.19-0.09m-0.36 0.18c-0.08 0.04-0.17 0.08-0.26 0.12 0.09-0.04 0.17-0.08 0.26-0.12m-0.46 0.22c-0.05 0.03-0.12 0.06-0.17 0.09 0.06-0.03 0.12-0.06 0.17-0.09m-0.35 0.17c-0.09 0.05-0.19 0.1-0.28 0.14 0.09-0.04 0.19-0.09 0.28-0.14m-0.47 0.23c-0.04 0.02-0.1 0.05-0.15 0.07 0.06-0.03 0.1-0.04 0.15-0.07m-0.48 0.23c-0.04 0.02-0.08 0.04-0.13 0.06 0.05-0.02 0.08-0.04 0.13-0.06m-0.34 0.16-0.12 0.06 0.12-0.06m-0.48 0.23c-0.04 0.02-0.07 0.03-0.12 0.05 0.05-0.02 0.08-0.03 0.12-0.05m-0.33 0.16c-0.04 0.01-0.07 0.03-0.11 0.04 0.05-0.02 0.06-0.02 0.11-0.04m-0.49 0.23c-0.04 0.01-0.06 0.02-0.1 0.04 0.03-0.02 0.06-0.03 0.1-0.04m-0.33 0.15m-0.5 0.23c-0.02 0.01-0.05 0.02-0.07 0.03 0.02-0.01 0.05-0.02 0.07-0.03m-0.82 0.37c-0.02 0.01-0.04 0.02-0.05 0.03 0.02-0.01 0.03-0.02 0.05-0.03m-0.82 0.37c-0.01 0.01-0.02 0.01-0.02 0.01l0.02-0.01m-111.16 16.74c6.65 0.79 13.72 1.21 21.28 1.21-7.56 0-14.63-0.42-21.28-1.21m382.33 589.52c6.07 12.12 4.98 25.89-1.57 40.44-12.9 28.68-29.13 49.51-44.71 68.58 15.58-19.07 31.81-39.9 44.71-68.58 6.55-14.55 7.65-28.3 1.59-40.42-0.01-0.01-0.02-0.01-0.02-0.02m-97.54 272.19c0.02 0.1 0.03 0.2 0.05 0.3-0.01-0.09-0.03-0.21-0.05-0.3m0.07 0.45 0.03 0.15-0.03-0.15m0.05 0.32c0.01 0.04 0.02 0.09 0.02 0.13 0-0.04-0.01-0.09-0.02-0.13m0.05 0.31c0.01 0.04 0.02 0.07 0.02 0.11-0.01-0.04-0.01-0.06-0.02-0.11m0.05 0.31c0.01 0.03 0.01 0.06 0.02 0.09-0.01-0.03-0.01-0.06-0.02-0.09m0.05 0.31c0.01 0.02 0.01 0.03 0.01 0.04 0-0.01 0-0.02-0.01-0.04"/>
    </g>
  </g>
  <g id="g676" transform="matrix(0.083207, 0, 0, -0.083207, 262.072998, 403.476013)">
    <g id="g678" clip-path="url(#clipPath680)">
      <path id="path690" style="fill:url(#linearGradient3036)" d="m3752.3 753.38h-13.46v12.73l13.46-0.007v-12.72"/>
    </g>
  </g>
  <g id="g708" transform="matrix(0.083207, 0, 0, -0.083207, 262.072998, 403.476013)">
    <g id="g710" clip-path="url(#clipPath712)">
      <path id="path722" style="fill:url(#linearGradient3036)" d="m3711.8 1621c1.65 2.4 3.19 5 4.64 7.76h0.61c1.34 0 2.67 0.06 3.99 0.19-2.82-3.21-5.89-5.89-9.24-7.95m-582.76 582.77c2.06 3.35 4.74 6.42 7.95 9.24-0.15-1.52-0.21-3.05-0.19-4.6-2.76-1.45-5.36-2.99-7.76-4.64"/>
    </g>
  </g>
  <g id="g1012" transform="matrix(0.083207, 0, 0, -0.083207, 262.072998, 403.476013)">
    <g id="g1014" clip-path="url(#clipPath1016)">
      <path id="path1026" style="fill:url(#linearGradient11592)" d="m753.38 3738.8h12.727v13.465h-12.73v-13.5z"/>
    </g>
  </g>
  <path id="path12079" d="M 352.229 65.281 C 340.46 65.521 328.069 70.135 317.008 80.246 C 313.128 83.795 307.756 92.585 306.665 102.773 C 305.574 112.963 307.828 124.669 318.967 137.327 C 323.999 143.048 328.321 149.189 330.916 156.212 C 333.51 163.235 334.228 171.993 330.054 179.639 C 325.88 187.289 318.013 192.218 308.231 195.037 C 298.527 197.832 286.322 198.935 270.387 198.444 L 270.036 198.444 C 235.276 198.444 185.438 199.964 146.198 200.365 L 147.216 295.173 C 147.478 336.523 130.172 356.171 98.441 333.017 C 89.338 322.707 76.468 315.7 61.773 315.7 C 33.717 315.7 10.96 338.456 10.96 366.513 C 10.96 394.567 33.717 417.324 61.773 417.324 C 73.576 417.324 84.047 412.424 92.762 405.573 C 136.108 371.174 146.533 402.746 147.216 443.928 L 147.216 566.354 C 147.216 566.659 147.459 566.902 147.764 566.902 L 274.54 566.902 C 309.094 563.401 322.737 557.887 296.755 529.45 C 288.426 518.859 282.533 506.143 282.533 491.801 C 282.533 457.709 311.752 433.507 345.843 433.507 C 379.936 433.507 407.586 458.651 407.586 492.742 C 407.586 510.601 398.095 526.732 385.567 537.795 C 370.633 555.882 381.567 561.931 399.593 566.904 L 544.938 566.904 C 545.166 566.904 545.364 566.79 545.446 566.592 L 546.778 566.592 C 545.615 514.534 555.093 451.178 547.288 408.788 C 544.867 402.915 543.449 402.488 543.019 402.402 C 542.56 402.308 539.358 402.723 534.555 405.574 C 529.755 408.426 523.967 412.993 517.944 417.446 C 511.923 421.896 505.878 426.416 498.082 428.766 L 498.005 428.766 L 497.965 428.803 C 446.755 443.745 399.708 384.244 422.628 337.13 L 422.588 337.13 C 437.855 294.489 494.689 282.315 527.504 312.173 L 527.819 312.488 L 528.131 312.8 C 533.248 318.229 536.955 319.737 538.161 319.931 C 539.367 320.123 538.983 320.327 540.354 318.872 C 543.099 315.965 547.221 304.073 546.78 290.822 L 546.78 198.444 L 414.872 198.444 C 402.708 199.322 392.758 197.893 384.784 193.822 C 376.595 189.641 370.93 182.232 369.034 174.469 C 365.245 158.94 372.779 144.047 384.666 135.018 C 388.49 132.112 394.262 123.078 396.145 112.963 C 398.028 102.845 396.698 92.251 390.348 83.776 C 381.461 71.919 367.361 64.981 352.229 65.284 Z" style="color: rgb(0, 0, 0); stroke: rgb(216, 188, 0); fill: rgb(66, 148, 247); stroke-width: 16px;"/>
</svg>