<?xml version="1.0" encoding="utf-8"?>
<svg viewBox="0 0 500 500" xmlns="http://www.w3.org/2000/svg">
  <polyline style="fill: rgb(66, 148, 247); stroke-width: 10px; stroke: rgba(216, 187, 0, 0);" points="1.117 518.497 230.745 237.395 246.966 237.515 486.135 519.929 5.774 518.628"/>
  <polyline style="stroke: rgb(216, 188, 0); fill: rgb(216, 188, 0);" points="238.746 238.385 238.322 242.354 239.691 242.368 239.485 238.36"/>
  <polyline style="fill: rgb(216, 188, 0); stroke: rgb(216, 188, 0);" points="-2.9739999771118164 516.364990234375 27.18600082397461 516.9089965820312 231.80099487304688 237.3730010986328 -4.176000118255615 516.7949829101562"/>
  <polyline style="fill: rgb(216, 188, 0); stroke: rgb(216, 188, 0);" points="247.25900268554688 238.67300415039062 473.65899658203125 523.655029296875 500.9460144042969 521.5579833984375 248.19200134277344 237.05799865722656"/>
  <polyline style="stroke: rgb(216, 188, 0); fill: rgb(216, 188, 0);" points="237.998 249.86 237.143 257.864 239.905 257.892 239.488 249.809"/>
  <polyline style="stroke: rgb(216, 188, 0); fill: rgb(216, 188, 0);" points="237.04 272.6 235.835 285.545 240.274 285.59 239.761 272.579"/>
  <polyline style="stroke: rgb(216, 188, 0); fill: rgb(216, 188, 0);" points="235.242 315.725 232.1 345.17 242.257 345.275 240.753 315.765"/>
  <polyline style="stroke: rgb(216, 188, 0); fill: rgb(216, 188, 0);" points="229.122 389.984 220.184 473.73 249.073 474.027 244.71 390.105"/>
</svg>