<?xml version="1.0" encoding="utf-8"?>
<svg viewBox="0 0 500 500" xmlns="http://www.w3.org/2000/svg" xmlns:bx="https://boxy-svg.com">
  <defs>
    <bx:guide x="436.081" y="-4.922" angle="90"/>
  </defs>
  <path d="M 300.698 580.938 L 318.597 613.161 L 363.982 625.869 L 318.597 638.577 L 300.698 670.8 L 282.799 638.577 L 237.414 625.869 L 282.799 613.161 Z" style="fill: rgb(216, 188, 0); stroke: rgb(66, 148, 247); stroke-width: 7px;" transform="matrix(0.233723, 0.972303, -0.972303, 0.233723, 679.052255, -105.680245)" bx:shape="star 300.698 625.869 63.284 44.931 0.4 4 1@5be76ed8"/>
  <path d="M 300.698 529.452 L 327.969 598.598 L 397.115 625.869 L 327.969 653.14 L 300.698 722.286 L 273.427 653.14 L 204.281 625.869 L 273.427 598.598 Z" style="fill: rgb(216, 188, 0); stroke: rgb(66, 148, 247); stroke-width: 7px;" transform="matrix(0.233723, 0.972303, -0.972303, 0.233723, 714.763437, -282.970474)" bx:shape="star 300.698 625.869 96.417 96.417 0.4 4 1@17175839"/>
  <path d="M 300.698 571.371 L 319.456 610.455 L 367.016 625.869 L 319.456 641.283 L 300.698 680.367 L 281.94 641.283 L 234.38 625.869 L 281.94 610.455 Z" style="fill: rgb(216, 188, 0); stroke: rgb(66, 148, 247); stroke-width: 7px;" transform="matrix(0.233723, 0.972303, -0.972303, 0.233723, 894.243438, -263.513382)" bx:shape="star 300.698 625.869 66.318 54.498 0.4 4 1@34229cc9"/>
  <path d="M 300.698 529.452 L 327.969 598.598 L 397.115 625.869 L 327.969 653.14 L 300.698 722.286 L 273.427 653.14 L 204.281 625.869 L 273.427 598.598 Z" style="fill: rgb(216, 188, 0); stroke: rgb(66, 148, 247); stroke-width: 7px;" transform="matrix(0.233723, 0.972303, -0.972303, 0.233723, 873.440195, -56.433724)" bx:shape="star 300.698 625.869 96.417 96.417 0.4 4 1@17175839"/>
</svg>