<?xml version="1.0" encoding="utf-8"?>
<svg viewBox="0 0 500 500" xmlns="http://www.w3.org/2000/svg" xmlns:bx="https://boxy-svg.com">
  <g transform="matrix(1.030978, 0, 0, 1.030978, -128.42157, 0.160902)" style="">
    <rect x="151.331" y="24.382" width="197.968" height="154.624" style="fill: rgb(66, 148, 247); stroke: rgb(216, 188, 0); stroke-width: 16px;" rx="11.534" ry="11.534"/>
    <rect x="159.436" y="28.586" width="182.299" height="36.631" style="fill: rgb(42, 93, 156);" rx="4.149" ry="4.149"/>
    <line style="fill: rgb(66, 148, 247); stroke: rgb(216, 188, 0); stroke-width: 16px;" x1="171.257" y1="46.475" x2="297.719" y2="46.475"/>
    <line style="fill: rgb(66, 148, 247); stroke: rgb(216, 188, 0); stroke-width: 16px;" x1="171.088" y1="86.985" x2="279.686" y2="86.985"/>
    <line style="fill: rgb(66, 148, 247); stroke: rgb(216, 188, 0); stroke-width: 16px;" x1="171.088" y1="115.302" x2="297.55" y2="115.302"/>
    <line style="fill: rgb(66, 148, 247); stroke: rgb(216, 188, 0); stroke-width: 16px;" x1="171.345" y1="144.765" x2="269.872" y2="144.765"/>
  </g>
  <path d="M 156.939 217.235 H 213.188 L 213.188 200.351 L 258.214 222.864 L 213.188 245.377 L 213.188 228.493 H 156.939 V 217.235 Z" style="stroke: rgb(160, 160, 160); fill: rgb(128, 128, 128);" transform="matrix(0.275002, -0.961444, 0.961444, 0.275002, 57.147465, 393.161377)" bx:shape="arrow 156.939 200.351 101.275 45.026 11.258 45.026 0 1@25c15b73"/>
  <g transform="matrix(1.030978, 0, 0, 1.030978, 4.40727, 295.009796)" style="">
    <rect x="151.331" y="24.382" width="197.968" height="154.624" style="fill: rgb(66, 148, 247); stroke: rgb(216, 188, 0); stroke-width: 16px;" rx="11.534" ry="11.534"/>
    <rect x="159.436" y="28.586" width="182.299" height="36.631" style="fill: rgb(42, 93, 156);" rx="4.149" ry="4.149"/>
    <line style="fill: rgb(66, 148, 247); stroke: rgb(216, 188, 0); stroke-width: 16px;" x1="171.257" y1="46.475" x2="297.719" y2="46.475"/>
    <line style="fill: rgb(66, 148, 247); stroke: rgb(216, 188, 0); stroke-width: 16px;" x1="171.088" y1="86.985" x2="279.686" y2="86.985"/>
    <line style="fill: rgb(66, 148, 247); stroke: rgb(216, 188, 0); stroke-width: 16px;" x1="171.088" y1="115.302" x2="297.55" y2="115.302"/>
    <line style="fill: rgb(66, 148, 247); stroke: rgb(216, 188, 0); stroke-width: 16px;" x1="171.345" y1="144.765" x2="269.872" y2="144.765"/>
  </g>
  <g transform="matrix(1.030978, 0, 0, 1.030978, 115.903152, 0.160902)" style="">
    <rect x="151.331" y="24.382" width="197.968" height="154.624" style="fill: rgb(66, 148, 247); stroke: rgb(216, 188, 0); stroke-width: 16px;" rx="11.534" ry="11.534"/>
    <rect x="159.436" y="28.586" width="182.299" height="36.631" style="fill: rgb(42, 93, 156);" rx="4.149" ry="4.149"/>
    <line style="fill: rgb(66, 148, 247); stroke: rgb(216, 188, 0); stroke-width: 16px;" x1="171.257" y1="46.475" x2="297.719" y2="46.475"/>
    <line style="fill: rgb(66, 148, 247); stroke: rgb(216, 188, 0); stroke-width: 16px;" x1="171.088" y1="86.985" x2="279.686" y2="86.985"/>
    <line style="fill: rgb(66, 148, 247); stroke: rgb(216, 188, 0); stroke-width: 16px;" x1="171.088" y1="115.302" x2="297.55" y2="115.302"/>
    <line style="fill: rgb(66, 148, 247); stroke: rgb(216, 188, 0); stroke-width: 16px;" x1="171.345" y1="144.765" x2="269.872" y2="144.765"/>
  </g>
  <path d="M 156.939 217.235 H 213.188 L 213.188 200.351 L 258.214 222.864 L 213.188 245.377 L 213.188 228.493 H 156.939 V 217.235 Z" style="stroke: rgb(160, 160, 160); fill: rgb(128, 128, 128);" transform="matrix(-0.358163, -0.933659, 0.933659, -0.358163, 57.973251, 528.968811)" bx:shape="arrow 156.939 200.351 101.275 45.026 11.258 45.026 0 1@25c15b73"/>
</svg>