<?xml version="1.0" encoding="utf-8"?>
<svg viewBox="0 0 500 500" xmlns="http://www.w3.org/2000/svg">
  <path d="M 13.294 240.286 L 378.162 240.286 L 378.162 452.139 L 337.319 452.139 C 334.904 427.35 314.006 407.975 288.582 407.975 C 263.158 407.975 242.259 427.35 239.844 452.139 L 157.96 452.139 C 155.157 427.757 134.445 408.826 109.314 408.826 C 84.182 408.826 63.471 427.757 60.667 452.139 L 13.294 452.139 Z" style="fill: rgb(66, 148, 247); stroke: rgb(216, 188, 0); stroke-width: 12px;"/>
  <path style="fill: rgb(66, 148, 247); paint-order: fill; stroke: rgb(216, 188, 0); stroke-width: 11px;" d="M 387.486 279.673 L 388.267 432.806 L 485.615 432.489 L 486.551 310.389 C 489.502 293.505 445.022 245.135 421.974 249.158 C 401.678 252.699 382.446 263.828 387.486 279.673 Z"/>
  <path style="stroke: rgb(0, 0, 0); fill: rgb(216, 188, 0); stroke-width: 0px;" d="M 412.062 278.505 L 412.649 328.934 L 465.017 330.075 C 466.835 329.206 463.557 280.765 449.488 280.433 C 439.54 275.449 412.135 278.171 412.062 278.505 Z"/>
  <circle style="fill: rgb(66, 148, 247); stroke: rgb(216, 188, 0); stroke-width: 11px;" cx="109.033" cy="458.615" r="35.931"/>
  <circle style="fill: rgb(66, 148, 247); stroke: rgb(216, 188, 0); stroke-width: 11px;" cx="288.018" cy="458.439" r="35.931"/>
</svg>