<?xml version="1.0" encoding="utf-8"?>
<svg id="svg2" viewBox="0 0 500 500" version="1.1" xmlns="http://www.w3.org/2000/svg">
  <circle id="circle4" style="fill: rgba(66, 148, 247, 0); stroke: rgb(0, 150, 255); stroke-width: 24px;" cy="250" cx="250" r="237.639"/>
  <path id="path6" style="fill: rgb(0, 150, 255);" d="M 36.734 250 C 43.046 293.803 57.092 337.216 78.171 376.131 C 89.016 396.16 75.528 330.135 68.42 308.495 C 61.496 287.429 33.574 228.05 36.734 250 Z M 82.432 117.774 C 74.384 123.014 102.095 115.784 110.462 111.069 C 141.092 93.82 168.475 71.325 198.21 52.574 C 214.748 42.142 150.613 66.545 150.072 86.089 C 149.545 105.027 231.718 55.63 231.721 55.624 C 235.397 50.201 228.019 36.043 221.97 38.558 C 172.593 59.119 127.272 88.617 82.432 117.774 Z M 133.62 289.606 C 150.967 299.541 181.626 278.885 193.331 295.089 C 217.944 329.154 204.275 380.76 225.629 416.957 C 232.337 428.325 254.154 424.131 265.232 416.957 C 285.098 404.095 300.095 383.456 310.324 362.118 C 315.252 351.836 303.521 338.528 307.884 327.997 C 316.989 306.03 343.997 292.803 348.714 269.499 C 350.783 259.26 326.471 283.249 318.245 276.81 C 298.901 261.669 288.652 237.089 278.639 214.66 C 277.147 211.316 285.209 205.957 287.78 208.564 C 303.54 224.525 305.15 257.446 326.776 263.407 C 343.154 267.918 365.331 246.879 365.164 229.889 C 365.006 213.643 312.236 209.003 326.17 200.646 C 346.268 188.581 376.048 198.725 395.632 211.61 C 411.488 222.049 403.462 270.934 420.612 262.797 C 441.428 252.918 413.183 208.413 431.583 194.548 C 444.357 184.925 472.963 243.345 462.655 231.108 C 410.11 168.709 370.078 93.03 304.842 44.047 C 290.134 33.001 291.914 81.072 276.813 91.575 C 269.862 96.407 263.203 77.266 254.875 78.778 C 238.935 81.663 222.246 89.968 212.832 103.148 C 208.908 108.643 221.072 119.362 227.455 117.164 C 238.498 113.365 238.924 86.663 250 90.355 C 260.494 93.853 254.607 116.65 245.734 123.256 C 229.855 135.089 205.6 127.876 187.849 136.666 C 182.636 139.247 189.249 150.856 184.193 153.725 C 177.344 157.61 144.711 131.873 157.384 170.787 C 159.151 176.224 168.456 177.604 173.832 175.659 C 186.761 170.987 194.236 153.305 207.954 152.506 C 217 151.981 223.577 163.955 226.236 172.617 C 227.37 176.299 216.901 172.778 215.269 176.27 C 214.049 178.889 219.265 182.754 221.97 181.755 C 226.701 180.004 232.406 175.177 231.721 170.178 C 230.633 162.246 211.485 145.643 217.704 150.679 C 228.102 159.092 231.249 182.25 244.514 180.535 C 259.157 178.64 255.934 149.787 269.501 143.978 C 279.622 139.639 291.176 150.135 299.963 156.771 C 302.222 158.476 299.642 163.928 296.92 164.695 C 285.34 167.948 271.902 162.732 260.971 167.738 C 256.904 169.597 257.065 178.977 260.971 181.145 C 268.977 185.594 282.688 175.8 288.39 182.974 C 293.268 189.115 287.701 205.079 279.859 204.909 C 253.655 204.338 230.478 186.902 204.911 181.145 C 191.413 178.106 174.56 170.43 163.476 178.709 C 140.357 195.971 120.613 282.158 133.62 289.606 Z M 172.613 123.256 C 172.613 131.634 190.289 134.375 196.99 129.352 C 203.488 124.476 204.868 106.948 196.99 104.977 C 187.138 102.516 172.613 113.103 172.613 123.256 Z M 307.884 147.02 C 307.199 142.437 316.728 137.115 320.075 140.319 C 329.196 149.049 334.652 161.954 336.524 174.439 C 337.081 178.148 328.265 179.469 325.561 176.879 C 317.203 168.882 309.603 158.459 307.884 147.02 Z M 314.59 390.147 C 315.275 394.007 323.157 397.511 325.561 394.41 C 334.914 382.328 346.514 367.413 343.839 352.367 C 342.242 343.377 326.268 359.774 320.682 366.991 C 315.8 373.301 313.19 382.288 314.59 390.147 Z"/>
</svg>