<?xml version="1.0" encoding="UTF-8" standalone="no"?><svg xmlns="http://www.w3.org/2000/svg" xmlns:xlink="http://www.w3.org/1999/xlink" contentScriptType="application/ecmascript" contentStyleType="text/css" height="108.3333px" preserveAspectRatio="none" style="width:371px;height:108px;background:#333333;" version="1.1" viewBox="0 0 371 108" width="371.875px" zoomAndPan="magnify"><defs/><g><rect fill="#48494B" height="41.2028" rx="8.3333" ry="8.3333" style="stroke:#545454;stroke-width:1.0416666666666667;" width="359.375" x="2.0833" y="2.0833"/><text fill="#C0C0C0" font-family="Open Sans,Avenir,Nunito,Arial,Helvetica,SansSerif" font-size="20.8333" lengthAdjust="spacing" textLength="336.4583" x="13.5417" y="30.5583">com.telenav.third.party.protostuff</text><rect codeLine="7" fill="#282828" height="48.055" id="Unused" rx="8.3333" ry="8.3333" style="stroke:#5E5E5E;stroke-width:1.0416666666666667;" width="86.4583" x="139.0625" y="53.7028"/><rect fill="#1B1B1A" height="31.3883" rx="8.3333" ry="8.3333" style="stroke:#1B1B1A;stroke-width:1.0416666666666667;" width="86.4583" x="139.0625" y="53.7028"/><rect fill="#1B1B1A" height="8.3333" style="stroke:#1B1B1A;stroke-width:1.0416666666666667;" width="86.4583" x="139.0625" y="76.7578"/><rect codeLine="7" fill="none" height="48.055" id="Unused" rx="8.3333" ry="8.3333" style="stroke:#5E5E5E;stroke-width:1.0416666666666667;" width="86.4583" x="139.0625" y="53.7028"/><ellipse cx="153.6458" cy="69.397" fill="#0066CF" rx="10.4167" ry="10.4167" style="stroke:#0086EF;stroke-width:1.0416666666666667;"/><path d="M155.5562,73.822 Q155.129,74.0417 154.659,74.1516 Q154.189,74.2615 153.6702,74.2615 Q151.827,74.2615 150.8565,73.0469 Q149.8861,71.8323 149.8861,69.5374 Q149.8861,67.2363 150.8565,66.0217 Q151.827,64.8071 153.6702,64.8071 Q154.189,64.8071 154.6651,64.917 Q155.1412,65.0269 155.5562,65.2466 L155.5562,67.2485 Q155.0924,66.8213 154.656,66.6229 Q154.2196,66.4246 153.7557,66.4246 Q152.7669,66.4246 152.2634,67.2089 Q151.7598,67.9932 151.7598,69.5374 Q151.7598,71.0754 152.2634,71.8597 Q152.7669,72.644 153.7557,72.644 Q154.2196,72.644 154.656,72.4457 Q155.0924,72.2473 155.5562,71.8201 Z " fill="#000000"/><text fill="#D8BC00" font-family="Open Sans,Avenir,Nunito,Arial,Helvetica,SansSerif" font-size="12.5" font-weight="bold" lengthAdjust="spacing" textLength="48.9583" x="170.3125" y="74.1211">Unused</text><line style="stroke:#5E5E5E;stroke-width:1.0416666666666667;" x1="140.1042" x2="224.4792" y1="85.0911" y2="85.0911"/><line style="stroke:#5E5E5E;stroke-width:1.0416666666666667;" x1="140.1042" x2="224.4792" y1="93.4245" y2="93.4245"/></g></svg>
