<?xml version="1.0" encoding="UTF-8" standalone="no"?><svg xmlns="http://www.w3.org/2000/svg" xmlns:xlink="http://www.w3.org/1999/xlink" contentScriptType="application/ecmascript" contentStyleType="text/css" height="108.3333px" preserveAspectRatio="none" style="width:392px;height:108px;background:#333333;" version="1.1" viewBox="0 0 392 108" width="392.7083px" zoomAndPan="magnify"><defs/><g><rect fill="#48494B" height="41.2028" rx="8.3333" ry="8.3333" style="stroke:#545454;stroke-width:1.0416666666666667;" width="380.2083" x="2.0833" y="2.0833"/><text fill="#C0C0C0" font-family="Open Sans,Avenir,Nunito,Arial,Helvetica,SansSerif" font-size="20.8333" lengthAdjust="spacing" textLength="357.2917" x="13.5417" y="30.5583">com.telenav.third.party.prometheus</text><rect codeLine="7" fill="#282828" height="48.055" id="Unused" rx="8.3333" ry="8.3333" style="stroke:#5E5E5E;stroke-width:1.0416666666666667;" width="86.4583" x="149.4792" y="53.7028"/><rect fill="#1B1B1A" height="31.3883" rx="8.3333" ry="8.3333" style="stroke:#1B1B1A;stroke-width:1.0416666666666667;" width="86.4583" x="149.4792" y="53.7028"/><rect fill="#1B1B1A" height="8.3333" style="stroke:#1B1B1A;stroke-width:1.0416666666666667;" width="86.4583" x="149.4792" y="76.7578"/><rect codeLine="7" fill="none" height="48.055" id="Unused" rx="8.3333" ry="8.3333" style="stroke:#5E5E5E;stroke-width:1.0416666666666667;" width="86.4583" x="149.4792" y="53.7028"/><ellipse cx="164.0625" cy="69.397" fill="#0066CF" rx="10.4167" ry="10.4167" style="stroke:#0086EF;stroke-width:1.0416666666666667;"/><path d="M165.9729,73.822 Q165.5457,74.0417 165.0757,74.1516 Q164.6057,74.2615 164.0869,74.2615 Q162.2437,74.2615 161.2732,73.0469 Q160.3027,71.8323 160.3027,69.5374 Q160.3027,67.2363 161.2732,66.0217 Q162.2437,64.8071 164.0869,64.8071 Q164.6057,64.8071 165.0818,64.917 Q165.5579,65.0269 165.9729,65.2466 L165.9729,67.2485 Q165.509,66.8213 165.0726,66.6229 Q164.6362,66.4246 164.1724,66.4246 Q163.1836,66.4246 162.6801,67.2089 Q162.1765,67.9932 162.1765,69.5374 Q162.1765,71.0754 162.6801,71.8597 Q163.1836,72.644 164.1724,72.644 Q164.6362,72.644 165.0726,72.4457 Q165.509,72.2473 165.9729,71.8201 Z " fill="#000000"/><text fill="#D8BC00" font-family="Open Sans,Avenir,Nunito,Arial,Helvetica,SansSerif" font-size="12.5" font-weight="bold" lengthAdjust="spacing" textLength="48.9583" x="180.7292" y="74.1211">Unused</text><line style="stroke:#5E5E5E;stroke-width:1.0416666666666667;" x1="150.5208" x2="234.8958" y1="85.0911" y2="85.0911"/><line style="stroke:#5E5E5E;stroke-width:1.0416666666666667;" x1="150.5208" x2="234.8958" y1="93.4245" y2="93.4245"/></g></svg>
