<?xml version="1.0" encoding="utf-8"?>
<svg id="svg6634" viewBox="0 0 41.579 44.261" version="1.1" xmlns="http://www.w3.org/2000/svg">
  <g>
    <g style="" transform="matrix(0.981899, 0, 0, 0.981899, 0.25917, 0.797468)">
      <path id="rect5531" style="color: rgb(0, 0, 0); fill: rgb(66, 148, 247);" d="M 7.71 34.91 C 7.711 37.61 7.71 40.56 7.71 43.131 C 7.71 43.771 9.204 44.264 11.041 44.264 C 12.878 44.264 14.372 43.771 14.372 43.131 L 14.409 34.91 L 7.71 34.91 Z"/>
      <path id="path5522" style="stroke-linejoin: round; color: rgb(0, 0, 0); fill: rgb(66, 148, 247); stroke: rgb(216, 188, 0);" d="M 14.378 34.797 C 14.378 35.437 12.889 35.955 11.052 35.955 C 9.215 35.955 7.726 35.437 7.726 34.797 C 7.726 34.157 9.215 33.638 11.052 33.638 C 12.889 33.638 14.378 34.157 14.378 34.797 Z"/>
      <path id="path5535" style="stroke-linejoin: round; color: rgb(0, 0, 0); fill: rgb(66, 148, 247); stroke: rgb(201, 175, 4);" d="M 39.086 27.091 L 29.446 31.178 C 25.023 30.654 2.804 29.276 3.74 24.101 C 5.262 21.63 10.052 23.203 14.92 23.938 C 21.487 24.929 30.208 26.362 39.086 27.091 Z"/>
      <path id="path6286-2" style="fill: rgb(66, 148, 247); stroke-width: 0px; stroke: rgb(187, 218, 85);" d="M 9.01 23.45 L 13.001 24.436 L 12.96 26.388 C 12.596 27.723 9.258 27.159 9.03 26.325 L 9.01 23.45 L 9.01 23.45 Z"/>
      <g id="g5394" transform="matrix(0.389539, 0, 0, 0.376564, 107.292496, -169.062683)">
        <path id="path7702" style="stroke-linejoin: bevel; color: rgb(0, 0, 0); fill: rgb(216, 188, 0); stroke-width: 2.61061px; stroke: rgb(50, 114, 193);" d="m-232.69 474.34 20.03-9.7302-0.0154 36.811-20.014 15.659v-42.74h-0.00001z"/>
        <path id="path7704" style="stroke-linejoin: bevel; color: rgb(0, 0, 0); fill: rgb(216, 188, 0); stroke-width: 2.61061px; stroke: rgb(47, 105, 176);" d="M -232.768 474.021 L -274.554 471.137 L -273.153 510.724 L -232.69 517.03 L -232.69 473.94 L -232.768 474.021 Z"/>
        <path id="path8482" style="fill: rgb(216, 188, 0); stroke: rgb(46, 103, 172);" d="M -272.86 510.45 L -274.059 471.662 L -272.86 510.449 L -272.86 510.45 Z"/>
        <path id="path7708" style="stroke-linejoin: bevel; stroke-width: 1px; fill: rgb(216, 188, 0); stroke: rgb(44, 100, 168);" d="m-274.95 471.14 42.182 3.662 20.281-10.46c-5.1338-0.0253-16.049 0.0255-36.915-0.94271l-25.548 7.7408z"/>
      </g>
      <path id="path5693" style="stroke-linejoin: round; color: rgb(0, 0, 0); stroke-width: 0.2; fill: rgb(66, 148, 247); stroke: rgb(216, 188, 0);" d="M 20.06 41.695 C 20.069 42.178 19.828 42.57 19.523 42.57 C 19.218 42.57 18.964 42.178 18.957 41.695 C 18.948 41.213 19.189 40.821 19.494 40.821 C 19.799 40.821 20.053 41.213 20.06 41.695 Z" transform="matrix(0.95943, 0.281948, -0.281948, 0.95943, 12.547421, -3.808782)"/>
      <path id="path5426" style="fill: rgb(66, 148, 247);" d="M 4.545 6.936 L 27.164 8.05 C 29.486 8.188 30.724 9.05 30.607 10.713 L 30.764 28.516 C 30.925 30.739 30.668 31.243 28.062 30.796 L 6.76 27.849 C 4.921 27.05 3.336 25.968 3.382 25.303 C 2.331 28.419 4.291 30.608 7.225 31.268 L 30.185 36.614 C 35.79 37.867 41.068 34.606 40.893 29.118 L 41.568 6.581 C 41.804 1.035 37.726 0.071 32.824 -0.018 L 7.959 0.742 C 4.553 0.994 2.573 2.104 2.931 5.926 C 2.959 6.568 3.59 6.96 4.544 6.936 L 4.545 6.936 Z"/>
      <path id="path5802" style="stroke-miterlimit: 2; fill: none; stroke: rgb(201, 175, 4);" d="M 7.07 27.48 L 28.988 30.778 C 28.988 30.778 31.726 30.283 31.429 27.647 L 31.287 11.157 C 31.361 8.92 30.475 8.108 28.877 8.033 L 13.69 7.29"/>
      <path id="path5971" style="fill: rgb(91, 110, 126); stroke-linecap: round; stroke: rgb(201, 175, 4);" d="M 14.51 7.33 L 3.516 6.507"/>
      <path id="path6233" style="fill: rgb(216, 188, 0);" d="M 3.922 36.42 C 4.058 36.443 8.069 37.651 8.069 37.651 L 8.024 39.339 L 3.499 37.875 C 3.277 37.413 3.437 36.826 3.817 36.463 L 3.922 36.42 Z"/>
      <path id="path6233-2" style="fill: rgb(216, 188, 0);" d="M 19.345 40.75 C 18.66 41.253 18.802 42.047 18.902 42.301 L 12.64 40.459 C 12.315 39.998 12.56 39.232 13.006 38.943 L 13.557 39.036 C 15.591 39.647 17.324 40.095 19.345 40.75 Z"/>
      <path id="path6286" style="fill: rgb(66, 148, 247);" d="M 9.068 31.214 L 13.059 32.256 L 13.018 34.318 C 12.654 35.729 9.316 35.133 9.088 34.253 L 9.068 31.214 L 9.068 31.214 Z"/>
    </g>
  </g>
</svg>