<?xml version="1.0" encoding="utf-8"?>
<svg id="svg8" version="1.1" viewBox="0 0 210 297" height="297mm" width="210mm" xmlns="http://www.w3.org/2000/svg">
  <g id="layer2" style="" transform="matrix(1.140011, 0, 0, 1.140011, -13.203411, -21.306522)">
    <g transform="translate(7.4212703,0.63486794)" id="g4546">
      <path style="color: rgb(0, 0, 0); font: medium sans-serif; font-feature-settings: normal; text-indent: 0px; text-align: start; text-decoration: none solid rgb(0, 0, 0); letter-spacing: normal; word-spacing: normal; text-transform: none; writing-mode: lr-tb; direction: ltr; text-orientation: mixed; dominant-baseline: auto; baseline-shift: baseline; text-anchor: start; white-space: normal; clip-rule: nonzero; display: inline; overflow: visible; visibility: visible; opacity: 1; isolation: auto; mix-blend-mode: normal; color-interpolation: srgb; color-interpolation-filters: linearrgb; vector-effect: none; fill-opacity: 1; fill-rule: nonzero; stroke-linecap: round; stroke-linejoin: miter; stroke-miterlimit: 4; stroke-dasharray: none; stroke-dashoffset: 0; stroke-opacity: 1; color-rendering: auto; image-rendering: auto; shape-rendering: auto; text-rendering: auto; fill: rgb(66, 148, 247); stroke: rgb(216, 188, 0); stroke-width: 0px; paint-order: stroke;" d="M 89.176599,22.135772 C 21.494653,22.131849 13.561875,94.829155 26.404573,114.76982 37.388776,131.82483 10.502558,33.793682 94.201695,32.976203 c 36.887695,-0.360278 68.485745,32.352548 69.153895,68.521087 0.57304,31.02016 -21.88168,62.23587 -41.39344,84.15003 -11.16921,12.54443 -19.66821,27.9085 -19.58819,45.00099 0.0781,16.68293 -11.040411,30.82302 -29.044124,31.49648 -19.217158,0.71886 -32.998545,-17.63849 -29.069439,-33.54443 12.103395,-48.99736 -33.137181,13.02059 8.514509,39.62961 19.091208,12.19634 52.173044,2.97255 57.357664,-21.33921 4.06046,-19.04029 5.29349,-39.15526 20.15834,-54.23522 24.14403,-24.49346 46.99103,-63.40021 43.16898,-99.43584 -4.29026,-40.450182 -36.3569,-71.081141 -84.283291,-71.083928 z" id="path4497-8"/>
      <path style="color: rgb(0, 0, 0); font: medium sans-serif; font-feature-settings: normal; text-indent: 0px; text-align: start; text-decoration: none solid rgb(0, 0, 0); letter-spacing: normal; word-spacing: normal; text-transform: none; writing-mode: lr-tb; direction: ltr; text-orientation: mixed; dominant-baseline: auto; baseline-shift: baseline; text-anchor: start; white-space: normal; clip-rule: nonzero; display: inline; overflow: visible; visibility: visible; opacity: 1; isolation: auto; mix-blend-mode: normal; color-interpolation: srgb; color-interpolation-filters: linearrgb; vector-effect: none; fill-opacity: 1; fill-rule: nonzero; stroke-linecap: round; stroke-linejoin: miter; stroke-miterlimit: 4; stroke-dasharray: none; stroke-dashoffset: 0; stroke-opacity: 1; color-rendering: auto; image-rendering: auto; shape-rendering: auto; text-rendering: auto; fill: rgb(66, 148, 247); stroke: rgb(216, 188, 0); stroke-width: 0px; paint-order: stroke;" d="M 78.59 51.118 C 55.488 59.583 26.694 93.007 56.066 123.782 C 62.04 130.041 110.943 133.281 74.52 163.632 C 53.166 181.426 62.157 210.451 64.644 198.011 C 66.211 190.171 69.335 182.318 75.946 177.219 C 112.5 149.017 96.969 113.4 68.972 112.367 C 44.966 111.482 77.43 67.369 81.478 65.654 C 95.498 59.711 114.145 63.196 122.836 76.506 C 131.482 89.747 134.895 106.723 131.298 121.89 C 121.953 161.294 92.612 171.284 93.873 181.257 C 96.081 198.726 98.173 181.675 115.606 166.551 C 129.183 154.773 137.48 136.02 140.076 128.21 C 157.261 76.5 116.11 37.37 78.59 51.118 Z" id="path4499-4"/>
    </g>
  </g>
</svg>