<?xml version="1.0" encoding="utf-8"?>
<svg viewBox="0 0 500 500" xmlns="http://www.w3.org/2000/svg">
  <g>
    <g style="" transform="matrix(0.859771, 0.218051, -0.218051, 0.859771, 59.158207, -16.657591)">
      <rect x="61.41" y="59.22" width="330.654" height="433.596" style="stroke: rgb(216, 188, 0); stroke-width: 16px; fill: rgb(66, 148, 247);" rx="23.079" ry="23.079"/>
      <path style="fill: rgba(216, 216, 216, 0); stroke: rgb(216, 188, 0); stroke-width: 48px;" d="M 184.89 59.172 C 184.89 51.346 184.744 44.061 184.921 38.127 C 185.332 24.357 192.45 12.558 206.353 11.932 C 213.019 11.631 225.072 11.73 229.782 11.73 C 235.336 11.73 242.345 11.886 249.528 11.886 C 265.757 11.886 274.284 25.995 274.284 36.517 C 274.284 44.441 274.291 51.259 274.291 59.155"/>
      <path style="fill: rgba(216, 216, 216, 0); stroke: rgb(66, 148, 247); stroke-width: 25px;" d="M 184.779 52.223 C 184.779 44.398 184.633 43.961 184.811 38.026 C 185.223 24.257 192.341 12.458 206.243 11.831 C 212.909 11.531 224.962 11.63 229.672 11.63 C 235.226 11.63 242.235 11.786 249.418 11.786 C 265.647 11.786 274.174 25.894 274.174 36.416 C 274.174 44.341 274.181 44.414 274.181 52.31"/>
      <polygon style="fill: rgb(66, 148, 247); stroke: rgb(216, 188, 0); stroke-linejoin: round; stroke-width: 20.2933px;" points="172.446 61.644 172.474 94.838 145.684 126.181 322.55 126.181 287.768 95.234 287.387 62.556 173.213 61.725"/>
    </g>
    <line style="stroke: rgb(216, 188, 0); stroke-width: 16px;" x1="86.634" y1="202.777" x2="321.261" y2="202.777" transform="matrix(0.969312, 0.245832, -0.245832, 0.969312, 56.107737, -43.914101)"/>
    <line style="stroke: rgb(216, 188, 0); stroke-width: 16px;" x1="96.617" y1="163.414" x2="331.245" y2="163.414" transform="matrix(0.969312, 0.245832, -0.245832, 0.969312, 46.737421, -47.576319)"/>
    <line style="stroke: rgb(216, 188, 0); stroke-width: 16px;" x1="66.981" y1="279.265" x2="301.608" y2="279.265" transform="matrix(0.969312, 0.245832, -0.245832, 0.969312, 74.307843, -36.735534)"/>
    <line style="stroke: rgb(216, 188, 0); stroke-width: 16px;" x1="76.964" y1="239.902" x2="311.592" y2="239.902" transform="matrix(0.969312, 0.245832, -0.245832, 0.969312, 64.93752, -40.397755)"/>
    <line style="stroke: rgb(216, 188, 0); stroke-width: 16px;" x1="47.186" y1="355.976" x2="281.814" y2="355.976" transform="matrix(0.969312, 0.245832, -0.245832, 0.969312, 92.55842, -29.515336)"/>
    <line style="stroke: rgb(216, 188, 0); stroke-width: 16px;" x1="57.17" y1="316.613" x2="291.798" y2="316.613" transform="matrix(0.969312, 0.245832, -0.245832, 0.969312, 83.188116, -33.177679)"/>
    <path style="fill: rgb(66, 148, 247); stroke: rgb(216, 188, 0); stroke-width: 16px;" d="M 427.422 157.46 L 481.536 157.813 L 462.806 120.892 L 453.961 113.492 L 443.586 121.2 L 427.422 157.46 Z" transform="matrix(0.96537, 0.260883, -0.260883, 0.96537, 51.12787, -113.868298)"/>
    <path style="fill: rgb(66, 148, 247); stroke: rgba(0, 0, 0, 0);" d="M 346.243 399.76 L 346.006 428.873 L 349.974 433.856 L 353.182 436.419 L 400.556 436.478 L 405.04 434.268 L 409.216 430.937 L 410.28 399.771 L 346.243 399.76 Z" transform="matrix(0.972357, 0.233498, -0.233498, 0.972357, 108.082905, -76.737719)"/>
    <path style="fill: rgb(216, 216, 216); stroke: rgb(0, 0, 0);" d="M 415.223 283.451" transform="matrix(0.96537, 0.260883, -0.260883, 0.96537, 88.326577, -98.508865)"/>
    <rect x="35.32" y="303.675" width="246.235" height="65.354" style="stroke: rgb(216, 188, 0); stroke-width: 14px; fill: rgb(66, 148, 247);" transform="matrix(0.260883, -0.96537, 0.96537, 0.260883, 48.615574, 348.947449)" rx="2.863" ry="2.863"/>
  </g>
</svg>