<?xml version="1.0" encoding="utf-8"?>
<svg viewBox="0 0 512 128" xmlns="http://www.w3.org/2000/svg">
  <defs>
    <linearGradient gradientUnits="userSpaceOnUse" x1="251.401" y1="180.487" x2="251.401" y2="237.229" id="gradient-2" gradientTransform="matrix(-0.074224, -0.372939, 9.354338, -0.264696, -1680.115207, 214.754569)">
      <stop offset="0" style="stop-color: rgba(0, 149, 255, 0)"/>
      <stop offset="1" style="stop-color: rgba(0, 89, 153, 0);"/>
    </linearGradient>
    <linearGradient gradientUnits="userSpaceOnUse" x1="251.401" y1="180.487" x2="251.401" y2="237.229" id="gradient-3" gradientTransform="matrix(0.08532, 0.371926, -9.444523, 0.384616, 2203.553058, -105.535125)">
      <stop offset="0" style="stop-color: rgb(255, 147, 0);"/>
      <stop offset="1" style="stop-color: rgb(0, 150, 255);"/>
    </linearGradient>
    <linearGradient gradientUnits="userSpaceOnUse" x1="683.952" y1="17.49" x2="683.952" y2="51.884" id="gradient-0" gradientTransform="matrix(0.000743, -0.514705, 15.447501, 0.022274, -282.006477, 448.111892)">
      <stop offset="0" style="stop-color: rgb(0, 150, 255);"/>
      <stop offset="1" style="stop-color: rgb(255, 147, 0);"/>
    </linearGradient>
    <linearGradient gradientUnits="userSpaceOnUse" x1="683.952" y1="17.49" x2="683.952" y2="51.884" id="gradient-1" gradientTransform="matrix(-0.010003, -0.514607, 15.562342, -0.302519, -253.88621, 510.980254)">
      <stop offset="0" style="stop-color: rgb(0, 150, 255);"/>
      <stop offset="1" style="stop-color: rgb(255, 147, 0);"/>
    </linearGradient>
  </defs>
  <path style="fill: rgba(216, 216, 216, 0); stroke: url(#gradient-0); stroke-width: 32px; stroke-opacity: 0.63;" d="M -14.552 67.015 C 11.871 61.317 107.499 96.345 233.933 70.986 C 342.591 49.193 485.544 70.147 518.009 70.565"/>
  <path style="stroke-width: 32px; fill: url(#gradient-2); stroke: url(#gradient-3); stroke-opacity: 0.63;" d="M 520.531 57.3 C 481.397 58.359 430.84 70.389 391.714 71.478 C 350.312 72.631 261.139 67.617 175.817 62.17 C 82.505 56.214 -5.4 78.232 -21.984 78.741"/>
  <path style="fill: rgba(216, 216, 216, 0); stroke-width: 32px; stroke: url(#gradient-1); stroke-opacity: 0.63;" d="M -14.5 51.614 C -1.645 52.667 24.019 71.75 113.251 71.179 C 136.309 71.031 235.782 56.372 260.503 54.216 C 431.022 39.347 480.834 84.929 538.199 90.347"/>
</svg>