<?xml version="1.0" encoding="UTF-8" standalone="no"?><svg xmlns="http://www.w3.org/2000/svg" xmlns:xlink="http://www.w3.org/1999/xlink" contentScriptType="application/ecmascript" contentStyleType="text/css" height="108.3333px" preserveAspectRatio="none" style="width:317px;height:108px;background:#333333;" version="1.1" viewBox="0 0 317 108" width="317.7083px" zoomAndPan="magnify"><defs/><g><rect fill="#48494B" height="41.2028" rx="8.3333" ry="8.3333" style="stroke:#545454;stroke-width:1.0416666666666667;" width="305.2083" x="2.0833" y="2.0833"/><text fill="#C0C0C0" font-family="Open Sans,Avenir,Nunito,Arial,Helvetica,SansSerif" font-size="20.8333" lengthAdjust="spacing" textLength="282.2917" x="13.5417" y="30.5583">com.telenav.third.party.grpc</text><rect codeLine="7" fill="#282828" height="48.055" id="Unused" rx="8.3333" ry="8.3333" style="stroke:#5E5E5E;stroke-width:1.0416666666666667;" width="86.4583" x="111.9792" y="53.7028"/><rect fill="#1B1B1A" height="31.3883" rx="8.3333" ry="8.3333" style="stroke:#1B1B1A;stroke-width:1.0416666666666667;" width="86.4583" x="111.9792" y="53.7028"/><rect fill="#1B1B1A" height="8.3333" style="stroke:#1B1B1A;stroke-width:1.0416666666666667;" width="86.4583" x="111.9792" y="76.7578"/><rect codeLine="7" fill="none" height="48.055" id="Unused" rx="8.3333" ry="8.3333" style="stroke:#5E5E5E;stroke-width:1.0416666666666667;" width="86.4583" x="111.9792" y="53.7028"/><ellipse cx="126.5625" cy="69.397" fill="#0066CF" rx="10.4167" ry="10.4167" style="stroke:#0086EF;stroke-width:1.0416666666666667;"/><path d="M128.4729,73.822 Q128.0457,74.0417 127.5757,74.1516 Q127.1057,74.2615 126.5869,74.2615 Q124.7437,74.2615 123.7732,73.0469 Q122.8027,71.8323 122.8027,69.5374 Q122.8027,67.2363 123.7732,66.0217 Q124.7437,64.8071 126.5869,64.8071 Q127.1057,64.8071 127.5818,64.917 Q128.0579,65.0269 128.4729,65.2466 L128.4729,67.2485 Q128.009,66.8213 127.5726,66.6229 Q127.1362,66.4246 126.6724,66.4246 Q125.6836,66.4246 125.1801,67.2089 Q124.6765,67.9932 124.6765,69.5374 Q124.6765,71.0754 125.1801,71.8597 Q125.6836,72.644 126.6724,72.644 Q127.1362,72.644 127.5726,72.4457 Q128.009,72.2473 128.4729,71.8201 Z " fill="#000000"/><text fill="#D8BC00" font-family="Open Sans,Avenir,Nunito,Arial,Helvetica,SansSerif" font-size="12.5" font-weight="bold" lengthAdjust="spacing" textLength="48.9583" x="143.2292" y="74.1211">Unused</text><line style="stroke:#5E5E5E;stroke-width:1.0416666666666667;" x1="113.0208" x2="197.3958" y1="85.0911" y2="85.0911"/><line style="stroke:#5E5E5E;stroke-width:1.0416666666666667;" x1="113.0208" x2="197.3958" y1="93.4245" y2="93.4245"/></g></svg>
