<?xml version="1.0" encoding="UTF-8" standalone="no"?>
<!DOCTYPE svg PUBLIC "-//W3C//DTD SVG 1.1//EN" "http://www.w3.org/Graphics/SVG/1.1/DTD/svg11.dtd">
<svg version="1.1" xmlns:xl="http://www.w3.org/1999/xlink" xmlns:dc="http://purl.org/dc/elements/1.1/" xmlns="http://www.w3.org/2000/svg" viewBox="-57.94472 212.8721 964.4819 942.2988" width="964.4819" height="942.2988">
  <defs/>
  <g id="Canvas_1" stroke-dasharray="none" stroke="none" fill-opacity="1" fill="none" stroke-opacity="1">
    <title>Canvas 1</title>
    <g id="Canvas_1_Layer_1">
      <title>Layer 1</title>
      <g id="Graphic_2">
        <path d="M 285.9498 287.19347 L 311.27705 287.19347 C 315.69533 287.19347 319.27705 290.7752 319.27705 295.19347 L 319.27705 306.19347 C 319.27705 310.61175 315.69533 314.19347 311.27705 314.19347 L 285.9498 314.19347 C 281.53154 314.19347 277.9498 310.61175 277.9498 306.19347 L 277.9498 295.19347 C 277.9498 290.7752 281.53154 287.19347 285.9498 287.19347 Z" fill="#a5a5a5"/>
        <path d="M 285.9498 287.19347 L 311.27705 287.19347 C 315.69533 287.19347 319.27705 290.7752 319.27705 295.19347 L 319.27705 306.19347 C 319.27705 310.61175 315.69533 314.19347 311.27705 314.19347 L 285.9498 314.19347 C 281.53154 314.19347 277.9498 310.61175 277.9498 306.19347 L 277.9498 295.19347 C 277.9498 290.7752 281.53154 287.19347 285.9498 287.19347 Z" stroke="#212121" stroke-linecap="round" stroke-linejoin="round" stroke-width="1"/>
        <text transform="translate(282.9498 289.69347)" fill="#ebebeb">
          <tspan font-family="Avenir" font-weight="bold" font-size="16" fill="#ebebeb" x="10.92762" y="16">1</tspan>
        </text>
      </g>
      <g id="Graphic_4">
        <path d="M 27 263.24482 L 260 263.24482 C 264.41828 263.24482 268 259.6631 268 255.24482 L 268 237.3721 C 268 232.95382 264.41828 229.3721 260 229.3721 L 27 229.3721 C 22.581722 229.3721 19 232.95382 19 237.3721 L 19 255.24482 C 19 259.6631 22.581722 263.24482 27 263.24482 Z" fill="#4f8e04"/>
        <path d="M 27 263.24482 L 260 263.24482 C 264.41828 263.24482 268 259.6631 268 255.24482 L 268 237.3721 C 268 232.95382 264.41828 229.3721 260 229.3721 L 27 229.3721 C 22.581722 229.3721 19 232.95382 19 237.3721 L 19 255.24482 C 19 259.6631 22.581722 263.24482 27 263.24482 Z" stroke="#212121" stroke-linecap="round" stroke-linejoin="round" stroke-width="1"/>
        <text transform="translate(24 235.30846)" fill="white">
          <tspan font-family="Avenir" font-weight="bold" font-size="16" fill="white" x="99.796" y="16">State</tspan>
        </text>
      </g>
      <g id="Graphic_6">
        <path d="M 336.64434 368.0821 L 569.64434 368.0821 C 574.0626 368.0821 577.64434 371.6638 577.64434 376.0821 L 577.64434 387.0821 C 577.64434 391.50036 574.0626 395.0821 569.64434 395.0821 L 336.64434 395.0821 C 332.22606 395.0821 328.64434 391.50036 328.64434 387.0821 L 328.64434 376.0821 C 328.64434 371.6638 332.22606 368.0821 336.64434 368.0821 Z" fill="#0064aa"/>
        <path d="M 336.64434 368.0821 L 569.64434 368.0821 C 574.0626 368.0821 577.64434 371.6638 577.64434 376.0821 L 577.64434 387.0821 C 577.64434 391.50036 574.0626 395.0821 569.64434 395.0821 L 336.64434 395.0821 C 332.22606 395.0821 328.64434 391.50036 328.64434 387.0821 L 328.64434 376.0821 C 328.64434 371.6638 332.22606 368.0821 336.64434 368.0821 Z" stroke="#212121" stroke-linecap="round" stroke-linejoin="round" stroke-width="1"/>
        <text transform="translate(333.64434 370.5821)" fill="#ebebeb">
          <tspan font-family="Avenir" font-size="16" fill="#ebebeb" x="78.612" y="16">run(String[])</tspan>
        </text>
      </g>
      <g id="Graphic_9">
        <path d="M 26.778545 428.3581 L 259.77855 428.3581 C 264.19682 428.3581 267.77855 431.93984 267.77855 436.3581 L 267.77855 447.3581 C 267.77855 451.7764 264.19682 455.3581 259.77855 455.3581 L 26.778545 455.3581 C 22.360267 455.3581 18.778545 451.7764 18.778545 447.3581 L 18.778545 436.3581 C 18.778545 431.93984 22.360267 428.3581 26.778545 428.3581 Z" fill="#4e8f00"/>
        <path d="M 26.778545 428.3581 L 259.77855 428.3581 C 264.19682 428.3581 267.77855 431.93984 267.77855 436.3581 L 267.77855 447.3581 C 267.77855 451.7764 264.19682 455.3581 259.77855 455.3581 L 26.778545 455.3581 C 22.360267 455.3581 18.778545 451.7764 18.778545 447.3581 L 18.778545 436.3581 C 18.778545 431.93984 22.360267 428.3581 26.778545 428.3581 Z" stroke="#212121" stroke-linecap="round" stroke-linejoin="round" stroke-width="1"/>
        <text transform="translate(23.778545 430.8581)" fill="#ebebeb">
          <tspan font-family="Avenir" font-size="16" fill="#ebebeb" x="71.74" y="16">INITIALIZING</tspan>
        </text>
      </g>
      <g id="Graphic_10">
        <path d="M 336.64434 471.3406 L 569.64434 471.3406 C 574.0626 471.3406 577.64434 474.9223 577.64434 479.3406 L 577.64434 490.3406 C 577.64434 494.7589 574.0626 498.3406 569.64434 498.3406 L 336.64434 498.3406 C 332.22606 498.3406 328.64434 494.7589 328.64434 490.3406 L 328.64434 479.3406 C 328.64434 474.9223 332.22606 471.3406 336.64434 471.3406 Z" fill="#0064aa"/>
        <path d="M 336.64434 471.3406 L 569.64434 471.3406 C 574.0626 471.3406 577.64434 474.9223 577.64434 479.3406 L 577.64434 490.3406 C 577.64434 494.7589 574.0626 498.3406 569.64434 498.3406 L 336.64434 498.3406 C 332.22606 498.3406 328.64434 494.7589 328.64434 490.3406 L 328.64434 479.3406 C 328.64434 474.9223 332.22606 471.3406 336.64434 471.3406 Z" stroke="#212121" stroke-linecap="round" stroke-linejoin="round" stroke-width="1"/>
        <text transform="translate(333.64434 473.8406)" fill="#ebebeb">
          <tspan font-family="Avenir" font-size="16" fill="#ebebeb" x="34.452" y="16">onSerializationInitialize()</tspan>
        </text>
      </g>
      <g id="Graphic_11">
        <path d="M 337.0553 808.431 L 570.0553 808.431 C 574.47356 808.431 578.0553 812.0127 578.0553 816.431 L 578.0553 827.431 C 578.0553 831.8493 574.47356 835.431 570.0553 835.431 L 337.0553 835.431 C 332.637 835.431 329.0553 831.8493 329.0553 827.431 L 329.0553 816.431 C 329.0553 812.0127 332.637 808.431 337.0553 808.431 Z" fill="#0064aa"/>
        <path d="M 337.0553 808.431 L 570.0553 808.431 C 574.47356 808.431 578.0553 812.0127 578.0553 816.431 L 578.0553 827.431 C 578.0553 831.8493 574.47356 835.431 570.0553 835.431 L 337.0553 835.431 C 332.637 835.431 329.0553 831.8493 329.0553 827.431 L 329.0553 816.431 C 329.0553 812.0127 332.637 808.431 337.0553 808.431 Z" stroke="#212121" stroke-linecap="round" stroke-linejoin="round" stroke-width="1"/>
        <text transform="translate(334.0553 810.931)" fill="#ebebeb">
          <tspan font-family="Avenir" font-size="16" fill="#ebebeb" x="76.804" y="16">onRunning()</tspan>
        </text>
      </g>
      <g id="Graphic_12">
        <path d="M 337.0553 638.882 L 570.0553 638.882 C 574.47356 638.882 578.0553 642.46376 578.0553 646.882 L 578.0553 657.882 C 578.0553 662.3003 574.47356 665.882 570.0553 665.882 L 337.0553 665.882 C 332.637 665.882 329.0553 662.3003 329.0553 657.882 L 329.0553 646.882 C 329.0553 642.46376 332.637 638.882 337.0553 638.882 Z" fill="#0064aa"/>
        <path d="M 337.0553 638.882 L 570.0553 638.882 C 574.47356 638.882 578.0553 642.46376 578.0553 646.882 L 578.0553 657.882 C 578.0553 662.3003 574.47356 665.882 570.0553 665.882 L 337.0553 665.882 C 332.637 665.882 329.0553 662.3003 329.0553 657.882 L 329.0553 646.882 C 329.0553 642.46376 332.637 638.882 337.0553 638.882 Z" stroke="#212121" stroke-linecap="round" stroke-linejoin="round" stroke-width="1"/>
        <text transform="translate(334.0553 641.382)" fill="#ebebeb">
          <tspan font-family="Avenir" font-size="16" fill="#ebebeb" x="42.3" y="16">onProjectsInitializing()</tspan>
        </text>
      </g>
      <g id="Graphic_13">
        <path d="M 649.03715 677.054 L 882.0372 677.054 C 886.4554 677.054 890.0372 680.6358 890.0372 685.054 L 890.0372 696.054 C 890.0372 700.4723 886.4554 704.054 882.0372 704.054 L 649.03715 704.054 C 644.6189 704.054 641.03715 700.4723 641.03715 696.054 L 641.03715 685.054 C 641.03715 680.6358 644.6189 677.054 649.03715 677.054 Z" fill="#ca7400"/>
        <path d="M 649.03715 677.054 L 882.0372 677.054 C 886.4554 677.054 890.0372 680.6358 890.0372 685.054 L 890.0372 696.054 C 890.0372 700.4723 886.4554 704.054 882.0372 704.054 L 649.03715 704.054 C 644.6189 704.054 641.03715 700.4723 641.03715 696.054 L 641.03715 685.054 C 641.03715 680.6358 644.6189 677.054 649.03715 677.054 Z" stroke="#212121" stroke-linecap="round" stroke-linejoin="round" stroke-width="1"/>
        <text transform="translate(646.03715 679.554)" fill="#ebebeb">
          <tspan font-family="Avenir" font-size="16" fill="#ebebeb" x="60.236" y="16">Initialize Projects</tspan>
        </text>
      </g>
      <g id="Graphic_14">
        <path d="M 337.0553 714.04115 L 570.0553 714.04115 C 574.47356 714.04115 578.0553 717.6229 578.0553 722.04115 L 578.0553 733.04115 C 578.0553 737.4594 574.47356 741.04115 570.0553 741.04115 L 337.0553 741.04115 C 332.637 741.04115 329.0553 737.4594 329.0553 733.04115 L 329.0553 722.04115 C 329.0553 717.6229 332.637 714.04115 337.0553 714.04115 Z" fill="#0064aa"/>
        <path d="M 337.0553 714.04115 L 570.0553 714.04115 C 574.47356 714.04115 578.0553 717.6229 578.0553 722.04115 L 578.0553 733.04115 C 578.0553 737.4594 574.47356 741.04115 570.0553 741.04115 L 337.0553 741.04115 C 332.637 741.04115 329.0553 737.4594 329.0553 733.04115 L 329.0553 722.04115 C 329.0553 717.6229 332.637 714.04115 337.0553 714.04115 Z" stroke="#212121" stroke-linecap="round" stroke-linejoin="round" stroke-width="1"/>
        <text transform="translate(334.0553 716.54115)" fill="#ebebeb">
          <tspan font-family="Avenir" font-size="16" fill="#ebebeb" x="48.38" y="16">onProjectsInitialized</tspan>
        </text>
      </g>
      <g id="Graphic_15">
        <path d="M 646.0672 472.5255 L 879.0672 472.5255 C 883.4855 472.5255 887.0672 476.1072 887.0672 480.5255 L 887.0672 491.5255 C 887.0672 495.9438 883.4855 499.5255 879.0672 499.5255 L 646.0672 499.5255 C 641.64895 499.5255 638.0672 495.9438 638.0672 491.5255 L 638.0672 480.5255 C 638.0672 476.1072 641.64895 472.5255 646.0672 472.5255 Z" fill="#ca7400"/>
        <path d="M 646.0672 472.5255 L 879.0672 472.5255 C 883.4855 472.5255 887.0672 476.1072 887.0672 480.5255 L 887.0672 491.5255 C 887.0672 495.9438 883.4855 499.5255 879.0672 499.5255 L 646.0672 499.5255 C 641.64895 499.5255 638.0672 495.9438 638.0672 491.5255 L 638.0672 480.5255 C 638.0672 476.1072 641.64895 472.5255 646.0672 472.5255 Z" stroke="#212121" stroke-linecap="round" stroke-linejoin="round" stroke-width="1"/>
        <text transform="translate(643.0672 475.0255)" fill="#ebebeb">
          <tspan font-family="Avenir" font-size="16" fill="#ebebeb" x="51.932" y="16">Load Deployments</tspan>
        </text>
      </g>
      <g id="Graphic_18">
        <path d="M 648.2153 517.27435 L 881.2153 517.27435 C 885.6335 517.27435 889.2153 520.8561 889.2153 525.27435 L 889.2153 536.27435 C 889.2153 540.6926 885.6335 544.27435 881.2153 544.27435 L 648.2153 544.27435 C 643.797 544.27435 640.2153 540.6926 640.2153 536.27435 L 640.2153 525.27435 C 640.2153 520.8561 643.797 517.27435 648.2153 517.27435 Z" fill="#ca7400"/>
        <path d="M 648.2153 517.27435 L 881.2153 517.27435 C 885.6335 517.27435 889.2153 520.8561 889.2153 525.27435 L 889.2153 536.27435 C 889.2153 540.6926 885.6335 544.27435 881.2153 544.27435 L 648.2153 544.27435 C 643.797 544.27435 640.2153 540.6926 640.2153 536.27435 L 640.2153 525.27435 C 640.2153 520.8561 643.797 517.27435 648.2153 517.27435 Z" stroke="#212121" stroke-linecap="round" stroke-linejoin="round" stroke-width="1"/>
        <text transform="translate(645.2153 519.77435)" fill="#ebebeb">
          <tspan font-family="Avenir" font-size="16" fill="#ebebeb" x="43.484" y="16">Parse Command Line</tspan>
        </text>
      </g>
      <g id="Graphic_20">
        <path d="M 337.1628 850.7858 L 570.1628 850.7858 C 574.5811 850.7858 578.1628 854.3675 578.1628 858.7858 L 578.1628 869.7858 C 578.1628 874.2041 574.5811 877.7858 570.1628 877.7858 L 337.1628 877.7858 C 332.7445 877.7858 329.1628 874.2041 329.1628 869.7858 L 329.1628 858.7858 C 329.1628 854.3675 332.7445 850.7858 337.1628 850.7858 Z" fill="#0064aa"/>
        <path d="M 337.1628 850.7858 L 570.1628 850.7858 C 574.5811 850.7858 578.1628 854.3675 578.1628 858.7858 L 578.1628 869.7858 C 578.1628 874.2041 574.5811 877.7858 570.1628 877.7858 L 337.1628 877.7858 C 332.7445 877.7858 329.1628 874.2041 329.1628 869.7858 L 329.1628 858.7858 C 329.1628 854.3675 332.7445 850.7858 337.1628 850.7858 Z" stroke="#212121" stroke-linecap="round" stroke-linejoin="round" stroke-width="1"/>
        <text transform="translate(334.1628 853.2858)" fill="#ebebeb">
          <tspan font-family="Avenir" font-size="16" fill="#ebebeb" x="43.508" y="16">onConfigureListeners</tspan>
        </text>
      </g>
      <g id="Graphic_22">
        <path d="M 649.03715 850.7858 L 882.0372 850.7858 C 886.4554 850.7858 890.0372 854.3675 890.0372 858.7858 L 890.0372 869.7858 C 890.0372 874.2041 886.4554 877.7858 882.0372 877.7858 L 649.03715 877.7858 C 644.6189 877.7858 641.03715 874.2041 641.03715 869.7858 L 641.03715 858.7858 C 641.03715 854.3675 644.6189 850.7858 649.03715 850.7858 Z" fill="#ca7400"/>
        <path d="M 649.03715 850.7858 L 882.0372 850.7858 C 886.4554 850.7858 890.0372 854.3675 890.0372 858.7858 L 890.0372 869.7858 C 890.0372 874.2041 886.4554 877.7858 882.0372 877.7858 L 649.03715 877.7858 C 644.6189 877.7858 641.03715 874.2041 641.03715 869.7858 L 641.03715 858.7858 C 641.03715 854.3675 644.6189 850.7858 649.03715 850.7858 Z" stroke="#212121" stroke-linecap="round" stroke-linejoin="round" stroke-width="1"/>
        <text transform="translate(646.03715 853.2858)" fill="#ebebeb">
          <tspan font-family="Avenir" font-size="16" fill="#ebebeb" x="28.524" y="16">Show Startup Information</tspan>
        </text>
      </g>
      <g id="Graphic_23">
        <path d="M 23.555283 808.7162 L 256.55528 808.7162 C 260.97356 808.7162 264.55528 812.2979 264.55528 816.7162 L 264.55528 827.7162 C 264.55528 832.1345 260.97356 835.7162 256.55528 835.7162 L 23.555283 835.7162 C 19.137005 835.7162 15.555283 832.1345 15.555283 827.7162 L 15.555283 816.7162 C 15.555283 812.2979 19.137005 808.7162 23.555283 808.7162 Z" fill="#4e8f00"/>
        <path d="M 23.555283 808.7162 L 256.55528 808.7162 C 260.97356 808.7162 264.55528 812.2979 264.55528 816.7162 L 264.55528 827.7162 C 264.55528 832.1345 260.97356 835.7162 256.55528 835.7162 L 23.555283 835.7162 C 19.137005 835.7162 15.555283 832.1345 15.555283 827.7162 L 15.555283 816.7162 C 15.555283 812.2979 19.137005 808.7162 23.555283 808.7162 Z" stroke="#212121" stroke-linecap="round" stroke-linejoin="round" stroke-width="1"/>
        <text transform="translate(20.555283 811.2162)" fill="#ebebeb">
          <tspan font-family="Avenir" font-size="16" fill="#ebebeb" x="82.26" y="16">RUNNING</tspan>
        </text>
      </g>
      <g id="Graphic_24">
        <path d="M 337.0553 910.3879 L 570.0553 910.3879 C 574.47356 910.3879 578.0553 913.9696 578.0553 918.3879 L 578.0553 929.3879 C 578.0553 933.8062 574.47356 937.3879 570.0553 937.3879 L 337.0553 937.3879 C 332.637 937.3879 329.0553 933.8062 329.0553 929.3879 L 329.0553 918.3879 C 329.0553 913.9696 332.637 910.3879 337.0553 910.3879 Z" fill="#0064aa"/>
        <path d="M 337.0553 910.3879 L 570.0553 910.3879 C 574.47356 910.3879 578.0553 913.9696 578.0553 918.3879 L 578.0553 929.3879 C 578.0553 933.8062 574.47356 937.3879 570.0553 937.3879 L 337.0553 937.3879 C 332.637 937.3879 329.0553 933.8062 329.0553 929.3879 L 329.0553 918.3879 C 329.0553 913.9696 332.637 910.3879 337.0553 910.3879 Z" stroke="#212121" stroke-linecap="round" stroke-linejoin="round" stroke-width="1"/>
        <text transform="translate(334.0553 912.8879)" fill="#ebebeb">
          <tspan font-family="Avenir" font-size="16" fill="#ebebeb" x="92.508" y="16">onRun()</tspan>
        </text>
      </g>
      <g id="Graphic_25">
        <path d="M 23.555283 969.99 L 256.55528 969.99 C 260.97356 969.99 264.55528 973.5717 264.55528 977.99 L 264.55528 988.99 C 264.55528 993.4083 260.97356 996.99 256.55528 996.99 L 23.555283 996.99 C 19.137005 996.99 15.555283 993.4083 15.555283 988.99 L 15.555283 977.99 C 15.555283 973.5717 19.137005 969.99 23.555283 969.99 Z" fill="#4e8f00"/>
        <path d="M 23.555283 969.99 L 256.55528 969.99 C 260.97356 969.99 264.55528 973.5717 264.55528 977.99 L 264.55528 988.99 C 264.55528 993.4083 260.97356 996.99 256.55528 996.99 L 23.555283 996.99 C 19.137005 996.99 15.555283 993.4083 15.555283 988.99 L 15.555283 977.99 C 15.555283 973.5717 19.137005 969.99 23.555283 969.99 Z" stroke="#212121" stroke-linecap="round" stroke-linejoin="round" stroke-width="1"/>
        <text transform="translate(20.555283 972.49)" fill="#ebebeb">
          <tspan font-family="Avenir" font-size="16" fill="#ebebeb" x="80.044" y="16">STOPPING</tspan>
        </text>
      </g>
      <g id="Graphic_26">
        <path d="M 647.1225 969.99 L 880.1225 969.99 C 884.5408 969.99 888.1225 973.5717 888.1225 977.99 L 888.1225 988.99 C 888.1225 993.4083 884.5408 996.99 880.1225 996.99 L 647.1225 996.99 C 642.7042 996.99 639.1225 993.4083 639.1225 988.99 L 639.1225 977.99 C 639.1225 973.5717 642.7042 969.99 647.1225 969.99 Z" fill="#ca7400"/>
        <path d="M 647.1225 969.99 L 880.1225 969.99 C 884.5408 969.99 888.1225 973.5717 888.1225 977.99 L 888.1225 988.99 C 888.1225 993.4083 884.5408 996.99 880.1225 996.99 L 647.1225 996.99 C 642.7042 996.99 639.1225 993.4083 639.1225 988.99 L 639.1225 977.99 C 639.1225 973.5717 642.7042 969.99 647.1225 969.99 Z" stroke="#212121" stroke-linecap="round" stroke-linejoin="round" stroke-width="1"/>
        <text transform="translate(644.1225 972.49)" fill="#ebebeb">
          <tspan font-family="Avenir" font-size="16" fill="#ebebeb" x="81.564" y="16">Flush Logs</tspan>
        </text>
      </g>
      <g id="Graphic_27">
        <path d="M 647.1225 1011.1146 L 880.1225 1011.1146 C 884.5408 1011.1146 888.1225 1014.6963 888.1225 1019.1146 L 888.1225 1030.1146 C 888.1225 1034.5329 884.5408 1038.1146 880.1225 1038.1146 L 647.1225 1038.1146 C 642.7042 1038.1146 639.1225 1034.5329 639.1225 1030.1146 L 639.1225 1019.1146 C 639.1225 1014.6963 642.7042 1011.1146 647.1225 1011.1146 Z" fill="#ca7400"/>
        <path d="M 647.1225 1011.1146 L 880.1225 1011.1146 C 884.5408 1011.1146 888.1225 1014.6963 888.1225 1019.1146 L 888.1225 1030.1146 C 888.1225 1034.5329 884.5408 1038.1146 880.1225 1038.1146 L 647.1225 1038.1146 C 642.7042 1038.1146 639.1225 1034.5329 639.1225 1030.1146 L 639.1225 1019.1146 C 639.1225 1014.6963 642.7042 1011.1146 647.1225 1011.1146 Z" stroke="#212121" stroke-linecap="round" stroke-linejoin="round" stroke-width="1"/>
        <text transform="translate(644.1225 1013.6146)" fill="#ebebeb">
          <tspan font-family="Avenir" font-size="16" fill="#ebebeb" x="32.684" y="16">Show Message Statistics</tspan>
        </text>
      </g>
      <g id="Graphic_28">
        <path d="M 337.0553 1053.226 L 570.0553 1053.226 C 574.47356 1053.226 578.0553 1056.8077 578.0553 1061.226 L 578.0553 1072.226 C 578.0553 1076.6442 574.47356 1080.226 570.0553 1080.226 L 337.0553 1080.226 C 332.637 1080.226 329.0553 1076.6442 329.0553 1072.226 L 329.0553 1061.226 C 329.0553 1056.8077 332.637 1053.226 337.0553 1053.226 Z" fill="#0064aa"/>
        <path d="M 337.0553 1053.226 L 570.0553 1053.226 C 574.47356 1053.226 578.0553 1056.8077 578.0553 1061.226 L 578.0553 1072.226 C 578.0553 1076.6442 574.47356 1080.226 570.0553 1080.226 L 337.0553 1080.226 C 332.637 1080.226 329.0553 1076.6442 329.0553 1072.226 L 329.0553 1061.226 C 329.0553 1056.8077 332.637 1053.226 337.0553 1053.226 Z" stroke="#212121" stroke-linecap="round" stroke-linejoin="round" stroke-width="1"/>
        <text transform="translate(334.0553 1055.726)" fill="#ebebeb">
          <tspan font-family="Avenir" font-size="16" fill="#ebebeb" x="92.804" y="16">onRan()</tspan>
        </text>
      </g>
      <g id="Graphic_29">
        <path d="M 26.671037 1111.6708 L 259.67104 1111.6708 C 264.0893 1111.6708 267.67104 1115.2526 267.67104 1119.6708 L 267.67104 1130.6708 C 267.67104 1135.0891 264.0893 1138.6708 259.67104 1138.6708 L 26.671037 1138.6708 C 22.25276 1138.6708 18.671037 1135.0891 18.671037 1130.6708 L 18.671037 1119.6708 C 18.671037 1115.2526 22.25276 1111.6708 26.671037 1111.6708 Z" fill="#4e8f00"/>
        <path d="M 26.671037 1111.6708 L 259.67104 1111.6708 C 264.0893 1111.6708 267.67104 1115.2526 267.67104 1119.6708 L 267.67104 1130.6708 C 267.67104 1135.0891 264.0893 1138.6708 259.67104 1138.6708 L 26.671037 1138.6708 C 22.25276 1138.6708 18.671037 1135.0891 18.671037 1130.6708 L 18.671037 1119.6708 C 18.671037 1115.2526 22.25276 1111.6708 26.671037 1111.6708 Z" stroke="#212121" stroke-linecap="round" stroke-linejoin="round" stroke-width="1"/>
        <text transform="translate(23.671037 1114.1708)" fill="#ebebeb">
          <tspan font-family="Avenir" font-size="16" fill="#ebebeb" x="83.932" y="16">STOPPED</tspan>
        </text>
      </g>
      <g id="Graphic_32">
        <path d="M 336.64434 287.19347 L 569.64434 287.19347 C 574.0626 287.19347 577.64434 290.7752 577.64434 295.19347 L 577.64434 306.19347 C 577.64434 310.61175 574.0626 314.19347 569.64434 314.19347 L 336.64434 314.19347 C 332.22606 314.19347 328.64434 310.61175 328.64434 306.19347 L 328.64434 295.19347 C 328.64434 290.7752 332.22606 287.19347 336.64434 287.19347 Z" fill="#0064aa"/>
        <path d="M 336.64434 287.19347 L 569.64434 287.19347 C 574.0626 287.19347 577.64434 290.7752 577.64434 295.19347 L 577.64434 306.19347 C 577.64434 310.61175 574.0626 314.19347 569.64434 314.19347 L 336.64434 314.19347 C 332.22606 314.19347 328.64434 310.61175 328.64434 306.19347 L 328.64434 295.19347 C 328.64434 290.7752 332.22606 287.19347 336.64434 287.19347 Z" stroke="#212121" stroke-linecap="round" stroke-linejoin="round" stroke-width="1"/>
        <text transform="translate(333.64434 289.69347)" fill="#ebebeb">
          <tspan font-family="Avenir" font-size="16" fill="#ebebeb" x="32.828" y="16">main(String[] arguments)</tspan>
        </text>
      </g>
      <g id="Graphic_33">
        <path d="M 336.64434 263.24482 L 569.64434 263.24482 C 574.0626 263.24482 577.64434 259.6631 577.64434 255.24482 L 577.64434 237.3721 C 577.64434 232.95382 574.0626 229.3721 569.64434 229.3721 L 336.64434 229.3721 C 332.22606 229.3721 328.64434 232.95382 328.64434 237.3721 L 328.64434 255.24482 C 328.64434 259.6631 332.22606 263.24482 336.64434 263.24482 Z" fill="#0065a9"/>
        <path d="M 336.64434 263.24482 L 569.64434 263.24482 C 574.0626 263.24482 577.64434 259.6631 577.64434 255.24482 L 577.64434 237.3721 C 577.64434 232.95382 574.0626 229.3721 569.64434 229.3721 L 336.64434 229.3721 C 332.22606 229.3721 328.64434 232.95382 328.64434 237.3721 L 328.64434 255.24482 C 328.64434 259.6631 332.22606 263.24482 336.64434 263.24482 Z" stroke="#212121" stroke-linecap="round" stroke-linejoin="round" stroke-width="1"/>
        <text transform="translate(333.64434 235.30846)" fill="white">
          <tspan font-family="Avenir" font-weight="bold" font-size="16" fill="white" x="70.004" y="16">Method Calls</tspan>
        </text>
      </g>
      <g id="Graphic_34">
        <path d="M 646.0672 263.24482 L 879.0672 263.24482 C 883.4855 263.24482 887.0672 259.6631 887.0672 255.24482 L 887.0672 237.3721 C 887.0672 232.95382 883.4855 229.3721 879.0672 229.3721 L 646.0672 229.3721 C 641.64895 229.3721 638.0672 232.95382 638.0672 237.3721 L 638.0672 255.24482 C 638.0672 259.6631 641.64895 263.24482 646.0672 263.24482 Z" fill="#ca7400"/>
        <path d="M 646.0672 263.24482 L 879.0672 263.24482 C 883.4855 263.24482 887.0672 259.6631 887.0672 255.24482 L 887.0672 237.3721 C 887.0672 232.95382 883.4855 229.3721 879.0672 229.3721 L 646.0672 229.3721 C 641.64895 229.3721 638.0672 232.95382 638.0672 237.3721 L 638.0672 255.24482 C 638.0672 259.6631 641.64895 263.24482 646.0672 263.24482 Z" stroke="#212121" stroke-linecap="round" stroke-linejoin="round" stroke-width="1"/>
        <text transform="translate(643.0672 235.30846)" fill="white">
          <tspan font-family="Avenir" font-weight="bold" font-size="16" fill="white" x="85.092" y="16">Activities</tspan>
        </text>
      </g>
      <g id="Graphic_35">
        <path d="M 336.64434 327.63778 L 569.64434 327.63778 C 574.0626 327.63778 577.64434 331.2195 577.64434 335.63778 L 577.64434 346.63778 C 577.64434 351.05605 574.0626 354.63778 569.64434 354.63778 L 336.64434 354.63778 C 332.22606 354.63778 328.64434 351.05605 328.64434 346.63778 L 328.64434 335.63778 C 328.64434 331.2195 332.22606 327.63778 336.64434 327.63778 Z" fill="#0064aa"/>
        <path d="M 336.64434 327.63778 L 569.64434 327.63778 C 574.0626 327.63778 577.64434 331.2195 577.64434 335.63778 L 577.64434 346.63778 C 577.64434 351.05605 574.0626 354.63778 569.64434 354.63778 L 336.64434 354.63778 C 332.22606 354.63778 328.64434 351.05605 328.64434 346.63778 L 328.64434 335.63778 C 328.64434 331.2195 332.22606 327.63778 336.64434 327.63778 Z" stroke="#212121" stroke-linecap="round" stroke-linejoin="round" stroke-width="1"/>
        <text transform="translate(333.64434 330.13778)" fill="#ebebeb">
          <tspan font-family="Avenir" font-size="16" fill="#ebebeb" x="74.46" y="16">Application()</tspan>
        </text>
      </g>
      <g id="Graphic_38">
        <path d="M -30.221455 428.3581 L -4.8942155 428.3581 C -.4759375 428.3581 3.1057845 431.93984 3.1057845 436.3581 L 3.1057845 447.3581 C 3.1057845 451.7764 -.4759375 455.3581 -4.8942155 455.3581 L -30.221455 455.3581 C -34.639733 455.3581 -38.221455 451.7764 -38.221455 447.3581 L -38.221455 436.3581 C -38.221455 431.93984 -34.639733 428.3581 -30.221455 428.3581 Z" fill="#dead26"/>
        <path d="M -30.221455 428.3581 L -4.8942155 428.3581 C -.4759375 428.3581 3.1057845 431.93984 3.1057845 436.3581 L 3.1057845 447.3581 C 3.1057845 451.7764 -.4759375 455.3581 -4.8942155 455.3581 L -30.221455 455.3581 C -34.639733 455.3581 -38.221455 451.7764 -38.221455 447.3581 L -38.221455 436.3581 C -38.221455 431.93984 -34.639733 428.3581 -30.221455 428.3581 Z" stroke="#212121" stroke-linecap="round" stroke-linejoin="round" stroke-width="1"/>
        <text transform="translate(-33.221455 430.8581)" fill="#ebebeb">
          <tspan font-family="Avenir" font-weight="bold" font-size="16" fill="#ebebeb" x="10.92762" y="16">1</tspan>
        </text>
      </g>
      <g id="Graphic_39">
        <path d="M 285.9498 471.3406 L 311.27705 471.3406 C 315.69533 471.3406 319.27705 474.9223 319.27705 479.3406 L 319.27705 490.3406 C 319.27705 494.7589 315.69533 498.3406 311.27705 498.3406 L 285.9498 498.3406 C 281.53154 498.3406 277.9498 494.7589 277.9498 490.3406 L 277.9498 479.3406 C 277.9498 474.9223 281.53154 471.3406 285.9498 471.3406 Z" fill="#dead26"/>
        <path d="M 285.9498 471.3406 L 311.27705 471.3406 C 315.69533 471.3406 319.27705 474.9223 319.27705 479.3406 L 319.27705 490.3406 C 319.27705 494.7589 315.69533 498.3406 311.27705 498.3406 L 285.9498 498.3406 C 281.53154 498.3406 277.9498 494.7589 277.9498 490.3406 L 277.9498 479.3406 C 277.9498 474.9223 281.53154 471.3406 285.9498 471.3406 Z" stroke="#212121" stroke-linecap="round" stroke-linejoin="round" stroke-width="1"/>
        <text transform="translate(282.9498 473.8406)" fill="#ebebeb">
          <tspan font-family="Avenir" font-weight="bold" font-size="16" fill="#ebebeb" x="10.92762" y="16">4</tspan>
        </text>
      </g>
      <g id="Graphic_40">
        <path d="M 286.36076 808.7162 L 311.688 808.7162 C 316.10627 808.7162 319.688 812.2979 319.688 816.7162 L 319.688 827.7162 C 319.688 832.1345 316.10627 835.7162 311.688 835.7162 L 286.36076 835.7162 C 281.94248 835.7162 278.36076 832.1345 278.36076 827.7162 L 278.36076 816.7162 C 278.36076 812.2979 281.94248 808.7162 286.36076 808.7162 Z" fill="#009193"/>
        <path d="M 286.36076 808.7162 L 311.688 808.7162 C 316.10627 808.7162 319.688 812.2979 319.688 816.7162 L 319.688 827.7162 C 319.688 832.1345 316.10627 835.7162 311.688 835.7162 L 286.36076 835.7162 C 281.94248 835.7162 278.36076 832.1345 278.36076 827.7162 L 278.36076 816.7162 C 278.36076 812.2979 281.94248 808.7162 286.36076 808.7162 Z" stroke="#212121" stroke-linecap="round" stroke-linejoin="round" stroke-width="1"/>
        <text transform="translate(283.36076 811.2162)" fill="#ebebeb">
          <tspan font-family="Avenir" font-weight="bold" font-size="16" fill="#ebebeb" x="10.92762" y="16">2</tspan>
        </text>
      </g>
      <g id="Graphic_41">
        <path d="M 285.83383 638.882 L 311.16107 638.882 C 315.57935 638.882 319.16107 642.46376 319.16107 646.882 L 319.16107 657.882 C 319.16107 662.3003 315.57935 665.882 311.16107 665.882 L 285.83383 665.882 C 281.41555 665.882 277.83383 662.3003 277.83383 657.882 L 277.83383 646.882 C 277.83383 642.46376 281.41555 638.882 285.83383 638.882 Z" fill="#dead26"/>
        <path d="M 285.83383 638.882 L 311.16107 638.882 C 315.57935 638.882 319.16107 642.46376 319.16107 646.882 L 319.16107 657.882 C 319.16107 662.3003 315.57935 665.882 311.16107 665.882 L 285.83383 665.882 C 281.41555 665.882 277.83383 662.3003 277.83383 657.882 L 277.83383 646.882 C 277.83383 642.46376 281.41555 638.882 285.83383 638.882 Z" stroke="#212121" stroke-linecap="round" stroke-linejoin="round" stroke-width="1"/>
        <text transform="translate(282.83383 641.382)" fill="#ebebeb">
          <tspan font-family="Avenir" font-weight="bold" font-size="16" fill="#ebebeb" x="10.92762" y="16">9</tspan>
        </text>
      </g>
      <g id="Graphic_42">
        <path d="M 598.7383 676.4616 L 624.0656 676.4616 C 628.48385 676.4616 632.0656 680.0433 632.0656 684.4616 L 632.0656 695.4616 C 632.0656 699.8799 628.48385 703.4616 624.0656 703.4616 L 598.7383 703.4616 C 594.32005 703.4616 590.7383 699.8799 590.7383 695.4616 L 590.7383 684.4616 C 590.7383 680.0433 594.32005 676.4616 598.7383 676.4616 Z" fill="#dead26"/>
        <path d="M 598.7383 676.4616 L 624.0656 676.4616 C 628.48385 676.4616 632.0656 680.0433 632.0656 684.4616 L 632.0656 695.4616 C 632.0656 699.8799 628.48385 703.4616 624.0656 703.4616 L 598.7383 703.4616 C 594.32005 703.4616 590.7383 699.8799 590.7383 695.4616 L 590.7383 684.4616 C 590.7383 680.0433 594.32005 676.4616 598.7383 676.4616 Z" stroke="#212121" stroke-linecap="round" stroke-linejoin="round" stroke-width="1"/>
        <text transform="translate(595.7383 678.9616)" fill="#ebebeb">
          <tspan font-family="Avenir" font-weight="bold" font-size="16" fill="#ebebeb" x="6.19162" y="16">11</tspan>
        </text>
      </g>
      <g id="Graphic_43">
        <path d="M 285.83383 714.04115 L 311.16107 714.04115 C 315.57935 714.04115 319.16107 717.6229 319.16107 722.04115 L 319.16107 733.04115 C 319.16107 737.4594 315.57935 741.04115 311.16107 741.04115 L 285.83383 741.04115 C 281.41555 741.04115 277.83383 737.4594 277.83383 733.04115 L 277.83383 722.04115 C 277.83383 717.6229 281.41555 714.04115 285.83383 714.04115 Z" fill="#dead26"/>
        <path d="M 285.83383 714.04115 L 311.16107 714.04115 C 315.57935 714.04115 319.16107 717.6229 319.16107 722.04115 L 319.16107 733.04115 C 319.16107 737.4594 315.57935 741.04115 311.16107 741.04115 L 285.83383 741.04115 C 281.41555 741.04115 277.83383 737.4594 277.83383 733.04115 L 277.83383 722.04115 C 277.83383 717.6229 281.41555 714.04115 285.83383 714.04115 Z" stroke="#212121" stroke-linecap="round" stroke-linejoin="round" stroke-width="1"/>
        <text transform="translate(282.83383 716.54115)" fill="#ebebeb">
          <tspan font-family="Avenir" font-weight="bold" font-size="16" fill="#ebebeb" x="6.19162" y="16">12</tspan>
        </text>
      </g>
      <g id="Graphic_49">
        <path d="M 285.94134 850.7858 L 311.26858 850.7858 C 315.68685 850.7858 319.26858 854.3675 319.26858 858.7858 L 319.26858 869.7858 C 319.26858 874.2041 315.68685 877.7858 311.26858 877.7858 L 285.94134 877.7858 C 281.52306 877.7858 277.94134 874.2041 277.94134 869.7858 L 277.94134 858.7858 C 277.94134 854.3675 281.52306 850.7858 285.94134 850.7858 Z" fill="#009193"/>
        <path d="M 285.94134 850.7858 L 311.26858 850.7858 C 315.68685 850.7858 319.26858 854.3675 319.26858 858.7858 L 319.26858 869.7858 C 319.26858 874.2041 315.68685 877.7858 311.26858 877.7858 L 285.94134 877.7858 C 281.52306 877.7858 277.94134 874.2041 277.94134 869.7858 L 277.94134 858.7858 C 277.94134 854.3675 281.52306 850.7858 285.94134 850.7858 Z" stroke="#212121" stroke-linecap="round" stroke-linejoin="round" stroke-width="1"/>
        <text transform="translate(282.94134 853.2858)" fill="#ebebeb">
          <tspan font-family="Avenir" font-weight="bold" font-size="16" fill="#ebebeb" x="10.92762" y="16">3</tspan>
        </text>
      </g>
      <g id="Graphic_52">
        <path d="M 598.5522 850.7858 L 623.87945 850.7858 C 628.2977 850.7858 631.87945 854.3675 631.87945 858.7858 L 631.87945 869.7858 C 631.87945 874.2041 628.2977 877.7858 623.87945 877.7858 L 598.5522 877.7858 C 594.1339 877.7858 590.5522 874.2041 590.5522 869.7858 L 590.5522 858.7858 C 590.5522 854.3675 594.1339 850.7858 598.5522 850.7858 Z" fill="#009193"/>
        <path d="M 598.5522 850.7858 L 623.87945 850.7858 C 628.2977 850.7858 631.87945 854.3675 631.87945 858.7858 L 631.87945 869.7858 C 631.87945 874.2041 628.2977 877.7858 623.87945 877.7858 L 598.5522 877.7858 C 594.1339 877.7858 590.5522 874.2041 590.5522 869.7858 L 590.5522 858.7858 C 590.5522 854.3675 594.1339 850.7858 598.5522 850.7858 Z" stroke="#212121" stroke-linecap="round" stroke-linejoin="round" stroke-width="1"/>
        <text transform="translate(595.5522 853.2858)" fill="#ebebeb">
          <tspan font-family="Avenir" font-weight="bold" font-size="16" fill="#ebebeb" x="10.92762" y="16">4</tspan>
        </text>
      </g>
      <g id="Graphic_53">
        <path d="M -33.444717 808.7162 L -8.117478 808.7162 C -3.6991996 808.7162 -.1174776 812.2979 -.1174776 816.7162 L -.1174776 827.7162 C -.1174776 832.1345 -3.6991996 835.7162 -8.117478 835.7162 L -33.444717 835.7162 C -37.862995 835.7162 -41.444717 832.1345 -41.444717 827.7162 L -41.444717 816.7162 C -41.444717 812.2979 -37.862995 808.7162 -33.444717 808.7162 Z" fill="#009193"/>
        <path d="M -33.444717 808.7162 L -8.117478 808.7162 C -3.6991996 808.7162 -.1174776 812.2979 -.1174776 816.7162 L -.1174776 827.7162 C -.1174776 832.1345 -3.6991996 835.7162 -8.117478 835.7162 L -33.444717 835.7162 C -37.862995 835.7162 -41.444717 832.1345 -41.444717 827.7162 L -41.444717 816.7162 C -41.444717 812.2979 -37.862995 808.7162 -33.444717 808.7162 Z" stroke="#212121" stroke-linecap="round" stroke-linejoin="round" stroke-width="1"/>
        <text transform="translate(-36.444717 811.2162)" fill="#ebebeb">
          <tspan font-family="Avenir" font-weight="bold" font-size="16" fill="#ebebeb" x="10.92762" y="16">1</tspan>
        </text>
      </g>
      <g id="Graphic_55">
        <path d="M -33.444717 969.99 L -8.117478 969.99 C -3.6991996 969.99 -.1174776 973.5717 -.1174776 977.99 L -.1174776 988.99 C -.1174776 993.4083 -3.6991996 996.99 -8.117478 996.99 L -33.444717 996.99 C -37.862995 996.99 -41.444717 993.4083 -41.444717 988.99 L -41.444717 977.99 C -41.444717 973.5717 -37.862995 969.99 -33.444717 969.99 Z" fill="#941100"/>
        <path d="M -33.444717 969.99 L -8.117478 969.99 C -3.6991996 969.99 -.1174776 973.5717 -.1174776 977.99 L -.1174776 988.99 C -.1174776 993.4083 -3.6991996 996.99 -8.117478 996.99 L -33.444717 996.99 C -37.862995 996.99 -41.444717 993.4083 -41.444717 988.99 L -41.444717 977.99 C -41.444717 973.5717 -37.862995 969.99 -33.444717 969.99 Z" stroke="#212121" stroke-linecap="round" stroke-linejoin="round" stroke-width="1"/>
        <text transform="translate(-36.444717 972.49)" fill="#ebebeb">
          <tspan font-family="Avenir" font-weight="bold" font-size="16" fill="#ebebeb" x="10.92762" y="16">1</tspan>
        </text>
      </g>
      <g id="Graphic_56">
        <path d="M 596.6376 969.99 L 621.9648 969.99 C 626.3831 969.99 629.9648 973.5717 629.9648 977.99 L 629.9648 988.99 C 629.9648 993.4083 626.3831 996.99 621.9648 996.99 L 596.6376 996.99 C 592.2193 996.99 588.6376 993.4083 588.6376 988.99 L 588.6376 977.99 C 588.6376 973.5717 592.2193 969.99 596.6376 969.99 Z" fill="#941100"/>
        <path d="M 596.6376 969.99 L 621.9648 969.99 C 626.3831 969.99 629.9648 973.5717 629.9648 977.99 L 629.9648 988.99 C 629.9648 993.4083 626.3831 996.99 621.9648 996.99 L 596.6376 996.99 C 592.2193 996.99 588.6376 993.4083 588.6376 988.99 L 588.6376 977.99 C 588.6376 973.5717 592.2193 969.99 596.6376 969.99 Z" stroke="#212121" stroke-linecap="round" stroke-linejoin="round" stroke-width="1"/>
        <text transform="translate(593.6376 972.49)" fill="#ebebeb">
          <tspan font-family="Avenir" font-weight="bold" font-size="16" fill="#ebebeb" x="10.92762" y="16">2</tspan>
        </text>
      </g>
      <g id="Graphic_57">
        <path d="M 596.41275 1011.1146 L 621.74 1011.1146 C 626.1583 1011.1146 629.74 1014.6963 629.74 1019.1146 L 629.74 1030.1146 C 629.74 1034.5329 626.1583 1038.1146 621.74 1038.1146 L 596.41275 1038.1146 C 591.9945 1038.1146 588.41275 1034.5329 588.41275 1030.1146 L 588.41275 1019.1146 C 588.41275 1014.6963 591.9945 1011.1146 596.41275 1011.1146 Z" fill="#941100"/>
        <path d="M 596.41275 1011.1146 L 621.74 1011.1146 C 626.1583 1011.1146 629.74 1014.6963 629.74 1019.1146 L 629.74 1030.1146 C 629.74 1034.5329 626.1583 1038.1146 621.74 1038.1146 L 596.41275 1038.1146 C 591.9945 1038.1146 588.41275 1034.5329 588.41275 1030.1146 L 588.41275 1019.1146 C 588.41275 1014.6963 591.9945 1011.1146 596.41275 1011.1146 Z" stroke="#212121" stroke-linecap="round" stroke-linejoin="round" stroke-width="1"/>
        <text transform="translate(593.41275 1013.6146)" fill="#ebebeb">
          <tspan font-family="Avenir" font-weight="bold" font-size="16" fill="#ebebeb" x="10.92762" y="16">3</tspan>
        </text>
      </g>
      <g id="Graphic_58">
        <path d="M 285.83383 1054.5638 L 311.16107 1054.5638 C 315.57935 1054.5638 319.16107 1058.1455 319.16107 1062.5638 L 319.16107 1073.5638 C 319.16107 1077.982 315.57935 1081.5638 311.16107 1081.5638 L 285.83383 1081.5638 C 281.41555 1081.5638 277.83383 1077.982 277.83383 1073.5638 L 277.83383 1062.5638 C 277.83383 1058.1455 281.41555 1054.5638 285.83383 1054.5638 Z" fill="#941100"/>
        <path d="M 285.83383 1054.5638 L 311.16107 1054.5638 C 315.57935 1054.5638 319.16107 1058.1455 319.16107 1062.5638 L 319.16107 1073.5638 C 319.16107 1077.982 315.57935 1081.5638 311.16107 1081.5638 L 285.83383 1081.5638 C 281.41555 1081.5638 277.83383 1077.982 277.83383 1073.5638 L 277.83383 1062.5638 C 277.83383 1058.1455 281.41555 1054.5638 285.83383 1054.5638 Z" stroke="#212121" stroke-linecap="round" stroke-linejoin="round" stroke-width="1"/>
        <text transform="translate(282.83383 1057.0638)" fill="#ebebeb">
          <tspan font-family="Avenir" font-weight="bold" font-size="16" fill="#ebebeb" x="10.92762" y="16">4</tspan>
        </text>
      </g>
      <g id="Graphic_59">
        <path d="M -30.328963 1111.6708 L -5.001723 1111.6708 C -.5834453 1111.6708 2.9982767 1115.2526 2.9982767 1119.6708 L 2.9982767 1130.6708 C 2.9982767 1135.0891 -.5834453 1138.6708 -5.001723 1138.6708 L -30.328963 1138.6708 C -34.74724 1138.6708 -38.328963 1135.0891 -38.328963 1130.6708 L -38.328963 1119.6708 C -38.328963 1115.2526 -34.74724 1111.6708 -30.328963 1111.6708 Z" fill="#aaa"/>
        <path d="M -30.328963 1111.6708 L -5.001723 1111.6708 C -.5834453 1111.6708 2.9982767 1115.2526 2.9982767 1119.6708 L 2.9982767 1130.6708 C 2.9982767 1135.0891 -.5834453 1138.6708 -5.001723 1138.6708 L -30.328963 1138.6708 C -34.74724 1138.6708 -38.328963 1135.0891 -38.328963 1130.6708 L -38.328963 1119.6708 C -38.328963 1115.2526 -34.74724 1111.6708 -30.328963 1111.6708 Z" stroke="#212121" stroke-linecap="round" stroke-linejoin="round" stroke-width="1"/>
        <text transform="translate(-33.328963 1114.1708)" fill="#ebebeb">
          <tspan font-family="Avenir" font-weight="bold" font-size="16" fill="#ebebeb" x="10.92762" y="16">1</tspan>
        </text>
      </g>
      <g id="Graphic_60">
        <path d="M 595.24996 1111.6708 L 620.5772 1111.6708 C 624.9955 1111.6708 628.5772 1115.2526 628.5772 1119.6708 L 628.5772 1130.6708 C 628.5772 1135.0891 624.9955 1138.6708 620.5772 1138.6708 L 595.24996 1138.6708 C 590.8317 1138.6708 587.24996 1135.0891 587.24996 1130.6708 L 587.24996 1119.6708 C 587.24996 1115.2526 590.8317 1111.6708 595.24996 1111.6708 Z" fill="#aaa"/>
        <path d="M 595.24996 1111.6708 L 620.5772 1111.6708 C 624.9955 1111.6708 628.5772 1115.2526 628.5772 1119.6708 L 628.5772 1130.6708 C 628.5772 1135.0891 624.9955 1138.6708 620.5772 1138.6708 L 595.24996 1138.6708 C 590.8317 1138.6708 587.24996 1135.0891 587.24996 1130.6708 L 587.24996 1119.6708 C 587.24996 1115.2526 590.8317 1111.6708 595.24996 1111.6708 Z" stroke="#212121" stroke-linecap="round" stroke-linejoin="round" stroke-width="1"/>
        <text transform="translate(592.24996 1114.1708)" fill="#ebebeb">
          <tspan font-family="Avenir" font-weight="bold" font-size="16" fill="#ebebeb" x="10.92762" y="16">2</tspan>
        </text>
      </g>
      <g id="Graphic_62">
        <path d="M 337.0553 601.3025 L 570.0553 601.3025 C 574.47356 601.3025 578.0553 604.8842 578.0553 609.3025 L 578.0553 620.3025 C 578.0553 624.72076 574.47356 628.3025 570.0553 628.3025 L 337.0553 628.3025 C 332.637 628.3025 329.0553 624.72076 329.0553 620.3025 L 329.0553 609.3025 C 329.0553 604.8842 332.637 601.3025 337.0553 601.3025 Z" fill="#0064aa"/>
        <path d="M 337.0553 601.3025 L 570.0553 601.3025 C 574.47356 601.3025 578.0553 604.8842 578.0553 609.3025 L 578.0553 620.3025 C 578.0553 624.72076 574.47356 628.3025 570.0553 628.3025 L 337.0553 628.3025 C 332.637 628.3025 329.0553 624.72076 329.0553 620.3025 L 329.0553 609.3025 C 329.0553 604.8842 332.637 601.3025 337.0553 601.3025 Z" stroke="#212121" stroke-linecap="round" stroke-linejoin="round" stroke-width="1"/>
        <text transform="translate(334.0553 603.8025)" fill="#ebebeb">
          <tspan font-family="Avenir" font-size="16" fill="#ebebeb" x="77.244" y="16">onInitialize()</tspan>
        </text>
      </g>
      <g id="Graphic_61">
        <path d="M 285.86225 601.3025 L 311.1895 601.3025 C 315.60776 601.3025 319.1895 604.8842 319.1895 609.3025 L 319.1895 620.3025 C 319.1895 624.72076 315.60776 628.3025 311.1895 628.3025 L 285.86225 628.3025 C 281.44397 628.3025 277.86225 624.72076 277.86225 620.3025 L 277.86225 609.3025 C 277.86225 604.8842 281.44397 601.3025 285.86225 601.3025 Z" fill="#dead26"/>
        <path d="M 285.86225 601.3025 L 311.1895 601.3025 C 315.60776 601.3025 319.1895 604.8842 319.1895 609.3025 L 319.1895 620.3025 C 319.1895 624.72076 315.60776 628.3025 311.1895 628.3025 L 285.86225 628.3025 C 281.44397 628.3025 277.86225 624.72076 277.86225 620.3025 L 277.86225 609.3025 C 277.86225 604.8842 281.44397 601.3025 285.86225 601.3025 Z" stroke="#212121" stroke-linecap="round" stroke-linejoin="round" stroke-width="1"/>
        <text transform="translate(282.86225 603.8025)" fill="#ebebeb">
          <tspan font-family="Avenir" font-weight="bold" font-size="16" fill="#ebebeb" x="10.92762" y="16">8</tspan>
        </text>
      </g>
      <g id="Graphic_64">
        <path d="M 27 327.63778 L 260 327.63778 C 264.41828 327.63778 268 331.2195 268 335.63778 L 268 346.63778 C 268 351.05605 264.41828 354.63778 260 354.63778 L 27 354.63778 C 22.581722 354.63778 19 351.05605 19 346.63778 L 19 335.63778 C 19 331.2195 22.581722 327.63778 27 327.63778 Z" fill="#4e8f00"/>
        <path d="M 27 327.63778 L 260 327.63778 C 264.41828 327.63778 268 331.2195 268 335.63778 L 268 346.63778 C 268 351.05605 264.41828 354.63778 260 354.63778 L 27 354.63778 C 22.581722 354.63778 19 351.05605 19 346.63778 L 19 335.63778 C 19 331.2195 22.581722 327.63778 27 327.63778 Z" stroke="#212121" stroke-linecap="round" stroke-linejoin="round" stroke-width="1"/>
        <text transform="translate(24 330.13778)" fill="#ebebeb">
          <tspan font-family="Avenir" font-size="16" fill="#ebebeb" x="56.916" y="16">CONSTRUCTING</tspan>
        </text>
      </g>
      <g id="Graphic_63">
        <path d="M -30 327.63778 L -4.6727605 327.63778 C -.2544825 327.63778 3.3272395 331.2195 3.3272395 335.63778 L 3.3272395 346.63778 C 3.3272395 351.05605 -.2544825 354.63778 -4.6727605 354.63778 L -30 354.63778 C -34.41828 354.63778 -38 351.05605 -38 346.63778 L -38 335.63778 C -38 331.2195 -34.41828 327.63778 -30 327.63778 Z" fill="#a5a5a5"/>
        <path d="M -30 327.63778 L -4.6727605 327.63778 C -.2544825 327.63778 3.3272395 331.2195 3.3272395 335.63778 L 3.3272395 346.63778 C 3.3272395 351.05605 -.2544825 354.63778 -4.6727605 354.63778 L -30 354.63778 C -34.41828 354.63778 -38 351.05605 -38 346.63778 L -38 335.63778 C -38 331.2195 -34.41828 327.63778 -30 327.63778 Z" stroke="#212121" stroke-linecap="round" stroke-linejoin="round" stroke-width="1"/>
        <text transform="translate(-33 330.13778)" fill="#ebebeb">
          <tspan font-family="Avenir" font-weight="bold" font-size="16" fill="#ebebeb" x="10.92762" y="16">2</tspan>
        </text>
      </g>
      <g id="Graphic_66">
        <path d="M 337.0553 751.6207 L 570.0553 751.6207 C 574.47356 751.6207 578.0553 755.2024 578.0553 759.6207 L 578.0553 770.6207 C 578.0553 775.039 574.47356 778.6207 570.0553 778.6207 L 337.0553 778.6207 C 332.637 778.6207 329.0553 775.039 329.0553 770.6207 L 329.0553 759.6207 C 329.0553 755.2024 332.637 751.6207 337.0553 751.6207 Z" fill="#0064aa"/>
        <path d="M 337.0553 751.6207 L 570.0553 751.6207 C 574.47356 751.6207 578.0553 755.2024 578.0553 759.6207 L 578.0553 770.6207 C 578.0553 775.039 574.47356 778.6207 570.0553 778.6207 L 337.0553 778.6207 C 332.637 778.6207 329.0553 775.039 329.0553 770.6207 L 329.0553 759.6207 C 329.0553 755.2024 332.637 751.6207 337.0553 751.6207 Z" stroke="#212121" stroke-linecap="round" stroke-linejoin="round" stroke-width="1"/>
        <text transform="translate(334.0553 754.1207)" fill="#ebebeb">
          <tspan font-family="Avenir" font-size="16" fill="#ebebeb" x="76.516" y="16">onInitialized</tspan>
        </text>
      </g>
      <g id="Graphic_65">
        <path d="M 286.36076 751.6207 L 311.688 751.6207 C 316.10627 751.6207 319.688 755.2024 319.688 759.6207 L 319.688 770.6207 C 319.688 775.039 316.10627 778.6207 311.688 778.6207 L 286.36076 778.6207 C 281.94248 778.6207 278.36076 775.039 278.36076 770.6207 L 278.36076 759.6207 C 278.36076 755.2024 281.94248 751.6207 286.36076 751.6207 Z" fill="#dead26"/>
        <path d="M 286.36076 751.6207 L 311.688 751.6207 C 316.10627 751.6207 319.688 755.2024 319.688 759.6207 L 319.688 770.6207 C 319.688 775.039 316.10627 778.6207 311.688 778.6207 L 286.36076 778.6207 C 281.94248 778.6207 278.36076 775.039 278.36076 770.6207 L 278.36076 759.6207 C 278.36076 755.2024 281.94248 751.6207 286.36076 751.6207 Z" stroke="#212121" stroke-linecap="round" stroke-linejoin="round" stroke-width="1"/>
        <text transform="translate(283.36076 754.1207)" fill="#ebebeb">
          <tspan font-family="Avenir" font-weight="bold" font-size="16" fill="#ebebeb" x="6.19162" y="16">13</tspan>
        </text>
      </g>
      <g id="Graphic_67">
        <path d="M 645.9597 1111.4273 L 878.9597 1111.4273 C 883.378 1111.4273 886.9597 1115.009 886.9597 1119.4273 L 886.9597 1130.4273 C 886.9597 1134.8455 883.378 1138.4273 878.9597 1138.4273 L 645.9597 1138.4273 C 641.54144 1138.4273 637.9597 1134.8455 637.9597 1130.4273 L 637.9597 1119.4273 C 637.9597 1115.009 641.54144 1111.4273 645.9597 1111.4273 Z" fill="#ca7400"/>
        <path d="M 645.9597 1111.4273 L 878.9597 1111.4273 C 883.378 1111.4273 886.9597 1115.009 886.9597 1119.4273 L 886.9597 1130.4273 C 886.9597 1134.8455 883.378 1138.4273 878.9597 1138.4273 L 645.9597 1138.4273 C 641.54144 1138.4273 637.9597 1134.8455 637.9597 1130.4273 L 637.9597 1119.4273 C 637.9597 1115.009 641.54144 1111.4273 645.9597 1111.4273 Z" stroke="#212121" stroke-linecap="round" stroke-linejoin="round" stroke-width="1"/>
        <text transform="translate(642.9597 1113.9273)" fill="#ebebeb">
          <tspan font-family="Avenir" font-size="16" fill="#ebebeb" x="59.812" y="16">Application Exits</tspan>
        </text>
      </g>
      <g id="Graphic_70">
        <path d="M 336.64434 427.77664 L 569.64434 427.77664 C 574.0626 427.77664 577.64434 431.35836 577.64434 435.77664 L 577.64434 446.77664 C 577.64434 451.1949 574.0626 454.77664 569.64434 454.77664 L 336.64434 454.77664 C 332.22606 454.77664 328.64434 451.1949 328.64434 446.77664 L 328.64434 435.77664 C 328.64434 431.35836 332.22606 427.77664 336.64434 427.77664 Z" fill="#0064aa"/>
        <path d="M 336.64434 427.77664 L 569.64434 427.77664 C 574.0626 427.77664 577.64434 431.35836 577.64434 435.77664 L 577.64434 446.77664 C 577.64434 451.1949 574.0626 454.77664 569.64434 454.77664 L 336.64434 454.77664 C 332.22606 454.77664 328.64434 451.1949 328.64434 446.77664 L 328.64434 435.77664 C 328.64434 431.35836 332.22606 427.77664 336.64434 427.77664 Z" stroke="#212121" stroke-linecap="round" stroke-linejoin="round" stroke-width="1"/>
        <text transform="translate(333.64434 430.27664)" fill="#ebebeb">
          <tspan font-family="Avenir" font-size="16" fill="#ebebeb" x="70.436" y="16">onInitializing()</tspan>
        </text>
      </g>
      <g id="Graphic_69">
        <path d="M 285.9498 428.3581 L 311.27705 428.3581 C 315.69533 428.3581 319.27705 431.93984 319.27705 436.3581 L 319.27705 447.3581 C 319.27705 451.7764 315.69533 455.3581 311.27705 455.3581 L 285.9498 455.3581 C 281.53154 455.3581 277.9498 451.7764 277.9498 447.3581 L 277.9498 436.3581 C 277.9498 431.93984 281.53154 428.3581 285.9498 428.3581 Z" fill="#dead26"/>
        <path d="M 285.9498 428.3581 L 311.27705 428.3581 C 315.69533 428.3581 319.27705 431.93984 319.27705 436.3581 L 319.27705 447.3581 C 319.27705 451.7764 315.69533 455.3581 311.27705 455.3581 L 285.9498 455.3581 C 281.53154 455.3581 277.9498 451.7764 277.9498 447.3581 L 277.9498 436.3581 C 277.9498 431.93984 281.53154 428.3581 285.9498 428.3581 Z" stroke="#212121" stroke-linecap="round" stroke-linejoin="round" stroke-width="1"/>
        <text transform="translate(282.9498 430.8581)" fill="#ebebeb">
          <tspan font-family="Avenir" font-weight="bold" font-size="16" fill="#ebebeb" x="10.92762" y="16">2</tspan>
        </text>
      </g>
      <g id="Graphic_71">
        <path d="M 285.83383 910.3879 L 311.16107 910.3879 C 315.57935 910.3879 319.16107 913.9696 319.16107 918.3879 L 319.16107 929.3879 C 319.16107 933.8062 315.57935 937.3879 311.16107 937.3879 L 285.83383 937.3879 C 281.41555 937.3879 277.83383 933.8062 277.83383 929.3879 L 277.83383 918.3879 C 277.83383 913.9696 281.41555 910.3879 285.83383 910.3879 Z" fill="#4e8f00"/>
        <path d="M 285.83383 910.3879 L 311.16107 910.3879 C 315.57935 910.3879 319.16107 913.9696 319.16107 918.3879 L 319.16107 929.3879 C 319.16107 933.8062 315.57935 937.3879 311.16107 937.3879 L 285.83383 937.3879 C 281.41555 937.3879 277.83383 933.8062 277.83383 929.3879 L 277.83383 918.3879 C 277.83383 913.9696 281.41555 910.3879 285.83383 910.3879 Z" stroke="#212121" stroke-linecap="round" stroke-linejoin="round" stroke-width="1"/>
        <text transform="translate(282.83383 912.8879)" fill="#ebebeb">
          <tspan font-family="Avenir" font-weight="bold" font-size="16" fill="#ebebeb" x="10.92762" y="16">2</tspan>
        </text>
      </g>
      <g id="Line_76">
        <line x1="-35.251532" y1="410.4831" x2="890.0372" y2="412.3756" stroke="#797979" stroke-linecap="round" stroke-linejoin="round" stroke-dasharray="4.0,4.0" stroke-width="1"/>
      </g>
      <g id="Line_77">
        <line x1="-37.58906" y1="792.6886" x2="887.6996" y2="794.5812" stroke="#797979" stroke-linecap="round" stroke-linejoin="round" stroke-dasharray="4.0,4.0" stroke-width="1"/>
      </g>
      <g id="Line_78">
        <line x1="-37.16617" y1="1094.833" x2="888.1225" y2="1096.7256" stroke="#797979" stroke-linecap="round" stroke-linejoin="round" stroke-dasharray="4.0,4.0" stroke-width="1"/>
      </g>
      <g id="Graphic_82">
        <path d="M 23.555283 910.3879 L 256.55528 910.3879 C 260.97356 910.3879 264.55528 913.9696 264.55528 918.3879 L 264.55528 929.3879 C 264.55528 933.8062 260.97356 937.3879 256.55528 937.3879 L 23.555283 937.3879 C 19.137005 937.3879 15.555283 933.8062 15.555283 929.3879 L 15.555283 918.3879 C 15.555283 913.9696 19.137005 910.3879 23.555283 910.3879 Z" fill="#4e8f00"/>
        <path d="M 23.555283 910.3879 L 256.55528 910.3879 C 260.97356 910.3879 264.55528 913.9696 264.55528 918.3879 L 264.55528 929.3879 C 264.55528 933.8062 260.97356 937.3879 256.55528 937.3879 L 23.555283 937.3879 C 19.137005 937.3879 15.555283 933.8062 15.555283 929.3879 L 15.555283 918.3879 C 15.555283 913.9696 19.137005 910.3879 23.555283 910.3879 Z" stroke="#212121" stroke-linecap="round" stroke-linejoin="round" stroke-width="1"/>
        <text transform="translate(20.555283 912.8879)" fill="#ebebeb">
          <tspan font-family="Avenir" font-size="16" fill="#ebebeb" x="94.004" y="16">READY</tspan>
        </text>
      </g>
      <g id="Graphic_81">
        <path d="M -33.444717 910.3879 L -8.117478 910.3879 C -3.6991996 910.3879 -.1174776 913.9696 -.1174776 918.3879 L -.1174776 929.3879 C -.1174776 933.8062 -3.6991996 937.3879 -8.117478 937.3879 L -33.444717 937.3879 C -37.862995 937.3879 -41.444717 933.8062 -41.444717 929.3879 L -41.444717 918.3879 C -41.444717 913.9696 -37.862995 910.3879 -33.444717 910.3879 Z" fill="#4e8f00"/>
        <path d="M -33.444717 910.3879 L -8.117478 910.3879 C -3.6991996 910.3879 -.1174776 913.9696 -.1174776 918.3879 L -.1174776 929.3879 C -.1174776 933.8062 -3.6991996 937.3879 -8.117478 937.3879 L -33.444717 937.3879 C -37.862995 937.3879 -41.444717 933.8062 -41.444717 929.3879 L -41.444717 918.3879 C -41.444717 913.9696 -37.862995 910.3879 -33.444717 910.3879 Z" stroke="#212121" stroke-linecap="round" stroke-linejoin="round" stroke-width="1"/>
        <text transform="translate(-36.444717 912.8879)" fill="#ebebeb">
          <tspan font-family="Avenir" font-weight="bold" font-size="16" fill="#ebebeb" x="10.92762" y="16">1</tspan>
        </text>
      </g>
      <g id="Graphic_84">
        <path d="M 337.0553 676.4616 L 570.0553 676.4616 C 574.47356 676.4616 578.0553 680.0433 578.0553 684.4616 L 578.0553 695.4616 C 578.0553 699.8799 574.47356 703.4616 570.0553 703.4616 L 337.0553 703.4616 C 332.637 703.4616 329.0553 699.8799 329.0553 695.4616 L 329.0553 684.4616 C 329.0553 680.0433 332.637 676.4616 337.0553 676.4616 Z" fill="#0064aa"/>
        <path d="M 337.0553 676.4616 L 570.0553 676.4616 C 574.47356 676.4616 578.0553 680.0433 578.0553 684.4616 L 578.0553 695.4616 C 578.0553 699.8799 574.47356 703.4616 570.0553 703.4616 L 337.0553 703.4616 C 332.637 703.4616 329.0553 699.8799 329.0553 695.4616 L 329.0553 684.4616 C 329.0553 680.0433 332.637 676.4616 337.0553 676.4616 Z" stroke="#212121" stroke-linecap="round" stroke-linejoin="round" stroke-width="1"/>
        <text transform="translate(334.0553 678.9616)" fill="#ebebeb">
          <tspan font-family="Avenir" font-size="16" fill="#ebebeb" x="49.108" y="16">onProjectsInitialize()</tspan>
        </text>
      </g>
      <g id="Graphic_83">
        <path d="M 285.86225 676.4616 L 311.1895 676.4616 C 315.60776 676.4616 319.1895 680.0433 319.1895 684.4616 L 319.1895 695.4616 C 319.1895 699.8799 315.60776 703.4616 311.1895 703.4616 L 285.86225 703.4616 C 281.44397 703.4616 277.86225 699.8799 277.86225 695.4616 L 277.86225 684.4616 C 277.86225 680.0433 281.44397 676.4616 285.86225 676.4616 Z" fill="#dead26"/>
        <path d="M 285.86225 676.4616 L 311.1895 676.4616 C 315.60776 676.4616 319.1895 680.0433 319.1895 684.4616 L 319.1895 695.4616 C 319.1895 699.8799 315.60776 703.4616 311.1895 703.4616 L 285.86225 703.4616 C 281.44397 703.4616 277.86225 699.8799 277.86225 695.4616 L 277.86225 684.4616 C 277.86225 680.0433 281.44397 676.4616 285.86225 676.4616 Z" stroke="#212121" stroke-linecap="round" stroke-linejoin="round" stroke-width="1"/>
        <text transform="translate(282.86225 678.9616)" fill="#ebebeb">
          <tspan font-family="Avenir" font-weight="bold" font-size="16" fill="#ebebeb" x="6.19162" y="16">10</tspan>
        </text>
      </g>
      <g id="Graphic_86">
        <path d="M 646.0672 427.77664 L 879.0672 427.77664 C 883.4855 427.77664 887.0672 431.35836 887.0672 435.77664 L 887.0672 446.77664 C 887.0672 451.1949 883.4855 454.77664 879.0672 454.77664 L 646.0672 454.77664 C 641.64895 454.77664 638.0672 451.1949 638.0672 446.77664 L 638.0672 435.77664 C 638.0672 431.35836 641.64895 427.77664 646.0672 427.77664 Z" fill="#ca7400"/>
        <path d="M 646.0672 427.77664 L 879.0672 427.77664 C 883.4855 427.77664 887.0672 431.35836 887.0672 435.77664 L 887.0672 446.77664 C 887.0672 451.1949 883.4855 454.77664 879.0672 454.77664 L 646.0672 454.77664 C 641.64895 454.77664 638.0672 451.1949 638.0672 446.77664 L 638.0672 435.77664 C 638.0672 431.35836 641.64895 427.77664 646.0672 427.77664 Z" stroke="#212121" stroke-linecap="round" stroke-linejoin="round" stroke-width="1"/>
        <text transform="translate(643.0672 430.27664)" fill="#ebebeb">
          <tspan font-family="Avenir" font-size="16" fill="#ebebeb" x="35.812" y="16">Enable Startup Options</tspan>
        </text>
      </g>
      <g id="Graphic_85">
        <path d="M 596.41275 428.3581 L 621.74 428.3581 C 626.1583 428.3581 629.74 431.93984 629.74 436.3581 L 629.74 447.3581 C 629.74 451.7764 626.1583 455.3581 621.74 455.3581 L 596.41275 455.3581 C 591.9945 455.3581 588.41275 451.7764 588.41275 447.3581 L 588.41275 436.3581 C 588.41275 431.93984 591.9945 428.3581 596.41275 428.3581 Z" fill="#dead26"/>
        <path d="M 596.41275 428.3581 L 621.74 428.3581 C 626.1583 428.3581 629.74 431.93984 629.74 436.3581 L 629.74 447.3581 C 629.74 451.7764 626.1583 455.3581 621.74 455.3581 L 596.41275 455.3581 C 591.9945 455.3581 588.41275 451.7764 588.41275 447.3581 L 588.41275 436.3581 C 588.41275 431.93984 591.9945 428.3581 596.41275 428.3581 Z" stroke="#212121" stroke-linecap="round" stroke-linejoin="round" stroke-width="1"/>
        <text transform="translate(593.41275 430.8581)" fill="#ebebeb">
          <tspan font-family="Avenir" font-weight="bold" font-size="16" fill="#ebebeb" x="10.92762" y="16">3</tspan>
        </text>
      </g>
      <g id="Graphic_87">
        <path d="M 596.41275 472.5255 L 621.74 472.5255 C 626.1583 472.5255 629.74 476.1072 629.74 480.5255 L 629.74 491.5255 C 629.74 495.9438 626.1583 499.5255 621.74 499.5255 L 596.41275 499.5255 C 591.9945 499.5255 588.41275 495.9438 588.41275 491.5255 L 588.41275 480.5255 C 588.41275 476.1072 591.9945 472.5255 596.41275 472.5255 Z" fill="#dead26"/>
        <path d="M 596.41275 472.5255 L 621.74 472.5255 C 626.1583 472.5255 629.74 476.1072 629.74 480.5255 L 629.74 491.5255 C 629.74 495.9438 626.1583 499.5255 621.74 499.5255 L 596.41275 499.5255 C 591.9945 499.5255 588.41275 495.9438 588.41275 491.5255 L 588.41275 480.5255 C 588.41275 476.1072 591.9945 472.5255 596.41275 472.5255 Z" stroke="#212121" stroke-linecap="round" stroke-linejoin="round" stroke-width="1"/>
        <text transform="translate(593.41275 475.0255)" fill="#ebebeb">
          <tspan font-family="Avenir" font-weight="bold" font-size="16" fill="#ebebeb" x="10.92762" y="16">5</tspan>
        </text>
      </g>
      <g id="Graphic_88">
        <path d="M 596.0018 518.10785 L 621.32905 518.10785 C 625.7473 518.10785 629.32905 521.6896 629.32905 526.10785 L 629.32905 537.10785 C 629.32905 541.5261 625.7473 545.10785 621.32905 545.10785 L 596.0018 545.10785 C 591.5835 545.10785 588.0018 541.5261 588.0018 537.10785 L 588.0018 526.10785 C 588.0018 521.6896 591.5835 518.10785 596.0018 518.10785 Z" fill="#dead26"/>
        <path d="M 596.0018 518.10785 L 621.32905 518.10785 C 625.7473 518.10785 629.32905 521.6896 629.32905 526.10785 L 629.32905 537.10785 C 629.32905 541.5261 625.7473 545.10785 621.32905 545.10785 L 596.0018 545.10785 C 591.5835 545.10785 588.0018 541.5261 588.0018 537.10785 L 588.0018 526.10785 C 588.0018 521.6896 591.5835 518.10785 596.0018 518.10785 Z" stroke="#212121" stroke-linecap="round" stroke-linejoin="round" stroke-width="1"/>
        <text transform="translate(593.0018 520.60785)" fill="#ebebeb">
          <tspan font-family="Avenir" font-weight="bold" font-size="16" fill="#ebebeb" x="10.92762" y="16">6</tspan>
        </text>
      </g>
      <g id="Graphic_89">
        <path d="M 648.2153 559.2884 L 881.2153 559.2884 C 885.6335 559.2884 889.2153 562.87014 889.2153 567.2884 L 889.2153 578.2884 C 889.2153 582.7067 885.6335 586.2884 881.2153 586.2884 L 648.2153 586.2884 C 643.797 586.2884 640.2153 582.7067 640.2153 578.2884 L 640.2153 567.2884 C 640.2153 562.87014 643.797 559.2884 648.2153 559.2884 Z" fill="#ca7400"/>
        <path d="M 648.2153 559.2884 L 881.2153 559.2884 C 885.6335 559.2884 889.2153 562.87014 889.2153 567.2884 L 889.2153 578.2884 C 889.2153 582.7067 885.6335 586.2884 881.2153 586.2884 L 648.2153 586.2884 C 643.797 586.2884 640.2153 582.7067 640.2153 578.2884 L 640.2153 567.2884 C 640.2153 562.87014 643.797 559.2884 648.2153 559.2884 Z" stroke="#212121" stroke-linecap="round" stroke-linejoin="round" stroke-width="1"/>
        <text transform="translate(645.2153 561.7884)" fill="#ebebeb">
          <tspan font-family="Avenir" font-size="16" fill="#ebebeb" x="43.956" y="16">Register Deployment</tspan>
        </text>
      </g>
      <g id="Graphic_90">
        <path d="M 595.5909 559.2884 L 620.9181 559.2884 C 625.3364 559.2884 628.9181 562.87014 628.9181 567.2884 L 628.9181 578.2884 C 628.9181 582.7067 625.3364 586.2884 620.9181 586.2884 L 595.5909 586.2884 C 591.1726 586.2884 587.5909 582.7067 587.5909 578.2884 L 587.5909 567.2884 C 587.5909 562.87014 591.1726 559.2884 595.5909 559.2884 Z" fill="#dead26"/>
        <path d="M 595.5909 559.2884 L 620.9181 559.2884 C 625.3364 559.2884 628.9181 562.87014 628.9181 567.2884 L 628.9181 578.2884 C 628.9181 582.7067 625.3364 586.2884 620.9181 586.2884 L 595.5909 586.2884 C 591.1726 586.2884 587.5909 582.7067 587.5909 578.2884 L 587.5909 567.2884 C 587.5909 562.87014 591.1726 559.2884 595.5909 559.2884 Z" stroke="#212121" stroke-linecap="round" stroke-linejoin="round" stroke-width="1"/>
        <text transform="translate(592.5909 561.7884)" fill="#ebebeb">
          <tspan font-family="Avenir" font-weight="bold" font-size="16" fill="#ebebeb" x="10.92762" y="16">7</tspan>
        </text>
      </g>
      <g id="Graphic_91">
        <path d="M 285.4229 327.63778 L 310.75013 327.63778 C 315.1684 327.63778 318.75013 331.2195 318.75013 335.63778 L 318.75013 346.63778 C 318.75013 351.05605 315.1684 354.63778 310.75013 354.63778 L 285.4229 354.63778 C 281.0046 354.63778 277.4229 351.05605 277.4229 346.63778 L 277.4229 335.63778 C 277.4229 331.2195 281.0046 327.63778 285.4229 327.63778 Z" fill="#a5a5a5"/>
        <path d="M 285.4229 327.63778 L 310.75013 327.63778 C 315.1684 327.63778 318.75013 331.2195 318.75013 335.63778 L 318.75013 346.63778 C 318.75013 351.05605 315.1684 354.63778 310.75013 354.63778 L 285.4229 354.63778 C 281.0046 354.63778 277.4229 351.05605 277.4229 346.63778 L 277.4229 335.63778 C 277.4229 331.2195 281.0046 327.63778 285.4229 327.63778 Z" stroke="#212121" stroke-linecap="round" stroke-linejoin="round" stroke-width="1"/>
        <text transform="translate(282.4229 330.13778)" fill="#ebebeb">
          <tspan font-family="Avenir" font-weight="bold" font-size="16" fill="#ebebeb" x="10.92762" y="16">3</tspan>
        </text>
      </g>
      <g id="Graphic_92">
        <path d="M 285.4513 368.0821 L 310.77855 368.0821 C 315.19682 368.0821 318.77855 371.6638 318.77855 376.0821 L 318.77855 387.0821 C 318.77855 391.50036 315.19682 395.0821 310.77855 395.0821 L 285.4513 395.0821 C 281.03303 395.0821 277.4513 391.50036 277.4513 387.0821 L 277.4513 376.0821 C 277.4513 371.6638 281.03303 368.0821 285.4513 368.0821 Z" fill="#a5a5a5"/>
        <path d="M 285.4513 368.0821 L 310.77855 368.0821 C 315.19682 368.0821 318.77855 371.6638 318.77855 376.0821 L 318.77855 387.0821 C 318.77855 391.50036 315.19682 395.0821 310.77855 395.0821 L 285.4513 395.0821 C 281.03303 395.0821 277.4513 391.50036 277.4513 387.0821 L 277.4513 376.0821 C 277.4513 371.6638 281.03303 368.0821 285.4513 368.0821 Z" stroke="#212121" stroke-linecap="round" stroke-linejoin="round" stroke-width="1"/>
        <text transform="translate(282.4513 370.5821)" fill="#ebebeb">
          <tspan font-family="Avenir" font-weight="bold" font-size="16" fill="#ebebeb" x="10.92762" y="16">4</tspan>
        </text>
      </g>
      <g id="Line_93">
        <line x1="-38" y1="893.1406" x2="887.2887" y2="895.0331" stroke="#797979" stroke-linecap="round" stroke-linejoin="round" stroke-dasharray="4.0,4.0" stroke-width="1"/>
      </g>
      <g id="Line_94">
        <line x1="-38" y1="952.7427" x2="887.2887" y2="954.6352" stroke="#797979" stroke-linecap="round" stroke-linejoin="round" stroke-dasharray="4.0,4.0" stroke-width="1"/>
      </g>
    </g>
  </g>
</svg>
