<?xml version="1.0" encoding="UTF-8" standalone="no"?>
<!DOCTYPE svg PUBLIC "-//W3C//DTD SVG 1.1//EN" "http://www.w3.org/Graphics/SVG/1.1/DTD/svg11.dtd">
<svg xmlns:dc="http://purl.org/dc/elements/1.1/" version="1.1" xmlns="http://www.w3.org/2000/svg" xmlns:xl="http://www.w3.org/1999/xlink" viewBox="10.5 232.5 824.6728 1064.5" width="824.6728" height="1064.5">
  <defs/>
  <g id="Canvas_1" stroke="none" fill="none" stroke-opacity="1" stroke-dasharray="none" fill-opacity="1">
    <title>Canvas 1</title>
    <g id="Canvas_1_Layer_1">
      <title>Layer 1</title>
      <g id="Graphic_2">
        <path d="M 301.67276 287.5 L 534.67276 287.5 C 539.09104 287.5 542.67276 291.08172 542.67276 295.5 L 542.67276 306.5 C 542.67276 310.91828 539.09104 314.5 534.67276 314.5 L 301.67276 314.5 C 297.2545 314.5 293.67276 310.91828 293.67276 306.5 L 293.67276 295.5 C 293.67276 291.08172 297.2545 287.5 301.67276 287.5 Z" fill="#0064aa"/>
        <path d="M 301.67276 287.5 L 534.67276 287.5 C 539.09104 287.5 542.67276 291.08172 542.67276 295.5 L 542.67276 306.5 C 542.67276 310.91828 539.09104 314.5 534.67276 314.5 L 301.67276 314.5 C 297.2545 314.5 293.67276 310.91828 293.67276 306.5 L 293.67276 295.5 C 293.67276 291.08172 297.2545 287.5 301.67276 287.5 Z" stroke="#212121" stroke-linecap="round" stroke-linejoin="round" stroke-width="1"/>
        <text transform="translate(298.67276 290)" fill="#ebebeb">
          <tspan font-family="Avenir" font-size="16" fill="#ebebeb" x="32.828" y="16">main(String[] arguments)</tspan>
        </text>
      </g>
      <g id="Graphic_4">
        <path d="M 27 274.87273 L 260 274.87273 C 264.41828 274.87273 268 271.291 268 266.87273 L 268 249 C 268 244.58172 264.41828 241 260 241 L 27 241 C 22.581722 241 19 244.58172 19 249 L 19 266.87273 C 19 271.291 22.581722 274.87273 27 274.87273 Z" fill="#8efa00"/>
        <path d="M 27 274.87273 L 260 274.87273 C 264.41828 274.87273 268 271.291 268 266.87273 L 268 249 C 268 244.58172 264.41828 241 260 241 L 27 241 C 22.581722 241 19 244.58172 19 249 L 19 266.87273 C 19 271.291 22.581722 274.87273 27 274.87273 Z" stroke="#212121" stroke-linecap="round" stroke-linejoin="round" stroke-width="1"/>
        <text transform="translate(24 246.93636)" fill="black">
          <tspan font-family="Avenir" font-weight="bold" font-size="16" fill="black" x="99.796" y="16">State</tspan>
        </text>
      </g>
      <g id="Graphic_6">
        <path d="M 301.67276 365.5 L 534.67276 365.5 C 539.09104 365.5 542.67276 369.08172 542.67276 373.5 L 542.67276 384.5 C 542.67276 388.9183 539.09104 392.5 534.67276 392.5 L 301.67276 392.5 C 297.2545 392.5 293.67276 388.9183 293.67276 384.5 L 293.67276 373.5 C 293.67276 369.08172 297.2545 365.5 301.67276 365.5 Z" fill="#0064aa"/>
        <path d="M 301.67276 365.5 L 534.67276 365.5 C 539.09104 365.5 542.67276 369.08172 542.67276 373.5 L 542.67276 384.5 C 542.67276 388.9183 539.09104 392.5 534.67276 392.5 L 301.67276 392.5 C 297.2545 392.5 293.67276 388.9183 293.67276 384.5 L 293.67276 373.5 C 293.67276 369.08172 297.2545 365.5 301.67276 365.5 Z" stroke="#212121" stroke-linecap="round" stroke-linejoin="round" stroke-width="1"/>
        <text transform="translate(298.67276 368)" fill="#ebebeb">
          <tspan font-family="Avenir" font-size="16" fill="#ebebeb" x="78.612" y="16">run(String[])</tspan>
        </text>
      </g>
      <g id="Graphic_8">
        <path d="M 585.67276 403.5 L 818.6728 403.5 C 823.091 403.5 826.6728 407.0817 826.6728 411.5 L 826.6728 422.5 C 826.6728 426.9183 823.091 430.5 818.6728 430.5 L 585.67276 430.5 C 581.2545 430.5 577.67276 426.9183 577.67276 422.5 L 577.67276 411.5 C 577.67276 407.0817 581.2545 403.5 585.67276 403.5 Z" fill="#ca7400"/>
        <path d="M 585.67276 403.5 L 818.6728 403.5 C 823.091 403.5 826.6728 407.0817 826.6728 411.5 L 826.6728 422.5 C 826.6728 426.9183 823.091 430.5 818.6728 430.5 L 585.67276 430.5 C 581.2545 430.5 577.67276 426.9183 577.67276 422.5 L 577.67276 411.5 C 577.67276 407.0817 581.2545 403.5 585.67276 403.5 Z" stroke="#212121" stroke-linecap="round" stroke-linejoin="round" stroke-width="1"/>
        <text transform="translate(582.67276 406)" fill="#ebebeb">
          <tspan font-family="Avenir" font-size="16" fill="#ebebeb" x="38.036" y="16">Enable StartupOptions</tspan>
        </text>
      </g>
      <g id="Graphic_9">
        <path d="M 27 442.5 L 260 442.5 C 264.41828 442.5 268 446.0817 268 450.5 L 268 461.5 C 268 465.9183 264.41828 469.5 260 469.5 L 27 469.5 C 22.581722 469.5 19 465.9183 19 461.5 L 19 450.5 C 19 446.0817 22.581722 442.5 27 442.5 Z" fill="#4e8f00"/>
        <path d="M 27 442.5 L 260 442.5 C 264.41828 442.5 268 446.0817 268 450.5 L 268 461.5 C 268 465.9183 264.41828 469.5 260 469.5 L 27 469.5 C 22.581722 469.5 19 465.9183 19 461.5 L 19 450.5 C 19 446.0817 22.581722 442.5 27 442.5 Z" stroke="#212121" stroke-linecap="round" stroke-linejoin="round" stroke-width="1"/>
        <text transform="translate(24 445)" fill="#ebebeb">
          <tspan font-family="Avenir" font-size="16" fill="#ebebeb" x="40.94" y="16">State -&gt; INITIALIZING</tspan>
        </text>
      </g>
      <g id="Graphic_10">
        <path d="M 301.67276 481.5 L 534.67276 481.5 C 539.09104 481.5 542.67276 485.0817 542.67276 489.5 L 542.67276 500.5 C 542.67276 504.9183 539.09104 508.5 534.67276 508.5 L 301.67276 508.5 C 297.2545 508.5 293.67276 504.9183 293.67276 500.5 L 293.67276 489.5 C 293.67276 485.0817 297.2545 481.5 301.67276 481.5 Z" fill="#0064aa"/>
        <path d="M 301.67276 481.5 L 534.67276 481.5 C 539.09104 481.5 542.67276 485.0817 542.67276 489.5 L 542.67276 500.5 C 542.67276 504.9183 539.09104 508.5 534.67276 508.5 L 301.67276 508.5 C 297.2545 508.5 293.67276 504.9183 293.67276 500.5 L 293.67276 489.5 C 293.67276 485.0817 297.2545 481.5 301.67276 481.5 Z" stroke="#212121" stroke-linecap="round" stroke-linejoin="round" stroke-width="1"/>
        <text transform="translate(298.67276 484)" fill="#ebebeb">
          <tspan font-family="Avenir" font-size="16" fill="#ebebeb" x="34.452" y="16">onSerializationInitialize()</tspan>
        </text>
      </g>
      <g id="Graphic_11">
        <path d="M 301.67276 520.5 L 534.67276 520.5 C 539.09104 520.5 542.67276 524.0817 542.67276 528.5 L 542.67276 539.5 C 542.67276 543.9183 539.09104 547.5 534.67276 547.5 L 301.67276 547.5 C 297.2545 547.5 293.67276 543.9183 293.67276 539.5 L 293.67276 528.5 C 293.67276 524.0817 297.2545 520.5 301.67276 520.5 Z" fill="#0064aa"/>
        <path d="M 301.67276 520.5 L 534.67276 520.5 C 539.09104 520.5 542.67276 524.0817 542.67276 528.5 L 542.67276 539.5 C 542.67276 543.9183 539.09104 547.5 534.67276 547.5 L 301.67276 547.5 C 297.2545 547.5 293.67276 543.9183 293.67276 539.5 L 293.67276 528.5 C 293.67276 524.0817 297.2545 520.5 301.67276 520.5 Z" stroke="#212121" stroke-linecap="round" stroke-linejoin="round" stroke-width="1"/>
        <text transform="translate(298.67276 523)" fill="#ebebeb">
          <tspan font-family="Avenir" font-size="16" fill="#ebebeb" x="76.804" y="16">onRunning()</tspan>
        </text>
      </g>
      <g id="Graphic_12">
        <path d="M 301.67276 559.5 L 534.67276 559.5 C 539.09104 559.5 542.67276 563.0817 542.67276 567.5 L 542.67276 578.5 C 542.67276 582.9183 539.09104 586.5 534.67276 586.5 L 301.67276 586.5 C 297.2545 586.5 293.67276 582.9183 293.67276 578.5 L 293.67276 567.5 C 293.67276 563.0817 297.2545 559.5 301.67276 559.5 Z" fill="#0064aa"/>
        <path d="M 301.67276 559.5 L 534.67276 559.5 C 539.09104 559.5 542.67276 563.0817 542.67276 567.5 L 542.67276 578.5 C 542.67276 582.9183 539.09104 586.5 534.67276 586.5 L 301.67276 586.5 C 297.2545 586.5 293.67276 582.9183 293.67276 578.5 L 293.67276 567.5 C 293.67276 563.0817 297.2545 559.5 301.67276 559.5 Z" stroke="#212121" stroke-linecap="round" stroke-linejoin="round" stroke-width="1"/>
        <text transform="translate(298.67276 562)" fill="#ebebeb">
          <tspan font-family="Avenir" font-size="16" fill="#ebebeb" x="42.3" y="16">onProjectsInitializing()</tspan>
        </text>
      </g>
      <g id="Graphic_13">
        <path d="M 585.67276 598.5 L 818.6728 598.5 C 823.091 598.5 826.6728 602.0817 826.6728 606.5 L 826.6728 617.5 C 826.6728 621.9183 823.091 625.5 818.6728 625.5 L 585.67276 625.5 C 581.2545 625.5 577.67276 621.9183 577.67276 617.5 L 577.67276 606.5 C 577.67276 602.0817 581.2545 598.5 585.67276 598.5 Z" fill="#ca7400"/>
        <path d="M 585.67276 598.5 L 818.6728 598.5 C 823.091 598.5 826.6728 602.0817 826.6728 606.5 L 826.6728 617.5 C 826.6728 621.9183 823.091 625.5 818.6728 625.5 L 585.67276 625.5 C 581.2545 625.5 577.67276 621.9183 577.67276 617.5 L 577.67276 606.5 C 577.67276 602.0817 581.2545 598.5 585.67276 598.5 Z" stroke="#212121" stroke-linecap="round" stroke-linejoin="round" stroke-width="1"/>
        <text transform="translate(582.67276 601)" fill="#ebebeb">
          <tspan font-family="Avenir" font-size="16" fill="#ebebeb" x="60.236" y="16">Initialize Projects</tspan>
        </text>
      </g>
      <g id="Graphic_14">
        <path d="M 301.67276 637.5 L 534.67276 637.5 C 539.09104 637.5 542.67276 641.0817 542.67276 645.5 L 542.67276 656.5 C 542.67276 660.9183 539.09104 664.5 534.67276 664.5 L 301.67276 664.5 C 297.2545 664.5 293.67276 660.9183 293.67276 656.5 L 293.67276 645.5 C 293.67276 641.0817 297.2545 637.5 301.67276 637.5 Z" fill="#0064aa"/>
        <path d="M 301.67276 637.5 L 534.67276 637.5 C 539.09104 637.5 542.67276 641.0817 542.67276 645.5 L 542.67276 656.5 C 542.67276 660.9183 539.09104 664.5 534.67276 664.5 L 301.67276 664.5 C 297.2545 664.5 293.67276 660.9183 293.67276 656.5 L 293.67276 645.5 C 293.67276 641.0817 297.2545 637.5 301.67276 637.5 Z" stroke="#212121" stroke-linecap="round" stroke-linejoin="round" stroke-width="1"/>
        <text transform="translate(298.67276 640)" fill="#ebebeb">
          <tspan font-family="Avenir" font-size="16" fill="#ebebeb" x="48.38" y="16">onProjectsInitialized</tspan>
        </text>
      </g>
      <g id="Graphic_15">
        <path d="M 585.67276 676.5 L 818.6728 676.5 C 823.091 676.5 826.6728 680.0817 826.6728 684.5 L 826.6728 695.5 C 826.6728 699.9183 823.091 703.5 818.6728 703.5 L 585.67276 703.5 C 581.2545 703.5 577.67276 699.9183 577.67276 695.5 L 577.67276 684.5 C 577.67276 680.0817 581.2545 676.5 585.67276 676.5 Z" fill="#ca7400"/>
        <path d="M 585.67276 676.5 L 818.6728 676.5 C 823.091 676.5 826.6728 680.0817 826.6728 684.5 L 826.6728 695.5 C 826.6728 699.9183 823.091 703.5 818.6728 703.5 L 585.67276 703.5 C 581.2545 703.5 577.67276 699.9183 577.67276 695.5 L 577.67276 684.5 C 577.67276 680.0817 581.2545 676.5 585.67276 676.5 Z" stroke="#212121" stroke-linecap="round" stroke-linejoin="round" stroke-width="1"/>
        <text transform="translate(582.67276 679)" fill="#ebebeb">
          <tspan font-family="Avenir" font-size="16" fill="#ebebeb" x="51.932" y="16">Load Deployments</tspan>
        </text>
      </g>
      <g id="Graphic_16">
        <path d="M 301.67276 715.5 L 534.67276 715.5 C 539.09104 715.5 542.67276 719.0817 542.67276 723.5 L 542.67276 734.5 C 542.67276 738.9183 539.09104 742.5 534.67276 742.5 L 301.67276 742.5 C 297.2545 742.5 293.67276 738.9183 293.67276 734.5 L 293.67276 723.5 C 293.67276 719.0817 297.2545 715.5 301.67276 715.5 Z" fill="#0064aa"/>
        <path d="M 301.67276 715.5 L 534.67276 715.5 C 539.09104 715.5 542.67276 719.0817 542.67276 723.5 L 542.67276 734.5 C 542.67276 738.9183 539.09104 742.5 534.67276 742.5 L 301.67276 742.5 C 297.2545 742.5 293.67276 738.9183 293.67276 734.5 L 293.67276 723.5 C 293.67276 719.0817 297.2545 715.5 301.67276 715.5 Z" stroke="#212121" stroke-linecap="round" stroke-linejoin="round" stroke-width="1"/>
        <text transform="translate(298.67276 718)" fill="#ebebeb">
          <tspan font-family="Avenir" font-size="16" fill="#ebebeb" x="55.652" y="16">argumentParsers()</tspan>
        </text>
      </g>
      <g id="Graphic_17">
        <path d="M 301.67276 754.5 L 534.67276 754.5 C 539.09104 754.5 542.67276 758.0817 542.67276 762.5 L 542.67276 773.5 C 542.67276 777.9183 539.09104 781.5 534.67276 781.5 L 301.67276 781.5 C 297.2545 781.5 293.67276 777.9183 293.67276 773.5 L 293.67276 762.5 C 293.67276 758.0817 297.2545 754.5 301.67276 754.5 Z" fill="#0064aa"/>
        <path d="M 301.67276 754.5 L 534.67276 754.5 C 539.09104 754.5 542.67276 758.0817 542.67276 762.5 L 542.67276 773.5 C 542.67276 777.9183 539.09104 781.5 534.67276 781.5 L 301.67276 781.5 C 297.2545 781.5 293.67276 777.9183 293.67276 773.5 L 293.67276 762.5 C 293.67276 758.0817 297.2545 754.5 301.67276 754.5 Z" stroke="#212121" stroke-linecap="round" stroke-linejoin="round" stroke-width="1"/>
        <text transform="translate(298.67276 757)" fill="#ebebeb">
          <tspan font-family="Avenir" font-size="16" fill="#ebebeb" x="67.956" y="16">switchParsers()</tspan>
        </text>
      </g>
      <g id="Graphic_18">
        <path d="M 585.67276 793.5 L 818.6728 793.5 C 823.091 793.5 826.6728 797.0817 826.6728 801.5 L 826.6728 812.5 C 826.6728 816.9183 823.091 820.5 818.6728 820.5 L 585.67276 820.5 C 581.2545 820.5 577.67276 816.9183 577.67276 812.5 L 577.67276 801.5 C 577.67276 797.0817 581.2545 793.5 585.67276 793.5 Z" fill="#ca7400"/>
        <path d="M 585.67276 793.5 L 818.6728 793.5 C 823.091 793.5 826.6728 797.0817 826.6728 801.5 L 826.6728 812.5 C 826.6728 816.9183 823.091 820.5 818.6728 820.5 L 585.67276 820.5 C 581.2545 820.5 577.67276 816.9183 577.67276 812.5 L 577.67276 801.5 C 577.67276 797.0817 581.2545 793.5 585.67276 793.5 Z" stroke="#212121" stroke-linecap="round" stroke-linejoin="round" stroke-width="1"/>
        <text transform="translate(582.67276 796)" fill="#ebebeb">
          <tspan font-family="Avenir" font-size="16" fill="#ebebeb" x="43.484" y="16">Parse Command Line</tspan>
        </text>
      </g>
      <g id="Graphic_19">
        <path d="M 301.67276 832.5 L 534.67276 832.5 C 539.09104 832.5 542.67276 836.0817 542.67276 840.5 L 542.67276 851.5 C 542.67276 855.9183 539.09104 859.5 534.67276 859.5 L 301.67276 859.5 C 297.2545 859.5 293.67276 855.9183 293.67276 851.5 L 293.67276 840.5 C 293.67276 836.0817 297.2545 832.5 301.67276 832.5 Z" fill="#0064aa"/>
        <path d="M 301.67276 832.5 L 534.67276 832.5 C 539.09104 832.5 542.67276 836.0817 542.67276 840.5 L 542.67276 851.5 C 542.67276 855.9183 539.09104 859.5 534.67276 859.5 L 301.67276 859.5 C 297.2545 859.5 293.67276 855.9183 293.67276 851.5 L 293.67276 840.5 C 293.67276 836.0817 297.2545 832.5 301.67276 832.5 Z" stroke="#212121" stroke-linecap="round" stroke-linejoin="round" stroke-width="1"/>
        <text transform="translate(298.67276 835)" fill="#ebebeb">
          <tspan font-family="Avenir" font-size="16" fill="#ebebeb" x="43.508" y="16">onConfigureListeners</tspan>
        </text>
      </g>
      <g id="Graphic_20">
        <path d="M 301.67276 871.5 L 534.67276 871.5 C 539.09104 871.5 542.67276 875.0817 542.67276 879.5 L 542.67276 890.5 C 542.67276 894.9183 539.09104 898.5 534.67276 898.5 L 301.67276 898.5 C 297.2545 898.5 293.67276 894.9183 293.67276 890.5 L 293.67276 879.5 C 293.67276 875.0817 297.2545 871.5 301.67276 871.5 Z" fill="#0064aa"/>
        <path d="M 301.67276 871.5 L 534.67276 871.5 C 539.09104 871.5 542.67276 875.0817 542.67276 879.5 L 542.67276 890.5 C 542.67276 894.9183 539.09104 898.5 534.67276 898.5 L 301.67276 898.5 C 297.2545 898.5 293.67276 894.9183 293.67276 890.5 L 293.67276 879.5 C 293.67276 875.0817 297.2545 871.5 301.67276 871.5 Z" stroke="#212121" stroke-linecap="round" stroke-linejoin="round" stroke-width="1"/>
        <text transform="translate(298.67276 874)" fill="#ebebeb">
          <tspan font-family="Avenir" font-size="16" fill="#ebebeb" x="43.508" y="16">onConfigureListeners</tspan>
        </text>
      </g>
      <g id="Graphic_21">
        <path d="M 585.67276 910.5 L 818.6728 910.5 C 823.091 910.5 826.6728 914.0817 826.6728 918.5 L 826.6728 929.5 C 826.6728 933.9183 823.091 937.5 818.6728 937.5 L 585.67276 937.5 C 581.2545 937.5 577.67276 933.9183 577.67276 929.5 L 577.67276 918.5 C 577.67276 914.0817 581.2545 910.5 585.67276 910.5 Z" fill="#ca7400"/>
        <path d="M 585.67276 910.5 L 818.6728 910.5 C 823.091 910.5 826.6728 914.0817 826.6728 918.5 L 826.6728 929.5 C 826.6728 933.9183 823.091 937.5 818.6728 937.5 L 585.67276 937.5 C 581.2545 937.5 577.67276 933.9183 577.67276 929.5 L 577.67276 918.5 C 577.67276 914.0817 581.2545 910.5 585.67276 910.5 Z" stroke="#212121" stroke-linecap="round" stroke-linejoin="round" stroke-width="1"/>
        <text transform="translate(582.67276 913)" fill="#ebebeb">
          <tspan font-family="Avenir" font-size="16" fill="#ebebeb" x="43.956" y="16">Register Deployment </tspan>
        </text>
      </g>
      <g id="Graphic_22">
        <path d="M 585.67276 949.5 L 818.6728 949.5 C 823.091 949.5 826.6728 953.0817 826.6728 957.5 L 826.6728 968.5 C 826.6728 972.9183 823.091 976.5 818.6728 976.5 L 585.67276 976.5 C 581.2545 976.5 577.67276 972.9183 577.67276 968.5 L 577.67276 957.5 C 577.67276 953.0817 581.2545 949.5 585.67276 949.5 Z" fill="#ca7400"/>
        <path d="M 585.67276 949.5 L 818.6728 949.5 C 823.091 949.5 826.6728 953.0817 826.6728 957.5 L 826.6728 968.5 C 826.6728 972.9183 823.091 976.5 818.6728 976.5 L 585.67276 976.5 C 581.2545 976.5 577.67276 972.9183 577.67276 968.5 L 577.67276 957.5 C 577.67276 953.0817 581.2545 949.5 585.67276 949.5 Z" stroke="#212121" stroke-linecap="round" stroke-linejoin="round" stroke-width="1"/>
        <text transform="translate(582.67276 952)" fill="#ebebeb">
          <tspan font-family="Avenir" font-size="16" fill="#ebebeb" x="28.524" y="16">Show Startup Information</tspan>
        </text>
      </g>
      <g id="Graphic_23">
        <path d="M 27 988.5 L 260 988.5 C 264.41828 988.5 268 992.0817 268 996.5 L 268 1007.5 C 268 1011.9183 264.41828 1015.5 260 1015.5 L 27 1015.5 C 22.581722 1015.5 19 1011.9183 19 1007.5 L 19 996.5 C 19 992.0817 22.581722 988.5 27 988.5 Z" fill="#4e8f00"/>
        <path d="M 27 988.5 L 260 988.5 C 264.41828 988.5 268 992.0817 268 996.5 L 268 1007.5 C 268 1011.9183 264.41828 1015.5 260 1015.5 L 27 1015.5 C 22.581722 1015.5 19 1011.9183 19 1007.5 L 19 996.5 C 19 992.0817 22.581722 988.5 27 988.5 Z" stroke="#212121" stroke-linecap="round" stroke-linejoin="round" stroke-width="1"/>
        <text transform="translate(24 991)" fill="#ebebeb">
          <tspan font-family="Avenir" font-size="16" fill="#ebebeb" x="51.46" y="16">State -&gt; RUNNING</tspan>
        </text>
      </g>
      <g id="Graphic_24">
        <path d="M 301.67276 1027.5 L 534.67276 1027.5 C 539.09104 1027.5 542.67276 1031.0817 542.67276 1035.5 L 542.67276 1046.5 C 542.67276 1050.9183 539.09104 1054.5 534.67276 1054.5 L 301.67276 1054.5 C 297.2545 1054.5 293.67276 1050.9183 293.67276 1046.5 L 293.67276 1035.5 C 293.67276 1031.0817 297.2545 1027.5 301.67276 1027.5 Z" fill="#0064aa"/>
        <path d="M 301.67276 1027.5 L 534.67276 1027.5 C 539.09104 1027.5 542.67276 1031.0817 542.67276 1035.5 L 542.67276 1046.5 C 542.67276 1050.9183 539.09104 1054.5 534.67276 1054.5 L 301.67276 1054.5 C 297.2545 1054.5 293.67276 1050.9183 293.67276 1046.5 L 293.67276 1035.5 C 293.67276 1031.0817 297.2545 1027.5 301.67276 1027.5 Z" stroke="#212121" stroke-linecap="round" stroke-linejoin="round" stroke-width="1"/>
        <text transform="translate(298.67276 1030)" fill="#ebebeb">
          <tspan font-family="Avenir" font-size="16" fill="#ebebeb" x="92.508" y="16">onRun()</tspan>
        </text>
      </g>
      <g id="Graphic_25">
        <path d="M 27 1066.5 L 260 1066.5 C 264.41828 1066.5 268 1070.0817 268 1074.5 L 268 1085.5 C 268 1089.9183 264.41828 1093.5 260 1093.5 L 27 1093.5 C 22.581722 1093.5 19 1089.9183 19 1085.5 L 19 1074.5 C 19 1070.0817 22.581722 1066.5 27 1066.5 Z" fill="#4e8f00"/>
        <path d="M 27 1066.5 L 260 1066.5 C 264.41828 1066.5 268 1070.0817 268 1074.5 L 268 1085.5 C 268 1089.9183 264.41828 1093.5 260 1093.5 L 27 1093.5 C 22.581722 1093.5 19 1089.9183 19 1085.5 L 19 1074.5 C 19 1070.0817 22.581722 1066.5 27 1066.5 Z" stroke="#212121" stroke-linecap="round" stroke-linejoin="round" stroke-width="1"/>
        <text transform="translate(24 1069)" fill="#ebebeb">
          <tspan font-family="Avenir" font-size="16" fill="#ebebeb" x="49.244" y="16">State -&gt; STOPPING</tspan>
        </text>
      </g>
      <g id="Graphic_26">
        <path d="M 585.67276 1105.5 L 818.6728 1105.5 C 823.091 1105.5 826.6728 1109.0817 826.6728 1113.5 L 826.6728 1124.5 C 826.6728 1128.9183 823.091 1132.5 818.6728 1132.5 L 585.67276 1132.5 C 581.2545 1132.5 577.67276 1128.9183 577.67276 1124.5 L 577.67276 1113.5 C 577.67276 1109.0817 581.2545 1105.5 585.67276 1105.5 Z" fill="#ca7400"/>
        <path d="M 585.67276 1105.5 L 818.6728 1105.5 C 823.091 1105.5 826.6728 1109.0817 826.6728 1113.5 L 826.6728 1124.5 C 826.6728 1128.9183 823.091 1132.5 818.6728 1132.5 L 585.67276 1132.5 C 581.2545 1132.5 577.67276 1128.9183 577.67276 1124.5 L 577.67276 1113.5 C 577.67276 1109.0817 581.2545 1105.5 585.67276 1105.5 Z" stroke="#212121" stroke-linecap="round" stroke-linejoin="round" stroke-width="1"/>
        <text transform="translate(582.67276 1108)" fill="#ebebeb">
          <tspan font-family="Avenir" font-size="16" fill="#ebebeb" x="81.564" y="16">Flush Logs</tspan>
        </text>
      </g>
      <g id="Graphic_27">
        <path d="M 585.67276 1144.5 L 818.6728 1144.5 C 823.091 1144.5 826.6728 1148.0817 826.6728 1152.5 L 826.6728 1163.5 C 826.6728 1167.9183 823.091 1171.5 818.6728 1171.5 L 585.67276 1171.5 C 581.2545 1171.5 577.67276 1167.9183 577.67276 1163.5 L 577.67276 1152.5 C 577.67276 1148.0817 581.2545 1144.5 585.67276 1144.5 Z" fill="#ca7400"/>
        <path d="M 585.67276 1144.5 L 818.6728 1144.5 C 823.091 1144.5 826.6728 1148.0817 826.6728 1152.5 L 826.6728 1163.5 C 826.6728 1167.9183 823.091 1171.5 818.6728 1171.5 L 585.67276 1171.5 C 581.2545 1171.5 577.67276 1167.9183 577.67276 1163.5 L 577.67276 1152.5 C 577.67276 1148.0817 581.2545 1144.5 585.67276 1144.5 Z" stroke="#212121" stroke-linecap="round" stroke-linejoin="round" stroke-width="1"/>
        <text transform="translate(582.67276 1147)" fill="#ebebeb">
          <tspan font-family="Avenir" font-size="16" fill="#ebebeb" x="32.684" y="16">Show Message Statistics</tspan>
        </text>
      </g>
      <g id="Graphic_28">
        <path d="M 301.67276 1183.5 L 534.67276 1183.5 C 539.09104 1183.5 542.67276 1187.0817 542.67276 1191.5 L 542.67276 1202.5 C 542.67276 1206.9183 539.09104 1210.5 534.67276 1210.5 L 301.67276 1210.5 C 297.2545 1210.5 293.67276 1206.9183 293.67276 1202.5 L 293.67276 1191.5 C 293.67276 1187.0817 297.2545 1183.5 301.67276 1183.5 Z" fill="#0064aa"/>
        <path d="M 301.67276 1183.5 L 534.67276 1183.5 C 539.09104 1183.5 542.67276 1187.0817 542.67276 1191.5 L 542.67276 1202.5 C 542.67276 1206.9183 539.09104 1210.5 534.67276 1210.5 L 301.67276 1210.5 C 297.2545 1210.5 293.67276 1206.9183 293.67276 1202.5 L 293.67276 1191.5 C 293.67276 1187.0817 297.2545 1183.5 301.67276 1183.5 Z" stroke="#212121" stroke-linecap="round" stroke-linejoin="round" stroke-width="1"/>
        <text transform="translate(298.67276 1186)" fill="#ebebeb">
          <tspan font-family="Avenir" font-size="16" fill="#ebebeb" x="92.804" y="16">onRan()</tspan>
        </text>
      </g>
      <g id="Graphic_29">
        <path d="M 27 1222.5 L 260 1222.5 C 264.41828 1222.5 268 1226.0817 268 1230.5 L 268 1241.5 C 268 1245.9183 264.41828 1249.5 260 1249.5 L 27 1249.5 C 22.581722 1249.5 19 1245.9183 19 1241.5 L 19 1230.5 C 19 1226.0817 22.581722 1222.5 27 1222.5 Z" fill="#4e8f00"/>
        <path d="M 27 1222.5 L 260 1222.5 C 264.41828 1222.5 268 1226.0817 268 1230.5 L 268 1241.5 C 268 1245.9183 264.41828 1249.5 260 1249.5 L 27 1249.5 C 22.581722 1249.5 19 1245.9183 19 1241.5 L 19 1230.5 C 19 1226.0817 22.581722 1222.5 27 1222.5 Z" stroke="#212121" stroke-linecap="round" stroke-linejoin="round" stroke-width="1"/>
        <text transform="translate(24 1225)" fill="#ebebeb">
          <tspan font-family="Avenir" font-size="16" fill="#ebebeb" x="53.132" y="16">State -&gt; STOPPED</tspan>
        </text>
      </g>
      <g id="Graphic_30">
        <path d="M 301.67276 1261.5 L 534.67276 1261.5 C 539.09104 1261.5 542.67276 1265.0817 542.67276 1269.5 L 542.67276 1280.5 C 542.67276 1284.9183 539.09104 1288.5 534.67276 1288.5 L 301.67276 1288.5 C 297.2545 1288.5 293.67276 1284.9183 293.67276 1280.5 L 293.67276 1269.5 C 293.67276 1265.0817 297.2545 1261.5 301.67276 1261.5 Z" fill="#0064aa"/>
        <path d="M 301.67276 1261.5 L 534.67276 1261.5 C 539.09104 1261.5 542.67276 1265.0817 542.67276 1269.5 L 542.67276 1280.5 C 542.67276 1284.9183 539.09104 1288.5 534.67276 1288.5 L 301.67276 1288.5 C 297.2545 1288.5 293.67276 1284.9183 293.67276 1280.5 L 293.67276 1269.5 C 293.67276 1265.0817 297.2545 1261.5 301.67276 1261.5 Z" stroke="#212121" stroke-linecap="round" stroke-linejoin="round" stroke-width="1"/>
        <text transform="translate(298.67276 1264)" fill="#ebebeb">
          <tspan font-family="Avenir" font-size="16" fill="#ebebeb" x="59.812" y="16">Application Exits</tspan>
        </text>
      </g>
      <g id="Graphic_32">
        <path d="M 301.70118 287.52842 L 534.7012 287.52842 C 539.11946 287.52842 542.7012 291.11014 542.7012 295.52842 L 542.7012 306.52842 C 542.7012 310.9467 539.11946 314.52842 534.7012 314.52842 L 301.70118 314.52842 C 297.2829 314.52842 293.70118 310.9467 293.70118 306.52842 L 293.70118 295.52842 C 293.70118 291.11014 297.2829 287.52842 301.70118 287.52842 Z" fill="#0064aa"/>
        <path d="M 301.70118 287.52842 L 534.7012 287.52842 C 539.11946 287.52842 542.7012 291.11014 542.7012 295.52842 L 542.7012 306.52842 C 542.7012 310.9467 539.11946 314.52842 534.7012 314.52842 L 301.70118 314.52842 C 297.2829 314.52842 293.70118 310.9467 293.70118 306.52842 L 293.70118 295.52842 C 293.70118 291.11014 297.2829 287.52842 301.70118 287.52842 Z" stroke="#212121" stroke-linecap="round" stroke-linejoin="round" stroke-width="1"/>
        <text transform="translate(298.70118 290.02842)" fill="#ebebeb">
          <tspan font-family="Avenir" font-size="16" fill="#ebebeb" x="32.828" y="16">main(String[] arguments)</tspan>
        </text>
      </g>
      <g id="Graphic_33">
        <path d="M 301.67276 274.87273 L 534.67276 274.87273 C 539.09104 274.87273 542.67276 271.291 542.67276 266.87273 L 542.67276 249 C 542.67276 244.58172 539.09104 241 534.67276 241 L 301.67276 241 C 297.2545 241 293.67276 244.58172 293.67276 249 L 293.67276 266.87273 C 293.67276 271.291 297.2545 274.87273 301.67276 274.87273 Z" fill="#0096ff"/>
        <path d="M 301.67276 274.87273 L 534.67276 274.87273 C 539.09104 274.87273 542.67276 271.291 542.67276 266.87273 L 542.67276 249 C 542.67276 244.58172 539.09104 241 534.67276 241 L 301.67276 241 C 297.2545 241 293.67276 244.58172 293.67276 249 L 293.67276 266.87273 C 293.67276 271.291 297.2545 274.87273 301.67276 274.87273 Z" stroke="#212121" stroke-linecap="round" stroke-linejoin="round" stroke-width="1"/>
        <text transform="translate(298.67276 246.93636)" fill="black">
          <tspan font-family="Avenir" font-weight="bold" font-size="16" fill="black" x="70.004" y="16">Method Calls</tspan>
        </text>
      </g>
      <g id="Graphic_34">
        <path d="M 585.67276 275.5 L 818.6728 275.5 C 823.091 275.5 826.6728 271.91828 826.6728 267.5 L 826.6728 249.62727 C 826.6728 245.209 823.091 241.62727 818.6728 241.62727 L 585.67276 241.62727 C 581.2545 241.62727 577.67276 245.209 577.67276 249.62727 L 577.67276 267.5 C 577.67276 271.91828 581.2545 275.5 585.67276 275.5 Z" fill="#ff9300"/>
        <path d="M 585.67276 275.5 L 818.6728 275.5 C 823.091 275.5 826.6728 271.91828 826.6728 267.5 L 826.6728 249.62727 C 826.6728 245.209 823.091 241.62727 818.6728 241.62727 L 585.67276 241.62727 C 581.2545 241.62727 577.67276 245.209 577.67276 249.62727 L 577.67276 267.5 C 577.67276 271.91828 581.2545 275.5 585.67276 275.5 Z" stroke="#212121" stroke-linecap="round" stroke-linejoin="round" stroke-width="1"/>
        <text transform="translate(582.67276 247.56364)" fill="black">
          <tspan font-family="Avenir" font-weight="bold" font-size="16" fill="black" x="85.092" y="16">Activities</tspan>
        </text>
      </g>
    </g>
  </g>
</svg>
