<?xml version="1.0" encoding="UTF-8" standalone="no"?>
<!DOCTYPE svg PUBLIC "-//W3C//DTD SVG 1.1//EN" "http://www.w3.org/Graphics/SVG/1.1/DTD/svg11.dtd">
<svg xmlns:dc="http://purl.org/dc/elements/1.1/" xmlns="http://www.w3.org/2000/svg" xmlns:xl="http://www.w3.org/1999/xlink" version="1.1" viewBox="-59 212.8721 965.5571 902.1373" width="965.5571" height="902.1373">
  <defs/>
  <g id="Canvas_1" stroke-dasharray="none" fill-opacity="1" stroke-opacity="1" fill="none" stroke="none">
    <title>Canvas 1</title>
    <g id="Canvas_1_Layer_1">
      <title>Layer 1</title>
      <g id="Graphic_2">
        <path d="M 285 287.19347 L 310.32724 287.19347 C 314.7455 287.19347 318.32724 290.7752 318.32724 295.19347 L 318.32724 306.19347 C 318.32724 310.61175 314.7455 314.19347 310.32724 314.19347 L 285 314.19347 C 280.58172 314.19347 277 310.61175 277 306.19347 L 277 295.19347 C 277 290.7752 280.58172 287.19347 285 287.19347 Z" fill="#941100"/>
        <path d="M 285 287.19347 L 310.32724 287.19347 C 314.7455 287.19347 318.32724 290.7752 318.32724 295.19347 L 318.32724 306.19347 C 318.32724 310.61175 314.7455 314.19347 310.32724 314.19347 L 285 314.19347 C 280.58172 314.19347 277 310.61175 277 306.19347 L 277 295.19347 C 277 290.7752 280.58172 287.19347 285 287.19347 Z" stroke="#212121" stroke-linecap="round" stroke-linejoin="round" stroke-width="1"/>
        <text transform="translate(282 289.69347)" fill="#ebebeb">
          <tspan font-family="Avenir" font-weight="bold" font-size="16" fill="#ebebeb" x="10.92762" y="16">1</tspan>
        </text>
      </g>
      <g id="Graphic_4">
        <path d="M 27 263.24482 L 260 263.24482 C 264.41828 263.24482 268 259.6631 268 255.24482 L 268 237.3721 C 268 232.95382 264.41828 229.3721 260 229.3721 L 27 229.3721 C 22.581722 229.3721 19 232.95382 19 237.3721 L 19 255.24482 C 19 259.6631 22.581722 263.24482 27 263.24482 Z" fill="#4f8e04"/>
        <path d="M 27 263.24482 L 260 263.24482 C 264.41828 263.24482 268 259.6631 268 255.24482 L 268 237.3721 C 268 232.95382 264.41828 229.3721 260 229.3721 L 27 229.3721 C 22.581722 229.3721 19 232.95382 19 237.3721 L 19 255.24482 C 19 259.6631 22.581722 263.24482 27 263.24482 Z" stroke="#212121" stroke-linecap="round" stroke-linejoin="round" stroke-width="1"/>
        <text transform="translate(24 235.30846)" fill="white">
          <tspan font-family="Avenir" font-weight="bold" font-size="16" fill="white" x="99.796" y="16">State</tspan>
        </text>
      </g>
      <g id="Graphic_6">
        <path d="M 336.67276 368.0821 L 569.67276 368.0821 C 574.09104 368.0821 577.67276 371.6638 577.67276 376.0821 L 577.67276 387.0821 C 577.67276 391.50036 574.09104 395.0821 569.67276 395.0821 L 336.67276 395.0821 C 332.2545 395.0821 328.67276 391.50036 328.67276 387.0821 L 328.67276 376.0821 C 328.67276 371.6638 332.2545 368.0821 336.67276 368.0821 Z" fill="#0064aa"/>
        <path d="M 336.67276 368.0821 L 569.67276 368.0821 C 574.09104 368.0821 577.67276 371.6638 577.67276 376.0821 L 577.67276 387.0821 C 577.67276 391.50036 574.09104 395.0821 569.67276 395.0821 L 336.67276 395.0821 C 332.2545 395.0821 328.67276 391.50036 328.67276 387.0821 L 328.67276 376.0821 C 328.67276 371.6638 332.2545 368.0821 336.67276 368.0821 Z" stroke="#212121" stroke-linecap="round" stroke-linejoin="round" stroke-width="1"/>
        <text transform="translate(333.67276 370.5821)" fill="#ebebeb">
          <tspan font-family="Avenir" font-size="16" fill="#ebebeb" x="78.612" y="16">run(String[])</tspan>
        </text>
      </g>
      <g id="Graphic_8">
        <path d="M 649.0571 428.3581 L 882.0571 428.3581 C 886.4754 428.3581 890.0571 431.93984 890.0571 436.3581 L 890.0571 447.3581 C 890.0571 451.7764 886.4754 455.3581 882.0571 455.3581 L 649.0571 455.3581 C 644.6388 455.3581 641.0571 451.7764 641.0571 447.3581 L 641.0571 436.3581 C 641.0571 431.93984 644.6388 428.3581 649.0571 428.3581 Z" fill="#ca7400"/>
        <path d="M 649.0571 428.3581 L 882.0571 428.3581 C 886.4754 428.3581 890.0571 431.93984 890.0571 436.3581 L 890.0571 447.3581 C 890.0571 451.7764 886.4754 455.3581 882.0571 455.3581 L 649.0571 455.3581 C 644.6388 455.3581 641.0571 451.7764 641.0571 447.3581 L 641.0571 436.3581 C 641.0571 431.93984 644.6388 428.3581 649.0571 428.3581 Z" stroke="#212121" stroke-linecap="round" stroke-linejoin="round" stroke-width="1"/>
        <text transform="translate(646.0571 430.8581)" fill="#ebebeb">
          <tspan font-family="Avenir" font-size="16" fill="#ebebeb" x="38.036" y="16">Enable StartupOptions</tspan>
        </text>
      </g>
      <g id="Graphic_9">
        <path d="M 26.778545 428.3581 L 259.77855 428.3581 C 264.19682 428.3581 267.77855 431.93984 267.77855 436.3581 L 267.77855 447.3581 C 267.77855 451.7764 264.19682 455.3581 259.77855 455.3581 L 26.778545 455.3581 C 22.360267 455.3581 18.778545 451.7764 18.778545 447.3581 L 18.778545 436.3581 C 18.778545 431.93984 22.360267 428.3581 26.778545 428.3581 Z" fill="#4e8f00"/>
        <path d="M 26.778545 428.3581 L 259.77855 428.3581 C 264.19682 428.3581 267.77855 431.93984 267.77855 436.3581 L 267.77855 447.3581 C 267.77855 451.7764 264.19682 455.3581 259.77855 455.3581 L 26.778545 455.3581 C 22.360267 455.3581 18.778545 451.7764 18.778545 447.3581 L 18.778545 436.3581 C 18.778545 431.93984 22.360267 428.3581 26.778545 428.3581 Z" stroke="#212121" stroke-linecap="round" stroke-linejoin="round" stroke-width="1"/>
        <text transform="translate(23.778545 430.8581)" fill="#ebebeb">
          <tspan font-family="Avenir" font-size="16" fill="#ebebeb" x="71.74" y="16">INITIALIZING</tspan>
        </text>
      </g>
      <g id="Graphic_10">
        <path d="M 336.4513 468.59686 L 569.4513 468.59686 C 573.8696 468.59686 577.4513 472.1786 577.4513 476.59686 L 577.4513 487.59686 C 577.4513 492.01514 573.8696 495.59686 569.4513 495.59686 L 336.4513 495.59686 C 332.03303 495.59686 328.4513 492.01514 328.4513 487.59686 L 328.4513 476.59686 C 328.4513 472.1786 332.03303 468.59686 336.4513 468.59686 Z" fill="#0064aa"/>
        <path d="M 336.4513 468.59686 L 569.4513 468.59686 C 573.8696 468.59686 577.4513 472.1786 577.4513 476.59686 L 577.4513 487.59686 C 577.4513 492.01514 573.8696 495.59686 569.4513 495.59686 L 336.4513 495.59686 C 332.03303 495.59686 328.4513 492.01514 328.4513 487.59686 L 328.4513 476.59686 C 328.4513 472.1786 332.03303 468.59686 336.4513 468.59686 Z" stroke="#212121" stroke-linecap="round" stroke-linejoin="round" stroke-width="1"/>
        <text transform="translate(333.4513 471.09686)" fill="#ebebeb">
          <tspan font-family="Avenir" font-size="16" fill="#ebebeb" x="34.452" y="16">onSerializationInitialize()</tspan>
        </text>
      </g>
      <g id="Graphic_11">
        <path d="M 336.4513 689.51 L 569.4513 689.51 C 573.8696 689.51 577.4513 693.0917 577.4513 697.51 L 577.4513 708.51 C 577.4513 712.9283 573.8696 716.51 569.4513 716.51 L 336.4513 716.51 C 332.03303 716.51 328.4513 712.9283 328.4513 708.51 L 328.4513 697.51 C 328.4513 693.0917 332.03303 689.51 336.4513 689.51 Z" fill="#0064aa"/>
        <path d="M 336.4513 689.51 L 569.4513 689.51 C 573.8696 689.51 577.4513 693.0917 577.4513 697.51 L 577.4513 708.51 C 577.4513 712.9283 573.8696 716.51 569.4513 716.51 L 336.4513 716.51 C 332.03303 716.51 328.4513 712.9283 328.4513 708.51 L 328.4513 697.51 C 328.4513 693.0917 332.03303 689.51 336.4513 689.51 Z" stroke="#212121" stroke-linecap="round" stroke-linejoin="round" stroke-width="1"/>
        <text transform="translate(333.4513 692.01)" fill="#ebebeb">
          <tspan font-family="Avenir" font-size="16" fill="#ebebeb" x="76.804" y="16">onRunning()</tspan>
        </text>
      </g>
      <g id="Graphic_12">
        <path d="M 336.4513 549.4855 L 569.4513 549.4855 C 573.8696 549.4855 577.4513 553.0672 577.4513 557.4855 L 577.4513 568.4855 C 577.4513 572.90375 573.8696 576.4855 569.4513 576.4855 L 336.4513 576.4855 C 332.03303 576.4855 328.4513 572.90375 328.4513 568.4855 L 328.4513 557.4855 C 328.4513 553.0672 332.03303 549.4855 336.4513 549.4855 Z" fill="#0064aa"/>
        <path d="M 336.4513 549.4855 L 569.4513 549.4855 C 573.8696 549.4855 577.4513 553.0672 577.4513 557.4855 L 577.4513 568.4855 C 577.4513 572.90375 573.8696 576.4855 569.4513 576.4855 L 336.4513 576.4855 C 332.03303 576.4855 328.4513 572.90375 328.4513 568.4855 L 328.4513 557.4855 C 328.4513 553.0672 332.03303 549.4855 336.4513 549.4855 Z" stroke="#212121" stroke-linecap="round" stroke-linejoin="round" stroke-width="1"/>
        <text transform="translate(333.4513 551.9855)" fill="#ebebeb">
          <tspan font-family="Avenir" font-size="16" fill="#ebebeb" x="42.3" y="16">onProjectsInitializing()</tspan>
        </text>
      </g>
      <g id="Graphic_13">
        <path d="M 646.0672 549.4855 L 879.0672 549.4855 C 883.4855 549.4855 887.0672 553.0672 887.0672 557.4855 L 887.0672 568.4855 C 887.0672 572.90375 883.4855 576.4855 879.0672 576.4855 L 646.0672 576.4855 C 641.64895 576.4855 638.0672 572.90375 638.0672 568.4855 L 638.0672 557.4855 C 638.0672 553.0672 641.64895 549.4855 646.0672 549.4855 Z" fill="#ca7400"/>
        <path d="M 646.0672 549.4855 L 879.0672 549.4855 C 883.4855 549.4855 887.0672 553.0672 887.0672 557.4855 L 887.0672 568.4855 C 887.0672 572.90375 883.4855 576.4855 879.0672 576.4855 L 646.0672 576.4855 C 641.64895 576.4855 638.0672 572.90375 638.0672 568.4855 L 638.0672 557.4855 C 638.0672 553.0672 641.64895 549.4855 646.0672 549.4855 Z" stroke="#212121" stroke-linecap="round" stroke-linejoin="round" stroke-width="1"/>
        <text transform="translate(643.0672 551.9855)" fill="#ebebeb">
          <tspan font-family="Avenir" font-size="16" fill="#ebebeb" x="60.236" y="16">Initialize Projects</tspan>
        </text>
      </g>
      <g id="Graphic_14">
        <path d="M 336.4513 589.9298 L 569.4513 589.9298 C 573.8696 589.9298 577.4513 593.5115 577.4513 597.9298 L 577.4513 608.9298 C 577.4513 613.34806 573.8696 616.9298 569.4513 616.9298 L 336.4513 616.9298 C 332.03303 616.9298 328.4513 613.34806 328.4513 608.9298 L 328.4513 597.9298 C 328.4513 593.5115 332.03303 589.9298 336.4513 589.9298 Z" fill="#0064aa"/>
        <path d="M 336.4513 589.9298 L 569.4513 589.9298 C 573.8696 589.9298 577.4513 593.5115 577.4513 597.9298 L 577.4513 608.9298 C 577.4513 613.34806 573.8696 616.9298 569.4513 616.9298 L 336.4513 616.9298 C 332.03303 616.9298 328.4513 613.34806 328.4513 608.9298 L 328.4513 597.9298 C 328.4513 593.5115 332.03303 589.9298 336.4513 589.9298 Z" stroke="#212121" stroke-linecap="round" stroke-linejoin="round" stroke-width="1"/>
        <text transform="translate(333.4513 592.4298)" fill="#ebebeb">
          <tspan font-family="Avenir" font-size="16" fill="#ebebeb" x="48.38" y="16">onProjectsInitialized</tspan>
        </text>
      </g>
      <g id="Graphic_15">
        <path d="M 646.25335 689.79516 L 879.2534 689.79516 C 883.6716 689.79516 887.2534 693.3769 887.2534 697.79516 L 887.2534 708.79516 C 887.2534 713.2134 883.6716 716.79516 879.2534 716.79516 L 646.25335 716.79516 C 641.8351 716.79516 638.25335 713.2134 638.25335 708.79516 L 638.25335 697.79516 C 638.25335 693.3769 641.8351 689.79516 646.25335 689.79516 Z" fill="#ca7400"/>
        <path d="M 646.25335 689.79516 L 879.2534 689.79516 C 883.6716 689.79516 887.2534 693.3769 887.2534 697.79516 L 887.2534 708.79516 C 887.2534 713.2134 883.6716 716.79516 879.2534 716.79516 L 646.25335 716.79516 C 641.8351 716.79516 638.25335 713.2134 638.25335 708.79516 L 638.25335 697.79516 C 638.25335 693.3769 641.8351 689.79516 646.25335 689.79516 Z" stroke="#212121" stroke-linecap="round" stroke-linejoin="round" stroke-width="1"/>
        <text transform="translate(643.25335 692.29516)" fill="#ebebeb">
          <tspan font-family="Avenir" font-size="16" fill="#ebebeb" x="51.932" y="16">Load Deployments</tspan>
        </text>
      </g>
      <g id="Graphic_16">
        <path d="M 336.4513 729.9543 L 569.4513 729.9543 C 573.8696 729.9543 577.4513 733.536 577.4513 737.9543 L 577.4513 748.9543 C 577.4513 753.3726 573.8696 756.9543 569.4513 756.9543 L 336.4513 756.9543 C 332.03303 756.9543 328.4513 753.3726 328.4513 748.9543 L 328.4513 737.9543 C 328.4513 733.536 332.03303 729.9543 336.4513 729.9543 Z" fill="#0064aa"/>
        <path d="M 336.4513 729.9543 L 569.4513 729.9543 C 573.8696 729.9543 577.4513 733.536 577.4513 737.9543 L 577.4513 748.9543 C 577.4513 753.3726 573.8696 756.9543 569.4513 756.9543 L 336.4513 756.9543 C 332.03303 756.9543 328.4513 753.3726 328.4513 748.9543 L 328.4513 737.9543 C 328.4513 733.536 332.03303 729.9543 336.4513 729.9543 Z" stroke="#212121" stroke-linecap="round" stroke-linejoin="round" stroke-width="1"/>
        <text transform="translate(333.4513 732.4543)" fill="#ebebeb">
          <tspan font-family="Avenir" font-size="16" fill="#ebebeb" x="55.652" y="16">argumentParsers()</tspan>
        </text>
      </g>
      <g id="Graphic_17">
        <path d="M 336.4513 770.3986 L 569.4513 770.3986 C 573.8696 770.3986 577.4513 773.9803 577.4513 778.3986 L 577.4513 789.3986 C 577.4513 793.8169 573.8696 797.3986 569.4513 797.3986 L 336.4513 797.3986 C 332.03303 797.3986 328.4513 793.8169 328.4513 789.3986 L 328.4513 778.3986 C 328.4513 773.9803 332.03303 770.3986 336.4513 770.3986 Z" fill="#0064aa"/>
        <path d="M 336.4513 770.3986 L 569.4513 770.3986 C 573.8696 770.3986 577.4513 773.9803 577.4513 778.3986 L 577.4513 789.3986 C 577.4513 793.8169 573.8696 797.3986 569.4513 797.3986 L 336.4513 797.3986 C 332.03303 797.3986 328.4513 793.8169 328.4513 789.3986 L 328.4513 778.3986 C 328.4513 773.9803 332.03303 770.3986 336.4513 770.3986 Z" stroke="#212121" stroke-linecap="round" stroke-linejoin="round" stroke-width="1"/>
        <text transform="translate(333.4513 772.8986)" fill="#ebebeb">
          <tspan font-family="Avenir" font-size="16" fill="#ebebeb" x="67.956" y="16">switchParsers()</tspan>
        </text>
      </g>
      <g id="Graphic_18">
        <path d="M 646.0672 771.8429 L 879.0672 771.8429 C 883.4855 771.8429 887.0672 775.4246 887.0672 779.8429 L 887.0672 790.8429 C 887.0672 795.2612 883.4855 798.8429 879.0672 798.8429 L 646.0672 798.8429 C 641.64895 798.8429 638.0672 795.2612 638.0672 790.8429 L 638.0672 779.8429 C 638.0672 775.4246 641.64895 771.8429 646.0672 771.8429 Z" fill="#ca7400"/>
        <path d="M 646.0672 771.8429 L 879.0672 771.8429 C 883.4855 771.8429 887.0672 775.4246 887.0672 779.8429 L 887.0672 790.8429 C 887.0672 795.2612 883.4855 798.8429 879.0672 798.8429 L 646.0672 798.8429 C 641.64895 798.8429 638.0672 795.2612 638.0672 790.8429 L 638.0672 779.8429 C 638.0672 775.4246 641.64895 771.8429 646.0672 771.8429 Z" stroke="#212121" stroke-linecap="round" stroke-linejoin="round" stroke-width="1"/>
        <text transform="translate(643.0672 774.3429)" fill="#ebebeb">
          <tspan font-family="Avenir" font-size="16" fill="#ebebeb" x="43.484" y="16">Parse Command Line</tspan>
        </text>
      </g>
      <g id="Graphic_20">
        <path d="M 336.4513 810.8429 L 569.4513 810.8429 C 573.8696 810.8429 577.4513 814.4246 577.4513 818.8429 L 577.4513 829.8429 C 577.4513 834.2612 573.8696 837.8429 569.4513 837.8429 L 336.4513 837.8429 C 332.03303 837.8429 328.4513 834.2612 328.4513 829.8429 L 328.4513 818.8429 C 328.4513 814.4246 332.03303 810.8429 336.4513 810.8429 Z" fill="#0064aa"/>
        <path d="M 336.4513 810.8429 L 569.4513 810.8429 C 573.8696 810.8429 577.4513 814.4246 577.4513 818.8429 L 577.4513 829.8429 C 577.4513 834.2612 573.8696 837.8429 569.4513 837.8429 L 336.4513 837.8429 C 332.03303 837.8429 328.4513 834.2612 328.4513 829.8429 L 328.4513 818.8429 C 328.4513 814.4246 332.03303 810.8429 336.4513 810.8429 Z" stroke="#212121" stroke-linecap="round" stroke-linejoin="round" stroke-width="1"/>
        <text transform="translate(333.4513 813.3429)" fill="#ebebeb">
          <tspan font-family="Avenir" font-size="16" fill="#ebebeb" x="43.508" y="16">onConfigureListeners</tspan>
        </text>
      </g>
      <g id="Graphic_21">
        <path d="M 646.0672 810.8429 L 879.0672 810.8429 C 883.4855 810.8429 887.0672 814.4246 887.0672 818.8429 L 887.0672 829.8429 C 887.0672 834.2612 883.4855 837.8429 879.0672 837.8429 L 646.0672 837.8429 C 641.64895 837.8429 638.0672 834.2612 638.0672 829.8429 L 638.0672 818.8429 C 638.0672 814.4246 641.64895 810.8429 646.0672 810.8429 Z" fill="#ca7400"/>
        <path d="M 646.0672 810.8429 L 879.0672 810.8429 C 883.4855 810.8429 887.0672 814.4246 887.0672 818.8429 L 887.0672 829.8429 C 887.0672 834.2612 883.4855 837.8429 879.0672 837.8429 L 646.0672 837.8429 C 641.64895 837.8429 638.0672 834.2612 638.0672 829.8429 L 638.0672 818.8429 C 638.0672 814.4246 641.64895 810.8429 646.0672 810.8429 Z" stroke="#212121" stroke-linecap="round" stroke-linejoin="round" stroke-width="1"/>
        <text transform="translate(643.0672 813.3429)" fill="#ebebeb">
          <tspan font-family="Avenir" font-size="16" fill="#ebebeb" x="43.956" y="16">Register Deployment </tspan>
        </text>
      </g>
      <g id="Graphic_22">
        <path d="M 646.0672 847.9737 L 879.0672 847.9737 C 883.4855 847.9737 887.0672 851.5555 887.0672 855.9737 L 887.0672 866.9737 C 887.0672 871.392 883.4855 874.9737 879.0672 874.9737 L 646.0672 874.9737 C 641.64895 874.9737 638.0672 871.392 638.0672 866.9737 L 638.0672 855.9737 C 638.0672 851.5555 641.64895 847.9737 646.0672 847.9737 Z" fill="#ca7400"/>
        <path d="M 646.0672 847.9737 L 879.0672 847.9737 C 883.4855 847.9737 887.0672 851.5555 887.0672 855.9737 L 887.0672 866.9737 C 887.0672 871.392 883.4855 874.9737 879.0672 874.9737 L 646.0672 874.9737 C 641.64895 874.9737 638.0672 871.392 638.0672 866.9737 L 638.0672 855.9737 C 638.0672 851.5555 641.64895 847.9737 646.0672 847.9737 Z" stroke="#212121" stroke-linecap="round" stroke-linejoin="round" stroke-width="1"/>
        <text transform="translate(643.0672 850.4737)" fill="#ebebeb">
          <tspan font-family="Avenir" font-size="16" fill="#ebebeb" x="28.524" y="16">Show Startup Information</tspan>
        </text>
      </g>
      <g id="Graphic_23">
        <path d="M 22.5 689.79516 L 255.5 689.79516 C 259.91828 689.79516 263.5 693.3769 263.5 697.79516 L 263.5 708.79516 C 263.5 713.2134 259.91828 716.79516 255.5 716.79516 L 22.5 716.79516 C 18.081722 716.79516 14.5 713.2134 14.5 708.79516 L 14.5 697.79516 C 14.5 693.3769 18.081722 689.79516 22.5 689.79516 Z" fill="#4e8f00"/>
        <path d="M 22.5 689.79516 L 255.5 689.79516 C 259.91828 689.79516 263.5 693.3769 263.5 697.79516 L 263.5 708.79516 C 263.5 713.2134 259.91828 716.79516 255.5 716.79516 L 22.5 716.79516 C 18.081722 716.79516 14.5 713.2134 14.5 708.79516 L 14.5 697.79516 C 14.5 693.3769 18.081722 689.79516 22.5 689.79516 Z" stroke="#212121" stroke-linecap="round" stroke-linejoin="round" stroke-width="1"/>
        <text transform="translate(19.5 692.29516)" fill="#ebebeb">
          <tspan font-family="Avenir" font-size="16" fill="#ebebeb" x="82.26" y="16">RUNNING</tspan>
        </text>
      </g>
      <g id="Graphic_24">
        <path d="M 336.4229 891.7315 L 569.4229 891.7315 C 573.84116 891.7315 577.4229 895.3132 577.4229 899.7315 L 577.4229 910.7315 C 577.4229 915.1498 573.84116 918.7315 569.4229 918.7315 L 336.4229 918.7315 C 332.0046 918.7315 328.4229 915.1498 328.4229 910.7315 L 328.4229 899.7315 C 328.4229 895.3132 332.0046 891.7315 336.4229 891.7315 Z" fill="#0064aa"/>
        <path d="M 336.4229 891.7315 L 569.4229 891.7315 C 573.84116 891.7315 577.4229 895.3132 577.4229 899.7315 L 577.4229 910.7315 C 577.4229 915.1498 573.84116 918.7315 569.4229 918.7315 L 336.4229 918.7315 C 332.0046 918.7315 328.4229 915.1498 328.4229 910.7315 L 328.4229 899.7315 C 328.4229 895.3132 332.0046 891.7315 336.4229 891.7315 Z" stroke="#212121" stroke-linecap="round" stroke-linejoin="round" stroke-width="1"/>
        <text transform="translate(333.4229 894.2315)" fill="#ebebeb">
          <tspan font-family="Avenir" font-size="16" fill="#ebebeb" x="92.508" y="16">onRun()</tspan>
        </text>
      </g>
      <g id="Graphic_25">
        <path d="M 22.5 929.8285 L 255.5 929.8285 C 259.91828 929.8285 263.5 933.4102 263.5 937.8285 L 263.5 948.8285 C 263.5 953.2468 259.91828 956.8285 255.5 956.8285 L 22.5 956.8285 C 18.081722 956.8285 14.5 953.2468 14.5 948.8285 L 14.5 937.8285 C 14.5 933.4102 18.081722 929.8285 22.5 929.8285 Z" fill="#4e8f00"/>
        <path d="M 22.5 929.8285 L 255.5 929.8285 C 259.91828 929.8285 263.5 933.4102 263.5 937.8285 L 263.5 948.8285 C 263.5 953.2468 259.91828 956.8285 255.5 956.8285 L 22.5 956.8285 C 18.081722 956.8285 14.5 953.2468 14.5 948.8285 L 14.5 937.8285 C 14.5 933.4102 18.081722 929.8285 22.5 929.8285 Z" stroke="#212121" stroke-linecap="round" stroke-linejoin="round" stroke-width="1"/>
        <text transform="translate(19.5 932.3285)" fill="#ebebeb">
          <tspan font-family="Avenir" font-size="16" fill="#ebebeb" x="80.044" y="16">STOPPING</tspan>
        </text>
      </g>
      <g id="Graphic_26">
        <path d="M 646.0672 929.8285 L 879.0672 929.8285 C 883.4855 929.8285 887.0672 933.4102 887.0672 937.8285 L 887.0672 948.8285 C 887.0672 953.2468 883.4855 956.8285 879.0672 956.8285 L 646.0672 956.8285 C 641.64895 956.8285 638.0672 953.2468 638.0672 948.8285 L 638.0672 937.8285 C 638.0672 933.4102 641.64895 929.8285 646.0672 929.8285 Z" fill="#ca7400"/>
        <path d="M 646.0672 929.8285 L 879.0672 929.8285 C 883.4855 929.8285 887.0672 933.4102 887.0672 937.8285 L 887.0672 948.8285 C 887.0672 953.2468 883.4855 956.8285 879.0672 956.8285 L 646.0672 956.8285 C 641.64895 956.8285 638.0672 953.2468 638.0672 948.8285 L 638.0672 937.8285 C 638.0672 933.4102 641.64895 929.8285 646.0672 929.8285 Z" stroke="#212121" stroke-linecap="round" stroke-linejoin="round" stroke-width="1"/>
        <text transform="translate(643.0672 932.3285)" fill="#ebebeb">
          <tspan font-family="Avenir" font-size="16" fill="#ebebeb" x="81.564" y="16">Flush Logs</tspan>
        </text>
      </g>
      <g id="Graphic_27">
        <path d="M 646.0672 970.9531 L 879.0672 970.9531 C 883.4855 970.9531 887.0672 974.5348 887.0672 978.9531 L 887.0672 989.9531 C 887.0672 994.3714 883.4855 997.9531 879.0672 997.9531 L 646.0672 997.9531 C 641.64895 997.9531 638.0672 994.3714 638.0672 989.9531 L 638.0672 978.9531 C 638.0672 974.5348 641.64895 970.9531 646.0672 970.9531 Z" fill="#ca7400"/>
        <path d="M 646.0672 970.9531 L 879.0672 970.9531 C 883.4855 970.9531 887.0672 974.5348 887.0672 978.9531 L 887.0672 989.9531 C 887.0672 994.3714 883.4855 997.9531 879.0672 997.9531 L 646.0672 997.9531 C 641.64895 997.9531 638.0672 994.3714 638.0672 989.9531 L 638.0672 978.9531 C 638.0672 974.5348 641.64895 970.9531 646.0672 970.9531 Z" stroke="#212121" stroke-linecap="round" stroke-linejoin="round" stroke-width="1"/>
        <text transform="translate(643.0672 973.4531)" fill="#ebebeb">
          <tspan font-family="Avenir" font-size="16" fill="#ebebeb" x="32.684" y="16">Show Message Statistics</tspan>
        </text>
      </g>
      <g id="Graphic_28">
        <path d="M 336.4513 1013.0644 L 569.4513 1013.0644 C 573.8696 1013.0644 577.4513 1016.6462 577.4513 1021.0644 L 577.4513 1032.0644 C 577.4513 1036.4827 573.8696 1040.0644 569.4513 1040.0644 L 336.4513 1040.0644 C 332.03303 1040.0644 328.4513 1036.4827 328.4513 1032.0644 L 328.4513 1021.0644 C 328.4513 1016.6462 332.03303 1013.0644 336.4513 1013.0644 Z" fill="#0064aa"/>
        <path d="M 336.4513 1013.0644 L 569.4513 1013.0644 C 573.8696 1013.0644 577.4513 1016.6462 577.4513 1021.0644 L 577.4513 1032.0644 C 577.4513 1036.4827 573.8696 1040.0644 569.4513 1040.0644 L 336.4513 1040.0644 C 332.03303 1040.0644 328.4513 1036.4827 328.4513 1032.0644 L 328.4513 1021.0644 C 328.4513 1016.6462 332.03303 1013.0644 336.4513 1013.0644 Z" stroke="#212121" stroke-linecap="round" stroke-linejoin="round" stroke-width="1"/>
        <text transform="translate(333.4513 1015.5644)" fill="#ebebeb">
          <tspan font-family="Avenir" font-size="16" fill="#ebebeb" x="92.804" y="16">onRan()</tspan>
        </text>
      </g>
      <g id="Graphic_29">
        <path d="M 26.778545 1071.5093 L 259.77855 1071.5093 C 264.19682 1071.5093 267.77855 1075.0911 267.77855 1079.5093 L 267.77855 1090.5093 C 267.77855 1094.9276 264.19682 1098.5093 259.77855 1098.5093 L 26.778545 1098.5093 C 22.360267 1098.5093 18.778545 1094.9276 18.778545 1090.5093 L 18.778545 1079.5093 C 18.778545 1075.0911 22.360267 1071.5093 26.778545 1071.5093 Z" fill="#4e8f00"/>
        <path d="M 26.778545 1071.5093 L 259.77855 1071.5093 C 264.19682 1071.5093 267.77855 1075.0911 267.77855 1079.5093 L 267.77855 1090.5093 C 267.77855 1094.9276 264.19682 1098.5093 259.77855 1098.5093 L 26.778545 1098.5093 C 22.360267 1098.5093 18.778545 1094.9276 18.778545 1090.5093 L 18.778545 1079.5093 C 18.778545 1075.0911 22.360267 1071.5093 26.778545 1071.5093 Z" stroke="#212121" stroke-linecap="round" stroke-linejoin="round" stroke-width="1"/>
        <text transform="translate(23.778545 1074.0093)" fill="#ebebeb">
          <tspan font-family="Avenir" font-size="16" fill="#ebebeb" x="83.932" y="16">STOPPED</tspan>
        </text>
      </g>
      <g id="Graphic_32">
        <path d="M 336.67276 287.19347 L 569.67276 287.19347 C 574.09104 287.19347 577.67276 290.7752 577.67276 295.19347 L 577.67276 306.19347 C 577.67276 310.61175 574.09104 314.19347 569.67276 314.19347 L 336.67276 314.19347 C 332.2545 314.19347 328.67276 310.61175 328.67276 306.19347 L 328.67276 295.19347 C 328.67276 290.7752 332.2545 287.19347 336.67276 287.19347 Z" fill="#0064aa"/>
        <path d="M 336.67276 287.19347 L 569.67276 287.19347 C 574.09104 287.19347 577.67276 290.7752 577.67276 295.19347 L 577.67276 306.19347 C 577.67276 310.61175 574.09104 314.19347 569.67276 314.19347 L 336.67276 314.19347 C 332.2545 314.19347 328.67276 310.61175 328.67276 306.19347 L 328.67276 295.19347 C 328.67276 290.7752 332.2545 287.19347 336.67276 287.19347 Z" stroke="#212121" stroke-linecap="round" stroke-linejoin="round" stroke-width="1"/>
        <text transform="translate(333.67276 289.69347)" fill="#ebebeb">
          <tspan font-family="Avenir" font-size="16" fill="#ebebeb" x="32.828" y="16">main(String[] arguments)</tspan>
        </text>
      </g>
      <g id="Graphic_33">
        <path d="M 336.64434 263.24482 L 569.64434 263.24482 C 574.0626 263.24482 577.64434 259.6631 577.64434 255.24482 L 577.64434 237.3721 C 577.64434 232.95382 574.0626 229.3721 569.64434 229.3721 L 336.64434 229.3721 C 332.22606 229.3721 328.64434 232.95382 328.64434 237.3721 L 328.64434 255.24482 C 328.64434 259.6631 332.22606 263.24482 336.64434 263.24482 Z" fill="#0065a9"/>
        <path d="M 336.64434 263.24482 L 569.64434 263.24482 C 574.0626 263.24482 577.64434 259.6631 577.64434 255.24482 L 577.64434 237.3721 C 577.64434 232.95382 574.0626 229.3721 569.64434 229.3721 L 336.64434 229.3721 C 332.22606 229.3721 328.64434 232.95382 328.64434 237.3721 L 328.64434 255.24482 C 328.64434 259.6631 332.22606 263.24482 336.64434 263.24482 Z" stroke="#212121" stroke-linecap="round" stroke-linejoin="round" stroke-width="1"/>
        <text transform="translate(333.64434 235.30846)" fill="white">
          <tspan font-family="Avenir" font-weight="bold" font-size="16" fill="white" x="70.004" y="16">Method Calls</tspan>
        </text>
      </g>
      <g id="Graphic_34">
        <path d="M 646.2887 263.24482 L 879.2887 263.24482 C 883.707 263.24482 887.2887 259.6631 887.2887 255.24482 L 887.2887 237.3721 C 887.2887 232.95382 883.707 229.3721 879.2887 229.3721 L 646.2887 229.3721 C 641.8704 229.3721 638.2887 232.95382 638.2887 237.3721 L 638.2887 255.24482 C 638.2887 259.6631 641.8704 263.24482 646.2887 263.24482 Z" fill="#ca7400"/>
        <path d="M 646.2887 263.24482 L 879.2887 263.24482 C 883.707 263.24482 887.2887 259.6631 887.2887 255.24482 L 887.2887 237.3721 C 887.2887 232.95382 883.707 229.3721 879.2887 229.3721 L 646.2887 229.3721 C 641.8704 229.3721 638.2887 232.95382 638.2887 237.3721 L 638.2887 255.24482 C 638.2887 259.6631 641.8704 263.24482 646.2887 263.24482 Z" stroke="#212121" stroke-linecap="round" stroke-linejoin="round" stroke-width="1"/>
        <text transform="translate(643.2887 235.30846)" fill="white">
          <tspan font-family="Avenir" font-weight="bold" font-size="16" fill="white" x="85.092" y="16">Activities</tspan>
        </text>
      </g>
      <g id="Graphic_35">
        <path d="M 336.67276 327.63778 L 569.67276 327.63778 C 574.09104 327.63778 577.67276 331.2195 577.67276 335.63778 L 577.67276 346.63778 C 577.67276 351.05605 574.09104 354.63778 569.67276 354.63778 L 336.67276 354.63778 C 332.2545 354.63778 328.67276 351.05605 328.67276 346.63778 L 328.67276 335.63778 C 328.67276 331.2195 332.2545 327.63778 336.67276 327.63778 Z" fill="#0064aa"/>
        <path d="M 336.67276 327.63778 L 569.67276 327.63778 C 574.09104 327.63778 577.67276 331.2195 577.67276 335.63778 L 577.67276 346.63778 C 577.67276 351.05605 574.09104 354.63778 569.67276 354.63778 L 336.67276 354.63778 C 332.2545 354.63778 328.67276 351.05605 328.67276 346.63778 L 328.67276 335.63778 C 328.67276 331.2195 332.2545 327.63778 336.67276 327.63778 Z" stroke="#212121" stroke-linecap="round" stroke-linejoin="round" stroke-width="1"/>
        <text transform="translate(333.67276 330.13778)" fill="#ebebeb">
          <tspan font-family="Avenir" font-size="16" fill="#ebebeb" x="74.46" y="16">Application()</tspan>
        </text>
      </g>
      <g id="Graphic_37">
        <path d="M 595.7684 428.15256 L 621.09565 428.15256 C 625.5139 428.15256 629.09565 431.7343 629.09565 436.15256 L 629.09565 447.15256 C 629.09565 451.57083 625.5139 455.15256 621.09565 455.15256 L 595.7684 455.15256 C 591.3501 455.15256 587.7684 451.57083 587.7684 447.15256 L 587.7684 436.15256 C 587.7684 431.7343 591.3501 428.15256 595.7684 428.15256 Z" fill="#dead26"/>
        <path d="M 595.7684 428.15256 L 621.09565 428.15256 C 625.5139 428.15256 629.09565 431.7343 629.09565 436.15256 L 629.09565 447.15256 C 629.09565 451.57083 625.5139 455.15256 621.09565 455.15256 L 595.7684 455.15256 C 591.3501 455.15256 587.7684 451.57083 587.7684 447.15256 L 587.7684 436.15256 C 587.7684 431.7343 591.3501 428.15256 595.7684 428.15256 Z" stroke="#212121" stroke-linecap="round" stroke-linejoin="round" stroke-width="1"/>
        <text transform="translate(592.7684 430.65256)" fill="#ebebeb">
          <tspan font-family="Avenir" font-weight="bold" font-size="16" fill="#ebebeb" x="10.92762" y="16">3</tspan>
        </text>
      </g>
      <g id="Graphic_38">
        <path d="M -30.221455 428.3581 L -4.8942155 428.3581 C -.4759375 428.3581 3.1057845 431.93984 3.1057845 436.3581 L 3.1057845 447.3581 C 3.1057845 451.7764 -.4759375 455.3581 -4.8942155 455.3581 L -30.221455 455.3581 C -34.639733 455.3581 -38.221455 451.7764 -38.221455 447.3581 L -38.221455 436.3581 C -38.221455 431.93984 -34.639733 428.3581 -30.221455 428.3581 Z" fill="#dead26"/>
        <path d="M -30.221455 428.3581 L -4.8942155 428.3581 C -.4759375 428.3581 3.1057845 431.93984 3.1057845 436.3581 L 3.1057845 447.3581 C 3.1057845 451.7764 -.4759375 455.3581 -4.8942155 455.3581 L -30.221455 455.3581 C -34.639733 455.3581 -38.221455 451.7764 -38.221455 447.3581 L -38.221455 436.3581 C -38.221455 431.93984 -34.639733 428.3581 -30.221455 428.3581 Z" stroke="#212121" stroke-linecap="round" stroke-linejoin="round" stroke-width="1"/>
        <text transform="translate(-33.221455 430.8581)" fill="#ebebeb">
          <tspan font-family="Avenir" font-weight="bold" font-size="16" fill="#ebebeb" x="10.92762" y="16">1</tspan>
        </text>
      </g>
      <g id="Graphic_39">
        <path d="M 284.77855 468.59686 L 310.1058 468.59686 C 314.52406 468.59686 318.1058 472.1786 318.1058 476.59686 L 318.1058 487.59686 C 318.1058 492.01514 314.52406 495.59686 310.1058 495.59686 L 284.77855 495.59686 C 280.36027 495.59686 276.77855 492.01514 276.77855 487.59686 L 276.77855 476.59686 C 276.77855 472.1786 280.36027 468.59686 284.77855 468.59686 Z" fill="#dead26"/>
        <path d="M 284.77855 468.59686 L 310.1058 468.59686 C 314.52406 468.59686 318.1058 472.1786 318.1058 476.59686 L 318.1058 487.59686 C 318.1058 492.01514 314.52406 495.59686 310.1058 495.59686 L 284.77855 495.59686 C 280.36027 495.59686 276.77855 492.01514 276.77855 487.59686 L 276.77855 476.59686 C 276.77855 472.1786 280.36027 468.59686 284.77855 468.59686 Z" stroke="#212121" stroke-linecap="round" stroke-linejoin="round" stroke-width="1"/>
        <text transform="translate(281.77855 471.09686)" fill="#ebebeb">
          <tspan font-family="Avenir" font-weight="bold" font-size="16" fill="#ebebeb" x="10.92762" y="16">4</tspan>
        </text>
      </g>
      <g id="Graphic_40">
        <path d="M 285.30547 689.79516 L 310.6327 689.79516 C 315.051 689.79516 318.6327 693.3769 318.6327 697.79516 L 318.6327 708.79516 C 318.6327 713.2134 315.051 716.79516 310.6327 716.79516 L 285.30547 716.79516 C 280.8872 716.79516 277.30547 713.2134 277.30547 708.79516 L 277.30547 697.79516 C 277.30547 693.3769 280.8872 689.79516 285.30547 689.79516 Z" fill="#4e8f00"/>
        <path d="M 285.30547 689.79516 L 310.6327 689.79516 C 315.051 689.79516 318.6327 693.3769 318.6327 697.79516 L 318.6327 708.79516 C 318.6327 713.2134 315.051 716.79516 310.6327 716.79516 L 285.30547 716.79516 C 280.8872 716.79516 277.30547 713.2134 277.30547 708.79516 L 277.30547 697.79516 C 277.30547 693.3769 280.8872 689.79516 285.30547 689.79516 Z" stroke="#212121" stroke-linecap="round" stroke-linejoin="round" stroke-width="1"/>
        <text transform="translate(282.30547 692.29516)" fill="#ebebeb">
          <tspan font-family="Avenir" font-weight="bold" font-size="16" fill="#ebebeb" x="10.92762" y="16">2</tspan>
        </text>
      </g>
      <g id="Graphic_41">
        <path d="M 284.80696 548.893 L 310.1342 548.893 C 314.5525 548.893 318.1342 552.47475 318.1342 556.893 L 318.1342 567.893 C 318.1342 572.3113 314.5525 575.893 310.1342 575.893 L 284.80696 575.893 C 280.3887 575.893 276.80696 572.3113 276.80696 567.893 L 276.80696 556.893 C 276.80696 552.47475 280.3887 548.893 284.80696 548.893 Z" fill="#dead26"/>
        <path d="M 284.80696 548.893 L 310.1342 548.893 C 314.5525 548.893 318.1342 552.47475 318.1342 556.893 L 318.1342 567.893 C 318.1342 572.3113 314.5525 575.893 310.1342 575.893 L 284.80696 575.893 C 280.3887 575.893 276.80696 572.3113 276.80696 567.893 L 276.80696 556.893 C 276.80696 552.47475 280.3887 548.893 284.80696 548.893 Z" stroke="#212121" stroke-linecap="round" stroke-linejoin="round" stroke-width="1"/>
        <text transform="translate(281.80696 551.393)" fill="#ebebeb">
          <tspan font-family="Avenir" font-weight="bold" font-size="16" fill="#ebebeb" x="10.92762" y="16">6</tspan>
        </text>
      </g>
      <g id="Graphic_42">
        <path d="M 595.7684 548.893 L 621.09565 548.893 C 625.5139 548.893 629.09565 552.47475 629.09565 556.893 L 629.09565 567.893 C 629.09565 572.3113 625.5139 575.893 621.09565 575.893 L 595.7684 575.893 C 591.3501 575.893 587.7684 572.3113 587.7684 567.893 L 587.7684 556.893 C 587.7684 552.47475 591.3501 548.893 595.7684 548.893 Z" fill="#dead26"/>
        <path d="M 595.7684 548.893 L 621.09565 548.893 C 625.5139 548.893 629.09565 552.47475 629.09565 556.893 L 629.09565 567.893 C 629.09565 572.3113 625.5139 575.893 621.09565 575.893 L 595.7684 575.893 C 591.3501 575.893 587.7684 572.3113 587.7684 567.893 L 587.7684 556.893 C 587.7684 552.47475 591.3501 548.893 595.7684 548.893 Z" stroke="#212121" stroke-linecap="round" stroke-linejoin="round" stroke-width="1"/>
        <text transform="translate(592.7684 551.393)" fill="#ebebeb">
          <tspan font-family="Avenir" font-weight="bold" font-size="16" fill="#ebebeb" x="10.92762" y="16">7</tspan>
        </text>
      </g>
      <g id="Graphic_43">
        <path d="M 284.77855 588.59194 L 310.1058 588.59194 C 314.52406 588.59194 318.1058 592.17366 318.1058 596.59194 L 318.1058 607.59194 C 318.1058 612.0102 314.52406 615.59194 310.1058 615.59194 L 284.77855 615.59194 C 280.36027 615.59194 276.77855 612.0102 276.77855 607.59194 L 276.77855 596.59194 C 276.77855 592.17366 280.36027 588.59194 284.77855 588.59194 Z" fill="#dead26"/>
        <path d="M 284.77855 588.59194 L 310.1058 588.59194 C 314.52406 588.59194 318.1058 592.17366 318.1058 596.59194 L 318.1058 607.59194 C 318.1058 612.0102 314.52406 615.59194 310.1058 615.59194 L 284.77855 615.59194 C 280.36027 615.59194 276.77855 612.0102 276.77855 607.59194 L 276.77855 596.59194 C 276.77855 592.17366 280.36027 588.59194 284.77855 588.59194 Z" stroke="#212121" stroke-linecap="round" stroke-linejoin="round" stroke-width="1"/>
        <text transform="translate(281.77855 591.09194)" fill="#ebebeb">
          <tspan font-family="Avenir" font-weight="bold" font-size="16" fill="#ebebeb" x="10.92762" y="16">8</tspan>
        </text>
      </g>
      <g id="Graphic_44">
        <path d="M 595.656 689.79516 L 620.98324 689.79516 C 625.4015 689.79516 628.98324 693.3769 628.98324 697.79516 L 628.98324 708.79516 C 628.98324 713.2134 625.4015 716.79516 620.98324 716.79516 L 595.656 716.79516 C 591.2377 716.79516 587.656 713.2134 587.656 708.79516 L 587.656 697.79516 C 587.656 693.3769 591.2377 689.79516 595.656 689.79516 Z" fill="#4e8f00"/>
        <path d="M 595.656 689.79516 L 620.98324 689.79516 C 625.4015 689.79516 628.98324 693.3769 628.98324 697.79516 L 628.98324 708.79516 C 628.98324 713.2134 625.4015 716.79516 620.98324 716.79516 L 595.656 716.79516 C 591.2377 716.79516 587.656 713.2134 587.656 708.79516 L 587.656 697.79516 C 587.656 693.3769 591.2377 689.79516 595.656 689.79516 Z" stroke="#212121" stroke-linecap="round" stroke-linejoin="round" stroke-width="1"/>
        <text transform="translate(592.656 692.29516)" fill="#ebebeb">
          <tspan font-family="Avenir" font-weight="bold" font-size="16" fill="#ebebeb" x="10.92762" y="16">3</tspan>
        </text>
      </g>
      <g id="Graphic_45">
        <path d="M 284.77855 730.5173 L 310.1058 730.5173 C 314.52406 730.5173 318.1058 734.09905 318.1058 738.5173 L 318.1058 749.5173 C 318.1058 753.9356 314.52406 757.5173 310.1058 757.5173 L 284.77855 757.5173 C 280.36027 757.5173 276.77855 753.9356 276.77855 749.5173 L 276.77855 738.5173 C 276.77855 734.09905 280.36027 730.5173 284.77855 730.5173 Z" fill="#4e8f00"/>
        <path d="M 284.77855 730.5173 L 310.1058 730.5173 C 314.52406 730.5173 318.1058 734.09905 318.1058 738.5173 L 318.1058 749.5173 C 318.1058 753.9356 314.52406 757.5173 310.1058 757.5173 L 284.77855 757.5173 C 280.36027 757.5173 276.77855 753.9356 276.77855 749.5173 L 276.77855 738.5173 C 276.77855 734.09905 280.36027 730.5173 284.77855 730.5173 Z" stroke="#212121" stroke-linecap="round" stroke-linejoin="round" stroke-width="1"/>
        <text transform="translate(281.77855 733.0173)" fill="#ebebeb">
          <tspan font-family="Avenir" font-weight="bold" font-size="16" fill="#ebebeb" x="10.92762" y="16">4</tspan>
        </text>
      </g>
      <g id="Graphic_46">
        <path d="M 595.5823 771.8429 L 620.9095 771.8429 C 625.3278 771.8429 628.9095 775.4246 628.9095 779.8429 L 628.9095 790.8429 C 628.9095 795.2612 625.3278 798.8429 620.9095 798.8429 L 595.5823 798.8429 C 591.164 798.8429 587.5823 795.2612 587.5823 790.8429 L 587.5823 779.8429 C 587.5823 775.4246 591.164 771.8429 595.5823 771.8429 Z" fill="#4e8f00"/>
        <path d="M 595.5823 771.8429 L 620.9095 771.8429 C 625.3278 771.8429 628.9095 775.4246 628.9095 779.8429 L 628.9095 790.8429 C 628.9095 795.2612 625.3278 798.8429 620.9095 798.8429 L 595.5823 798.8429 C 591.164 798.8429 587.5823 795.2612 587.5823 790.8429 L 587.5823 779.8429 C 587.5823 775.4246 591.164 771.8429 595.5823 771.8429 Z" stroke="#212121" stroke-linecap="round" stroke-linejoin="round" stroke-width="1"/>
        <text transform="translate(592.5823 774.3429)" fill="#ebebeb">
          <tspan font-family="Avenir" font-weight="bold" font-size="16" fill="#ebebeb" x="10.92762" y="16">6</tspan>
        </text>
      </g>
      <g id="Graphic_49">
        <path d="M 284.77855 810.8429 L 310.1058 810.8429 C 314.52406 810.8429 318.1058 814.4246 318.1058 818.8429 L 318.1058 829.8429 C 318.1058 834.2612 314.52406 837.8429 310.1058 837.8429 L 284.77855 837.8429 C 280.36027 837.8429 276.77855 834.2612 276.77855 829.8429 L 276.77855 818.8429 C 276.77855 814.4246 280.36027 810.8429 284.77855 810.8429 Z" fill="#4e8f00"/>
        <path d="M 284.77855 810.8429 L 310.1058 810.8429 C 314.52406 810.8429 318.1058 814.4246 318.1058 818.8429 L 318.1058 829.8429 C 318.1058 834.2612 314.52406 837.8429 310.1058 837.8429 L 284.77855 837.8429 C 280.36027 837.8429 276.77855 834.2612 276.77855 829.8429 L 276.77855 818.8429 C 276.77855 814.4246 280.36027 810.8429 284.77855 810.8429 Z" stroke="#212121" stroke-linecap="round" stroke-linejoin="round" stroke-width="1"/>
        <text transform="translate(281.77855 813.3429)" fill="#ebebeb">
          <tspan font-family="Avenir" font-weight="bold" font-size="16" fill="#ebebeb" x="10.92762" y="16">7</tspan>
        </text>
      </g>
      <g id="Graphic_51">
        <path d="M 595.5823 809.9083 L 620.9095 809.9083 C 625.3278 809.9083 628.9095 813.49 628.9095 817.9083 L 628.9095 828.9083 C 628.9095 833.3266 625.3278 836.9083 620.9095 836.9083 L 595.5823 836.9083 C 591.164 836.9083 587.5823 833.3266 587.5823 828.9083 L 587.5823 817.9083 C 587.5823 813.49 591.164 809.9083 595.5823 809.9083 Z" fill="#4e8f00"/>
        <path d="M 595.5823 809.9083 L 620.9095 809.9083 C 625.3278 809.9083 628.9095 813.49 628.9095 817.9083 L 628.9095 828.9083 C 628.9095 833.3266 625.3278 836.9083 620.9095 836.9083 L 595.5823 836.9083 C 591.164 836.9083 587.5823 833.3266 587.5823 828.9083 L 587.5823 817.9083 C 587.5823 813.49 591.164 809.9083 595.5823 809.9083 Z" stroke="#212121" stroke-linecap="round" stroke-linejoin="round" stroke-width="1"/>
        <text transform="translate(592.5823 812.4083)" fill="#ebebeb">
          <tspan font-family="Avenir" font-weight="bold" font-size="16" fill="#ebebeb" x="10.92762" y="16">8</tspan>
        </text>
      </g>
      <g id="Graphic_52">
        <path d="M 595.5823 847.9737 L 620.9095 847.9737 C 625.3278 847.9737 628.9095 851.5555 628.9095 855.9737 L 628.9095 866.9737 C 628.9095 871.392 625.3278 874.9737 620.9095 874.9737 L 595.5823 874.9737 C 591.164 874.9737 587.5823 871.392 587.5823 866.9737 L 587.5823 855.9737 C 587.5823 851.5555 591.164 847.9737 595.5823 847.9737 Z" fill="#4e8f00"/>
        <path d="M 595.5823 847.9737 L 620.9095 847.9737 C 625.3278 847.9737 628.9095 851.5555 628.9095 855.9737 L 628.9095 866.9737 C 628.9095 871.392 625.3278 874.9737 620.9095 874.9737 L 595.5823 874.9737 C 591.164 874.9737 587.5823 871.392 587.5823 866.9737 L 587.5823 855.9737 C 587.5823 851.5555 591.164 847.9737 595.5823 847.9737 Z" stroke="#212121" stroke-linecap="round" stroke-linejoin="round" stroke-width="1"/>
        <text transform="translate(592.5823 850.4737)" fill="#ebebeb">
          <tspan font-family="Avenir" font-weight="bold" font-size="16" fill="#ebebeb" x="10.92762" y="16">9</tspan>
        </text>
      </g>
      <g id="Graphic_53">
        <path d="M -34.5 689.79516 L -9.17276 689.79516 C -4.7544825 689.79516 -1.1727605 693.3769 -1.1727605 697.79516 L -1.1727605 708.79516 C -1.1727605 713.2134 -4.7544825 716.79516 -9.17276 716.79516 L -34.5 716.79516 C -38.91828 716.79516 -42.5 713.2134 -42.5 708.79516 L -42.5 697.79516 C -42.5 693.3769 -38.91828 689.79516 -34.5 689.79516 Z" fill="#4e8f00"/>
        <path d="M -34.5 689.79516 L -9.17276 689.79516 C -4.7544825 689.79516 -1.1727605 693.3769 -1.1727605 697.79516 L -1.1727605 708.79516 C -1.1727605 713.2134 -4.7544825 716.79516 -9.17276 716.79516 L -34.5 716.79516 C -38.91828 716.79516 -42.5 713.2134 -42.5 708.79516 L -42.5 697.79516 C -42.5 693.3769 -38.91828 689.79516 -34.5 689.79516 Z" stroke="#212121" stroke-linecap="round" stroke-linejoin="round" stroke-width="1"/>
        <text transform="translate(-37.5 692.29516)" fill="#ebebeb">
          <tspan font-family="Avenir" font-weight="bold" font-size="16" fill="#ebebeb" x="10.92762" y="16">1</tspan>
        </text>
      </g>
      <g id="Graphic_55">
        <path d="M -34.5 929.8285 L -9.17276 929.8285 C -4.7544825 929.8285 -1.1727605 933.4102 -1.1727605 937.8285 L -1.1727605 948.8285 C -1.1727605 953.2468 -4.7544825 956.8285 -9.17276 956.8285 L -34.5 956.8285 C -38.91828 956.8285 -42.5 953.2468 -42.5 948.8285 L -42.5 937.8285 C -42.5 933.4102 -38.91828 929.8285 -34.5 929.8285 Z" fill="#4e8f00"/>
        <path d="M -34.5 929.8285 L -9.17276 929.8285 C -4.7544825 929.8285 -1.1727605 933.4102 -1.1727605 937.8285 L -1.1727605 948.8285 C -1.1727605 953.2468 -4.7544825 956.8285 -9.17276 956.8285 L -34.5 956.8285 C -38.91828 956.8285 -42.5 953.2468 -42.5 948.8285 L -42.5 937.8285 C -42.5 933.4102 -38.91828 929.8285 -34.5 929.8285 Z" stroke="#212121" stroke-linecap="round" stroke-linejoin="round" stroke-width="1"/>
        <text transform="translate(-37.5 932.3285)" fill="#ebebeb">
          <tspan font-family="Avenir" font-weight="bold" font-size="16" fill="#ebebeb" x="6.19162" y="16">12</tspan>
        </text>
      </g>
      <g id="Graphic_56">
        <path d="M 595.5823 929.8285 L 620.9095 929.8285 C 625.3278 929.8285 628.9095 933.4102 628.9095 937.8285 L 628.9095 948.8285 C 628.9095 953.2468 625.3278 956.8285 620.9095 956.8285 L 595.5823 956.8285 C 591.164 956.8285 587.5823 953.2468 587.5823 948.8285 L 587.5823 937.8285 C 587.5823 933.4102 591.164 929.8285 595.5823 929.8285 Z" fill="#4e8f00"/>
        <path d="M 595.5823 929.8285 L 620.9095 929.8285 C 625.3278 929.8285 628.9095 933.4102 628.9095 937.8285 L 628.9095 948.8285 C 628.9095 953.2468 625.3278 956.8285 620.9095 956.8285 L 595.5823 956.8285 C 591.164 956.8285 587.5823 953.2468 587.5823 948.8285 L 587.5823 937.8285 C 587.5823 933.4102 591.164 929.8285 595.5823 929.8285 Z" stroke="#212121" stroke-linecap="round" stroke-linejoin="round" stroke-width="1"/>
        <text transform="translate(592.5823 932.3285)" fill="#ebebeb">
          <tspan font-family="Avenir" font-weight="bold" font-size="16" fill="#ebebeb" x="6.19162" y="16">13</tspan>
        </text>
      </g>
      <g id="Graphic_57">
        <path d="M 595.3575 970.9531 L 620.6847 970.9531 C 625.103 970.9531 628.6847 974.5348 628.6847 978.9531 L 628.6847 989.9531 C 628.6847 994.3714 625.103 997.9531 620.6847 997.9531 L 595.3575 997.9531 C 590.9392 997.9531 587.3575 994.3714 587.3575 989.9531 L 587.3575 978.9531 C 587.3575 974.5348 590.9392 970.9531 595.3575 970.9531 Z" fill="#4e8f00"/>
        <path d="M 595.3575 970.9531 L 620.6847 970.9531 C 625.103 970.9531 628.6847 974.5348 628.6847 978.9531 L 628.6847 989.9531 C 628.6847 994.3714 625.103 997.9531 620.6847 997.9531 L 595.3575 997.9531 C 590.9392 997.9531 587.3575 994.3714 587.3575 989.9531 L 587.3575 978.9531 C 587.3575 974.5348 590.9392 970.9531 595.3575 970.9531 Z" stroke="#212121" stroke-linecap="round" stroke-linejoin="round" stroke-width="1"/>
        <text transform="translate(592.3575 973.4531)" fill="#ebebeb">
          <tspan font-family="Avenir" font-weight="bold" font-size="16" fill="#ebebeb" x="6.19162" y="16">14</tspan>
        </text>
      </g>
      <g id="Graphic_58">
        <path d="M 284.77855 1014.4023 L 310.1058 1014.4023 C 314.52406 1014.4023 318.1058 1017.984 318.1058 1022.4023 L 318.1058 1033.4023 C 318.1058 1037.8206 314.52406 1041.4023 310.1058 1041.4023 L 284.77855 1041.4023 C 280.36027 1041.4023 276.77855 1037.8206 276.77855 1033.4023 L 276.77855 1022.4023 C 276.77855 1017.984 280.36027 1014.4023 284.77855 1014.4023 Z" fill="#4e8f00"/>
        <path d="M 284.77855 1014.4023 L 310.1058 1014.4023 C 314.52406 1014.4023 318.1058 1017.984 318.1058 1022.4023 L 318.1058 1033.4023 C 318.1058 1037.8206 314.52406 1041.4023 310.1058 1041.4023 L 284.77855 1041.4023 C 280.36027 1041.4023 276.77855 1037.8206 276.77855 1033.4023 L 276.77855 1022.4023 C 276.77855 1017.984 280.36027 1014.4023 284.77855 1014.4023 Z" stroke="#212121" stroke-linecap="round" stroke-linejoin="round" stroke-width="1"/>
        <text transform="translate(281.77855 1016.9023)" fill="#ebebeb">
          <tspan font-family="Avenir" font-weight="bold" font-size="16" fill="#ebebeb" x="6.19162" y="16">15</tspan>
        </text>
      </g>
      <g id="Graphic_59">
        <path d="M -30.221455 1071.5093 L -4.8942155 1071.5093 C -.4759375 1071.5093 3.1057845 1075.0911 3.1057845 1079.5093 L 3.1057845 1090.5093 C 3.1057845 1094.9276 -.4759375 1098.5093 -4.8942155 1098.5093 L -30.221455 1098.5093 C -34.639733 1098.5093 -38.221455 1094.9276 -38.221455 1090.5093 L -38.221455 1079.5093 C -38.221455 1075.0911 -34.639733 1071.5093 -30.221455 1071.5093 Z" fill="#941100"/>
        <path d="M -30.221455 1071.5093 L -4.8942155 1071.5093 C -.4759375 1071.5093 3.1057845 1075.0911 3.1057845 1079.5093 L 3.1057845 1090.5093 C 3.1057845 1094.9276 -.4759375 1098.5093 -4.8942155 1098.5093 L -30.221455 1098.5093 C -34.639733 1098.5093 -38.221455 1094.9276 -38.221455 1090.5093 L -38.221455 1079.5093 C -38.221455 1075.0911 -34.639733 1071.5093 -30.221455 1071.5093 Z" stroke="#212121" stroke-linecap="round" stroke-linejoin="round" stroke-width="1"/>
        <text transform="translate(-33.221455 1074.0093)" fill="#ebebeb">
          <tspan font-family="Avenir" font-weight="bold" font-size="16" fill="#ebebeb" x="10.92762" y="16">1</tspan>
        </text>
      </g>
      <g id="Graphic_60">
        <path d="M 595.3575 1071.5093 L 620.6847 1071.5093 C 625.103 1071.5093 628.6847 1075.0911 628.6847 1079.5093 L 628.6847 1090.5093 C 628.6847 1094.9276 625.103 1098.5093 620.6847 1098.5093 L 595.3575 1098.5093 C 590.9392 1098.5093 587.3575 1094.9276 587.3575 1090.5093 L 587.3575 1079.5093 C 587.3575 1075.0911 590.9392 1071.5093 595.3575 1071.5093 Z" fill="#941100"/>
        <path d="M 595.3575 1071.5093 L 620.6847 1071.5093 C 625.103 1071.5093 628.6847 1075.0911 628.6847 1079.5093 L 628.6847 1090.5093 C 628.6847 1094.9276 625.103 1098.5093 620.6847 1098.5093 L 595.3575 1098.5093 C 590.9392 1098.5093 587.3575 1094.9276 587.3575 1090.5093 L 587.3575 1079.5093 C 587.3575 1075.0911 590.9392 1071.5093 595.3575 1071.5093 Z" stroke="#212121" stroke-linecap="round" stroke-linejoin="round" stroke-width="1"/>
        <text transform="translate(592.3575 1074.0093)" fill="#ebebeb">
          <tspan font-family="Avenir" font-weight="bold" font-size="16" fill="#ebebeb" x="10.92762" y="16">2</tspan>
        </text>
      </g>
      <g id="Graphic_62">
        <path d="M 336.4513 509.04117 L 569.4513 509.04117 C 573.8696 509.04117 577.4513 512.6229 577.4513 517.0412 L 577.4513 528.0412 C 577.4513 532.45945 573.8696 536.0412 569.4513 536.0412 L 336.4513 536.0412 C 332.03303 536.0412 328.4513 532.45945 328.4513 528.0412 L 328.4513 517.0412 C 328.4513 512.6229 332.03303 509.04117 336.4513 509.04117 Z" fill="#0064aa"/>
        <path d="M 336.4513 509.04117 L 569.4513 509.04117 C 573.8696 509.04117 577.4513 512.6229 577.4513 517.0412 L 577.4513 528.0412 C 577.4513 532.45945 573.8696 536.0412 569.4513 536.0412 L 336.4513 536.0412 C 332.03303 536.0412 328.4513 532.45945 328.4513 528.0412 L 328.4513 517.0412 C 328.4513 512.6229 332.03303 509.04117 336.4513 509.04117 Z" stroke="#212121" stroke-linecap="round" stroke-linejoin="round" stroke-width="1"/>
        <text transform="translate(333.4513 511.5412)" fill="#ebebeb">
          <tspan font-family="Avenir" font-size="16" fill="#ebebeb" x="77.244" y="16">onInitialize()</tspan>
        </text>
      </g>
      <g id="Graphic_61">
        <path d="M 284.80696 508.8356 L 310.1342 508.8356 C 314.5525 508.8356 318.1342 512.41733 318.1342 516.8356 L 318.1342 527.8356 C 318.1342 532.2539 314.5525 535.8356 310.1342 535.8356 L 284.80696 535.8356 C 280.3887 535.8356 276.80696 532.2539 276.80696 527.8356 L 276.80696 516.8356 C 276.80696 512.41733 280.3887 508.8356 284.80696 508.8356 Z" fill="#dead26"/>
        <path d="M 284.80696 508.8356 L 310.1342 508.8356 C 314.5525 508.8356 318.1342 512.41733 318.1342 516.8356 L 318.1342 527.8356 C 318.1342 532.2539 314.5525 535.8356 310.1342 535.8356 L 284.80696 535.8356 C 280.3887 535.8356 276.80696 532.2539 276.80696 527.8356 L 276.80696 516.8356 C 276.80696 512.41733 280.3887 508.8356 284.80696 508.8356 Z" stroke="#212121" stroke-linecap="round" stroke-linejoin="round" stroke-width="1"/>
        <text transform="translate(281.80696 511.3356)" fill="#ebebeb">
          <tspan font-family="Avenir" font-weight="bold" font-size="16" fill="#ebebeb" x="10.92762" y="16">5</tspan>
        </text>
      </g>
      <g id="Graphic_64">
        <path d="M 27 327.63778 L 260 327.63778 C 264.41828 327.63778 268 331.2195 268 335.63778 L 268 346.63778 C 268 351.05605 264.41828 354.63778 260 354.63778 L 27 354.63778 C 22.581722 354.63778 19 351.05605 19 346.63778 L 19 335.63778 C 19 331.2195 22.581722 327.63778 27 327.63778 Z" fill="#4e8f00"/>
        <path d="M 27 327.63778 L 260 327.63778 C 264.41828 327.63778 268 331.2195 268 335.63778 L 268 346.63778 C 268 351.05605 264.41828 354.63778 260 354.63778 L 27 354.63778 C 22.581722 354.63778 19 351.05605 19 346.63778 L 19 335.63778 C 19 331.2195 22.581722 327.63778 27 327.63778 Z" stroke="#212121" stroke-linecap="round" stroke-linejoin="round" stroke-width="1"/>
        <text transform="translate(24 330.13778)" fill="#ebebeb">
          <tspan font-family="Avenir" font-size="16" fill="#ebebeb" x="56.916" y="16">CONSTRUCTING</tspan>
        </text>
      </g>
      <g id="Graphic_63">
        <path d="M -30 327.63778 L -4.6727605 327.63778 C -.2544825 327.63778 3.3272395 331.2195 3.3272395 335.63778 L 3.3272395 346.63778 C 3.3272395 351.05605 -.2544825 354.63778 -4.6727605 354.63778 L -30 354.63778 C -34.41828 354.63778 -38 351.05605 -38 346.63778 L -38 335.63778 C -38 331.2195 -34.41828 327.63778 -30 327.63778 Z" fill="#941100"/>
        <path d="M -30 327.63778 L -4.6727605 327.63778 C -.2544825 327.63778 3.3272395 331.2195 3.3272395 335.63778 L 3.3272395 346.63778 C 3.3272395 351.05605 -.2544825 354.63778 -4.6727605 354.63778 L -30 354.63778 C -34.41828 354.63778 -38 351.05605 -38 346.63778 L -38 335.63778 C -38 331.2195 -34.41828 327.63778 -30 327.63778 Z" stroke="#212121" stroke-linecap="round" stroke-linejoin="round" stroke-width="1"/>
        <text transform="translate(-33 330.13778)" fill="#ebebeb">
          <tspan font-family="Avenir" font-weight="bold" font-size="16" fill="#ebebeb" x="10.92762" y="16">2</tspan>
        </text>
      </g>
      <g id="Graphic_66">
        <path d="M 336.4513 630.3741 L 569.4513 630.3741 C 573.8696 630.3741 577.4513 633.9558 577.4513 638.3741 L 577.4513 649.3741 C 577.4513 653.7924 573.8696 657.3741 569.4513 657.3741 L 336.4513 657.3741 C 332.03303 657.3741 328.4513 653.7924 328.4513 649.3741 L 328.4513 638.3741 C 328.4513 633.9558 332.03303 630.3741 336.4513 630.3741 Z" fill="#0064aa"/>
        <path d="M 336.4513 630.3741 L 569.4513 630.3741 C 573.8696 630.3741 577.4513 633.9558 577.4513 638.3741 L 577.4513 649.3741 C 577.4513 653.7924 573.8696 657.3741 569.4513 657.3741 L 336.4513 657.3741 C 332.03303 657.3741 328.4513 653.7924 328.4513 649.3741 L 328.4513 638.3741 C 328.4513 633.9558 332.03303 630.3741 336.4513 630.3741 Z" stroke="#212121" stroke-linecap="round" stroke-linejoin="round" stroke-width="1"/>
        <text transform="translate(333.4513 632.8741)" fill="#ebebeb">
          <tspan font-family="Avenir" font-size="16" fill="#ebebeb" x="76.516" y="16">onInitialized</tspan>
        </text>
      </g>
      <g id="Graphic_65">
        <path d="M 284.80696 631.59194 L 310.1342 631.59194 C 314.5525 631.59194 318.1342 635.1737 318.1342 639.59194 L 318.1342 650.59194 C 318.1342 655.0102 314.5525 658.59194 310.1342 658.59194 L 284.80696 658.59194 C 280.3887 658.59194 276.80696 655.0102 276.80696 650.59194 L 276.80696 639.59194 C 276.80696 635.1737 280.3887 631.59194 284.80696 631.59194 Z" fill="#dead26"/>
        <path d="M 284.80696 631.59194 L 310.1342 631.59194 C 314.5525 631.59194 318.1342 635.1737 318.1342 639.59194 L 318.1342 650.59194 C 318.1342 655.0102 314.5525 658.59194 310.1342 658.59194 L 284.80696 658.59194 C 280.3887 658.59194 276.80696 655.0102 276.80696 650.59194 L 276.80696 639.59194 C 276.80696 635.1737 280.3887 631.59194 284.80696 631.59194 Z" stroke="#212121" stroke-linecap="round" stroke-linejoin="round" stroke-width="1"/>
        <text transform="translate(281.80696 634.09194)" fill="#ebebeb">
          <tspan font-family="Avenir" font-weight="bold" font-size="16" fill="#ebebeb" x="10.92762" y="16">9</tspan>
        </text>
      </g>
      <g id="Graphic_67">
        <path d="M 646.0672 1071.2658 L 879.0672 1071.2658 C 883.4855 1071.2658 887.0672 1074.8475 887.0672 1079.2658 L 887.0672 1090.2658 C 887.0672 1094.684 883.4855 1098.2658 879.0672 1098.2658 L 646.0672 1098.2658 C 641.64895 1098.2658 638.0672 1094.684 638.0672 1090.2658 L 638.0672 1079.2658 C 638.0672 1074.8475 641.64895 1071.2658 646.0672 1071.2658 Z" fill="#ca7400"/>
        <path d="M 646.0672 1071.2658 L 879.0672 1071.2658 C 883.4855 1071.2658 887.0672 1074.8475 887.0672 1079.2658 L 887.0672 1090.2658 C 887.0672 1094.684 883.4855 1098.2658 879.0672 1098.2658 L 646.0672 1098.2658 C 641.64895 1098.2658 638.0672 1094.684 638.0672 1090.2658 L 638.0672 1079.2658 C 638.0672 1074.8475 641.64895 1071.2658 646.0672 1071.2658 Z" stroke="#212121" stroke-linecap="round" stroke-linejoin="round" stroke-width="1"/>
        <text transform="translate(643.0672 1073.7658)" fill="#ebebeb">
          <tspan font-family="Avenir" font-size="16" fill="#ebebeb" x="59.812" y="16">Application Exits</tspan>
        </text>
      </g>
      <g id="Graphic_68">
        <path d="M 284.80696 771.8429 L 310.1342 771.8429 C 314.5525 771.8429 318.1342 775.4246 318.1342 779.8429 L 318.1342 790.8429 C 318.1342 795.2612 314.5525 798.8429 310.1342 798.8429 L 284.80696 798.8429 C 280.3887 798.8429 276.80696 795.2612 276.80696 790.8429 L 276.80696 779.8429 C 276.80696 775.4246 280.3887 771.8429 284.80696 771.8429 Z" fill="#4e8f00"/>
        <path d="M 284.80696 771.8429 L 310.1342 771.8429 C 314.5525 771.8429 318.1342 775.4246 318.1342 779.8429 L 318.1342 790.8429 C 318.1342 795.2612 314.5525 798.8429 310.1342 798.8429 L 284.80696 798.8429 C 280.3887 798.8429 276.80696 795.2612 276.80696 790.8429 L 276.80696 779.8429 C 276.80696 775.4246 280.3887 771.8429 284.80696 771.8429 Z" stroke="#212121" stroke-linecap="round" stroke-linejoin="round" stroke-width="1"/>
        <text transform="translate(281.80696 774.3429)" fill="#ebebeb">
          <tspan font-family="Avenir" font-weight="bold" font-size="16" fill="#ebebeb" x="10.92762" y="16">5</tspan>
        </text>
      </g>
      <g id="Graphic_70">
        <path d="M 336.4513 428.15256 L 569.4513 428.15256 C 573.8696 428.15256 577.4513 431.7343 577.4513 436.15256 L 577.4513 447.15256 C 577.4513 451.57083 573.8696 455.15256 569.4513 455.15256 L 336.4513 455.15256 C 332.03303 455.15256 328.4513 451.57083 328.4513 447.15256 L 328.4513 436.15256 C 328.4513 431.7343 332.03303 428.15256 336.4513 428.15256 Z" fill="#0064aa"/>
        <path d="M 336.4513 428.15256 L 569.4513 428.15256 C 573.8696 428.15256 577.4513 431.7343 577.4513 436.15256 L 577.4513 447.15256 C 577.4513 451.57083 573.8696 455.15256 569.4513 455.15256 L 336.4513 455.15256 C 332.03303 455.15256 328.4513 451.57083 328.4513 447.15256 L 328.4513 436.15256 C 328.4513 431.7343 332.03303 428.15256 336.4513 428.15256 Z" stroke="#212121" stroke-linecap="round" stroke-linejoin="round" stroke-width="1"/>
        <text transform="translate(333.4513 430.65256)" fill="#ebebeb">
          <tspan font-family="Avenir" font-size="16" fill="#ebebeb" x="70.436" y="16">onInitializing()</tspan>
        </text>
      </g>
      <g id="Graphic_69">
        <path d="M 284.80696 428.3581 L 310.1342 428.3581 C 314.5525 428.3581 318.1342 431.93984 318.1342 436.3581 L 318.1342 447.3581 C 318.1342 451.7764 314.5525 455.3581 310.1342 455.3581 L 284.80696 455.3581 C 280.3887 455.3581 276.80696 451.7764 276.80696 447.3581 L 276.80696 436.3581 C 276.80696 431.93984 280.3887 428.3581 284.80696 428.3581 Z" fill="#dead26"/>
        <path d="M 284.80696 428.3581 L 310.1342 428.3581 C 314.5525 428.3581 318.1342 431.93984 318.1342 436.3581 L 318.1342 447.3581 C 318.1342 451.7764 314.5525 455.3581 310.1342 455.3581 L 284.80696 455.3581 C 280.3887 455.3581 276.80696 451.7764 276.80696 447.3581 L 276.80696 436.3581 C 276.80696 431.93984 280.3887 428.3581 284.80696 428.3581 Z" stroke="#212121" stroke-linecap="round" stroke-linejoin="round" stroke-width="1"/>
        <text transform="translate(281.80696 430.8581)" fill="#ebebeb">
          <tspan font-family="Avenir" font-weight="bold" font-size="16" fill="#ebebeb" x="10.92762" y="16">2</tspan>
        </text>
      </g>
      <g id="Graphic_71">
        <path d="M 284.77855 891.7315 L 310.1058 891.7315 C 314.52406 891.7315 318.1058 895.3132 318.1058 899.7315 L 318.1058 910.7315 C 318.1058 915.1498 314.52406 918.7315 310.1058 918.7315 L 284.77855 918.7315 C 280.36027 918.7315 276.77855 915.1498 276.77855 910.7315 L 276.77855 899.7315 C 276.77855 895.3132 280.36027 891.7315 284.77855 891.7315 Z" fill="#4e8f00"/>
        <path d="M 284.77855 891.7315 L 310.1058 891.7315 C 314.52406 891.7315 318.1058 895.3132 318.1058 899.7315 L 318.1058 910.7315 C 318.1058 915.1498 314.52406 918.7315 310.1058 918.7315 L 284.77855 918.7315 C 280.36027 918.7315 276.77855 915.1498 276.77855 910.7315 L 276.77855 899.7315 C 276.77855 895.3132 280.36027 891.7315 284.77855 891.7315 Z" stroke="#212121" stroke-linecap="round" stroke-linejoin="round" stroke-width="1"/>
        <text transform="translate(281.77855 894.2315)" fill="#ebebeb">
          <tspan font-family="Avenir" font-weight="bold" font-size="16" fill="#ebebeb" x="6.19162" y="16">11</tspan>
        </text>
      </g>
      <g id="Line_76">
        <line x1="-38.221455" y1="408.4112" x2="887.0672" y2="410.30374" stroke="#797979" stroke-linecap="round" stroke-linejoin="round" stroke-dasharray="4.0,4.0" stroke-width="1"/>
      </g>
      <g id="Line_77">
        <line x1="-35.231593" y1="673.1047" x2="890.0571" y2="674.9972" stroke="#797979" stroke-linecap="round" stroke-linejoin="round" stroke-dasharray="4.0,4.0" stroke-width="1"/>
      </g>
      <g id="Line_78">
        <line x1="-38.221455" y1="1055.3878" x2="887.0672" y2="1057.2803" stroke="#797979" stroke-linecap="round" stroke-linejoin="round" stroke-dasharray="4.0,4.0" stroke-width="1"/>
      </g>
      <g id="Graphic_82">
        <path d="M 22.5 891.7315 L 255.5 891.7315 C 259.91828 891.7315 263.5 895.3132 263.5 899.7315 L 263.5 910.7315 C 263.5 915.1498 259.91828 918.7315 255.5 918.7315 L 22.5 918.7315 C 18.081722 918.7315 14.5 915.1498 14.5 910.7315 L 14.5 899.7315 C 14.5 895.3132 18.081722 891.7315 22.5 891.7315 Z" fill="#4e8f00"/>
        <path d="M 22.5 891.7315 L 255.5 891.7315 C 259.91828 891.7315 263.5 895.3132 263.5 899.7315 L 263.5 910.7315 C 263.5 915.1498 259.91828 918.7315 255.5 918.7315 L 22.5 918.7315 C 18.081722 918.7315 14.5 915.1498 14.5 910.7315 L 14.5 899.7315 C 14.5 895.3132 18.081722 891.7315 22.5 891.7315 Z" stroke="#212121" stroke-linecap="round" stroke-linejoin="round" stroke-width="1"/>
        <text transform="translate(19.5 894.2315)" fill="#ebebeb">
          <tspan font-family="Avenir" font-size="16" fill="#ebebeb" x="94.004" y="16">READY</tspan>
        </text>
      </g>
      <g id="Graphic_81">
        <path d="M -34.5 891.7315 L -9.17276 891.7315 C -4.7544825 891.7315 -1.1727605 895.3132 -1.1727605 899.7315 L -1.1727605 910.7315 C -1.1727605 915.1498 -4.7544825 918.7315 -9.17276 918.7315 L -34.5 918.7315 C -38.91828 918.7315 -42.5 915.1498 -42.5 910.7315 L -42.5 899.7315 C -42.5 895.3132 -38.91828 891.7315 -34.5 891.7315 Z" fill="#4e8f00"/>
        <path d="M -34.5 891.7315 L -9.17276 891.7315 C -4.7544825 891.7315 -1.1727605 895.3132 -1.1727605 899.7315 L -1.1727605 910.7315 C -1.1727605 915.1498 -4.7544825 918.7315 -9.17276 918.7315 L -34.5 918.7315 C -38.91828 918.7315 -42.5 915.1498 -42.5 910.7315 L -42.5 899.7315 C -42.5 895.3132 -38.91828 891.7315 -34.5 891.7315 Z" stroke="#212121" stroke-linecap="round" stroke-linejoin="round" stroke-width="1"/>
        <text transform="translate(-37.5 894.2315)" fill="#ebebeb">
          <tspan font-family="Avenir" font-weight="bold" font-size="16" fill="#ebebeb" x="6.19162" y="16">10</tspan>
        </text>
      </g>
    </g>
  </g>
</svg>
