<?xml version="1.0" encoding="UTF-8" standalone="no"?>
<!DOCTYPE svg PUBLIC "-//W3C//DTD SVG 1.1//EN" "http://www.w3.org/Graphics/SVG/1.1/DTD/svg11.dtd">
<svg xmlns:xl="http://www.w3.org/1999/xlink" xmlns:dc="http://purl.org/dc/elements/1.1/" xmlns="http://www.w3.org/2000/svg" version="1.1" viewBox="-54.5 224.5 958.2887 1080.5" width="958.2887" height="1080.5">
  <defs/>
  <g id="Canvas_1" fill-opacity="1" stroke="none" stroke-dasharray="none" fill="none" stroke-opacity="1">
    <title>Canvas 1</title>
    <g id="Canvas_1_Layer_1">
      <title>Layer 1</title>
      <g id="Graphic_2">
        <path d="M 285 287.19347 L 310.32724 287.19347 C 314.7455 287.19347 318.32724 290.7752 318.32724 295.19347 L 318.32724 306.19347 C 318.32724 310.61175 314.7455 314.19347 310.32724 314.19347 L 285 314.19347 C 280.58172 314.19347 277 310.61175 277 306.19347 L 277 295.19347 C 277 290.7752 280.58172 287.19347 285 287.19347 Z" fill="#ff2600"/>
        <path d="M 285 287.19347 L 310.32724 287.19347 C 314.7455 287.19347 318.32724 290.7752 318.32724 295.19347 L 318.32724 306.19347 C 318.32724 310.61175 314.7455 314.19347 310.32724 314.19347 L 285 314.19347 C 280.58172 314.19347 277 310.61175 277 306.19347 L 277 295.19347 C 277 290.7752 280.58172 287.19347 285 287.19347 Z" stroke="#212121" stroke-linecap="round" stroke-linejoin="round" stroke-width="1"/>
        <text transform="translate(282 289.69347)" fill="#ebebeb">
          <tspan font-family="Avenir" font-weight="bold" font-size="16" fill="#ebebeb" x="10.92762" y="16">1</tspan>
        </text>
      </g>
      <g id="Graphic_4">
        <path d="M 27 274.87273 L 260 274.87273 C 264.41828 274.87273 268 271.291 268 266.87273 L 268 249 C 268 244.58172 264.41828 241 260 241 L 27 241 C 22.581722 241 19 244.58172 19 249 L 19 266.87273 C 19 271.291 22.581722 274.87273 27 274.87273 Z" fill="#8efa00"/>
        <path d="M 27 274.87273 L 260 274.87273 C 264.41828 274.87273 268 271.291 268 266.87273 L 268 249 C 268 244.58172 264.41828 241 260 241 L 27 241 C 22.581722 241 19 244.58172 19 249 L 19 266.87273 C 19 271.291 22.581722 274.87273 27 274.87273 Z" stroke="#212121" stroke-linecap="round" stroke-linejoin="round" stroke-width="1"/>
        <text transform="translate(24 246.93636)" fill="black">
          <tspan font-family="Avenir" font-weight="bold" font-size="16" fill="black" x="99.796" y="16">State</tspan>
        </text>
      </g>
      <g id="Graphic_6">
        <path d="M 336.64434 365.5 L 569.64434 365.5 C 574.0626 365.5 577.64434 369.08172 577.64434 373.5 L 577.64434 384.5 C 577.64434 388.9183 574.0626 392.5 569.64434 392.5 L 336.64434 392.5 C 332.22606 392.5 328.64434 388.9183 328.64434 384.5 L 328.64434 373.5 C 328.64434 369.08172 332.22606 365.5 336.64434 365.5 Z" fill="#0064aa"/>
        <path d="M 336.64434 365.5 L 569.64434 365.5 C 574.0626 365.5 577.64434 369.08172 577.64434 373.5 L 577.64434 384.5 C 577.64434 388.9183 574.0626 392.5 569.64434 392.5 L 336.64434 392.5 C 332.22606 392.5 328.64434 388.9183 328.64434 384.5 L 328.64434 373.5 C 328.64434 369.08172 332.22606 365.5 336.64434 365.5 Z" stroke="#212121" stroke-linecap="round" stroke-linejoin="round" stroke-width="1"/>
        <text transform="translate(333.64434 368)" fill="#ebebeb">
          <tspan font-family="Avenir" font-size="16" fill="#ebebeb" x="78.612" y="16">run(String[])</tspan>
        </text>
      </g>
      <g id="Graphic_8">
        <path d="M 646.2887 402.87273 L 879.2887 402.87273 C 883.707 402.87273 887.2887 406.45445 887.2887 410.87273 L 887.2887 421.87273 C 887.2887 426.291 883.707 429.87273 879.2887 429.87273 L 646.2887 429.87273 C 641.8704 429.87273 638.2887 426.291 638.2887 421.87273 L 638.2887 410.87273 C 638.2887 406.45445 641.8704 402.87273 646.2887 402.87273 Z" fill="#ca7400"/>
        <path d="M 646.2887 402.87273 L 879.2887 402.87273 C 883.707 402.87273 887.2887 406.45445 887.2887 410.87273 L 887.2887 421.87273 C 887.2887 426.291 883.707 429.87273 879.2887 429.87273 L 646.2887 429.87273 C 641.8704 429.87273 638.2887 426.291 638.2887 421.87273 L 638.2887 410.87273 C 638.2887 406.45445 641.8704 402.87273 646.2887 402.87273 Z" stroke="#212121" stroke-linecap="round" stroke-linejoin="round" stroke-width="1"/>
        <text transform="translate(643.2887 405.37273)" fill="#ebebeb">
          <tspan font-family="Avenir" font-size="16" fill="#ebebeb" x="38.036" y="16">Enable StartupOptions</tspan>
        </text>
      </g>
      <g id="Graphic_9">
        <path d="M 27 442.5 L 260 442.5 C 264.41828 442.5 268 446.0817 268 450.5 L 268 461.5 C 268 465.9183 264.41828 469.5 260 469.5 L 27 469.5 C 22.581722 469.5 19 465.9183 19 461.5 L 19 450.5 C 19 446.0817 22.581722 442.5 27 442.5 Z" fill="#4e8f00"/>
        <path d="M 27 442.5 L 260 442.5 C 264.41828 442.5 268 446.0817 268 450.5 L 268 461.5 C 268 465.9183 264.41828 469.5 260 469.5 L 27 469.5 C 22.581722 469.5 19 465.9183 19 461.5 L 19 450.5 C 19 446.0817 22.581722 442.5 27 442.5 Z" stroke="#212121" stroke-linecap="round" stroke-linejoin="round" stroke-width="1"/>
        <text transform="translate(24 445)" fill="#ebebeb">
          <tspan font-family="Avenir" font-size="16" fill="#ebebeb" x="40.94" y="16">State -&gt; INITIALIZING</tspan>
        </text>
      </g>
      <g id="Graphic_10">
        <path d="M 336.64434 481.5 L 569.64434 481.5 C 574.0626 481.5 577.64434 485.0817 577.64434 489.5 L 577.64434 500.5 C 577.64434 504.9183 574.0626 508.5 569.64434 508.5 L 336.64434 508.5 C 332.22606 508.5 328.64434 504.9183 328.64434 500.5 L 328.64434 489.5 C 328.64434 485.0817 332.22606 481.5 336.64434 481.5 Z" fill="#0064aa"/>
        <path d="M 336.64434 481.5 L 569.64434 481.5 C 574.0626 481.5 577.64434 485.0817 577.64434 489.5 L 577.64434 500.5 C 577.64434 504.9183 574.0626 508.5 569.64434 508.5 L 336.64434 508.5 C 332.22606 508.5 328.64434 504.9183 328.64434 500.5 L 328.64434 489.5 C 328.64434 485.0817 332.22606 481.5 336.64434 481.5 Z" stroke="#212121" stroke-linecap="round" stroke-linejoin="round" stroke-width="1"/>
        <text transform="translate(333.64434 484)" fill="#ebebeb">
          <tspan font-family="Avenir" font-size="16" fill="#ebebeb" x="34.452" y="16">onSerializationInitialize()</tspan>
        </text>
      </g>
      <g id="Graphic_11">
        <path d="M 336.64434 520.5 L 569.64434 520.5 C 574.0626 520.5 577.64434 524.0817 577.64434 528.5 L 577.64434 539.5 C 577.64434 543.9183 574.0626 547.5 569.64434 547.5 L 336.64434 547.5 C 332.22606 547.5 328.64434 543.9183 328.64434 539.5 L 328.64434 528.5 C 328.64434 524.0817 332.22606 520.5 336.64434 520.5 Z" fill="#0064aa"/>
        <path d="M 336.64434 520.5 L 569.64434 520.5 C 574.0626 520.5 577.64434 524.0817 577.64434 528.5 L 577.64434 539.5 C 577.64434 543.9183 574.0626 547.5 569.64434 547.5 L 336.64434 547.5 C 332.22606 547.5 328.64434 543.9183 328.64434 539.5 L 328.64434 528.5 C 328.64434 524.0817 332.22606 520.5 336.64434 520.5 Z" stroke="#212121" stroke-linecap="round" stroke-linejoin="round" stroke-width="1"/>
        <text transform="translate(333.64434 523)" fill="#ebebeb">
          <tspan font-family="Avenir" font-size="16" fill="#ebebeb" x="76.804" y="16">onRunning()</tspan>
        </text>
      </g>
      <g id="Graphic_12">
        <path d="M 336.64434 559.5 L 569.64434 559.5 C 574.0626 559.5 577.64434 563.0817 577.64434 567.5 L 577.64434 578.5 C 577.64434 582.9183 574.0626 586.5 569.64434 586.5 L 336.64434 586.5 C 332.22606 586.5 328.64434 582.9183 328.64434 578.5 L 328.64434 567.5 C 328.64434 563.0817 332.22606 559.5 336.64434 559.5 Z" fill="#0064aa"/>
        <path d="M 336.64434 559.5 L 569.64434 559.5 C 574.0626 559.5 577.64434 563.0817 577.64434 567.5 L 577.64434 578.5 C 577.64434 582.9183 574.0626 586.5 569.64434 586.5 L 336.64434 586.5 C 332.22606 586.5 328.64434 582.9183 328.64434 578.5 L 328.64434 567.5 C 328.64434 563.0817 332.22606 559.5 336.64434 559.5 Z" stroke="#212121" stroke-linecap="round" stroke-linejoin="round" stroke-width="1"/>
        <text transform="translate(333.64434 562)" fill="#ebebeb">
          <tspan font-family="Avenir" font-size="16" fill="#ebebeb" x="42.3" y="16">onProjectsInitializing()</tspan>
        </text>
      </g>
      <g id="Graphic_13">
        <path d="M 646.2887 597.8727 L 879.2887 597.8727 C 883.707 597.8727 887.2887 601.45445 887.2887 605.8727 L 887.2887 616.8727 C 887.2887 621.291 883.707 624.8727 879.2887 624.8727 L 646.2887 624.8727 C 641.8704 624.8727 638.2887 621.291 638.2887 616.8727 L 638.2887 605.8727 C 638.2887 601.45445 641.8704 597.8727 646.2887 597.8727 Z" fill="#ca7400"/>
        <path d="M 646.2887 597.8727 L 879.2887 597.8727 C 883.707 597.8727 887.2887 601.45445 887.2887 605.8727 L 887.2887 616.8727 C 887.2887 621.291 883.707 624.8727 879.2887 624.8727 L 646.2887 624.8727 C 641.8704 624.8727 638.2887 621.291 638.2887 616.8727 L 638.2887 605.8727 C 638.2887 601.45445 641.8704 597.8727 646.2887 597.8727 Z" stroke="#212121" stroke-linecap="round" stroke-linejoin="round" stroke-width="1"/>
        <text transform="translate(643.2887 600.3727)" fill="#ebebeb">
          <tspan font-family="Avenir" font-size="16" fill="#ebebeb" x="60.236" y="16">Initialize Projects</tspan>
        </text>
      </g>
      <g id="Graphic_14">
        <path d="M 336.64434 637.5 L 569.64434 637.5 C 574.0626 637.5 577.64434 641.0817 577.64434 645.5 L 577.64434 656.5 C 577.64434 660.9183 574.0626 664.5 569.64434 664.5 L 336.64434 664.5 C 332.22606 664.5 328.64434 660.9183 328.64434 656.5 L 328.64434 645.5 C 328.64434 641.0817 332.22606 637.5 336.64434 637.5 Z" fill="#0064aa"/>
        <path d="M 336.64434 637.5 L 569.64434 637.5 C 574.0626 637.5 577.64434 641.0817 577.64434 645.5 L 577.64434 656.5 C 577.64434 660.9183 574.0626 664.5 569.64434 664.5 L 336.64434 664.5 C 332.22606 664.5 328.64434 660.9183 328.64434 656.5 L 328.64434 645.5 C 328.64434 641.0817 332.22606 637.5 336.64434 637.5 Z" stroke="#212121" stroke-linecap="round" stroke-linejoin="round" stroke-width="1"/>
        <text transform="translate(333.64434 640)" fill="#ebebeb">
          <tspan font-family="Avenir" font-size="16" fill="#ebebeb" x="48.38" y="16">onProjectsInitialized</tspan>
        </text>
      </g>
      <g id="Graphic_15">
        <path d="M 646.2887 675.8727 L 879.2887 675.8727 C 883.707 675.8727 887.2887 679.45445 887.2887 683.8727 L 887.2887 694.8727 C 887.2887 699.291 883.707 702.8727 879.2887 702.8727 L 646.2887 702.8727 C 641.8704 702.8727 638.2887 699.291 638.2887 694.8727 L 638.2887 683.8727 C 638.2887 679.45445 641.8704 675.8727 646.2887 675.8727 Z" fill="#ca7400"/>
        <path d="M 646.2887 675.8727 L 879.2887 675.8727 C 883.707 675.8727 887.2887 679.45445 887.2887 683.8727 L 887.2887 694.8727 C 887.2887 699.291 883.707 702.8727 879.2887 702.8727 L 646.2887 702.8727 C 641.8704 702.8727 638.2887 699.291 638.2887 694.8727 L 638.2887 683.8727 C 638.2887 679.45445 641.8704 675.8727 646.2887 675.8727 Z" stroke="#212121" stroke-linecap="round" stroke-linejoin="round" stroke-width="1"/>
        <text transform="translate(643.2887 678.3727)" fill="#ebebeb">
          <tspan font-family="Avenir" font-size="16" fill="#ebebeb" x="51.932" y="16">Load Deployments</tspan>
        </text>
      </g>
      <g id="Graphic_16">
        <path d="M 336.64434 715.5 L 569.64434 715.5 C 574.0626 715.5 577.64434 719.0817 577.64434 723.5 L 577.64434 734.5 C 577.64434 738.9183 574.0626 742.5 569.64434 742.5 L 336.64434 742.5 C 332.22606 742.5 328.64434 738.9183 328.64434 734.5 L 328.64434 723.5 C 328.64434 719.0817 332.22606 715.5 336.64434 715.5 Z" fill="#0064aa"/>
        <path d="M 336.64434 715.5 L 569.64434 715.5 C 574.0626 715.5 577.64434 719.0817 577.64434 723.5 L 577.64434 734.5 C 577.64434 738.9183 574.0626 742.5 569.64434 742.5 L 336.64434 742.5 C 332.22606 742.5 328.64434 738.9183 328.64434 734.5 L 328.64434 723.5 C 328.64434 719.0817 332.22606 715.5 336.64434 715.5 Z" stroke="#212121" stroke-linecap="round" stroke-linejoin="round" stroke-width="1"/>
        <text transform="translate(333.64434 718)" fill="#ebebeb">
          <tspan font-family="Avenir" font-size="16" fill="#ebebeb" x="55.652" y="16">argumentParsers()</tspan>
        </text>
      </g>
      <g id="Graphic_17">
        <path d="M 336.64434 754.5 L 569.64434 754.5 C 574.0626 754.5 577.64434 758.0817 577.64434 762.5 L 577.64434 773.5 C 577.64434 777.9183 574.0626 781.5 569.64434 781.5 L 336.64434 781.5 C 332.22606 781.5 328.64434 777.9183 328.64434 773.5 L 328.64434 762.5 C 328.64434 758.0817 332.22606 754.5 336.64434 754.5 Z" fill="#0064aa"/>
        <path d="M 336.64434 754.5 L 569.64434 754.5 C 574.0626 754.5 577.64434 758.0817 577.64434 762.5 L 577.64434 773.5 C 577.64434 777.9183 574.0626 781.5 569.64434 781.5 L 336.64434 781.5 C 332.22606 781.5 328.64434 777.9183 328.64434 773.5 L 328.64434 762.5 C 328.64434 758.0817 332.22606 754.5 336.64434 754.5 Z" stroke="#212121" stroke-linecap="round" stroke-linejoin="round" stroke-width="1"/>
        <text transform="translate(333.64434 757)" fill="#ebebeb">
          <tspan font-family="Avenir" font-size="16" fill="#ebebeb" x="67.956" y="16">switchParsers()</tspan>
        </text>
      </g>
      <g id="Graphic_18">
        <path d="M 646.2887 792.8727 L 879.2887 792.8727 C 883.707 792.8727 887.2887 796.45445 887.2887 800.8727 L 887.2887 811.8727 C 887.2887 816.291 883.707 819.8727 879.2887 819.8727 L 646.2887 819.8727 C 641.8704 819.8727 638.2887 816.291 638.2887 811.8727 L 638.2887 800.8727 C 638.2887 796.45445 641.8704 792.8727 646.2887 792.8727 Z" fill="#ca7400"/>
        <path d="M 646.2887 792.8727 L 879.2887 792.8727 C 883.707 792.8727 887.2887 796.45445 887.2887 800.8727 L 887.2887 811.8727 C 887.2887 816.291 883.707 819.8727 879.2887 819.8727 L 646.2887 819.8727 C 641.8704 819.8727 638.2887 816.291 638.2887 811.8727 L 638.2887 800.8727 C 638.2887 796.45445 641.8704 792.8727 646.2887 792.8727 Z" stroke="#212121" stroke-linecap="round" stroke-linejoin="round" stroke-width="1"/>
        <text transform="translate(643.2887 795.3727)" fill="#ebebeb">
          <tspan font-family="Avenir" font-size="16" fill="#ebebeb" x="43.484" y="16">Parse Command Line</tspan>
        </text>
      </g>
      <g id="Graphic_20">
        <path d="M 336.64434 871.5 L 569.64434 871.5 C 574.0626 871.5 577.64434 875.0817 577.64434 879.5 L 577.64434 890.5 C 577.64434 894.9183 574.0626 898.5 569.64434 898.5 L 336.64434 898.5 C 332.22606 898.5 328.64434 894.9183 328.64434 890.5 L 328.64434 879.5 C 328.64434 875.0817 332.22606 871.5 336.64434 871.5 Z" fill="#0064aa"/>
        <path d="M 336.64434 871.5 L 569.64434 871.5 C 574.0626 871.5 577.64434 875.0817 577.64434 879.5 L 577.64434 890.5 C 577.64434 894.9183 574.0626 898.5 569.64434 898.5 L 336.64434 898.5 C 332.22606 898.5 328.64434 894.9183 328.64434 890.5 L 328.64434 879.5 C 328.64434 875.0817 332.22606 871.5 336.64434 871.5 Z" stroke="#212121" stroke-linecap="round" stroke-linejoin="round" stroke-width="1"/>
        <text transform="translate(333.64434 874)" fill="#ebebeb">
          <tspan font-family="Avenir" font-size="16" fill="#ebebeb" x="43.508" y="16">onConfigureListeners</tspan>
        </text>
      </g>
      <g id="Graphic_21">
        <path d="M 646.2887 909.8727 L 879.2887 909.8727 C 883.707 909.8727 887.2887 913.4544 887.2887 917.8727 L 887.2887 928.8727 C 887.2887 933.291 883.707 936.8727 879.2887 936.8727 L 646.2887 936.8727 C 641.8704 936.8727 638.2887 933.291 638.2887 928.8727 L 638.2887 917.8727 C 638.2887 913.4544 641.8704 909.8727 646.2887 909.8727 Z" fill="#ca7400"/>
        <path d="M 646.2887 909.8727 L 879.2887 909.8727 C 883.707 909.8727 887.2887 913.4544 887.2887 917.8727 L 887.2887 928.8727 C 887.2887 933.291 883.707 936.8727 879.2887 936.8727 L 646.2887 936.8727 C 641.8704 936.8727 638.2887 933.291 638.2887 928.8727 L 638.2887 917.8727 C 638.2887 913.4544 641.8704 909.8727 646.2887 909.8727 Z" stroke="#212121" stroke-linecap="round" stroke-linejoin="round" stroke-width="1"/>
        <text transform="translate(643.2887 912.3727)" fill="#ebebeb">
          <tspan font-family="Avenir" font-size="16" fill="#ebebeb" x="43.956" y="16">Register Deployment </tspan>
        </text>
      </g>
      <g id="Graphic_22">
        <path d="M 646.2887 948.8727 L 879.2887 948.8727 C 883.707 948.8727 887.2887 952.4544 887.2887 956.8727 L 887.2887 967.8727 C 887.2887 972.291 883.707 975.8727 879.2887 975.8727 L 646.2887 975.8727 C 641.8704 975.8727 638.2887 972.291 638.2887 967.8727 L 638.2887 956.8727 C 638.2887 952.4544 641.8704 948.8727 646.2887 948.8727 Z" fill="#ca7400"/>
        <path d="M 646.2887 948.8727 L 879.2887 948.8727 C 883.707 948.8727 887.2887 952.4544 887.2887 956.8727 L 887.2887 967.8727 C 887.2887 972.291 883.707 975.8727 879.2887 975.8727 L 646.2887 975.8727 C 641.8704 975.8727 638.2887 972.291 638.2887 967.8727 L 638.2887 956.8727 C 638.2887 952.4544 641.8704 948.8727 646.2887 948.8727 Z" stroke="#212121" stroke-linecap="round" stroke-linejoin="round" stroke-width="1"/>
        <text transform="translate(643.2887 951.3727)" fill="#ebebeb">
          <tspan font-family="Avenir" font-size="16" fill="#ebebeb" x="28.524" y="16">Show Startup Information</tspan>
        </text>
      </g>
      <g id="Graphic_23">
        <path d="M 27 988.5 L 260 988.5 C 264.41828 988.5 268 992.0817 268 996.5 L 268 1007.5 C 268 1011.9183 264.41828 1015.5 260 1015.5 L 27 1015.5 C 22.581722 1015.5 19 1011.9183 19 1007.5 L 19 996.5 C 19 992.0817 22.581722 988.5 27 988.5 Z" fill="#4e8f00"/>
        <path d="M 27 988.5 L 260 988.5 C 264.41828 988.5 268 992.0817 268 996.5 L 268 1007.5 C 268 1011.9183 264.41828 1015.5 260 1015.5 L 27 1015.5 C 22.581722 1015.5 19 1011.9183 19 1007.5 L 19 996.5 C 19 992.0817 22.581722 988.5 27 988.5 Z" stroke="#212121" stroke-linecap="round" stroke-linejoin="round" stroke-width="1"/>
        <text transform="translate(24 991)" fill="#ebebeb">
          <tspan font-family="Avenir" font-size="16" fill="#ebebeb" x="51.46" y="16">State -&gt; RUNNING</tspan>
        </text>
      </g>
      <g id="Graphic_24">
        <path d="M 336.64434 1027.5 L 569.64434 1027.5 C 574.0626 1027.5 577.64434 1031.0817 577.64434 1035.5 L 577.64434 1046.5 C 577.64434 1050.9183 574.0626 1054.5 569.64434 1054.5 L 336.64434 1054.5 C 332.22606 1054.5 328.64434 1050.9183 328.64434 1046.5 L 328.64434 1035.5 C 328.64434 1031.0817 332.22606 1027.5 336.64434 1027.5 Z" fill="#0064aa"/>
        <path d="M 336.64434 1027.5 L 569.64434 1027.5 C 574.0626 1027.5 577.64434 1031.0817 577.64434 1035.5 L 577.64434 1046.5 C 577.64434 1050.9183 574.0626 1054.5 569.64434 1054.5 L 336.64434 1054.5 C 332.22606 1054.5 328.64434 1050.9183 328.64434 1046.5 L 328.64434 1035.5 C 328.64434 1031.0817 332.22606 1027.5 336.64434 1027.5 Z" stroke="#212121" stroke-linecap="round" stroke-linejoin="round" stroke-width="1"/>
        <text transform="translate(333.64434 1030)" fill="#ebebeb">
          <tspan font-family="Avenir" font-size="16" fill="#ebebeb" x="92.508" y="16">onRun()</tspan>
        </text>
      </g>
      <g id="Graphic_25">
        <path d="M 27 1066.5 L 260 1066.5 C 264.41828 1066.5 268 1070.0817 268 1074.5 L 268 1085.5 C 268 1089.9183 264.41828 1093.5 260 1093.5 L 27 1093.5 C 22.581722 1093.5 19 1089.9183 19 1085.5 L 19 1074.5 C 19 1070.0817 22.581722 1066.5 27 1066.5 Z" fill="#4e8f00"/>
        <path d="M 27 1066.5 L 260 1066.5 C 264.41828 1066.5 268 1070.0817 268 1074.5 L 268 1085.5 C 268 1089.9183 264.41828 1093.5 260 1093.5 L 27 1093.5 C 22.581722 1093.5 19 1089.9183 19 1085.5 L 19 1074.5 C 19 1070.0817 22.581722 1066.5 27 1066.5 Z" stroke="#212121" stroke-linecap="round" stroke-linejoin="round" stroke-width="1"/>
        <text transform="translate(24 1069)" fill="#ebebeb">
          <tspan font-family="Avenir" font-size="16" fill="#ebebeb" x="49.244" y="16">State -&gt; STOPPING</tspan>
        </text>
      </g>
      <g id="Graphic_26">
        <path d="M 646.2887 1104.8727 L 879.2887 1104.8727 C 883.707 1104.8727 887.2887 1108.4544 887.2887 1112.8727 L 887.2887 1123.8727 C 887.2887 1128.291 883.707 1131.8727 879.2887 1131.8727 L 646.2887 1131.8727 C 641.8704 1131.8727 638.2887 1128.291 638.2887 1123.8727 L 638.2887 1112.8727 C 638.2887 1108.4544 641.8704 1104.8727 646.2887 1104.8727 Z" fill="#ca7400"/>
        <path d="M 646.2887 1104.8727 L 879.2887 1104.8727 C 883.707 1104.8727 887.2887 1108.4544 887.2887 1112.8727 L 887.2887 1123.8727 C 887.2887 1128.291 883.707 1131.8727 879.2887 1131.8727 L 646.2887 1131.8727 C 641.8704 1131.8727 638.2887 1128.291 638.2887 1123.8727 L 638.2887 1112.8727 C 638.2887 1108.4544 641.8704 1104.8727 646.2887 1104.8727 Z" stroke="#212121" stroke-linecap="round" stroke-linejoin="round" stroke-width="1"/>
        <text transform="translate(643.2887 1107.3727)" fill="#ebebeb">
          <tspan font-family="Avenir" font-size="16" fill="#ebebeb" x="81.564" y="16">Flush Logs</tspan>
        </text>
      </g>
      <g id="Graphic_27">
        <path d="M 646.2887 1143.8727 L 879.2887 1143.8727 C 883.707 1143.8727 887.2887 1147.4544 887.2887 1151.8727 L 887.2887 1162.8727 C 887.2887 1167.291 883.707 1170.8727 879.2887 1170.8727 L 646.2887 1170.8727 C 641.8704 1170.8727 638.2887 1167.291 638.2887 1162.8727 L 638.2887 1151.8727 C 638.2887 1147.4544 641.8704 1143.8727 646.2887 1143.8727 Z" fill="#ca7400"/>
        <path d="M 646.2887 1143.8727 L 879.2887 1143.8727 C 883.707 1143.8727 887.2887 1147.4544 887.2887 1151.8727 L 887.2887 1162.8727 C 887.2887 1167.291 883.707 1170.8727 879.2887 1170.8727 L 646.2887 1170.8727 C 641.8704 1170.8727 638.2887 1167.291 638.2887 1162.8727 L 638.2887 1151.8727 C 638.2887 1147.4544 641.8704 1143.8727 646.2887 1143.8727 Z" stroke="#212121" stroke-linecap="round" stroke-linejoin="round" stroke-width="1"/>
        <text transform="translate(643.2887 1146.3727)" fill="#ebebeb">
          <tspan font-family="Avenir" font-size="16" fill="#ebebeb" x="32.684" y="16">Show Message Statistics</tspan>
        </text>
      </g>
      <g id="Graphic_28">
        <path d="M 336.64434 1183.5 L 569.64434 1183.5 C 574.0626 1183.5 577.64434 1187.0817 577.64434 1191.5 L 577.64434 1202.5 C 577.64434 1206.9183 574.0626 1210.5 569.64434 1210.5 L 336.64434 1210.5 C 332.22606 1210.5 328.64434 1206.9183 328.64434 1202.5 L 328.64434 1191.5 C 328.64434 1187.0817 332.22606 1183.5 336.64434 1183.5 Z" fill="#0064aa"/>
        <path d="M 336.64434 1183.5 L 569.64434 1183.5 C 574.0626 1183.5 577.64434 1187.0817 577.64434 1191.5 L 577.64434 1202.5 C 577.64434 1206.9183 574.0626 1210.5 569.64434 1210.5 L 336.64434 1210.5 C 332.22606 1210.5 328.64434 1206.9183 328.64434 1202.5 L 328.64434 1191.5 C 328.64434 1187.0817 332.22606 1183.5 336.64434 1183.5 Z" stroke="#212121" stroke-linecap="round" stroke-linejoin="round" stroke-width="1"/>
        <text transform="translate(333.64434 1186)" fill="#ebebeb">
          <tspan font-family="Avenir" font-size="16" fill="#ebebeb" x="92.804" y="16">onRan()</tspan>
        </text>
      </g>
      <g id="Graphic_29">
        <path d="M 27 1222.5 L 260 1222.5 C 264.41828 1222.5 268 1226.0817 268 1230.5 L 268 1241.5 C 268 1245.9183 264.41828 1249.5 260 1249.5 L 27 1249.5 C 22.581722 1249.5 19 1245.9183 19 1241.5 L 19 1230.5 C 19 1226.0817 22.581722 1222.5 27 1222.5 Z" fill="#4e8f00"/>
        <path d="M 27 1222.5 L 260 1222.5 C 264.41828 1222.5 268 1226.0817 268 1230.5 L 268 1241.5 C 268 1245.9183 264.41828 1249.5 260 1249.5 L 27 1249.5 C 22.581722 1249.5 19 1245.9183 19 1241.5 L 19 1230.5 C 19 1226.0817 22.581722 1222.5 27 1222.5 Z" stroke="#212121" stroke-linecap="round" stroke-linejoin="round" stroke-width="1"/>
        <text transform="translate(24 1225)" fill="#ebebeb">
          <tspan font-family="Avenir" font-size="16" fill="#ebebeb" x="53.132" y="16">State -&gt; STOPPED</tspan>
        </text>
      </g>
      <g id="Graphic_30">
        <path d="M 336.64434 1261.5 L 569.64434 1261.5 C 574.0626 1261.5 577.64434 1265.0817 577.64434 1269.5 L 577.64434 1280.5 C 577.64434 1284.9183 574.0626 1288.5 569.64434 1288.5 L 336.64434 1288.5 C 332.22606 1288.5 328.64434 1284.9183 328.64434 1280.5 L 328.64434 1269.5 C 328.64434 1265.0817 332.22606 1261.5 336.64434 1261.5 Z" fill="#0064aa"/>
        <path d="M 336.64434 1261.5 L 569.64434 1261.5 C 574.0626 1261.5 577.64434 1265.0817 577.64434 1269.5 L 577.64434 1280.5 C 577.64434 1284.9183 574.0626 1288.5 569.64434 1288.5 L 336.64434 1288.5 C 332.22606 1288.5 328.64434 1284.9183 328.64434 1280.5 L 328.64434 1269.5 C 328.64434 1265.0817 332.22606 1261.5 336.64434 1261.5 Z" stroke="#212121" stroke-linecap="round" stroke-linejoin="round" stroke-width="1"/>
        <text transform="translate(333.64434 1264)" fill="#ebebeb">
          <tspan font-family="Avenir" font-size="16" fill="#ebebeb" x="59.812" y="16">Application Exits</tspan>
        </text>
      </g>
      <g id="Graphic_32">
        <path d="M 336.67276 287.19347 L 569.67276 287.19347 C 574.09104 287.19347 577.67276 290.7752 577.67276 295.19347 L 577.67276 306.19347 C 577.67276 310.61175 574.09104 314.19347 569.67276 314.19347 L 336.67276 314.19347 C 332.2545 314.19347 328.67276 310.61175 328.67276 306.19347 L 328.67276 295.19347 C 328.67276 290.7752 332.2545 287.19347 336.67276 287.19347 Z" fill="#0064aa"/>
        <path d="M 336.67276 287.19347 L 569.67276 287.19347 C 574.09104 287.19347 577.67276 290.7752 577.67276 295.19347 L 577.67276 306.19347 C 577.67276 310.61175 574.09104 314.19347 569.67276 314.19347 L 336.67276 314.19347 C 332.2545 314.19347 328.67276 310.61175 328.67276 306.19347 L 328.67276 295.19347 C 328.67276 290.7752 332.2545 287.19347 336.67276 287.19347 Z" stroke="#212121" stroke-linecap="round" stroke-linejoin="round" stroke-width="1"/>
        <text transform="translate(333.67276 289.69347)" fill="#ebebeb">
          <tspan font-family="Avenir" font-size="16" fill="#ebebeb" x="32.828" y="16">main(String[] arguments)</tspan>
        </text>
      </g>
      <g id="Graphic_33">
        <path d="M 336.64434 274.87273 L 569.64434 274.87273 C 574.0626 274.87273 577.64434 271.291 577.64434 266.87273 L 577.64434 249 C 577.64434 244.58172 574.0626 241 569.64434 241 L 336.64434 241 C 332.22606 241 328.64434 244.58172 328.64434 249 L 328.64434 266.87273 C 328.64434 271.291 332.22606 274.87273 336.64434 274.87273 Z" fill="#0096ff"/>
        <path d="M 336.64434 274.87273 L 569.64434 274.87273 C 574.0626 274.87273 577.64434 271.291 577.64434 266.87273 L 577.64434 249 C 577.64434 244.58172 574.0626 241 569.64434 241 L 336.64434 241 C 332.22606 241 328.64434 244.58172 328.64434 249 L 328.64434 266.87273 C 328.64434 271.291 332.22606 274.87273 336.64434 274.87273 Z" stroke="#212121" stroke-linecap="round" stroke-linejoin="round" stroke-width="1"/>
        <text transform="translate(333.64434 246.93636)" fill="black">
          <tspan font-family="Avenir" font-weight="bold" font-size="16" fill="black" x="70.004" y="16">Method Calls</tspan>
        </text>
      </g>
      <g id="Graphic_34">
        <path d="M 646.2887 274.87273 L 879.2887 274.87273 C 883.707 274.87273 887.2887 271.291 887.2887 266.87273 L 887.2887 249 C 887.2887 244.58172 883.707 241 879.2887 241 L 646.2887 241 C 641.8704 241 638.2887 244.58172 638.2887 249 L 638.2887 266.87273 C 638.2887 271.291 641.8704 274.87273 646.2887 274.87273 Z" fill="#ff9300"/>
        <path d="M 646.2887 274.87273 L 879.2887 274.87273 C 883.707 274.87273 887.2887 271.291 887.2887 266.87273 L 887.2887 249 C 887.2887 244.58172 883.707 241 879.2887 241 L 646.2887 241 C 641.8704 241 638.2887 244.58172 638.2887 249 L 638.2887 266.87273 C 638.2887 271.291 641.8704 274.87273 646.2887 274.87273 Z" stroke="#212121" stroke-linecap="round" stroke-linejoin="round" stroke-width="1"/>
        <text transform="translate(643.2887 246.93636)" fill="black">
          <tspan font-family="Avenir" font-weight="bold" font-size="16" fill="black" x="85.092" y="16">Activities</tspan>
        </text>
      </g>
      <g id="Graphic_35">
        <path d="M 336.67276 326.5142 L 569.67276 326.5142 C 574.09104 326.5142 577.67276 330.09593 577.67276 334.5142 L 577.67276 345.5142 C 577.67276 349.9325 574.09104 353.5142 569.67276 353.5142 L 336.67276 353.5142 C 332.2545 353.5142 328.67276 349.9325 328.67276 345.5142 L 328.67276 334.5142 C 328.67276 330.09593 332.2545 326.5142 336.67276 326.5142 Z" fill="#0064aa"/>
        <path d="M 336.67276 326.5142 L 569.67276 326.5142 C 574.09104 326.5142 577.67276 330.09593 577.67276 334.5142 L 577.67276 345.5142 C 577.67276 349.9325 574.09104 353.5142 569.67276 353.5142 L 336.67276 353.5142 C 332.2545 353.5142 328.67276 349.9325 328.67276 345.5142 L 328.67276 334.5142 C 328.67276 330.09593 332.2545 326.5142 336.67276 326.5142 Z" stroke="#212121" stroke-linecap="round" stroke-linejoin="round" stroke-width="1"/>
        <text transform="translate(333.67276 329.0142)" fill="#ebebeb">
          <tspan font-family="Avenir" font-size="16" fill="#ebebeb" x="74.46" y="16">Application()</tspan>
        </text>
      </g>
      <g id="Graphic_37">
        <path d="M 593 402.87273 L 618.32724 402.87273 C 622.7455 402.87273 626.32724 406.45445 626.32724 410.87273 L 626.32724 421.87273 C 626.32724 426.291 622.7455 429.87273 618.32724 429.87273 L 593 429.87273 C 588.5817 429.87273 585 426.291 585 421.87273 L 585 410.87273 C 585 406.45445 588.5817 402.87273 593 402.87273 Z" fill="#ff2600"/>
        <path d="M 593 402.87273 L 618.32724 402.87273 C 622.7455 402.87273 626.32724 406.45445 626.32724 410.87273 L 626.32724 421.87273 C 626.32724 426.291 622.7455 429.87273 618.32724 429.87273 L 593 429.87273 C 588.5817 429.87273 585 426.291 585 421.87273 L 585 410.87273 C 585 406.45445 588.5817 402.87273 593 402.87273 Z" stroke="#212121" stroke-linecap="round" stroke-linejoin="round" stroke-width="1"/>
        <text transform="translate(590 405.37273)" fill="#ebebeb">
          <tspan font-family="Avenir" font-weight="bold" font-size="16" fill="#ebebeb" x="10.92762" y="16">2</tspan>
        </text>
      </g>
      <g id="Graphic_38">
        <path d="M -30 442.5 L -4.6727605 442.5 C -.2544825 442.5 3.3272395 446.0817 3.3272395 450.5 L 3.3272395 461.5 C 3.3272395 465.9183 -.2544825 469.5 -4.6727605 469.5 L -30 469.5 C -34.41828 469.5 -38 465.9183 -38 461.5 L -38 450.5 C -38 446.0817 -34.41828 442.5 -30 442.5 Z" fill="#ff2600"/>
        <path d="M -30 442.5 L -4.6727605 442.5 C -.2544825 442.5 3.3272395 446.0817 3.3272395 450.5 L 3.3272395 461.5 C 3.3272395 465.9183 -.2544825 469.5 -4.6727605 469.5 L -30 469.5 C -34.41828 469.5 -38 465.9183 -38 461.5 L -38 450.5 C -38 446.0817 -34.41828 442.5 -30 442.5 Z" stroke="#212121" stroke-linecap="round" stroke-linejoin="round" stroke-width="1"/>
        <text transform="translate(-33 445)" fill="#ebebeb">
          <tspan font-family="Avenir" font-weight="bold" font-size="16" fill="#ebebeb" x="10.92762" y="16">3</tspan>
        </text>
      </g>
      <g id="Graphic_39">
        <path d="M 285 481.5 L 310.32724 481.5 C 314.7455 481.5 318.32724 485.0817 318.32724 489.5 L 318.32724 500.5 C 318.32724 504.9183 314.7455 508.5 310.32724 508.5 L 285 508.5 C 280.58172 508.5 277 504.9183 277 500.5 L 277 489.5 C 277 485.0817 280.58172 481.5 285 481.5 Z" fill="#ff2600"/>
        <path d="M 285 481.5 L 310.32724 481.5 C 314.7455 481.5 318.32724 485.0817 318.32724 489.5 L 318.32724 500.5 C 318.32724 504.9183 314.7455 508.5 310.32724 508.5 L 285 508.5 C 280.58172 508.5 277 504.9183 277 500.5 L 277 489.5 C 277 485.0817 280.58172 481.5 285 481.5 Z" stroke="#212121" stroke-linecap="round" stroke-linejoin="round" stroke-width="1"/>
        <text transform="translate(282 484)" fill="#ebebeb">
          <tspan font-family="Avenir" font-weight="bold" font-size="16" fill="#ebebeb" x="10.92762" y="16">4</tspan>
        </text>
      </g>
      <g id="Graphic_40">
        <path d="M 285 520.5 L 310.32724 520.5 C 314.7455 520.5 318.32724 524.0817 318.32724 528.5 L 318.32724 539.5 C 318.32724 543.9183 314.7455 547.5 310.32724 547.5 L 285 547.5 C 280.58172 547.5 277 543.9183 277 539.5 L 277 528.5 C 277 524.0817 280.58172 520.5 285 520.5 Z" fill="#ff2600"/>
        <path d="M 285 520.5 L 310.32724 520.5 C 314.7455 520.5 318.32724 524.0817 318.32724 528.5 L 318.32724 539.5 C 318.32724 543.9183 314.7455 547.5 310.32724 547.5 L 285 547.5 C 280.58172 547.5 277 543.9183 277 539.5 L 277 528.5 C 277 524.0817 280.58172 520.5 285 520.5 Z" stroke="#212121" stroke-linecap="round" stroke-linejoin="round" stroke-width="1"/>
        <text transform="translate(282 523)" fill="#ebebeb">
          <tspan font-family="Avenir" font-weight="bold" font-size="16" fill="#ebebeb" x="10.92762" y="16">5</tspan>
        </text>
      </g>
      <g id="Graphic_41">
        <path d="M 285 559.5 L 310.32724 559.5 C 314.7455 559.5 318.32724 563.0817 318.32724 567.5 L 318.32724 578.5 C 318.32724 582.9183 314.7455 586.5 310.32724 586.5 L 285 586.5 C 280.58172 586.5 277 582.9183 277 578.5 L 277 567.5 C 277 563.0817 280.58172 559.5 285 559.5 Z" fill="#ff2600"/>
        <path d="M 285 559.5 L 310.32724 559.5 C 314.7455 559.5 318.32724 563.0817 318.32724 567.5 L 318.32724 578.5 C 318.32724 582.9183 314.7455 586.5 310.32724 586.5 L 285 586.5 C 280.58172 586.5 277 582.9183 277 578.5 L 277 567.5 C 277 563.0817 280.58172 559.5 285 559.5 Z" stroke="#212121" stroke-linecap="round" stroke-linejoin="round" stroke-width="1"/>
        <text transform="translate(282 562)" fill="#ebebeb">
          <tspan font-family="Avenir" font-weight="bold" font-size="16" fill="#ebebeb" x="10.92762" y="16">6</tspan>
        </text>
      </g>
      <g id="Graphic_42">
        <path d="M 593 593 L 618.32724 593 C 622.7455 593 626.32724 596.5817 626.32724 601 L 626.32724 612 C 626.32724 616.4183 622.7455 620 618.32724 620 L 593 620 C 588.5817 620 585 616.4183 585 612 L 585 601 C 585 596.5817 588.5817 593 593 593 Z" fill="#ff2600"/>
        <path d="M 593 593 L 618.32724 593 C 622.7455 593 626.32724 596.5817 626.32724 601 L 626.32724 612 C 626.32724 616.4183 622.7455 620 618.32724 620 L 593 620 C 588.5817 620 585 616.4183 585 612 L 585 601 C 585 596.5817 588.5817 593 593 593 Z" stroke="#212121" stroke-linecap="round" stroke-linejoin="round" stroke-width="1"/>
        <text transform="translate(590 595.5)" fill="#ebebeb">
          <tspan font-family="Avenir" font-weight="bold" font-size="16" fill="#ebebeb" x="10.92762" y="16">7</tspan>
        </text>
      </g>
      <g id="Graphic_43">
        <path d="M 285 637.5 L 310.32724 637.5 C 314.7455 637.5 318.32724 641.0817 318.32724 645.5 L 318.32724 656.5 C 318.32724 660.9183 314.7455 664.5 310.32724 664.5 L 285 664.5 C 280.58172 664.5 277 660.9183 277 656.5 L 277 645.5 C 277 641.0817 280.58172 637.5 285 637.5 Z" fill="#ff2600"/>
        <path d="M 285 637.5 L 310.32724 637.5 C 314.7455 637.5 318.32724 641.0817 318.32724 645.5 L 318.32724 656.5 C 318.32724 660.9183 314.7455 664.5 310.32724 664.5 L 285 664.5 C 280.58172 664.5 277 660.9183 277 656.5 L 277 645.5 C 277 641.0817 280.58172 637.5 285 637.5 Z" stroke="#212121" stroke-linecap="round" stroke-linejoin="round" stroke-width="1"/>
        <text transform="translate(282 640)" fill="#ebebeb">
          <tspan font-family="Avenir" font-weight="bold" font-size="16" fill="#ebebeb" x="10.92762" y="16">8</tspan>
        </text>
      </g>
      <g id="Graphic_44">
        <path d="M 593 675.8727 L 618.32724 675.8727 C 622.7455 675.8727 626.32724 679.45445 626.32724 683.8727 L 626.32724 694.8727 C 626.32724 699.291 622.7455 702.8727 618.32724 702.8727 L 593 702.8727 C 588.5817 702.8727 585 699.291 585 694.8727 L 585 683.8727 C 585 679.45445 588.5817 675.8727 593 675.8727 Z" fill="#ff2600"/>
        <path d="M 593 675.8727 L 618.32724 675.8727 C 622.7455 675.8727 626.32724 679.45445 626.32724 683.8727 L 626.32724 694.8727 C 626.32724 699.291 622.7455 702.8727 618.32724 702.8727 L 593 702.8727 C 588.5817 702.8727 585 699.291 585 694.8727 L 585 683.8727 C 585 679.45445 588.5817 675.8727 593 675.8727 Z" stroke="#212121" stroke-linecap="round" stroke-linejoin="round" stroke-width="1"/>
        <text transform="translate(590 678.3727)" fill="#ebebeb">
          <tspan font-family="Avenir" font-weight="bold" font-size="16" fill="#ebebeb" x="10.92762" y="16">9</tspan>
        </text>
      </g>
      <g id="Graphic_45">
        <path d="M 285 715.5 L 310.32724 715.5 C 314.7455 715.5 318.32724 719.0817 318.32724 723.5 L 318.32724 734.5 C 318.32724 738.9183 314.7455 742.5 310.32724 742.5 L 285 742.5 C 280.58172 742.5 277 738.9183 277 734.5 L 277 723.5 C 277 719.0817 280.58172 715.5 285 715.5 Z" fill="#ff2600"/>
        <path d="M 285 715.5 L 310.32724 715.5 C 314.7455 715.5 318.32724 719.0817 318.32724 723.5 L 318.32724 734.5 C 318.32724 738.9183 314.7455 742.5 310.32724 742.5 L 285 742.5 C 280.58172 742.5 277 738.9183 277 734.5 L 277 723.5 C 277 719.0817 280.58172 715.5 285 715.5 Z" stroke="#212121" stroke-linecap="round" stroke-linejoin="round" stroke-width="1"/>
        <text transform="translate(282 718)" fill="#ebebeb">
          <tspan font-family="Avenir" font-weight="bold" font-size="16" fill="#ebebeb" x="6.19162" y="16">10</tspan>
        </text>
      </g>
      <g id="Graphic_46">
        <path d="M 593 792.8727 L 618.32724 792.8727 C 622.7455 792.8727 626.32724 796.45445 626.32724 800.8727 L 626.32724 811.8727 C 626.32724 816.291 622.7455 819.8727 618.32724 819.8727 L 593 819.8727 C 588.5817 819.8727 585 816.291 585 811.8727 L 585 800.8727 C 585 796.45445 588.5817 792.8727 593 792.8727 Z" fill="#ff2600"/>
        <path d="M 593 792.8727 L 618.32724 792.8727 C 622.7455 792.8727 626.32724 796.45445 626.32724 800.8727 L 626.32724 811.8727 C 626.32724 816.291 622.7455 819.8727 618.32724 819.8727 L 593 819.8727 C 588.5817 819.8727 585 816.291 585 811.8727 L 585 800.8727 C 585 796.45445 588.5817 792.8727 593 792.8727 Z" stroke="#212121" stroke-linecap="round" stroke-linejoin="round" stroke-width="1"/>
        <text transform="translate(590 795.3727)" fill="#ebebeb">
          <tspan font-family="Avenir" font-weight="bold" font-size="16" fill="#ebebeb" x="6.19162" y="16">11</tspan>
        </text>
      </g>
      <g id="Graphic_47">
        <path d="M 593 831.8065 L 618.32724 831.8065 C 622.7455 831.8065 626.32724 835.3883 626.32724 839.8065 L 626.32724 850.8065 C 626.32724 855.2248 622.7455 858.8065 618.32724 858.8065 L 593 858.8065 C 588.5817 858.8065 585 855.2248 585 850.8065 L 585 839.8065 C 585 835.3883 588.5817 831.8065 593 831.8065 Z" fill="#ff2600"/>
        <path d="M 593 831.8065 L 618.32724 831.8065 C 622.7455 831.8065 626.32724 835.3883 626.32724 839.8065 L 626.32724 850.8065 C 626.32724 855.2248 622.7455 858.8065 618.32724 858.8065 L 593 858.8065 C 588.5817 858.8065 585 855.2248 585 850.8065 L 585 839.8065 C 585 835.3883 588.5817 831.8065 593 831.8065 Z" stroke="#212121" stroke-linecap="round" stroke-linejoin="round" stroke-width="1"/>
        <text transform="translate(590 834.3065)" fill="#ebebeb">
          <tspan font-family="Avenir" font-weight="bold" font-size="16" fill="#ebebeb" x="6.19162" y="16">12</tspan>
        </text>
      </g>
      <g id="Graphic_49">
        <path d="M 285 871.5 L 310.32724 871.5 C 314.7455 871.5 318.32724 875.0817 318.32724 879.5 L 318.32724 890.5 C 318.32724 894.9183 314.7455 898.5 310.32724 898.5 L 285 898.5 C 280.58172 898.5 277 894.9183 277 890.5 L 277 879.5 C 277 875.0817 280.58172 871.5 285 871.5 Z" fill="#ff2600"/>
        <path d="M 285 871.5 L 310.32724 871.5 C 314.7455 871.5 318.32724 875.0817 318.32724 879.5 L 318.32724 890.5 C 318.32724 894.9183 314.7455 898.5 310.32724 898.5 L 285 898.5 C 280.58172 898.5 277 894.9183 277 890.5 L 277 879.5 C 277 875.0817 280.58172 871.5 285 871.5 Z" stroke="#212121" stroke-linecap="round" stroke-linejoin="round" stroke-width="1"/>
        <text transform="translate(282 874)" fill="#ebebeb">
          <tspan font-family="Avenir" font-weight="bold" font-size="16" fill="#ebebeb" x="6.19162" y="16">13</tspan>
        </text>
      </g>
      <g id="Graphic_50">
        <path d="M 646.2887 831.8065 L 879.2887 831.8065 C 883.707 831.8065 887.2887 835.3883 887.2887 839.8065 L 887.2887 850.8065 C 887.2887 855.2248 883.707 858.8065 879.2887 858.8065 L 646.2887 858.8065 C 641.8704 858.8065 638.2887 855.2248 638.2887 850.8065 L 638.2887 839.8065 C 638.2887 835.3883 641.8704 831.8065 646.2887 831.8065 Z" fill="#ca7400"/>
        <path d="M 646.2887 831.8065 L 879.2887 831.8065 C 883.707 831.8065 887.2887 835.3883 887.2887 839.8065 L 887.2887 850.8065 C 887.2887 855.2248 883.707 858.8065 879.2887 858.8065 L 646.2887 858.8065 C 641.8704 858.8065 638.2887 855.2248 638.2887 850.8065 L 638.2887 839.8065 C 638.2887 835.3883 641.8704 831.8065 646.2887 831.8065 Z" stroke="#212121" stroke-linecap="round" stroke-linejoin="round" stroke-width="1"/>
        <text transform="translate(643.2887 834.3065)" fill="#ebebeb">
          <tspan font-family="Avenir" font-size="16" fill="#ebebeb" x="52.844" y="16">Switches Validated</tspan>
        </text>
      </g>
      <g id="Graphic_51">
        <path d="M 593 909.8727 L 618.32724 909.8727 C 622.7455 909.8727 626.32724 913.4544 626.32724 917.8727 L 626.32724 928.8727 C 626.32724 933.291 622.7455 936.8727 618.32724 936.8727 L 593 936.8727 C 588.5817 936.8727 585 933.291 585 928.8727 L 585 917.8727 C 585 913.4544 588.5817 909.8727 593 909.8727 Z" fill="#ff2600"/>
        <path d="M 593 909.8727 L 618.32724 909.8727 C 622.7455 909.8727 626.32724 913.4544 626.32724 917.8727 L 626.32724 928.8727 C 626.32724 933.291 622.7455 936.8727 618.32724 936.8727 L 593 936.8727 C 588.5817 936.8727 585 933.291 585 928.8727 L 585 917.8727 C 585 913.4544 588.5817 909.8727 593 909.8727 Z" stroke="#212121" stroke-linecap="round" stroke-linejoin="round" stroke-width="1"/>
        <text transform="translate(590 912.3727)" fill="#ebebeb">
          <tspan font-family="Avenir" font-weight="bold" font-size="16" fill="#ebebeb" x="6.19162" y="16">14</tspan>
        </text>
      </g>
      <g id="Graphic_52">
        <path d="M 593 948.8727 L 618.32724 948.8727 C 622.7455 948.8727 626.32724 952.4544 626.32724 956.8727 L 626.32724 967.8727 C 626.32724 972.291 622.7455 975.8727 618.32724 975.8727 L 593 975.8727 C 588.5817 975.8727 585 972.291 585 967.8727 L 585 956.8727 C 585 952.4544 588.5817 948.8727 593 948.8727 Z" fill="#ff2600"/>
        <path d="M 593 948.8727 L 618.32724 948.8727 C 622.7455 948.8727 626.32724 952.4544 626.32724 956.8727 L 626.32724 967.8727 C 626.32724 972.291 622.7455 975.8727 618.32724 975.8727 L 593 975.8727 C 588.5817 975.8727 585 972.291 585 967.8727 L 585 956.8727 C 585 952.4544 588.5817 948.8727 593 948.8727 Z" stroke="#212121" stroke-linecap="round" stroke-linejoin="round" stroke-width="1"/>
        <text transform="translate(590 951.3727)" fill="#ebebeb">
          <tspan font-family="Avenir" font-weight="bold" font-size="16" fill="#ebebeb" x="6.19162" y="16">15</tspan>
        </text>
      </g>
      <g id="Graphic_53">
        <path d="M -30 988.5 L -4.6727605 988.5 C -.2544825 988.5 3.3272395 992.0817 3.3272395 996.5 L 3.3272395 1007.5 C 3.3272395 1011.9183 -.2544825 1015.5 -4.6727605 1015.5 L -30 1015.5 C -34.41828 1015.5 -38 1011.9183 -38 1007.5 L -38 996.5 C -38 992.0817 -34.41828 988.5 -30 988.5 Z" fill="#ff2600"/>
        <path d="M -30 988.5 L -4.6727605 988.5 C -.2544825 988.5 3.3272395 992.0817 3.3272395 996.5 L 3.3272395 1007.5 C 3.3272395 1011.9183 -.2544825 1015.5 -4.6727605 1015.5 L -30 1015.5 C -34.41828 1015.5 -38 1011.9183 -38 1007.5 L -38 996.5 C -38 992.0817 -34.41828 988.5 -30 988.5 Z" stroke="#212121" stroke-linecap="round" stroke-linejoin="round" stroke-width="1"/>
        <text transform="translate(-33 991)" fill="#ebebeb">
          <tspan font-family="Avenir" font-weight="bold" font-size="16" fill="#ebebeb" x="6.19162" y="16">16</tspan>
        </text>
      </g>
      <g id="Graphic_54">
        <path d="M 285 1027.5 L 310.32724 1027.5 C 314.7455 1027.5 318.32724 1031.0817 318.32724 1035.5 L 318.32724 1046.5 C 318.32724 1050.9183 314.7455 1054.5 310.32724 1054.5 L 285 1054.5 C 280.58172 1054.5 277 1050.9183 277 1046.5 L 277 1035.5 C 277 1031.0817 280.58172 1027.5 285 1027.5 Z" fill="#ff2600"/>
        <path d="M 285 1027.5 L 310.32724 1027.5 C 314.7455 1027.5 318.32724 1031.0817 318.32724 1035.5 L 318.32724 1046.5 C 318.32724 1050.9183 314.7455 1054.5 310.32724 1054.5 L 285 1054.5 C 280.58172 1054.5 277 1050.9183 277 1046.5 L 277 1035.5 C 277 1031.0817 280.58172 1027.5 285 1027.5 Z" stroke="#212121" stroke-linecap="round" stroke-linejoin="round" stroke-width="1"/>
        <text transform="translate(282 1030)" fill="#ebebeb">
          <tspan font-family="Avenir" font-weight="bold" font-size="16" fill="#ebebeb" x="6.19162" y="16">17</tspan>
        </text>
      </g>
      <g id="Graphic_55">
        <path d="M -30 1066.5 L -4.6727605 1066.5 C -.2544825 1066.5 3.3272395 1070.0817 3.3272395 1074.5 L 3.3272395 1085.5 C 3.3272395 1089.9183 -.2544825 1093.5 -4.6727605 1093.5 L -30 1093.5 C -34.41828 1093.5 -38 1089.9183 -38 1085.5 L -38 1074.5 C -38 1070.0817 -34.41828 1066.5 -30 1066.5 Z" fill="#ff2600"/>
        <path d="M -30 1066.5 L -4.6727605 1066.5 C -.2544825 1066.5 3.3272395 1070.0817 3.3272395 1074.5 L 3.3272395 1085.5 C 3.3272395 1089.9183 -.2544825 1093.5 -4.6727605 1093.5 L -30 1093.5 C -34.41828 1093.5 -38 1089.9183 -38 1085.5 L -38 1074.5 C -38 1070.0817 -34.41828 1066.5 -30 1066.5 Z" stroke="#212121" stroke-linecap="round" stroke-linejoin="round" stroke-width="1"/>
        <text transform="translate(-33 1069)" fill="#ebebeb">
          <tspan font-family="Avenir" font-weight="bold" font-size="16" fill="#ebebeb" x="6.19162" y="16">18</tspan>
        </text>
      </g>
      <g id="Graphic_56">
        <path d="M 593 1104.8727 L 618.32724 1104.8727 C 622.7455 1104.8727 626.32724 1108.4544 626.32724 1112.8727 L 626.32724 1123.8727 C 626.32724 1128.291 622.7455 1131.8727 618.32724 1131.8727 L 593 1131.8727 C 588.5817 1131.8727 585 1128.291 585 1123.8727 L 585 1112.8727 C 585 1108.4544 588.5817 1104.8727 593 1104.8727 Z" fill="#ff2600"/>
        <path d="M 593 1104.8727 L 618.32724 1104.8727 C 622.7455 1104.8727 626.32724 1108.4544 626.32724 1112.8727 L 626.32724 1123.8727 C 626.32724 1128.291 622.7455 1131.8727 618.32724 1131.8727 L 593 1131.8727 C 588.5817 1131.8727 585 1128.291 585 1123.8727 L 585 1112.8727 C 585 1108.4544 588.5817 1104.8727 593 1104.8727 Z" stroke="#212121" stroke-linecap="round" stroke-linejoin="round" stroke-width="1"/>
        <text transform="translate(590 1107.3727)" fill="#ebebeb">
          <tspan font-family="Avenir" font-weight="bold" font-size="16" fill="#ebebeb" x="6.19162" y="16">19</tspan>
        </text>
      </g>
      <g id="Graphic_57">
        <path d="M 593 1143.8727 L 618.32724 1143.8727 C 622.7455 1143.8727 626.32724 1147.4544 626.32724 1151.8727 L 626.32724 1162.8727 C 626.32724 1167.291 622.7455 1170.8727 618.32724 1170.8727 L 593 1170.8727 C 588.5817 1170.8727 585 1167.291 585 1162.8727 L 585 1151.8727 C 585 1147.4544 588.5817 1143.8727 593 1143.8727 Z" fill="#ff2600"/>
        <path d="M 593 1143.8727 L 618.32724 1143.8727 C 622.7455 1143.8727 626.32724 1147.4544 626.32724 1151.8727 L 626.32724 1162.8727 C 626.32724 1167.291 622.7455 1170.8727 618.32724 1170.8727 L 593 1170.8727 C 588.5817 1170.8727 585 1167.291 585 1162.8727 L 585 1151.8727 C 585 1147.4544 588.5817 1143.8727 593 1143.8727 Z" stroke="#212121" stroke-linecap="round" stroke-linejoin="round" stroke-width="1"/>
        <text transform="translate(590 1146.3727)" fill="#ebebeb">
          <tspan font-family="Avenir" font-weight="bold" font-size="16" fill="#ebebeb" x="6.19162" y="16">20</tspan>
        </text>
      </g>
      <g id="Graphic_58">
        <path d="M 285 1183.5 L 310.32724 1183.5 C 314.7455 1183.5 318.32724 1187.0817 318.32724 1191.5 L 318.32724 1202.5 C 318.32724 1206.9183 314.7455 1210.5 310.32724 1210.5 L 285 1210.5 C 280.58172 1210.5 277 1206.9183 277 1202.5 L 277 1191.5 C 277 1187.0817 280.58172 1183.5 285 1183.5 Z" fill="#ff2600"/>
        <path d="M 285 1183.5 L 310.32724 1183.5 C 314.7455 1183.5 318.32724 1187.0817 318.32724 1191.5 L 318.32724 1202.5 C 318.32724 1206.9183 314.7455 1210.5 310.32724 1210.5 L 285 1210.5 C 280.58172 1210.5 277 1206.9183 277 1202.5 L 277 1191.5 C 277 1187.0817 280.58172 1183.5 285 1183.5 Z" stroke="#212121" stroke-linecap="round" stroke-linejoin="round" stroke-width="1"/>
        <text transform="translate(282 1186)" fill="#ebebeb">
          <tspan font-family="Avenir" font-weight="bold" font-size="16" fill="#ebebeb" x="6.19162" y="16">21</tspan>
        </text>
      </g>
      <g id="Graphic_59">
        <path d="M -30 1222.5 L -4.6727605 1222.5 C -.2544825 1222.5 3.3272395 1226.0817 3.3272395 1230.5 L 3.3272395 1241.5 C 3.3272395 1245.9183 -.2544825 1249.5 -4.6727605 1249.5 L -30 1249.5 C -34.41828 1249.5 -38 1245.9183 -38 1241.5 L -38 1230.5 C -38 1226.0817 -34.41828 1222.5 -30 1222.5 Z" fill="#ff2600"/>
        <path d="M -30 1222.5 L -4.6727605 1222.5 C -.2544825 1222.5 3.3272395 1226.0817 3.3272395 1230.5 L 3.3272395 1241.5 C 3.3272395 1245.9183 -.2544825 1249.5 -4.6727605 1249.5 L -30 1249.5 C -34.41828 1249.5 -38 1245.9183 -38 1241.5 L -38 1230.5 C -38 1226.0817 -34.41828 1222.5 -30 1222.5 Z" stroke="#212121" stroke-linecap="round" stroke-linejoin="round" stroke-width="1"/>
        <text transform="translate(-33 1225)" fill="#ebebeb">
          <tspan font-family="Avenir" font-weight="bold" font-size="16" fill="#ebebeb" x="6.19162" y="16">22</tspan>
        </text>
      </g>
      <g id="Graphic_60">
        <path d="M 285 1261.5 L 310.32724 1261.5 C 314.7455 1261.5 318.32724 1265.0817 318.32724 1269.5 L 318.32724 1280.5 C 318.32724 1284.9183 314.7455 1288.5 310.32724 1288.5 L 285 1288.5 C 280.58172 1288.5 277 1284.9183 277 1280.5 L 277 1269.5 C 277 1265.0817 280.58172 1261.5 285 1261.5 Z" fill="#ff2600"/>
        <path d="M 285 1261.5 L 310.32724 1261.5 C 314.7455 1261.5 318.32724 1265.0817 318.32724 1269.5 L 318.32724 1280.5 C 318.32724 1284.9183 314.7455 1288.5 310.32724 1288.5 L 285 1288.5 C 280.58172 1288.5 277 1284.9183 277 1280.5 L 277 1269.5 C 277 1265.0817 280.58172 1261.5 285 1261.5 Z" stroke="#212121" stroke-linecap="round" stroke-linejoin="round" stroke-width="1"/>
        <text transform="translate(282 1264)" fill="#ebebeb">
          <tspan font-family="Avenir" font-weight="bold" font-size="16" fill="#ebebeb" x="6.19162" y="16">23</tspan>
        </text>
      </g>
    </g>
  </g>
</svg>
