<?xml version="1.0" encoding="UTF-8" standalone="no"?>
<!DOCTYPE svg PUBLIC "-//W3C//DTD SVG 1.1//EN" "http://www.w3.org/Graphics/SVG/1.1/DTD/svg11.dtd">
<svg xmlns:xl="http://www.w3.org/1999/xlink" xmlns="http://www.w3.org/2000/svg" xmlns:dc="http://purl.org/dc/elements/1.1/" version="1.1" viewBox="-59 212.8721 965.5571 925.3931" width="965.5571" height="925.3931">
  <defs/>
  <g id="Canvas_1" fill="none" stroke-opacity="1" fill-opacity="1" stroke="none" stroke-dasharray="none">
    <title>Canvas 1</title>
    <g id="Canvas_1_Layer_1">
      <title>Layer 1</title>
      <g id="Graphic_2">
        <path d="M 285 287.19347 L 310.32724 287.19347 C 314.7455 287.19347 318.32724 290.7752 318.32724 295.19347 L 318.32724 306.19347 C 318.32724 310.61175 314.7455 314.19347 310.32724 314.19347 L 285 314.19347 C 280.58172 314.19347 277 310.61175 277 306.19347 L 277 295.19347 C 277 290.7752 280.58172 287.19347 285 287.19347 Z" fill="#941100"/>
        <path d="M 285 287.19347 L 310.32724 287.19347 C 314.7455 287.19347 318.32724 290.7752 318.32724 295.19347 L 318.32724 306.19347 C 318.32724 310.61175 314.7455 314.19347 310.32724 314.19347 L 285 314.19347 C 280.58172 314.19347 277 310.61175 277 306.19347 L 277 295.19347 C 277 290.7752 280.58172 287.19347 285 287.19347 Z" stroke="#212121" stroke-linecap="round" stroke-linejoin="round" stroke-width="1"/>
        <text transform="translate(282 289.69347)" fill="#ebebeb">
          <tspan font-family="Avenir" font-weight="bold" font-size="16" fill="#ebebeb" x="10.92762" y="16">1</tspan>
        </text>
      </g>
      <g id="Graphic_4">
        <path d="M 27 263.24482 L 260 263.24482 C 264.41828 263.24482 268 259.6631 268 255.24482 L 268 237.3721 C 268 232.95382 264.41828 229.3721 260 229.3721 L 27 229.3721 C 22.581722 229.3721 19 232.95382 19 237.3721 L 19 255.24482 C 19 259.6631 22.581722 263.24482 27 263.24482 Z" fill="#4f8e04"/>
        <path d="M 27 263.24482 L 260 263.24482 C 264.41828 263.24482 268 259.6631 268 255.24482 L 268 237.3721 C 268 232.95382 264.41828 229.3721 260 229.3721 L 27 229.3721 C 22.581722 229.3721 19 232.95382 19 237.3721 L 19 255.24482 C 19 259.6631 22.581722 263.24482 27 263.24482 Z" stroke="#212121" stroke-linecap="round" stroke-linejoin="round" stroke-width="1"/>
        <text transform="translate(24 235.30846)" fill="white">
          <tspan font-family="Avenir" font-weight="bold" font-size="16" fill="white" x="99.796" y="16">State</tspan>
        </text>
      </g>
      <g id="Graphic_6">
        <path d="M 336.67276 368.0821 L 569.67276 368.0821 C 574.09104 368.0821 577.67276 371.6638 577.67276 376.0821 L 577.67276 387.0821 C 577.67276 391.50036 574.09104 395.0821 569.67276 395.0821 L 336.67276 395.0821 C 332.2545 395.0821 328.67276 391.50036 328.67276 387.0821 L 328.67276 376.0821 C 328.67276 371.6638 332.2545 368.0821 336.67276 368.0821 Z" fill="#0064aa"/>
        <path d="M 336.67276 368.0821 L 569.67276 368.0821 C 574.09104 368.0821 577.67276 371.6638 577.67276 376.0821 L 577.67276 387.0821 C 577.67276 391.50036 574.09104 395.0821 569.67276 395.0821 L 336.67276 395.0821 C 332.2545 395.0821 328.67276 391.50036 328.67276 387.0821 L 328.67276 376.0821 C 328.67276 371.6638 332.2545 368.0821 336.67276 368.0821 Z" stroke="#212121" stroke-linecap="round" stroke-linejoin="round" stroke-width="1"/>
        <text transform="translate(333.67276 370.5821)" fill="#ebebeb">
          <tspan font-family="Avenir" font-size="16" fill="#ebebeb" x="78.612" y="16">run(String[])</tspan>
        </text>
      </g>
      <g id="Graphic_8">
        <path d="M 649.0571 428.3581 L 882.0571 428.3581 C 886.4754 428.3581 890.0571 431.93984 890.0571 436.3581 L 890.0571 447.3581 C 890.0571 451.7764 886.4754 455.3581 882.0571 455.3581 L 649.0571 455.3581 C 644.6388 455.3581 641.0571 451.7764 641.0571 447.3581 L 641.0571 436.3581 C 641.0571 431.93984 644.6388 428.3581 649.0571 428.3581 Z" fill="#ca7400"/>
        <path d="M 649.0571 428.3581 L 882.0571 428.3581 C 886.4754 428.3581 890.0571 431.93984 890.0571 436.3581 L 890.0571 447.3581 C 890.0571 451.7764 886.4754 455.3581 882.0571 455.3581 L 649.0571 455.3581 C 644.6388 455.3581 641.0571 451.7764 641.0571 447.3581 L 641.0571 436.3581 C 641.0571 431.93984 644.6388 428.3581 649.0571 428.3581 Z" stroke="#212121" stroke-linecap="round" stroke-linejoin="round" stroke-width="1"/>
        <text transform="translate(646.0571 430.8581)" fill="#ebebeb">
          <tspan font-family="Avenir" font-size="16" fill="#ebebeb" x="38.036" y="16">Enable StartupOptions</tspan>
        </text>
      </g>
      <g id="Graphic_9">
        <path d="M 26.778545 428.3581 L 259.77855 428.3581 C 264.19682 428.3581 267.77855 431.93984 267.77855 436.3581 L 267.77855 447.3581 C 267.77855 451.7764 264.19682 455.3581 259.77855 455.3581 L 26.778545 455.3581 C 22.360267 455.3581 18.778545 451.7764 18.778545 447.3581 L 18.778545 436.3581 C 18.778545 431.93984 22.360267 428.3581 26.778545 428.3581 Z" fill="#4e8f00"/>
        <path d="M 26.778545 428.3581 L 259.77855 428.3581 C 264.19682 428.3581 267.77855 431.93984 267.77855 436.3581 L 267.77855 447.3581 C 267.77855 451.7764 264.19682 455.3581 259.77855 455.3581 L 26.778545 455.3581 C 22.360267 455.3581 18.778545 451.7764 18.778545 447.3581 L 18.778545 436.3581 C 18.778545 431.93984 22.360267 428.3581 26.778545 428.3581 Z" stroke="#212121" stroke-linecap="round" stroke-linejoin="round" stroke-width="1"/>
        <text transform="translate(23.778545 430.8581)" fill="#ebebeb">
          <tspan font-family="Avenir" font-size="16" fill="#ebebeb" x="71.74" y="16">INITIALIZING</tspan>
        </text>
      </g>
      <g id="Graphic_10">
        <path d="M 336.4513 468.59686 L 569.4513 468.59686 C 573.8696 468.59686 577.4513 472.1786 577.4513 476.59686 L 577.4513 487.59686 C 577.4513 492.01514 573.8696 495.59686 569.4513 495.59686 L 336.4513 495.59686 C 332.03303 495.59686 328.4513 492.01514 328.4513 487.59686 L 328.4513 476.59686 C 328.4513 472.1786 332.03303 468.59686 336.4513 468.59686 Z" fill="#0064aa"/>
        <path d="M 336.4513 468.59686 L 569.4513 468.59686 C 573.8696 468.59686 577.4513 472.1786 577.4513 476.59686 L 577.4513 487.59686 C 577.4513 492.01514 573.8696 495.59686 569.4513 495.59686 L 336.4513 495.59686 C 332.03303 495.59686 328.4513 492.01514 328.4513 487.59686 L 328.4513 476.59686 C 328.4513 472.1786 332.03303 468.59686 336.4513 468.59686 Z" stroke="#212121" stroke-linecap="round" stroke-linejoin="round" stroke-width="1"/>
        <text transform="translate(333.4513 471.09686)" fill="#ebebeb">
          <tspan font-family="Avenir" font-size="16" fill="#ebebeb" x="34.452" y="16">onSerializationInitialize()</tspan>
        </text>
      </g>
      <g id="Graphic_11">
        <path d="M 336.4513 712.7658 L 569.4513 712.7658 C 573.8696 712.7658 577.4513 716.3475 577.4513 720.7658 L 577.4513 731.7658 C 577.4513 736.1841 573.8696 739.7658 569.4513 739.7658 L 336.4513 739.7658 C 332.03303 739.7658 328.4513 736.1841 328.4513 731.7658 L 328.4513 720.7658 C 328.4513 716.3475 332.03303 712.7658 336.4513 712.7658 Z" fill="#0064aa"/>
        <path d="M 336.4513 712.7658 L 569.4513 712.7658 C 573.8696 712.7658 577.4513 716.3475 577.4513 720.7658 L 577.4513 731.7658 C 577.4513 736.1841 573.8696 739.7658 569.4513 739.7658 L 336.4513 739.7658 C 332.03303 739.7658 328.4513 736.1841 328.4513 731.7658 L 328.4513 720.7658 C 328.4513 716.3475 332.03303 712.7658 336.4513 712.7658 Z" stroke="#212121" stroke-linecap="round" stroke-linejoin="round" stroke-width="1"/>
        <text transform="translate(333.4513 715.2658)" fill="#ebebeb">
          <tspan font-family="Avenir" font-size="16" fill="#ebebeb" x="76.804" y="16">onRunning()</tspan>
        </text>
      </g>
      <g id="Graphic_12">
        <path d="M 336.4513 543.2168 L 569.4513 543.2168 C 573.8696 543.2168 577.4513 546.79853 577.4513 551.2168 L 577.4513 562.2168 C 577.4513 566.6351 573.8696 570.2168 569.4513 570.2168 L 336.4513 570.2168 C 332.03303 570.2168 328.4513 566.6351 328.4513 562.2168 L 328.4513 551.2168 C 328.4513 546.79853 332.03303 543.2168 336.4513 543.2168 Z" fill="#0064aa"/>
        <path d="M 336.4513 543.2168 L 569.4513 543.2168 C 573.8696 543.2168 577.4513 546.79853 577.4513 551.2168 L 577.4513 562.2168 C 577.4513 566.6351 573.8696 570.2168 569.4513 570.2168 L 336.4513 570.2168 C 332.03303 570.2168 328.4513 566.6351 328.4513 562.2168 L 328.4513 551.2168 C 328.4513 546.79853 332.03303 543.2168 336.4513 543.2168 Z" stroke="#212121" stroke-linecap="round" stroke-linejoin="round" stroke-width="1"/>
        <text transform="translate(333.4513 545.7168)" fill="#ebebeb">
          <tspan font-family="Avenir" font-size="16" fill="#ebebeb" x="42.3" y="16">onProjectsInitializing()</tspan>
        </text>
      </g>
      <g id="Graphic_13">
        <path d="M 647.9819 581.3888 L 880.9819 581.3888 C 885.4001 581.3888 888.9819 584.97054 888.9819 589.3888 L 888.9819 600.3888 C 888.9819 604.8071 885.4001 608.3888 880.9819 608.3888 L 647.9819 608.3888 C 643.5636 608.3888 639.9819 604.8071 639.9819 600.3888 L 639.9819 589.3888 C 639.9819 584.97054 643.5636 581.3888 647.9819 581.3888 Z" fill="#ca7400"/>
        <path d="M 647.9819 581.3888 L 880.9819 581.3888 C 885.4001 581.3888 888.9819 584.97054 888.9819 589.3888 L 888.9819 600.3888 C 888.9819 604.8071 885.4001 608.3888 880.9819 608.3888 L 647.9819 608.3888 C 643.5636 608.3888 639.9819 604.8071 639.9819 600.3888 L 639.9819 589.3888 C 639.9819 584.97054 643.5636 581.3888 647.9819 581.3888 Z" stroke="#212121" stroke-linecap="round" stroke-linejoin="round" stroke-width="1"/>
        <text transform="translate(644.9819 583.8888)" fill="#ebebeb">
          <tspan font-family="Avenir" font-size="16" fill="#ebebeb" x="60.236" y="16">Initialize Projects</tspan>
        </text>
      </g>
      <g id="Graphic_14">
        <path d="M 336.4513 618.3759 L 569.4513 618.3759 C 573.8696 618.3759 577.4513 621.95765 577.4513 626.3759 L 577.4513 637.3759 C 577.4513 641.7942 573.8696 645.3759 569.4513 645.3759 L 336.4513 645.3759 C 332.03303 645.3759 328.4513 641.7942 328.4513 637.3759 L 328.4513 626.3759 C 328.4513 621.95765 332.03303 618.3759 336.4513 618.3759 Z" fill="#0064aa"/>
        <path d="M 336.4513 618.3759 L 569.4513 618.3759 C 573.8696 618.3759 577.4513 621.95765 577.4513 626.3759 L 577.4513 637.3759 C 577.4513 641.7942 573.8696 645.3759 569.4513 645.3759 L 336.4513 645.3759 C 332.03303 645.3759 328.4513 641.7942 328.4513 637.3759 L 328.4513 626.3759 C 328.4513 621.95765 332.03303 618.3759 336.4513 618.3759 Z" stroke="#212121" stroke-linecap="round" stroke-linejoin="round" stroke-width="1"/>
        <text transform="translate(333.4513 620.8759)" fill="#ebebeb">
          <tspan font-family="Avenir" font-size="16" fill="#ebebeb" x="48.38" y="16">onProjectsInitialized</tspan>
        </text>
      </g>
      <g id="Graphic_15">
        <path d="M 646.25335 713.051 L 879.2534 713.051 C 883.6716 713.051 887.2534 716.6327 887.2534 721.051 L 887.2534 732.051 C 887.2534 736.46925 883.6716 740.051 879.2534 740.051 L 646.25335 740.051 C 641.8351 740.051 638.25335 736.46925 638.25335 732.051 L 638.25335 721.051 C 638.25335 716.6327 641.8351 713.051 646.25335 713.051 Z" fill="#ca7400"/>
        <path d="M 646.25335 713.051 L 879.2534 713.051 C 883.6716 713.051 887.2534 716.6327 887.2534 721.051 L 887.2534 732.051 C 887.2534 736.46925 883.6716 740.051 879.2534 740.051 L 646.25335 740.051 C 641.8351 740.051 638.25335 736.46925 638.25335 732.051 L 638.25335 721.051 C 638.25335 716.6327 641.8351 713.051 646.25335 713.051 Z" stroke="#212121" stroke-linecap="round" stroke-linejoin="round" stroke-width="1"/>
        <text transform="translate(643.25335 715.551)" fill="#ebebeb">
          <tspan font-family="Avenir" font-size="16" fill="#ebebeb" x="51.932" y="16">Load Deployments</tspan>
        </text>
      </g>
      <g id="Graphic_16">
        <path d="M 336.4513 753.2101 L 569.4513 753.2101 C 573.8696 753.2101 577.4513 756.7918 577.4513 761.2101 L 577.4513 772.2101 C 577.4513 776.6284 573.8696 780.2101 569.4513 780.2101 L 336.4513 780.2101 C 332.03303 780.2101 328.4513 776.6284 328.4513 772.2101 L 328.4513 761.2101 C 328.4513 756.7918 332.03303 753.2101 336.4513 753.2101 Z" fill="#0064aa"/>
        <path d="M 336.4513 753.2101 L 569.4513 753.2101 C 573.8696 753.2101 577.4513 756.7918 577.4513 761.2101 L 577.4513 772.2101 C 577.4513 776.6284 573.8696 780.2101 569.4513 780.2101 L 336.4513 780.2101 C 332.03303 780.2101 328.4513 776.6284 328.4513 772.2101 L 328.4513 761.2101 C 328.4513 756.7918 332.03303 753.2101 336.4513 753.2101 Z" stroke="#212121" stroke-linecap="round" stroke-linejoin="round" stroke-width="1"/>
        <text transform="translate(333.4513 755.7101)" fill="#ebebeb">
          <tspan font-family="Avenir" font-size="16" fill="#ebebeb" x="55.652" y="16">argumentParsers()</tspan>
        </text>
      </g>
      <g id="Graphic_17">
        <path d="M 336.4513 793.6544 L 569.4513 793.6544 C 573.8696 793.6544 577.4513 797.2361 577.4513 801.6544 L 577.4513 812.6544 C 577.4513 817.0727 573.8696 820.6544 569.4513 820.6544 L 336.4513 820.6544 C 332.03303 820.6544 328.4513 817.0727 328.4513 812.6544 L 328.4513 801.6544 C 328.4513 797.2361 332.03303 793.6544 336.4513 793.6544 Z" fill="#0064aa"/>
        <path d="M 336.4513 793.6544 L 569.4513 793.6544 C 573.8696 793.6544 577.4513 797.2361 577.4513 801.6544 L 577.4513 812.6544 C 577.4513 817.0727 573.8696 820.6544 569.4513 820.6544 L 336.4513 820.6544 C 332.03303 820.6544 328.4513 817.0727 328.4513 812.6544 L 328.4513 801.6544 C 328.4513 797.2361 332.03303 793.6544 336.4513 793.6544 Z" stroke="#212121" stroke-linecap="round" stroke-linejoin="round" stroke-width="1"/>
        <text transform="translate(333.4513 796.1544)" fill="#ebebeb">
          <tspan font-family="Avenir" font-size="16" fill="#ebebeb" x="67.956" y="16">switchParsers()</tspan>
        </text>
      </g>
      <g id="Graphic_18">
        <path d="M 646.0672 795.0987 L 879.0672 795.0987 C 883.4855 795.0987 887.0672 798.6804 887.0672 803.0987 L 887.0672 814.0987 C 887.0672 818.517 883.4855 822.0987 879.0672 822.0987 L 646.0672 822.0987 C 641.64895 822.0987 638.0672 818.517 638.0672 814.0987 L 638.0672 803.0987 C 638.0672 798.6804 641.64895 795.0987 646.0672 795.0987 Z" fill="#ca7400"/>
        <path d="M 646.0672 795.0987 L 879.0672 795.0987 C 883.4855 795.0987 887.0672 798.6804 887.0672 803.0987 L 887.0672 814.0987 C 887.0672 818.517 883.4855 822.0987 879.0672 822.0987 L 646.0672 822.0987 C 641.64895 822.0987 638.0672 818.517 638.0672 814.0987 L 638.0672 803.0987 C 638.0672 798.6804 641.64895 795.0987 646.0672 795.0987 Z" stroke="#212121" stroke-linecap="round" stroke-linejoin="round" stroke-width="1"/>
        <text transform="translate(643.0672 797.5987)" fill="#ebebeb">
          <tspan font-family="Avenir" font-size="16" fill="#ebebeb" x="43.484" y="16">Parse Command Line</tspan>
        </text>
      </g>
      <g id="Graphic_20">
        <path d="M 336.4513 834.0987 L 569.4513 834.0987 C 573.8696 834.0987 577.4513 837.6804 577.4513 842.0987 L 577.4513 853.0987 C 577.4513 857.517 573.8696 861.0987 569.4513 861.0987 L 336.4513 861.0987 C 332.03303 861.0987 328.4513 857.517 328.4513 853.0987 L 328.4513 842.0987 C 328.4513 837.6804 332.03303 834.0987 336.4513 834.0987 Z" fill="#0064aa"/>
        <path d="M 336.4513 834.0987 L 569.4513 834.0987 C 573.8696 834.0987 577.4513 837.6804 577.4513 842.0987 L 577.4513 853.0987 C 577.4513 857.517 573.8696 861.0987 569.4513 861.0987 L 336.4513 861.0987 C 332.03303 861.0987 328.4513 857.517 328.4513 853.0987 L 328.4513 842.0987 C 328.4513 837.6804 332.03303 834.0987 336.4513 834.0987 Z" stroke="#212121" stroke-linecap="round" stroke-linejoin="round" stroke-width="1"/>
        <text transform="translate(333.4513 836.5987)" fill="#ebebeb">
          <tspan font-family="Avenir" font-size="16" fill="#ebebeb" x="43.508" y="16">onConfigureListeners</tspan>
        </text>
      </g>
      <g id="Graphic_21">
        <path d="M 646.0672 834.0987 L 879.0672 834.0987 C 883.4855 834.0987 887.0672 837.6804 887.0672 842.0987 L 887.0672 853.0987 C 887.0672 857.517 883.4855 861.0987 879.0672 861.0987 L 646.0672 861.0987 C 641.64895 861.0987 638.0672 857.517 638.0672 853.0987 L 638.0672 842.0987 C 638.0672 837.6804 641.64895 834.0987 646.0672 834.0987 Z" fill="#ca7400"/>
        <path d="M 646.0672 834.0987 L 879.0672 834.0987 C 883.4855 834.0987 887.0672 837.6804 887.0672 842.0987 L 887.0672 853.0987 C 887.0672 857.517 883.4855 861.0987 879.0672 861.0987 L 646.0672 861.0987 C 641.64895 861.0987 638.0672 857.517 638.0672 853.0987 L 638.0672 842.0987 C 638.0672 837.6804 641.64895 834.0987 646.0672 834.0987 Z" stroke="#212121" stroke-linecap="round" stroke-linejoin="round" stroke-width="1"/>
        <text transform="translate(643.0672 836.5987)" fill="#ebebeb">
          <tspan font-family="Avenir" font-size="16" fill="#ebebeb" x="43.956" y="16">Register Deployment </tspan>
        </text>
      </g>
      <g id="Graphic_22">
        <path d="M 646.0672 871.2296 L 879.0672 871.2296 C 883.4855 871.2296 887.0672 874.8113 887.0672 879.2296 L 887.0672 890.2296 C 887.0672 894.6478 883.4855 898.2296 879.0672 898.2296 L 646.0672 898.2296 C 641.64895 898.2296 638.0672 894.6478 638.0672 890.2296 L 638.0672 879.2296 C 638.0672 874.8113 641.64895 871.2296 646.0672 871.2296 Z" fill="#ca7400"/>
        <path d="M 646.0672 871.2296 L 879.0672 871.2296 C 883.4855 871.2296 887.0672 874.8113 887.0672 879.2296 L 887.0672 890.2296 C 887.0672 894.6478 883.4855 898.2296 879.0672 898.2296 L 646.0672 898.2296 C 641.64895 898.2296 638.0672 894.6478 638.0672 890.2296 L 638.0672 879.2296 C 638.0672 874.8113 641.64895 871.2296 646.0672 871.2296 Z" stroke="#212121" stroke-linecap="round" stroke-linejoin="round" stroke-width="1"/>
        <text transform="translate(643.0672 873.7296)" fill="#ebebeb">
          <tspan font-family="Avenir" font-size="16" fill="#ebebeb" x="28.524" y="16">Show Startup Information</tspan>
        </text>
      </g>
      <g id="Graphic_23">
        <path d="M 22.5 713.051 L 255.5 713.051 C 259.91828 713.051 263.5 716.6327 263.5 721.051 L 263.5 732.051 C 263.5 736.46925 259.91828 740.051 255.5 740.051 L 22.5 740.051 C 18.081722 740.051 14.5 736.46925 14.5 732.051 L 14.5 721.051 C 14.5 716.6327 18.081722 713.051 22.5 713.051 Z" fill="#4e8f00"/>
        <path d="M 22.5 713.051 L 255.5 713.051 C 259.91828 713.051 263.5 716.6327 263.5 721.051 L 263.5 732.051 C 263.5 736.46925 259.91828 740.051 255.5 740.051 L 22.5 740.051 C 18.081722 740.051 14.5 736.46925 14.5 732.051 L 14.5 721.051 C 14.5 716.6327 18.081722 713.051 22.5 713.051 Z" stroke="#212121" stroke-linecap="round" stroke-linejoin="round" stroke-width="1"/>
        <text transform="translate(19.5 715.551)" fill="#ebebeb">
          <tspan font-family="Avenir" font-size="16" fill="#ebebeb" x="82.26" y="16">RUNNING</tspan>
        </text>
      </g>
      <g id="Graphic_24">
        <path d="M 336.4229 914.9873 L 569.4229 914.9873 C 573.84116 914.9873 577.4229 918.569 577.4229 922.9873 L 577.4229 933.9873 C 577.4229 938.4056 573.84116 941.9873 569.4229 941.9873 L 336.4229 941.9873 C 332.0046 941.9873 328.4229 938.4056 328.4229 933.9873 L 328.4229 922.9873 C 328.4229 918.569 332.0046 914.9873 336.4229 914.9873 Z" fill="#0064aa"/>
        <path d="M 336.4229 914.9873 L 569.4229 914.9873 C 573.84116 914.9873 577.4229 918.569 577.4229 922.9873 L 577.4229 933.9873 C 577.4229 938.4056 573.84116 941.9873 569.4229 941.9873 L 336.4229 941.9873 C 332.0046 941.9873 328.4229 938.4056 328.4229 933.9873 L 328.4229 922.9873 C 328.4229 918.569 332.0046 914.9873 336.4229 914.9873 Z" stroke="#212121" stroke-linecap="round" stroke-linejoin="round" stroke-width="1"/>
        <text transform="translate(333.4229 917.4873)" fill="#ebebeb">
          <tspan font-family="Avenir" font-size="16" fill="#ebebeb" x="92.508" y="16">onRun()</tspan>
        </text>
      </g>
      <g id="Graphic_25">
        <path d="M 22.5 953.0843 L 255.5 953.0843 C 259.91828 953.0843 263.5 956.666 263.5 961.0843 L 263.5 972.0843 C 263.5 976.5026 259.91828 980.0843 255.5 980.0843 L 22.5 980.0843 C 18.081722 980.0843 14.5 976.5026 14.5 972.0843 L 14.5 961.0843 C 14.5 956.666 18.081722 953.0843 22.5 953.0843 Z" fill="#4e8f00"/>
        <path d="M 22.5 953.0843 L 255.5 953.0843 C 259.91828 953.0843 263.5 956.666 263.5 961.0843 L 263.5 972.0843 C 263.5 976.5026 259.91828 980.0843 255.5 980.0843 L 22.5 980.0843 C 18.081722 980.0843 14.5 976.5026 14.5 972.0843 L 14.5 961.0843 C 14.5 956.666 18.081722 953.0843 22.5 953.0843 Z" stroke="#212121" stroke-linecap="round" stroke-linejoin="round" stroke-width="1"/>
        <text transform="translate(19.5 955.5843)" fill="#ebebeb">
          <tspan font-family="Avenir" font-size="16" fill="#ebebeb" x="80.044" y="16">STOPPING</tspan>
        </text>
      </g>
      <g id="Graphic_26">
        <path d="M 646.0672 953.0843 L 879.0672 953.0843 C 883.4855 953.0843 887.0672 956.666 887.0672 961.0843 L 887.0672 972.0843 C 887.0672 976.5026 883.4855 980.0843 879.0672 980.0843 L 646.0672 980.0843 C 641.64895 980.0843 638.0672 976.5026 638.0672 972.0843 L 638.0672 961.0843 C 638.0672 956.666 641.64895 953.0843 646.0672 953.0843 Z" fill="#ca7400"/>
        <path d="M 646.0672 953.0843 L 879.0672 953.0843 C 883.4855 953.0843 887.0672 956.666 887.0672 961.0843 L 887.0672 972.0843 C 887.0672 976.5026 883.4855 980.0843 879.0672 980.0843 L 646.0672 980.0843 C 641.64895 980.0843 638.0672 976.5026 638.0672 972.0843 L 638.0672 961.0843 C 638.0672 956.666 641.64895 953.0843 646.0672 953.0843 Z" stroke="#212121" stroke-linecap="round" stroke-linejoin="round" stroke-width="1"/>
        <text transform="translate(643.0672 955.5843)" fill="#ebebeb">
          <tspan font-family="Avenir" font-size="16" fill="#ebebeb" x="81.564" y="16">Flush Logs</tspan>
        </text>
      </g>
      <g id="Graphic_27">
        <path d="M 646.0672 994.2089 L 879.0672 994.2089 C 883.4855 994.2089 887.0672 997.7906 887.0672 1002.2089 L 887.0672 1013.2089 C 887.0672 1017.6272 883.4855 1021.2089 879.0672 1021.2089 L 646.0672 1021.2089 C 641.64895 1021.2089 638.0672 1017.6272 638.0672 1013.2089 L 638.0672 1002.2089 C 638.0672 997.7906 641.64895 994.2089 646.0672 994.2089 Z" fill="#ca7400"/>
        <path d="M 646.0672 994.2089 L 879.0672 994.2089 C 883.4855 994.2089 887.0672 997.7906 887.0672 1002.2089 L 887.0672 1013.2089 C 887.0672 1017.6272 883.4855 1021.2089 879.0672 1021.2089 L 646.0672 1021.2089 C 641.64895 1021.2089 638.0672 1017.6272 638.0672 1013.2089 L 638.0672 1002.2089 C 638.0672 997.7906 641.64895 994.2089 646.0672 994.2089 Z" stroke="#212121" stroke-linecap="round" stroke-linejoin="round" stroke-width="1"/>
        <text transform="translate(643.0672 996.7089)" fill="#ebebeb">
          <tspan font-family="Avenir" font-size="16" fill="#ebebeb" x="32.684" y="16">Show Message Statistics</tspan>
        </text>
      </g>
      <g id="Graphic_28">
        <path d="M 336.4513 1036.3203 L 569.4513 1036.3203 C 573.8696 1036.3203 577.4513 1039.902 577.4513 1044.3203 L 577.4513 1055.3203 C 577.4513 1059.7385 573.8696 1063.3203 569.4513 1063.3203 L 336.4513 1063.3203 C 332.03303 1063.3203 328.4513 1059.7385 328.4513 1055.3203 L 328.4513 1044.3203 C 328.4513 1039.902 332.03303 1036.3203 336.4513 1036.3203 Z" fill="#0064aa"/>
        <path d="M 336.4513 1036.3203 L 569.4513 1036.3203 C 573.8696 1036.3203 577.4513 1039.902 577.4513 1044.3203 L 577.4513 1055.3203 C 577.4513 1059.7385 573.8696 1063.3203 569.4513 1063.3203 L 336.4513 1063.3203 C 332.03303 1063.3203 328.4513 1059.7385 328.4513 1055.3203 L 328.4513 1044.3203 C 328.4513 1039.902 332.03303 1036.3203 336.4513 1036.3203 Z" stroke="#212121" stroke-linecap="round" stroke-linejoin="round" stroke-width="1"/>
        <text transform="translate(333.4513 1038.8203)" fill="#ebebeb">
          <tspan font-family="Avenir" font-size="16" fill="#ebebeb" x="92.804" y="16">onRan()</tspan>
        </text>
      </g>
      <g id="Graphic_29">
        <path d="M 26.778545 1094.7652 L 259.77855 1094.7652 C 264.19682 1094.7652 267.77855 1098.3469 267.77855 1102.7652 L 267.77855 1113.7652 C 267.77855 1118.1834 264.19682 1121.7652 259.77855 1121.7652 L 26.778545 1121.7652 C 22.360267 1121.7652 18.778545 1118.1834 18.778545 1113.7652 L 18.778545 1102.7652 C 18.778545 1098.3469 22.360267 1094.7652 26.778545 1094.7652 Z" fill="#4e8f00"/>
        <path d="M 26.778545 1094.7652 L 259.77855 1094.7652 C 264.19682 1094.7652 267.77855 1098.3469 267.77855 1102.7652 L 267.77855 1113.7652 C 267.77855 1118.1834 264.19682 1121.7652 259.77855 1121.7652 L 26.778545 1121.7652 C 22.360267 1121.7652 18.778545 1118.1834 18.778545 1113.7652 L 18.778545 1102.7652 C 18.778545 1098.3469 22.360267 1094.7652 26.778545 1094.7652 Z" stroke="#212121" stroke-linecap="round" stroke-linejoin="round" stroke-width="1"/>
        <text transform="translate(23.778545 1097.2652)" fill="#ebebeb">
          <tspan font-family="Avenir" font-size="16" fill="#ebebeb" x="83.932" y="16">STOPPED</tspan>
        </text>
      </g>
      <g id="Graphic_32">
        <path d="M 336.67276 287.19347 L 569.67276 287.19347 C 574.09104 287.19347 577.67276 290.7752 577.67276 295.19347 L 577.67276 306.19347 C 577.67276 310.61175 574.09104 314.19347 569.67276 314.19347 L 336.67276 314.19347 C 332.2545 314.19347 328.67276 310.61175 328.67276 306.19347 L 328.67276 295.19347 C 328.67276 290.7752 332.2545 287.19347 336.67276 287.19347 Z" fill="#0064aa"/>
        <path d="M 336.67276 287.19347 L 569.67276 287.19347 C 574.09104 287.19347 577.67276 290.7752 577.67276 295.19347 L 577.67276 306.19347 C 577.67276 310.61175 574.09104 314.19347 569.67276 314.19347 L 336.67276 314.19347 C 332.2545 314.19347 328.67276 310.61175 328.67276 306.19347 L 328.67276 295.19347 C 328.67276 290.7752 332.2545 287.19347 336.67276 287.19347 Z" stroke="#212121" stroke-linecap="round" stroke-linejoin="round" stroke-width="1"/>
        <text transform="translate(333.67276 289.69347)" fill="#ebebeb">
          <tspan font-family="Avenir" font-size="16" fill="#ebebeb" x="32.828" y="16">main(String[] arguments)</tspan>
        </text>
      </g>
      <g id="Graphic_33">
        <path d="M 336.64434 263.24482 L 569.64434 263.24482 C 574.0626 263.24482 577.64434 259.6631 577.64434 255.24482 L 577.64434 237.3721 C 577.64434 232.95382 574.0626 229.3721 569.64434 229.3721 L 336.64434 229.3721 C 332.22606 229.3721 328.64434 232.95382 328.64434 237.3721 L 328.64434 255.24482 C 328.64434 259.6631 332.22606 263.24482 336.64434 263.24482 Z" fill="#0065a9"/>
        <path d="M 336.64434 263.24482 L 569.64434 263.24482 C 574.0626 263.24482 577.64434 259.6631 577.64434 255.24482 L 577.64434 237.3721 C 577.64434 232.95382 574.0626 229.3721 569.64434 229.3721 L 336.64434 229.3721 C 332.22606 229.3721 328.64434 232.95382 328.64434 237.3721 L 328.64434 255.24482 C 328.64434 259.6631 332.22606 263.24482 336.64434 263.24482 Z" stroke="#212121" stroke-linecap="round" stroke-linejoin="round" stroke-width="1"/>
        <text transform="translate(333.64434 235.30846)" fill="white">
          <tspan font-family="Avenir" font-weight="bold" font-size="16" fill="white" x="70.004" y="16">Method Calls</tspan>
        </text>
      </g>
      <g id="Graphic_34">
        <path d="M 646.2887 263.24482 L 879.2887 263.24482 C 883.707 263.24482 887.2887 259.6631 887.2887 255.24482 L 887.2887 237.3721 C 887.2887 232.95382 883.707 229.3721 879.2887 229.3721 L 646.2887 229.3721 C 641.8704 229.3721 638.2887 232.95382 638.2887 237.3721 L 638.2887 255.24482 C 638.2887 259.6631 641.8704 263.24482 646.2887 263.24482 Z" fill="#ca7400"/>
        <path d="M 646.2887 263.24482 L 879.2887 263.24482 C 883.707 263.24482 887.2887 259.6631 887.2887 255.24482 L 887.2887 237.3721 C 887.2887 232.95382 883.707 229.3721 879.2887 229.3721 L 646.2887 229.3721 C 641.8704 229.3721 638.2887 232.95382 638.2887 237.3721 L 638.2887 255.24482 C 638.2887 259.6631 641.8704 263.24482 646.2887 263.24482 Z" stroke="#212121" stroke-linecap="round" stroke-linejoin="round" stroke-width="1"/>
        <text transform="translate(643.2887 235.30846)" fill="white">
          <tspan font-family="Avenir" font-weight="bold" font-size="16" fill="white" x="85.092" y="16">Activities</tspan>
        </text>
      </g>
      <g id="Graphic_35">
        <path d="M 336.67276 327.63778 L 569.67276 327.63778 C 574.09104 327.63778 577.67276 331.2195 577.67276 335.63778 L 577.67276 346.63778 C 577.67276 351.05605 574.09104 354.63778 569.67276 354.63778 L 336.67276 354.63778 C 332.2545 354.63778 328.67276 351.05605 328.67276 346.63778 L 328.67276 335.63778 C 328.67276 331.2195 332.2545 327.63778 336.67276 327.63778 Z" fill="#0064aa"/>
        <path d="M 336.67276 327.63778 L 569.67276 327.63778 C 574.09104 327.63778 577.67276 331.2195 577.67276 335.63778 L 577.67276 346.63778 C 577.67276 351.05605 574.09104 354.63778 569.67276 354.63778 L 336.67276 354.63778 C 332.2545 354.63778 328.67276 351.05605 328.67276 346.63778 L 328.67276 335.63778 C 328.67276 331.2195 332.2545 327.63778 336.67276 327.63778 Z" stroke="#212121" stroke-linecap="round" stroke-linejoin="round" stroke-width="1"/>
        <text transform="translate(333.67276 330.13778)" fill="#ebebeb">
          <tspan font-family="Avenir" font-size="16" fill="#ebebeb" x="74.46" y="16">Application()</tspan>
        </text>
      </g>
      <g id="Graphic_37">
        <path d="M 595.7684 428.15256 L 621.09565 428.15256 C 625.5139 428.15256 629.09565 431.7343 629.09565 436.15256 L 629.09565 447.15256 C 629.09565 451.57083 625.5139 455.15256 621.09565 455.15256 L 595.7684 455.15256 C 591.3501 455.15256 587.7684 451.57083 587.7684 447.15256 L 587.7684 436.15256 C 587.7684 431.7343 591.3501 428.15256 595.7684 428.15256 Z" fill="#dead26"/>
        <path d="M 595.7684 428.15256 L 621.09565 428.15256 C 625.5139 428.15256 629.09565 431.7343 629.09565 436.15256 L 629.09565 447.15256 C 629.09565 451.57083 625.5139 455.15256 621.09565 455.15256 L 595.7684 455.15256 C 591.3501 455.15256 587.7684 451.57083 587.7684 447.15256 L 587.7684 436.15256 C 587.7684 431.7343 591.3501 428.15256 595.7684 428.15256 Z" stroke="#212121" stroke-linecap="round" stroke-linejoin="round" stroke-width="1"/>
        <text transform="translate(592.7684 430.65256)" fill="#ebebeb">
          <tspan font-family="Avenir" font-weight="bold" font-size="16" fill="#ebebeb" x="10.92762" y="16">3</tspan>
        </text>
      </g>
      <g id="Graphic_38">
        <path d="M -30.221455 428.3581 L -4.8942155 428.3581 C -.4759375 428.3581 3.1057845 431.93984 3.1057845 436.3581 L 3.1057845 447.3581 C 3.1057845 451.7764 -.4759375 455.3581 -4.8942155 455.3581 L -30.221455 455.3581 C -34.639733 455.3581 -38.221455 451.7764 -38.221455 447.3581 L -38.221455 436.3581 C -38.221455 431.93984 -34.639733 428.3581 -30.221455 428.3581 Z" fill="#dead26"/>
        <path d="M -30.221455 428.3581 L -4.8942155 428.3581 C -.4759375 428.3581 3.1057845 431.93984 3.1057845 436.3581 L 3.1057845 447.3581 C 3.1057845 451.7764 -.4759375 455.3581 -4.8942155 455.3581 L -30.221455 455.3581 C -34.639733 455.3581 -38.221455 451.7764 -38.221455 447.3581 L -38.221455 436.3581 C -38.221455 431.93984 -34.639733 428.3581 -30.221455 428.3581 Z" stroke="#212121" stroke-linecap="round" stroke-linejoin="round" stroke-width="1"/>
        <text transform="translate(-33.221455 430.8581)" fill="#ebebeb">
          <tspan font-family="Avenir" font-weight="bold" font-size="16" fill="#ebebeb" x="10.92762" y="16">1</tspan>
        </text>
      </g>
      <g id="Graphic_39">
        <path d="M 284.77855 468.59686 L 310.1058 468.59686 C 314.52406 468.59686 318.1058 472.1786 318.1058 476.59686 L 318.1058 487.59686 C 318.1058 492.01514 314.52406 495.59686 310.1058 495.59686 L 284.77855 495.59686 C 280.36027 495.59686 276.77855 492.01514 276.77855 487.59686 L 276.77855 476.59686 C 276.77855 472.1786 280.36027 468.59686 284.77855 468.59686 Z" fill="#dead26"/>
        <path d="M 284.77855 468.59686 L 310.1058 468.59686 C 314.52406 468.59686 318.1058 472.1786 318.1058 476.59686 L 318.1058 487.59686 C 318.1058 492.01514 314.52406 495.59686 310.1058 495.59686 L 284.77855 495.59686 C 280.36027 495.59686 276.77855 492.01514 276.77855 487.59686 L 276.77855 476.59686 C 276.77855 472.1786 280.36027 468.59686 284.77855 468.59686 Z" stroke="#212121" stroke-linecap="round" stroke-linejoin="round" stroke-width="1"/>
        <text transform="translate(281.77855 471.09686)" fill="#ebebeb">
          <tspan font-family="Avenir" font-weight="bold" font-size="16" fill="#ebebeb" x="10.92762" y="16">4</tspan>
        </text>
      </g>
      <g id="Graphic_40">
        <path d="M 285.30547 713.051 L 310.6327 713.051 C 315.051 713.051 318.6327 716.6327 318.6327 721.051 L 318.6327 732.051 C 318.6327 736.46925 315.051 740.051 310.6327 740.051 L 285.30547 740.051 C 280.8872 740.051 277.30547 736.46925 277.30547 732.051 L 277.30547 721.051 C 277.30547 716.6327 280.8872 713.051 285.30547 713.051 Z" fill="#4e8f00"/>
        <path d="M 285.30547 713.051 L 310.6327 713.051 C 315.051 713.051 318.6327 716.6327 318.6327 721.051 L 318.6327 732.051 C 318.6327 736.46925 315.051 740.051 310.6327 740.051 L 285.30547 740.051 C 280.8872 740.051 277.30547 736.46925 277.30547 732.051 L 277.30547 721.051 C 277.30547 716.6327 280.8872 713.051 285.30547 713.051 Z" stroke="#212121" stroke-linecap="round" stroke-linejoin="round" stroke-width="1"/>
        <text transform="translate(282.30547 715.551)" fill="#ebebeb">
          <tspan font-family="Avenir" font-weight="bold" font-size="16" fill="#ebebeb" x="10.92762" y="16">2</tspan>
        </text>
      </g>
      <g id="Graphic_41">
        <path d="M 284.77855 543.2168 L 310.1058 543.2168 C 314.52406 543.2168 318.1058 546.79853 318.1058 551.2168 L 318.1058 562.2168 C 318.1058 566.6351 314.52406 570.2168 310.1058 570.2168 L 284.77855 570.2168 C 280.36027 570.2168 276.77855 566.6351 276.77855 562.2168 L 276.77855 551.2168 C 276.77855 546.79853 280.36027 543.2168 284.77855 543.2168 Z" fill="#dead26"/>
        <path d="M 284.77855 543.2168 L 310.1058 543.2168 C 314.52406 543.2168 318.1058 546.79853 318.1058 551.2168 L 318.1058 562.2168 C 318.1058 566.6351 314.52406 570.2168 310.1058 570.2168 L 284.77855 570.2168 C 280.36027 570.2168 276.77855 566.6351 276.77855 562.2168 L 276.77855 551.2168 C 276.77855 546.79853 280.36027 543.2168 284.77855 543.2168 Z" stroke="#212121" stroke-linecap="round" stroke-linejoin="round" stroke-width="1"/>
        <text transform="translate(281.77855 545.7168)" fill="#ebebeb">
          <tspan font-family="Avenir" font-weight="bold" font-size="16" fill="#ebebeb" x="10.92762" y="16">6</tspan>
        </text>
      </g>
      <g id="Graphic_42">
        <path d="M 597.68305 580.7964 L 623.0103 580.7964 C 627.4286 580.7964 631.0103 584.3781 631.0103 588.7964 L 631.0103 599.7964 C 631.0103 604.21465 627.4286 607.7964 623.0103 607.7964 L 597.68305 607.7964 C 593.2648 607.7964 589.68305 604.21465 589.68305 599.7964 L 589.68305 588.7964 C 589.68305 584.3781 593.2648 580.7964 597.68305 580.7964 Z" fill="#dead26"/>
        <path d="M 597.68305 580.7964 L 623.0103 580.7964 C 627.4286 580.7964 631.0103 584.3781 631.0103 588.7964 L 631.0103 599.7964 C 631.0103 604.21465 627.4286 607.7964 623.0103 607.7964 L 597.68305 607.7964 C 593.2648 607.7964 589.68305 604.21465 589.68305 599.7964 L 589.68305 588.7964 C 589.68305 584.3781 593.2648 580.7964 597.68305 580.7964 Z" stroke="#212121" stroke-linecap="round" stroke-linejoin="round" stroke-width="1"/>
        <text transform="translate(594.68305 583.2964)" fill="#ebebeb">
          <tspan font-family="Avenir" font-weight="bold" font-size="16" fill="#ebebeb" x="10.92762" y="16">8</tspan>
        </text>
      </g>
      <g id="Graphic_43">
        <path d="M 284.77855 618.3759 L 310.1058 618.3759 C 314.52406 618.3759 318.1058 621.95765 318.1058 626.3759 L 318.1058 637.3759 C 318.1058 641.7942 314.52406 645.3759 310.1058 645.3759 L 284.77855 645.3759 C 280.36027 645.3759 276.77855 641.7942 276.77855 637.3759 L 276.77855 626.3759 C 276.77855 621.95765 280.36027 618.3759 284.77855 618.3759 Z" fill="#dead26"/>
        <path d="M 284.77855 618.3759 L 310.1058 618.3759 C 314.52406 618.3759 318.1058 621.95765 318.1058 626.3759 L 318.1058 637.3759 C 318.1058 641.7942 314.52406 645.3759 310.1058 645.3759 L 284.77855 645.3759 C 280.36027 645.3759 276.77855 641.7942 276.77855 637.3759 L 276.77855 626.3759 C 276.77855 621.95765 280.36027 618.3759 284.77855 618.3759 Z" stroke="#212121" stroke-linecap="round" stroke-linejoin="round" stroke-width="1"/>
        <text transform="translate(281.77855 620.8759)" fill="#ebebeb">
          <tspan font-family="Avenir" font-weight="bold" font-size="16" fill="#ebebeb" x="10.92762" y="16">9</tspan>
        </text>
      </g>
      <g id="Graphic_44">
        <path d="M 595.656 713.051 L 620.98324 713.051 C 625.4015 713.051 628.98324 716.6327 628.98324 721.051 L 628.98324 732.051 C 628.98324 736.46925 625.4015 740.051 620.98324 740.051 L 595.656 740.051 C 591.2377 740.051 587.656 736.46925 587.656 732.051 L 587.656 721.051 C 587.656 716.6327 591.2377 713.051 595.656 713.051 Z" fill="#4e8f00"/>
        <path d="M 595.656 713.051 L 620.98324 713.051 C 625.4015 713.051 628.98324 716.6327 628.98324 721.051 L 628.98324 732.051 C 628.98324 736.46925 625.4015 740.051 620.98324 740.051 L 595.656 740.051 C 591.2377 740.051 587.656 736.46925 587.656 732.051 L 587.656 721.051 C 587.656 716.6327 591.2377 713.051 595.656 713.051 Z" stroke="#212121" stroke-linecap="round" stroke-linejoin="round" stroke-width="1"/>
        <text transform="translate(592.656 715.551)" fill="#ebebeb">
          <tspan font-family="Avenir" font-weight="bold" font-size="16" fill="#ebebeb" x="10.92762" y="16">3</tspan>
        </text>
      </g>
      <g id="Graphic_45">
        <path d="M 284.77855 753.7731 L 310.1058 753.7731 C 314.52406 753.7731 318.1058 757.3549 318.1058 761.7731 L 318.1058 772.7731 C 318.1058 777.1914 314.52406 780.7731 310.1058 780.7731 L 284.77855 780.7731 C 280.36027 780.7731 276.77855 777.1914 276.77855 772.7731 L 276.77855 761.7731 C 276.77855 757.3549 280.36027 753.7731 284.77855 753.7731 Z" fill="#4e8f00"/>
        <path d="M 284.77855 753.7731 L 310.1058 753.7731 C 314.52406 753.7731 318.1058 757.3549 318.1058 761.7731 L 318.1058 772.7731 C 318.1058 777.1914 314.52406 780.7731 310.1058 780.7731 L 284.77855 780.7731 C 280.36027 780.7731 276.77855 777.1914 276.77855 772.7731 L 276.77855 761.7731 C 276.77855 757.3549 280.36027 753.7731 284.77855 753.7731 Z" stroke="#212121" stroke-linecap="round" stroke-linejoin="round" stroke-width="1"/>
        <text transform="translate(281.77855 756.2731)" fill="#ebebeb">
          <tspan font-family="Avenir" font-weight="bold" font-size="16" fill="#ebebeb" x="10.92762" y="16">4</tspan>
        </text>
      </g>
      <g id="Graphic_46">
        <path d="M 595.5823 795.0987 L 620.9095 795.0987 C 625.3278 795.0987 628.9095 798.6804 628.9095 803.0987 L 628.9095 814.0987 C 628.9095 818.517 625.3278 822.0987 620.9095 822.0987 L 595.5823 822.0987 C 591.164 822.0987 587.5823 818.517 587.5823 814.0987 L 587.5823 803.0987 C 587.5823 798.6804 591.164 795.0987 595.5823 795.0987 Z" fill="#4e8f00"/>
        <path d="M 595.5823 795.0987 L 620.9095 795.0987 C 625.3278 795.0987 628.9095 798.6804 628.9095 803.0987 L 628.9095 814.0987 C 628.9095 818.517 625.3278 822.0987 620.9095 822.0987 L 595.5823 822.0987 C 591.164 822.0987 587.5823 818.517 587.5823 814.0987 L 587.5823 803.0987 C 587.5823 798.6804 591.164 795.0987 595.5823 795.0987 Z" stroke="#212121" stroke-linecap="round" stroke-linejoin="round" stroke-width="1"/>
        <text transform="translate(592.5823 797.5987)" fill="#ebebeb">
          <tspan font-family="Avenir" font-weight="bold" font-size="16" fill="#ebebeb" x="10.92762" y="16">6</tspan>
        </text>
      </g>
      <g id="Graphic_49">
        <path d="M 284.77855 834.0987 L 310.1058 834.0987 C 314.52406 834.0987 318.1058 837.6804 318.1058 842.0987 L 318.1058 853.0987 C 318.1058 857.517 314.52406 861.0987 310.1058 861.0987 L 284.77855 861.0987 C 280.36027 861.0987 276.77855 857.517 276.77855 853.0987 L 276.77855 842.0987 C 276.77855 837.6804 280.36027 834.0987 284.77855 834.0987 Z" fill="#4e8f00"/>
        <path d="M 284.77855 834.0987 L 310.1058 834.0987 C 314.52406 834.0987 318.1058 837.6804 318.1058 842.0987 L 318.1058 853.0987 C 318.1058 857.517 314.52406 861.0987 310.1058 861.0987 L 284.77855 861.0987 C 280.36027 861.0987 276.77855 857.517 276.77855 853.0987 L 276.77855 842.0987 C 276.77855 837.6804 280.36027 834.0987 284.77855 834.0987 Z" stroke="#212121" stroke-linecap="round" stroke-linejoin="round" stroke-width="1"/>
        <text transform="translate(281.77855 836.5987)" fill="#ebebeb">
          <tspan font-family="Avenir" font-weight="bold" font-size="16" fill="#ebebeb" x="10.92762" y="16">7</tspan>
        </text>
      </g>
      <g id="Graphic_51">
        <path d="M 595.5823 833.1641 L 620.9095 833.1641 C 625.3278 833.1641 628.9095 836.7459 628.9095 841.1641 L 628.9095 852.1641 C 628.9095 856.5824 625.3278 860.1641 620.9095 860.1641 L 595.5823 860.1641 C 591.164 860.1641 587.5823 856.5824 587.5823 852.1641 L 587.5823 841.1641 C 587.5823 836.7459 591.164 833.1641 595.5823 833.1641 Z" fill="#4e8f00"/>
        <path d="M 595.5823 833.1641 L 620.9095 833.1641 C 625.3278 833.1641 628.9095 836.7459 628.9095 841.1641 L 628.9095 852.1641 C 628.9095 856.5824 625.3278 860.1641 620.9095 860.1641 L 595.5823 860.1641 C 591.164 860.1641 587.5823 856.5824 587.5823 852.1641 L 587.5823 841.1641 C 587.5823 836.7459 591.164 833.1641 595.5823 833.1641 Z" stroke="#212121" stroke-linecap="round" stroke-linejoin="round" stroke-width="1"/>
        <text transform="translate(592.5823 835.6641)" fill="#ebebeb">
          <tspan font-family="Avenir" font-weight="bold" font-size="16" fill="#ebebeb" x="10.92762" y="16">8</tspan>
        </text>
      </g>
      <g id="Graphic_52">
        <path d="M 595.5823 871.2296 L 620.9095 871.2296 C 625.3278 871.2296 628.9095 874.8113 628.9095 879.2296 L 628.9095 890.2296 C 628.9095 894.6478 625.3278 898.2296 620.9095 898.2296 L 595.5823 898.2296 C 591.164 898.2296 587.5823 894.6478 587.5823 890.2296 L 587.5823 879.2296 C 587.5823 874.8113 591.164 871.2296 595.5823 871.2296 Z" fill="#4e8f00"/>
        <path d="M 595.5823 871.2296 L 620.9095 871.2296 C 625.3278 871.2296 628.9095 874.8113 628.9095 879.2296 L 628.9095 890.2296 C 628.9095 894.6478 625.3278 898.2296 620.9095 898.2296 L 595.5823 898.2296 C 591.164 898.2296 587.5823 894.6478 587.5823 890.2296 L 587.5823 879.2296 C 587.5823 874.8113 591.164 871.2296 595.5823 871.2296 Z" stroke="#212121" stroke-linecap="round" stroke-linejoin="round" stroke-width="1"/>
        <text transform="translate(592.5823 873.7296)" fill="#ebebeb">
          <tspan font-family="Avenir" font-weight="bold" font-size="16" fill="#ebebeb" x="10.92762" y="16">9</tspan>
        </text>
      </g>
      <g id="Graphic_53">
        <path d="M -34.5 713.051 L -9.17276 713.051 C -4.7544825 713.051 -1.1727605 716.6327 -1.1727605 721.051 L -1.1727605 732.051 C -1.1727605 736.46925 -4.7544825 740.051 -9.17276 740.051 L -34.5 740.051 C -38.91828 740.051 -42.5 736.46925 -42.5 732.051 L -42.5 721.051 C -42.5 716.6327 -38.91828 713.051 -34.5 713.051 Z" fill="#4e8f00"/>
        <path d="M -34.5 713.051 L -9.17276 713.051 C -4.7544825 713.051 -1.1727605 716.6327 -1.1727605 721.051 L -1.1727605 732.051 C -1.1727605 736.46925 -4.7544825 740.051 -9.17276 740.051 L -34.5 740.051 C -38.91828 740.051 -42.5 736.46925 -42.5 732.051 L -42.5 721.051 C -42.5 716.6327 -38.91828 713.051 -34.5 713.051 Z" stroke="#212121" stroke-linecap="round" stroke-linejoin="round" stroke-width="1"/>
        <text transform="translate(-37.5 715.551)" fill="#ebebeb">
          <tspan font-family="Avenir" font-weight="bold" font-size="16" fill="#ebebeb" x="10.92762" y="16">1</tspan>
        </text>
      </g>
      <g id="Graphic_55">
        <path d="M -34.5 953.0843 L -9.17276 953.0843 C -4.7544825 953.0843 -1.1727605 956.666 -1.1727605 961.0843 L -1.1727605 972.0843 C -1.1727605 976.5026 -4.7544825 980.0843 -9.17276 980.0843 L -34.5 980.0843 C -38.91828 980.0843 -42.5 976.5026 -42.5 972.0843 L -42.5 961.0843 C -42.5 956.666 -38.91828 953.0843 -34.5 953.0843 Z" fill="#4e8f00"/>
        <path d="M -34.5 953.0843 L -9.17276 953.0843 C -4.7544825 953.0843 -1.1727605 956.666 -1.1727605 961.0843 L -1.1727605 972.0843 C -1.1727605 976.5026 -4.7544825 980.0843 -9.17276 980.0843 L -34.5 980.0843 C -38.91828 980.0843 -42.5 976.5026 -42.5 972.0843 L -42.5 961.0843 C -42.5 956.666 -38.91828 953.0843 -34.5 953.0843 Z" stroke="#212121" stroke-linecap="round" stroke-linejoin="round" stroke-width="1"/>
        <text transform="translate(-37.5 955.5843)" fill="#ebebeb">
          <tspan font-family="Avenir" font-weight="bold" font-size="16" fill="#ebebeb" x="6.19162" y="16">12</tspan>
        </text>
      </g>
      <g id="Graphic_56">
        <path d="M 595.5823 953.0843 L 620.9095 953.0843 C 625.3278 953.0843 628.9095 956.666 628.9095 961.0843 L 628.9095 972.0843 C 628.9095 976.5026 625.3278 980.0843 620.9095 980.0843 L 595.5823 980.0843 C 591.164 980.0843 587.5823 976.5026 587.5823 972.0843 L 587.5823 961.0843 C 587.5823 956.666 591.164 953.0843 595.5823 953.0843 Z" fill="#4e8f00"/>
        <path d="M 595.5823 953.0843 L 620.9095 953.0843 C 625.3278 953.0843 628.9095 956.666 628.9095 961.0843 L 628.9095 972.0843 C 628.9095 976.5026 625.3278 980.0843 620.9095 980.0843 L 595.5823 980.0843 C 591.164 980.0843 587.5823 976.5026 587.5823 972.0843 L 587.5823 961.0843 C 587.5823 956.666 591.164 953.0843 595.5823 953.0843 Z" stroke="#212121" stroke-linecap="round" stroke-linejoin="round" stroke-width="1"/>
        <text transform="translate(592.5823 955.5843)" fill="#ebebeb">
          <tspan font-family="Avenir" font-weight="bold" font-size="16" fill="#ebebeb" x="6.19162" y="16">13</tspan>
        </text>
      </g>
      <g id="Graphic_57">
        <path d="M 595.3575 994.2089 L 620.6847 994.2089 C 625.103 994.2089 628.6847 997.7906 628.6847 1002.2089 L 628.6847 1013.2089 C 628.6847 1017.6272 625.103 1021.2089 620.6847 1021.2089 L 595.3575 1021.2089 C 590.9392 1021.2089 587.3575 1017.6272 587.3575 1013.2089 L 587.3575 1002.2089 C 587.3575 997.7906 590.9392 994.2089 595.3575 994.2089 Z" fill="#4e8f00"/>
        <path d="M 595.3575 994.2089 L 620.6847 994.2089 C 625.103 994.2089 628.6847 997.7906 628.6847 1002.2089 L 628.6847 1013.2089 C 628.6847 1017.6272 625.103 1021.2089 620.6847 1021.2089 L 595.3575 1021.2089 C 590.9392 1021.2089 587.3575 1017.6272 587.3575 1013.2089 L 587.3575 1002.2089 C 587.3575 997.7906 590.9392 994.2089 595.3575 994.2089 Z" stroke="#212121" stroke-linecap="round" stroke-linejoin="round" stroke-width="1"/>
        <text transform="translate(592.3575 996.7089)" fill="#ebebeb">
          <tspan font-family="Avenir" font-weight="bold" font-size="16" fill="#ebebeb" x="6.19162" y="16">14</tspan>
        </text>
      </g>
      <g id="Graphic_58">
        <path d="M 284.77855 1037.6581 L 310.1058 1037.6581 C 314.52406 1037.6581 318.1058 1041.2398 318.1058 1045.6581 L 318.1058 1056.6581 C 318.1058 1061.0764 314.52406 1064.6581 310.1058 1064.6581 L 284.77855 1064.6581 C 280.36027 1064.6581 276.77855 1061.0764 276.77855 1056.6581 L 276.77855 1045.6581 C 276.77855 1041.2398 280.36027 1037.6581 284.77855 1037.6581 Z" fill="#4e8f00"/>
        <path d="M 284.77855 1037.6581 L 310.1058 1037.6581 C 314.52406 1037.6581 318.1058 1041.2398 318.1058 1045.6581 L 318.1058 1056.6581 C 318.1058 1061.0764 314.52406 1064.6581 310.1058 1064.6581 L 284.77855 1064.6581 C 280.36027 1064.6581 276.77855 1061.0764 276.77855 1056.6581 L 276.77855 1045.6581 C 276.77855 1041.2398 280.36027 1037.6581 284.77855 1037.6581 Z" stroke="#212121" stroke-linecap="round" stroke-linejoin="round" stroke-width="1"/>
        <text transform="translate(281.77855 1040.1581)" fill="#ebebeb">
          <tspan font-family="Avenir" font-weight="bold" font-size="16" fill="#ebebeb" x="6.19162" y="16">15</tspan>
        </text>
      </g>
      <g id="Graphic_59">
        <path d="M -30.221455 1094.7652 L -4.8942155 1094.7652 C -.4759375 1094.7652 3.1057845 1098.3469 3.1057845 1102.7652 L 3.1057845 1113.7652 C 3.1057845 1118.1834 -.4759375 1121.7652 -4.8942155 1121.7652 L -30.221455 1121.7652 C -34.639733 1121.7652 -38.221455 1118.1834 -38.221455 1113.7652 L -38.221455 1102.7652 C -38.221455 1098.3469 -34.639733 1094.7652 -30.221455 1094.7652 Z" fill="#941100"/>
        <path d="M -30.221455 1094.7652 L -4.8942155 1094.7652 C -.4759375 1094.7652 3.1057845 1098.3469 3.1057845 1102.7652 L 3.1057845 1113.7652 C 3.1057845 1118.1834 -.4759375 1121.7652 -4.8942155 1121.7652 L -30.221455 1121.7652 C -34.639733 1121.7652 -38.221455 1118.1834 -38.221455 1113.7652 L -38.221455 1102.7652 C -38.221455 1098.3469 -34.639733 1094.7652 -30.221455 1094.7652 Z" stroke="#212121" stroke-linecap="round" stroke-linejoin="round" stroke-width="1"/>
        <text transform="translate(-33.221455 1097.2652)" fill="#ebebeb">
          <tspan font-family="Avenir" font-weight="bold" font-size="16" fill="#ebebeb" x="10.92762" y="16">1</tspan>
        </text>
      </g>
      <g id="Graphic_60">
        <path d="M 595.3575 1094.7652 L 620.6847 1094.7652 C 625.103 1094.7652 628.6847 1098.3469 628.6847 1102.7652 L 628.6847 1113.7652 C 628.6847 1118.1834 625.103 1121.7652 620.6847 1121.7652 L 595.3575 1121.7652 C 590.9392 1121.7652 587.3575 1118.1834 587.3575 1113.7652 L 587.3575 1102.7652 C 587.3575 1098.3469 590.9392 1094.7652 595.3575 1094.7652 Z" fill="#941100"/>
        <path d="M 595.3575 1094.7652 L 620.6847 1094.7652 C 625.103 1094.7652 628.6847 1098.3469 628.6847 1102.7652 L 628.6847 1113.7652 C 628.6847 1118.1834 625.103 1121.7652 620.6847 1121.7652 L 595.3575 1121.7652 C 590.9392 1121.7652 587.3575 1118.1834 587.3575 1113.7652 L 587.3575 1102.7652 C 587.3575 1098.3469 590.9392 1094.7652 595.3575 1094.7652 Z" stroke="#212121" stroke-linecap="round" stroke-linejoin="round" stroke-width="1"/>
        <text transform="translate(592.3575 1097.2652)" fill="#ebebeb">
          <tspan font-family="Avenir" font-weight="bold" font-size="16" fill="#ebebeb" x="10.92762" y="16">2</tspan>
        </text>
      </g>
      <g id="Graphic_62">
        <path d="M 336.4513 505.63725 L 569.4513 505.63725 C 573.8696 505.63725 577.4513 509.219 577.4513 513.63725 L 577.4513 524.63725 C 577.4513 529.0555 573.8696 532.63725 569.4513 532.63725 L 336.4513 532.63725 C 332.03303 532.63725 328.4513 529.0555 328.4513 524.63725 L 328.4513 513.63725 C 328.4513 509.219 332.03303 505.63725 336.4513 505.63725 Z" fill="#0064aa"/>
        <path d="M 336.4513 505.63725 L 569.4513 505.63725 C 573.8696 505.63725 577.4513 509.219 577.4513 513.63725 L 577.4513 524.63725 C 577.4513 529.0555 573.8696 532.63725 569.4513 532.63725 L 336.4513 532.63725 C 332.03303 532.63725 328.4513 529.0555 328.4513 524.63725 L 328.4513 513.63725 C 328.4513 509.219 332.03303 505.63725 336.4513 505.63725 Z" stroke="#212121" stroke-linecap="round" stroke-linejoin="round" stroke-width="1"/>
        <text transform="translate(333.4513 508.13725)" fill="#ebebeb">
          <tspan font-family="Avenir" font-size="16" fill="#ebebeb" x="77.244" y="16">onInitialize()</tspan>
        </text>
      </g>
      <g id="Graphic_61">
        <path d="M 284.80696 505.63725 L 310.1342 505.63725 C 314.5525 505.63725 318.1342 509.219 318.1342 513.63725 L 318.1342 524.63725 C 318.1342 529.0555 314.5525 532.63725 310.1342 532.63725 L 284.80696 532.63725 C 280.3887 532.63725 276.80696 529.0555 276.80696 524.63725 L 276.80696 513.63725 C 276.80696 509.219 280.3887 505.63725 284.80696 505.63725 Z" fill="#dead26"/>
        <path d="M 284.80696 505.63725 L 310.1342 505.63725 C 314.5525 505.63725 318.1342 509.219 318.1342 513.63725 L 318.1342 524.63725 C 318.1342 529.0555 314.5525 532.63725 310.1342 532.63725 L 284.80696 532.63725 C 280.3887 532.63725 276.80696 529.0555 276.80696 524.63725 L 276.80696 513.63725 C 276.80696 509.219 280.3887 505.63725 284.80696 505.63725 Z" stroke="#212121" stroke-linecap="round" stroke-linejoin="round" stroke-width="1"/>
        <text transform="translate(281.80696 508.13725)" fill="#ebebeb">
          <tspan font-family="Avenir" font-weight="bold" font-size="16" fill="#ebebeb" x="10.92762" y="16">5</tspan>
        </text>
      </g>
      <g id="Graphic_64">
        <path d="M 27 327.63778 L 260 327.63778 C 264.41828 327.63778 268 331.2195 268 335.63778 L 268 346.63778 C 268 351.05605 264.41828 354.63778 260 354.63778 L 27 354.63778 C 22.581722 354.63778 19 351.05605 19 346.63778 L 19 335.63778 C 19 331.2195 22.581722 327.63778 27 327.63778 Z" fill="#4e8f00"/>
        <path d="M 27 327.63778 L 260 327.63778 C 264.41828 327.63778 268 331.2195 268 335.63778 L 268 346.63778 C 268 351.05605 264.41828 354.63778 260 354.63778 L 27 354.63778 C 22.581722 354.63778 19 351.05605 19 346.63778 L 19 335.63778 C 19 331.2195 22.581722 327.63778 27 327.63778 Z" stroke="#212121" stroke-linecap="round" stroke-linejoin="round" stroke-width="1"/>
        <text transform="translate(24 330.13778)" fill="#ebebeb">
          <tspan font-family="Avenir" font-size="16" fill="#ebebeb" x="56.916" y="16">CONSTRUCTING</tspan>
        </text>
      </g>
      <g id="Graphic_63">
        <path d="M -30 327.63778 L -4.6727605 327.63778 C -.2544825 327.63778 3.3272395 331.2195 3.3272395 335.63778 L 3.3272395 346.63778 C 3.3272395 351.05605 -.2544825 354.63778 -4.6727605 354.63778 L -30 354.63778 C -34.41828 354.63778 -38 351.05605 -38 346.63778 L -38 335.63778 C -38 331.2195 -34.41828 327.63778 -30 327.63778 Z" fill="#941100"/>
        <path d="M -30 327.63778 L -4.6727605 327.63778 C -.2544825 327.63778 3.3272395 331.2195 3.3272395 335.63778 L 3.3272395 346.63778 C 3.3272395 351.05605 -.2544825 354.63778 -4.6727605 354.63778 L -30 354.63778 C -34.41828 354.63778 -38 351.05605 -38 346.63778 L -38 335.63778 C -38 331.2195 -34.41828 327.63778 -30 327.63778 Z" stroke="#212121" stroke-linecap="round" stroke-linejoin="round" stroke-width="1"/>
        <text transform="translate(-33 330.13778)" fill="#ebebeb">
          <tspan font-family="Avenir" font-weight="bold" font-size="16" fill="#ebebeb" x="10.92762" y="16">2</tspan>
        </text>
      </g>
      <g id="Graphic_66">
        <path d="M 336.4513 655.9555 L 569.4513 655.9555 C 573.8696 655.9555 577.4513 659.5372 577.4513 663.9555 L 577.4513 674.9555 C 577.4513 679.3738 573.8696 682.9555 569.4513 682.9555 L 336.4513 682.9555 C 332.03303 682.9555 328.4513 679.3738 328.4513 674.9555 L 328.4513 663.9555 C 328.4513 659.5372 332.03303 655.9555 336.4513 655.9555 Z" fill="#0064aa"/>
        <path d="M 336.4513 655.9555 L 569.4513 655.9555 C 573.8696 655.9555 577.4513 659.5372 577.4513 663.9555 L 577.4513 674.9555 C 577.4513 679.3738 573.8696 682.9555 569.4513 682.9555 L 336.4513 682.9555 C 332.03303 682.9555 328.4513 679.3738 328.4513 674.9555 L 328.4513 663.9555 C 328.4513 659.5372 332.03303 655.9555 336.4513 655.9555 Z" stroke="#212121" stroke-linecap="round" stroke-linejoin="round" stroke-width="1"/>
        <text transform="translate(333.4513 658.4555)" fill="#ebebeb">
          <tspan font-family="Avenir" font-size="16" fill="#ebebeb" x="76.516" y="16">onInitialized</tspan>
        </text>
      </g>
      <g id="Graphic_65">
        <path d="M 285.30547 655.9555 L 310.6327 655.9555 C 315.051 655.9555 318.6327 659.5372 318.6327 663.9555 L 318.6327 674.9555 C 318.6327 679.3738 315.051 682.9555 310.6327 682.9555 L 285.30547 682.9555 C 280.8872 682.9555 277.30547 679.3738 277.30547 674.9555 L 277.30547 663.9555 C 277.30547 659.5372 280.8872 655.9555 285.30547 655.9555 Z" fill="#dead26"/>
        <path d="M 285.30547 655.9555 L 310.6327 655.9555 C 315.051 655.9555 318.6327 659.5372 318.6327 663.9555 L 318.6327 674.9555 C 318.6327 679.3738 315.051 682.9555 310.6327 682.9555 L 285.30547 682.9555 C 280.8872 682.9555 277.30547 679.3738 277.30547 674.9555 L 277.30547 663.9555 C 277.30547 659.5372 280.8872 655.9555 285.30547 655.9555 Z" stroke="#212121" stroke-linecap="round" stroke-linejoin="round" stroke-width="1"/>
        <text transform="translate(282.30547 658.4555)" fill="#ebebeb">
          <tspan font-family="Avenir" font-weight="bold" font-size="16" fill="#ebebeb" x="6.19162" y="16">10</tspan>
        </text>
      </g>
      <g id="Graphic_67">
        <path d="M 646.0672 1094.5216 L 879.0672 1094.5216 C 883.4855 1094.5216 887.0672 1098.1033 887.0672 1102.5216 L 887.0672 1113.5216 C 887.0672 1117.9398 883.4855 1121.5216 879.0672 1121.5216 L 646.0672 1121.5216 C 641.64895 1121.5216 638.0672 1117.9398 638.0672 1113.5216 L 638.0672 1102.5216 C 638.0672 1098.1033 641.64895 1094.5216 646.0672 1094.5216 Z" fill="#ca7400"/>
        <path d="M 646.0672 1094.5216 L 879.0672 1094.5216 C 883.4855 1094.5216 887.0672 1098.1033 887.0672 1102.5216 L 887.0672 1113.5216 C 887.0672 1117.9398 883.4855 1121.5216 879.0672 1121.5216 L 646.0672 1121.5216 C 641.64895 1121.5216 638.0672 1117.9398 638.0672 1113.5216 L 638.0672 1102.5216 C 638.0672 1098.1033 641.64895 1094.5216 646.0672 1094.5216 Z" stroke="#212121" stroke-linecap="round" stroke-linejoin="round" stroke-width="1"/>
        <text transform="translate(643.0672 1097.0216)" fill="#ebebeb">
          <tspan font-family="Avenir" font-size="16" fill="#ebebeb" x="59.812" y="16">Application Exits</tspan>
        </text>
      </g>
      <g id="Graphic_68">
        <path d="M 284.80696 795.0987 L 310.1342 795.0987 C 314.5525 795.0987 318.1342 798.6804 318.1342 803.0987 L 318.1342 814.0987 C 318.1342 818.517 314.5525 822.0987 310.1342 822.0987 L 284.80696 822.0987 C 280.3887 822.0987 276.80696 818.517 276.80696 814.0987 L 276.80696 803.0987 C 276.80696 798.6804 280.3887 795.0987 284.80696 795.0987 Z" fill="#4e8f00"/>
        <path d="M 284.80696 795.0987 L 310.1342 795.0987 C 314.5525 795.0987 318.1342 798.6804 318.1342 803.0987 L 318.1342 814.0987 C 318.1342 818.517 314.5525 822.0987 310.1342 822.0987 L 284.80696 822.0987 C 280.3887 822.0987 276.80696 818.517 276.80696 814.0987 L 276.80696 803.0987 C 276.80696 798.6804 280.3887 795.0987 284.80696 795.0987 Z" stroke="#212121" stroke-linecap="round" stroke-linejoin="round" stroke-width="1"/>
        <text transform="translate(281.80696 797.5987)" fill="#ebebeb">
          <tspan font-family="Avenir" font-weight="bold" font-size="16" fill="#ebebeb" x="10.92762" y="16">5</tspan>
        </text>
      </g>
      <g id="Graphic_70">
        <path d="M 336.4513 427.77664 L 569.4513 427.77664 C 573.8696 427.77664 577.4513 431.35836 577.4513 435.77664 L 577.4513 446.77664 C 577.4513 451.1949 573.8696 454.77664 569.4513 454.77664 L 336.4513 454.77664 C 332.03303 454.77664 328.4513 451.1949 328.4513 446.77664 L 328.4513 435.77664 C 328.4513 431.35836 332.03303 427.77664 336.4513 427.77664 Z" fill="#0064aa"/>
        <path d="M 336.4513 427.77664 L 569.4513 427.77664 C 573.8696 427.77664 577.4513 431.35836 577.4513 435.77664 L 577.4513 446.77664 C 577.4513 451.1949 573.8696 454.77664 569.4513 454.77664 L 336.4513 454.77664 C 332.03303 454.77664 328.4513 451.1949 328.4513 446.77664 L 328.4513 435.77664 C 328.4513 431.35836 332.03303 427.77664 336.4513 427.77664 Z" stroke="#212121" stroke-linecap="round" stroke-linejoin="round" stroke-width="1"/>
        <text transform="translate(333.4513 430.27664)" fill="#ebebeb">
          <tspan font-family="Avenir" font-size="16" fill="#ebebeb" x="70.436" y="16">onInitializing()</tspan>
        </text>
      </g>
      <g id="Graphic_69">
        <path d="M 284.80696 428.3581 L 310.1342 428.3581 C 314.5525 428.3581 318.1342 431.93984 318.1342 436.3581 L 318.1342 447.3581 C 318.1342 451.7764 314.5525 455.3581 310.1342 455.3581 L 284.80696 455.3581 C 280.3887 455.3581 276.80696 451.7764 276.80696 447.3581 L 276.80696 436.3581 C 276.80696 431.93984 280.3887 428.3581 284.80696 428.3581 Z" fill="#dead26"/>
        <path d="M 284.80696 428.3581 L 310.1342 428.3581 C 314.5525 428.3581 318.1342 431.93984 318.1342 436.3581 L 318.1342 447.3581 C 318.1342 451.7764 314.5525 455.3581 310.1342 455.3581 L 284.80696 455.3581 C 280.3887 455.3581 276.80696 451.7764 276.80696 447.3581 L 276.80696 436.3581 C 276.80696 431.93984 280.3887 428.3581 284.80696 428.3581 Z" stroke="#212121" stroke-linecap="round" stroke-linejoin="round" stroke-width="1"/>
        <text transform="translate(281.80696 430.8581)" fill="#ebebeb">
          <tspan font-family="Avenir" font-weight="bold" font-size="16" fill="#ebebeb" x="10.92762" y="16">2</tspan>
        </text>
      </g>
      <g id="Graphic_71">
        <path d="M 284.77855 914.9873 L 310.1058 914.9873 C 314.52406 914.9873 318.1058 918.569 318.1058 922.9873 L 318.1058 933.9873 C 318.1058 938.4056 314.52406 941.9873 310.1058 941.9873 L 284.77855 941.9873 C 280.36027 941.9873 276.77855 938.4056 276.77855 933.9873 L 276.77855 922.9873 C 276.77855 918.569 280.36027 914.9873 284.77855 914.9873 Z" fill="#4e8f00"/>
        <path d="M 284.77855 914.9873 L 310.1058 914.9873 C 314.52406 914.9873 318.1058 918.569 318.1058 922.9873 L 318.1058 933.9873 C 318.1058 938.4056 314.52406 941.9873 310.1058 941.9873 L 284.77855 941.9873 C 280.36027 941.9873 276.77855 938.4056 276.77855 933.9873 L 276.77855 922.9873 C 276.77855 918.569 280.36027 914.9873 284.77855 914.9873 Z" stroke="#212121" stroke-linecap="round" stroke-linejoin="round" stroke-width="1"/>
        <text transform="translate(281.77855 917.4873)" fill="#ebebeb">
          <tspan font-family="Avenir" font-weight="bold" font-size="16" fill="#ebebeb" x="6.19162" y="16">11</tspan>
        </text>
      </g>
      <g id="Line_76">
        <line x1="-38.221455" y1="408.4112" x2="887.0672" y2="410.30374" stroke="#797979" stroke-linecap="round" stroke-linejoin="round" stroke-dasharray="4.0,4.0" stroke-width="1"/>
      </g>
      <g id="Line_77">
        <line x1="-35.231593" y1="696.3605" x2="890.0571" y2="698.253" stroke="#797979" stroke-linecap="round" stroke-linejoin="round" stroke-dasharray="4.0,4.0" stroke-width="1"/>
      </g>
      <g id="Line_78">
        <line x1="-38.221455" y1="1078.6436" x2="887.0672" y2="1080.5361" stroke="#797979" stroke-linecap="round" stroke-linejoin="round" stroke-dasharray="4.0,4.0" stroke-width="1"/>
      </g>
      <g id="Graphic_82">
        <path d="M 22.5 914.9873 L 255.5 914.9873 C 259.91828 914.9873 263.5 918.569 263.5 922.9873 L 263.5 933.9873 C 263.5 938.4056 259.91828 941.9873 255.5 941.9873 L 22.5 941.9873 C 18.081722 941.9873 14.5 938.4056 14.5 933.9873 L 14.5 922.9873 C 14.5 918.569 18.081722 914.9873 22.5 914.9873 Z" fill="#4e8f00"/>
        <path d="M 22.5 914.9873 L 255.5 914.9873 C 259.91828 914.9873 263.5 918.569 263.5 922.9873 L 263.5 933.9873 C 263.5 938.4056 259.91828 941.9873 255.5 941.9873 L 22.5 941.9873 C 18.081722 941.9873 14.5 938.4056 14.5 933.9873 L 14.5 922.9873 C 14.5 918.569 18.081722 914.9873 22.5 914.9873 Z" stroke="#212121" stroke-linecap="round" stroke-linejoin="round" stroke-width="1"/>
        <text transform="translate(19.5 917.4873)" fill="#ebebeb">
          <tspan font-family="Avenir" font-size="16" fill="#ebebeb" x="94.004" y="16">READY</tspan>
        </text>
      </g>
      <g id="Graphic_81">
        <path d="M -34.5 914.9873 L -9.17276 914.9873 C -4.7544825 914.9873 -1.1727605 918.569 -1.1727605 922.9873 L -1.1727605 933.9873 C -1.1727605 938.4056 -4.7544825 941.9873 -9.17276 941.9873 L -34.5 941.9873 C -38.91828 941.9873 -42.5 938.4056 -42.5 933.9873 L -42.5 922.9873 C -42.5 918.569 -38.91828 914.9873 -34.5 914.9873 Z" fill="#4e8f00"/>
        <path d="M -34.5 914.9873 L -9.17276 914.9873 C -4.7544825 914.9873 -1.1727605 918.569 -1.1727605 922.9873 L -1.1727605 933.9873 C -1.1727605 938.4056 -4.7544825 941.9873 -9.17276 941.9873 L -34.5 941.9873 C -38.91828 941.9873 -42.5 938.4056 -42.5 933.9873 L -42.5 922.9873 C -42.5 918.569 -38.91828 914.9873 -34.5 914.9873 Z" stroke="#212121" stroke-linecap="round" stroke-linejoin="round" stroke-width="1"/>
        <text transform="translate(-37.5 917.4873)" fill="#ebebeb">
          <tspan font-family="Avenir" font-weight="bold" font-size="16" fill="#ebebeb" x="6.19162" y="16">10</tspan>
        </text>
      </g>
      <g id="Graphic_84">
        <path d="M 337.40863 580.7964 L 570.4086 580.7964 C 574.8269 580.7964 578.4086 584.3781 578.4086 588.7964 L 578.4086 599.7964 C 578.4086 604.21465 574.8269 607.7964 570.4086 607.7964 L 337.40863 607.7964 C 332.99035 607.7964 329.40863 604.21465 329.40863 599.7964 L 329.40863 588.7964 C 329.40863 584.3781 332.99035 580.7964 337.40863 580.7964 Z" fill="#0064aa"/>
        <path d="M 337.40863 580.7964 L 570.4086 580.7964 C 574.8269 580.7964 578.4086 584.3781 578.4086 588.7964 L 578.4086 599.7964 C 578.4086 604.21465 574.8269 607.7964 570.4086 607.7964 L 337.40863 607.7964 C 332.99035 607.7964 329.40863 604.21465 329.40863 599.7964 L 329.40863 588.7964 C 329.40863 584.3781 332.99035 580.7964 337.40863 580.7964 Z" stroke="#212121" stroke-linecap="round" stroke-linejoin="round" stroke-width="1"/>
        <text transform="translate(334.40863 583.2964)" fill="#ebebeb">
          <tspan font-family="Avenir" font-size="16" fill="#ebebeb" x="49.108" y="16">onProjectsInitialize()</tspan>
        </text>
      </g>
      <g id="Graphic_83">
        <path d="M 284.80696 580.7964 L 310.1342 580.7964 C 314.5525 580.7964 318.1342 584.3781 318.1342 588.7964 L 318.1342 599.7964 C 318.1342 604.21465 314.5525 607.7964 310.1342 607.7964 L 284.80696 607.7964 C 280.3887 607.7964 276.80696 604.21465 276.80696 599.7964 L 276.80696 588.7964 C 276.80696 584.3781 280.3887 580.7964 284.80696 580.7964 Z" fill="#dead26"/>
        <path d="M 284.80696 580.7964 L 310.1342 580.7964 C 314.5525 580.7964 318.1342 584.3781 318.1342 588.7964 L 318.1342 599.7964 C 318.1342 604.21465 314.5525 607.7964 310.1342 607.7964 L 284.80696 607.7964 C 280.3887 607.7964 276.80696 604.21465 276.80696 599.7964 L 276.80696 588.7964 C 276.80696 584.3781 280.3887 580.7964 284.80696 580.7964 Z" stroke="#212121" stroke-linecap="round" stroke-linejoin="round" stroke-width="1"/>
        <text transform="translate(281.80696 583.2964)" fill="#ebebeb">
          <tspan font-family="Avenir" font-weight="bold" font-size="16" fill="#ebebeb" x="10.92762" y="16">7</tspan>
        </text>
      </g>
    </g>
  </g>
</svg>
