<?xml version="1.0" encoding="UTF-8" standalone="no"?><svg xmlns="http://www.w3.org/2000/svg" xmlns:xlink="http://www.w3.org/1999/xlink" contentScriptType="application/ecmascript" contentStyleType="text/css" height="108.3333px" preserveAspectRatio="none" style="width:378px;height:108px;background:#333333;" version="1.1" viewBox="0 0 378 108" width="378.125px" zoomAndPan="magnify"><defs/><g><rect fill="#48494B" height="41.2028" rx="8.3333" ry="8.3333" style="stroke:#545454;stroke-width:1.0416666666666667;" width="365.625" x="2.0833" y="2.0833"/><text fill="#C0C0C0" font-family="Open Sans,Avenir,Nunito,Arial,Helvetica,SansSerif" font-size="20.8333" lengthAdjust="spacing" textLength="342.7083" x="13.5417" y="30.5583">com.telenav.third.party.zookeeper</text><rect codeLine="7" fill="#282828" height="48.055" id="Unused" rx="8.3333" ry="8.3333" style="stroke:#5E5E5E;stroke-width:1.0416666666666667;" width="86.4583" x="142.1875" y="53.7028"/><rect fill="#1B1B1A" height="31.3883" rx="8.3333" ry="8.3333" style="stroke:#1B1B1A;stroke-width:1.0416666666666667;" width="86.4583" x="142.1875" y="53.7028"/><rect fill="#1B1B1A" height="8.3333" style="stroke:#1B1B1A;stroke-width:1.0416666666666667;" width="86.4583" x="142.1875" y="76.7578"/><rect codeLine="7" fill="none" height="48.055" id="Unused" rx="8.3333" ry="8.3333" style="stroke:#5E5E5E;stroke-width:1.0416666666666667;" width="86.4583" x="142.1875" y="53.7028"/><ellipse cx="156.7708" cy="69.397" fill="#0066CF" rx="10.4167" ry="10.4167" style="stroke:#0086EF;stroke-width:1.0416666666666667;"/><path d="M158.6812,73.822 Q158.254,74.0417 157.784,74.1516 Q157.314,74.2615 156.7952,74.2615 Q154.952,74.2615 153.9815,73.0469 Q153.0111,71.8323 153.0111,69.5374 Q153.0111,67.2363 153.9815,66.0217 Q154.952,64.8071 156.7952,64.8071 Q157.314,64.8071 157.7901,64.917 Q158.2662,65.0269 158.6812,65.2466 L158.6812,67.2485 Q158.2174,66.8213 157.781,66.6229 Q157.3446,66.4246 156.8807,66.4246 Q155.8919,66.4246 155.3884,67.2089 Q154.8848,67.9932 154.8848,69.5374 Q154.8848,71.0754 155.3884,71.8597 Q155.8919,72.644 156.8807,72.644 Q157.3446,72.644 157.781,72.4457 Q158.2174,72.2473 158.6812,71.8201 Z " fill="#000000"/><text fill="#D8BC00" font-family="Open Sans,Avenir,Nunito,Arial,Helvetica,SansSerif" font-size="12.5" font-weight="bold" lengthAdjust="spacing" textLength="48.9583" x="173.4375" y="74.1211">Unused</text><line style="stroke:#5E5E5E;stroke-width:1.0416666666666667;" x1="143.2292" x2="227.6042" y1="85.0911" y2="85.0911"/><line style="stroke:#5E5E5E;stroke-width:1.0416666666666667;" x1="143.2292" x2="227.6042" y1="93.4245" y2="93.4245"/></g></svg>
