<?xml version="1.0" encoding="utf-8"?>
<svg overflow="visible" version="1.1" enable-background="new 0 0 223.17236 207.59424" viewBox="0 0 223.17236 207.59424" xmlns="http://www.w3.org/2000/svg">
  <path d="M 120.11 0 L 207.578 26.181 C 207.578 26.181 211.642 136.381 207.081 180.161 C 171.545 169.312 110.027 144.331 110.027 144.331 C 110.027 144.331 15.814 190.961 7.857 184.121 C -0.099 177.282 2.611 17.831 2.611 17.831 L 120.111 0.001 Z" style="fill: rgba(0, 176, 251, 0.95);"/>
  <path d="M 221.04 115.27 C 224.95 116.99 222.58 117.22 221.04 115.27 Z" fill="#65F3FA"/>
  <path d="M 205.84 178.85 C 205.84 178.83 205.83 178.83 205.84 178.85" fill="#65F3FA"/>
  <line y2="207.09" x2="140.17" stroke="#65F3FA" y1="207.09" x1="140.17" fill="none"/>
  <path d="M 123.85 35.543 C 122.349 81.543 120.964 103.4 118.395 147.343" fill="none"/>
  <path d="M 118.85 35.543 C 117.625 72.843 115.575 110.085 113.395 147.343 C 113.23 150.167 114.337 157.343 118.395 157.343 C 122.676 157.343 123.229 150.175 123.395 147.343 C 125.575 110.088 127.625 72.847 128.85 35.543 C 128.943 32.714 127.956 25.543 123.85 25.543 C 119.61 25.546 118.94 32.712 118.85 35.546 Z" fill="#3EC3F7"/>
  <path opacity=".65" d="M 120.72 0.182 C 135.432 5.222 209.703 20.19 209.317 26.141 C 209.045 30.301 125.574 45.336 119.864 43.523 C 84.805 32.391 37.307 19.715 -0.006 19.741 L 120.714 0.182 Z" style="fill: rgba(66, 148, 247, 0.97);"/>
  <path d="M 112.19 142.85 C 112.19 142.85 207.087 173.481 207.087 180.165 C 207.087 186.849 118.936 206.711 118.936 206.711 C 118.936 206.711 32.058 192.661 9.296 182.751 C -13.457 172.851 112.186 142.851 112.186 142.851 Z" style="fill: rgba(66, 148, 247, 0.91);"/>
  <path clip-rule="evenodd" d="M 205.64 28.137 C 196.377 31.013 124.089 41.702 123.801 46.822 C 122.247 74.453 121.211 102.139 121.055 129.813 C 120.966 145.602 120.94 161.539 122.636 177.261 C 122.742 178.242 126.632 200.918 131.096 193.073 C 137.222 182.303 129.226 159.63 127.384 148.349 C 125.008 133.775 129.398 120.54 134.602 106.738 C 142.934 84.641 162.293 98.428 161.38 117.956 C 160.729 131.86 151.609 149.843 148.815 163.998 C 146.963 173.382 144.538 189.072 151.554 197.362 C 157.78 204.718 187.001 186.821 192.912 183.676 C 218.916 169.845 210.948 143.735 210.798 117.471 C 210.694 99.052 210.41 80.625 209.593 62.223 C 209.263 54.928 211.463 34.036 205.633 28.148" fill-rule="evenodd" opacity=".4" style="fill: rgb(66, 148, 247);"/>
  <path clip-rule="evenodd" d="M 87.514 13.689 C 115.84 21.819 134.897 47.109 165.265 33.046 C 152.885 22.249 111.515 10.197 87.519 13.689 Z" fill-rule="evenodd" fill="#CAFCFC" opacity=".4"/>
  <path d="M 87.514 13.689 C 115.84 21.819 134.897 47.109 165.265 33.046 C 152.885 22.249 111.515 10.197 87.519 13.689 Z" fill="none" opacity=".4"/>
  <path d="M 146.7 47.477 C 146.715 47.073 146.435 46.671 146.884 46.481 C 148.268 46.064 149.447 47.462 150.854 46.935 L 150.908 46.276 C 152.01 46.474 153.185 46.739 154.384 46.847 C 156.509 46.464 158.562 45.849 160.502 45.08 C 160.386 44.865 160.305 44.661 160.477 44.52 C 161.244 44.109 162.466 44.037 163.617 43.669 L 164.083 43.383 C 164.165 43.204 164.121 42.976 164.094 42.836 C 164.611 42.675 165.087 42.57 165.534 42.482 L 167.355 41.18 L 168.252 40.519 L 168.474 40.353 L 168.586 40.27 L 168.599 40.26 L 168.602 40.257 C 169.443 34.37 166.727 53.432 170.487 27.057 L 170.478 27.053 L 170.444 27.036 L 170.375 27.002 L 169.821 26.731 C 168.35 26.059 166.854 25.235 165.428 24.84 C 162.544 23.814 159.687 23.16 156.77 22.556 C 155.407 22.588 154.067 22.634 152.912 22.404 C 151.259 21.952 149.414 20.777 147.907 20.073 C 147.3 22.291 143.209 22.026 143.165 24.486 C 142.19 24.084 140.725 23.465 140.436 24.067 C 139.577 25.845 138.086 27.738 135.168 28.041 C 134.092 27.965 132.757 26.739 132.283 27.02 C 131.546 27.464 133.214 28.715 132.472 29.158 C 139.674 32.007 147.042 33.859 153.341 37.259 C 154.057 37.3 155.328 37.849 156.96 38.655 C 157.411 38.854 157.662 39.08 158.052 39.307 L 158.61 39.658 L 158.898 39.838 L 159.045 39.929 L 159.118 39.975 L 159.155 39.998 L 159.173 40.009 L 159.183 40.015 L 159.188 40.018 C 158.714 43.36 163.336 10.922 161.376 24.655 C 160.382 25.121 159.336 25.723 158.253 26.112 C 153.938 27.995 149.292 28.351 147.419 28.085 L 147.078 28.122 C 145.027 27.978 142.543 27.831 140.527 28.29 C 139.576 28.64 138.542 29.08 137.476 29.425 L 138.329 30.841 C 137.409 30.528 136.498 30.238 136.016 30.519 C 133.723 30.806 134.453 32.258 134.823 34.031 C 135.222 34.875 134.086 35.643 134.856 36.588 C 134.157 36.368 133.825 36.212 133.136 35.96 C 132.853 36.567 135.38 36.328 134.59 37.191 C 133.975 36.762 133.109 36.875 132.41 36.62 C 132.371 37.544 134.758 37.735 134.414 38.513 C 133.938 38.616 132.754 36.744 132.277 37.737 C 132.18 37.935 132.89 38.202 133.246 38.336 C 130.937 37.948 129.329 38.44 131.007 40.294 C 130.277 40.03 129.447 39.203 128.64 39.071 L 128.639 39.089 C 129.001 39.262 129.57 39.714 129.914 39.857 L 128.65 39.326 L 128.713 39.834 C 128.988 40.079 129.275 40.299 129.606 40.44 L 128.759 40.084 C 128.849 40.496 128.98 40.908 129.145 41.311 C 129.923 42.368 130.673 43.658 131.253 43.884 C 135.863 45.926 141.203 47.295 146.693 47.473 Z" fill="#D6EEF4" opacity=".4"/>
  <path opacity=".5" clip-rule="evenodd" d="M 14.768 170.57 C 12.078 138.431 11.776 100.685 13.862 57.34 C 34.488 13.459 34.79 51.206 14.768 170.57 Z" fill-rule="evenodd" fill="#D8FCFD"/>
  <path clip-rule="evenodd" d="M 122.46 46.85 C 117.438 31.206 30.699 21.91 14.35 21.161 C 5.652 20.764 6.954 118.949 6.977 127.971 C 7.02 144.766 6.754 161.832 8.685 178.555 C 10.573 194.91 38.169 192.752 51.862 194.901 C 58.111 195.883 101.977 207.495 94.437 192.864 C 86.354 177.178 77.897 180.512 62.509 181.557 C 58.727 181.813 34.441 173.444 34.58 170.592 C 34.624 169.678 50.142 163.035 51.617 161.83 C 59.968 155.006 60.347 145.836 59.299 136.283 C 57.126 116.469 62.287 80.068 67.381 65.075 C 71.595 52.671 85.801 97.874 85.801 97.874 C 85.801 97.874 75.565 126.561 81.365 145.614 C 83.296 151.952 87.772 179.964 99.197 177.901 C 114.074 175.216 115.272 160.864 116.24 150.118 C 117.968 130.919 119.548 111.704 120.901 92.479 C 121.831 79.228 126.641 59.898 122.461 46.858" fill-rule="evenodd" opacity=".65" style="fill: rgb(68, 152, 255);"/>
  <path d="M 100.77 47.061 C 106.8 68.745 112.83 128.379 98.762 160.131" fill="none" opacity=".45"/>
  <path d="M 95.317 75.173 C 95.72 75.14 96.079 74.73 96.33 75.276 C 96.937 77.02 95.721 78.598 96.26 80.349 L 96.921 80.417 C 96.771 81.832 96.542 83.307 96.37 84.803 C 96.631 87.513 96.985 90.207 97.349 92.892 C 97.585 92.81 97.802 92.765 97.9 93.031 C 98.116 94.146 97.945 95.713 97.937 97.328 L 98.077 98.035 C 98.225 98.214 98.456 98.255 98.598 98.28 C 98.6 99.01 98.572 99.663 98.51 100.264 C 99.938 108.157 101.296 116.257 102.046 125.153 C 102.455 127.052 102.862 128.976 102.949 130.806 C 102.879 133.489 101.889 136.782 101.429 139.325 C 103.789 139.31 103.546 145.854 106.086 145.124 C 105.721 146.89 104.91 149.487 105.478 149.792 C 107.188 150.714 109.168 152.675 108.583 157.987 C 108.107 160.018 106.204 162.649 106.305 163.474 C 106.458 164.784 108.547 161.53 108.708 162.831 C 115.285 148.37 116.182 134.136 117.098 119.819 C 116.96 114.762 115.77 82.272 114.692 73.962 L 114.575 73.21 C 114.202 68.657 113.262 63.156 111.73 59.461 C 110.872 57.788 109.97 56.13 108.958 54.476 C 108.765 55.375 108.536 56.205 108.272 56.928 C 108.02 55.132 107.647 53.322 107.112 52.722 C 105.357 49.125 104.686 51.561 103.445 53.31 C 102.984 54.476 101.668 53.316 101.312 55.046 C 101.106 53.898 101.004 53.322 100.8 52.167 C 100.134 52.176 101.857 55.623 100.646 55.046 C 100.655 53.901 100.033 52.747 99.799 51.617 C 99.048 52.195 100.296 55.62 99.415 55.616 C 99.091 55.056 99.918 52.186 98.809 52.206 C 98.591 52.21 98.79 53.346 98.891 53.913 C 97.831 50.498 96.286 49.007 95.919 52.295 C 95.688 51.244 95.763 49.643 95.342 48.568 L 95.327 48.581 C 95.431 49.146 95.451 50.159 95.564 50.672 L 95.15 48.77 L 94.794 49.219 C 94.781 49.722 94.794 50.217 94.9 50.708 L 94.627 49.454 L 93.907 50.767 C 93.598 52.403 92.941 54.002 93.065 54.839 C 93.956 61.441 94.637 68.325 95.313 75.153 Z" fill="#DDFCFD" opacity=".45"/>
</svg>