<?xml version="1.0" encoding="utf-8"?>
<svg viewBox="0 0 500 500" xmlns="http://www.w3.org/2000/svg" xmlns:bx="https://boxy-svg.com">
  <rect x="11.437" y="182.433" width="325.617" height="305.471" style="fill: rgb(66, 148, 247); stroke: rgb(216, 188, 0); stroke-width: 17px;" rx="21.892" ry="21.892"/>
  <path style="fill: rgba(216, 216, 216, 0); stroke: rgb(216, 188, 0); stroke-width: 48px;" d="M 66.848 174.5 C 66.848 155.447 66.488 137.71 66.925 123.261 C 67.938 89.736 85.456 61.01 119.671 59.484 C 136.075 58.752 165.737 58.993 177.329 58.993 C 190.998 58.993 208.248 59.373 225.926 59.373 C 265.866 59.373 286.853 93.723 286.853 119.341 C 286.853 138.636 286.869 155.234 286.869 174.458"/>
  <path style="fill: rgba(216, 216, 216, 0); stroke: rgb(66, 148, 247); stroke-width: 25px;" d="M 66.577 174.256 C 66.577 155.203 66.217 137.466 66.654 123.017 C 67.667 89.492 85.185 60.766 119.4 59.24 C 135.804 58.508 165.466 58.749 177.058 58.749 C 190.727 58.749 207.977 59.129 225.655 59.129 C 265.595 59.129 286.582 93.479 286.582 119.097 C 286.582 138.392 286.598 154.99 286.598 174.214"/>
  <line style="stroke: rgb(216, 188, 0); stroke-width: 16px;" x1="65.226" y1="280.335" x2="285.506" y2="280.335"/>
  <line style="stroke: rgb(216, 188, 0); stroke-width: 16px;" x1="64.631" y1="327.489" x2="284.911" y2="327.489" bx:origin="0.424 0"/>
  <line style="stroke: rgb(216, 188, 0); stroke-width: 16px;" x1="65.295" y1="376.323" x2="285.576" y2="376.323"/>
</svg>