<?xml version="1.0" encoding="utf-8"?>
<svg viewBox="0 0 500 500" xmlns="http://www.w3.org/2000/svg">
  <path style="fill: rgb(66, 148, 247); stroke: rgb(216, 188, 0); stroke-width: 16px;" d="M 113.308 492.412 L 197.548 492.961 L 168.39 435.488 L 154.62 423.967 L 138.47 435.968 L 113.308 492.412 Z" transform="matrix(-0.864955, -0.50185, 0.50185, -0.864955, 59.786093, 933.016143)"/>
  <path style="fill: rgb(66, 148, 247); stroke: rgba(0, 0, 0, 0);" d="M 334.357 35.905 L 333.989 81.224 L 340.166 88.982 L 345.161 92.971 L 418.907 93.063 L 425.889 89.624 L 432.388 84.437 L 434.044 35.922 L 334.357 35.905 Z" transform="matrix(-0.878792, -0.477206, 0.477206, -0.878792, 690.714851, 304.406893)"/>
  <path style="fill: rgb(216, 216, 216); stroke: rgb(0, 0, 0);" d="M 274.006 252.041" transform="matrix(-0.864955, -0.50185, 0.50185, -0.864955, 384.522073, 607.554939)"/>
  <rect x="54.982" y="472.733" width="383.317" height="101.738" style="stroke: rgb(216, 188, 0); stroke-width: 14px; fill: rgb(66, 148, 247);" transform="matrix(-0.50185, 0.864955, -0.864955, -0.50185, 851.648376, 301.264343)" rx="2.863" ry="2.863"/>
</svg>