<?xml version="1.0" encoding="utf-8"?>
<svg viewBox="0 0 500 500" xmlns="http://www.w3.org/2000/svg" xmlns:bx="https://boxy-svg.com">
  <path style="fill: rgb(66, 148, 247); stroke: rgb(216, 188, 0); stroke-width: 16px;" d="M 23.211 265.819 H 557.892 A 8 8 0 0 1 565.892 273.819 V 389.048 H 15.211 V 273.819 A 8 8 0 0 1 23.211 265.819 Z" transform="matrix(0.701905, -0.712271, 0.712271, 0.701905, -192.829483, 223.672516)" bx:shape="rect 15.211 265.819 550.681 123.229 8 8 0 0 1@d0870634"/>
  <line style="stroke: rgb(216, 188, 0); stroke-width: 16px;" x1="163.458" y1="318.619" x2="163.458" y2="399.904" transform="matrix(0.701905, -0.712271, 0.712271, 0.701905, -207.165409, 223.520458)"/>
  <line style="stroke: rgb(216, 188, 0); stroke-width: 16px;" x1="262.16" y1="220.634" x2="262.16" y2="301.919" transform="matrix(0.701905, -0.712271, 0.712271, 0.701905, -107.950979, 264.614162)"/>
  <line style="stroke: rgb(216, 188, 0); stroke-width: 16px;" x1="359.58" y1="122.645" x2="359.58" y2="203.929" transform="matrix(0.701905, -0.712271, 0.712271, 0.701905, -9.115495, 304.793367)"/>
  <line style="stroke: rgb(216, 188, 0); stroke-width: 8px;" x1="105.051" y1="421.473" x2="105.051" y2="468.489" transform="matrix(0.701905, -0.712271, 0.712271, 0.701905, -285.631751, 207.471441)"/>
  <line style="stroke: rgb(216, 188, 0); stroke-width: 8px;" x1="128.27" y1="397.218" x2="128.27" y2="444.234" transform="matrix(0.701905, -0.712271, 0.712271, 0.701905, -261.434149, 216.779356)"/>
  <line style="stroke: rgb(216, 188, 0); stroke-width: 8px;" x1="151.633" y1="373.189" x2="151.633" y2="420.204" transform="matrix(0.701905, -0.712271, 0.712271, 0.701905, -237.354248, 226.257055)"/>
  <line style="stroke: rgb(216, 188, 0); stroke-width: 8px;" x1="200.109" y1="324.264" x2="200.109" y2="371.279" transform="matrix(0.701905, -0.712271, 0.712271, 0.701905, -188.055939, 246.200783)"/>
  <line style="stroke: rgb(216, 188, 0); stroke-width: 8px;" x1="223.326" y1="300.008" x2="223.326" y2="347.023" transform="matrix(0.701905, -0.712271, 0.712271, 0.701905, -163.858224, 255.506985)"/>
  <line style="stroke: rgb(216, 188, 0); stroke-width: 8px;" x1="246.687" y1="275.982" x2="246.687" y2="322.998" transform="matrix(0.701905, -0.712271, 0.712271, 0.701905, -139.781755, 264.984447)"/>
  <line style="stroke: rgb(216, 188, 0); stroke-width: 8px;" x1="299.689" y1="224.076" x2="299.689" y2="271.092" transform="matrix(0.701905, -0.712271, 0.712271, 0.701905, -87.011003, 287.263297)"/>
  <line style="stroke: rgb(216, 188, 0); stroke-width: 8px;" x1="322.908" y1="199.819" x2="322.908" y2="246.835" transform="matrix(0.701905, -0.712271, 0.712271, 0.701905, -62.811979, 296.570612)"/>
  <line style="stroke: rgb(216, 188, 0); stroke-width: 8px;" x1="346.27" y1="175.792" x2="346.27" y2="222.807" transform="matrix(0.701905, -0.712271, 0.712271, 0.701905, -38.733797, 306.0482)"/>
  <line style="stroke: rgb(216, 188, 0); stroke-width: 8px;" x1="395.257" y1="127.097" x2="395.257" y2="174.113" transform="matrix(0.701905, -0.712271, 0.712271, 0.701905, 10.552661, 326.42461)"/>
  <line style="stroke: rgb(216, 188, 0); stroke-width: 8px;" x1="418.472" y1="102.841" x2="418.472" y2="149.856" transform="matrix(0.701905, -0.712271, 0.712271, 0.701905, 34.750134, 335.729227)"/>
  <line style="stroke: rgb(216, 188, 0); stroke-width: 8px;" x1="441.833" y1="78.816" x2="441.833" y2="125.831" transform="matrix(0.701905, -0.712271, 0.712271, 0.701905, 58.826248, 345.206863)"/>
</svg>