<?xml version="1.0" encoding="utf-8"?>
<svg viewBox="0 0 500 500" xmlns="http://www.w3.org/2000/svg">
  <path style="fill: rgb(66, 147, 247); stroke: rgb(216, 188, 0); stroke-width: 16px; stroke-linecap: round; stroke-linejoin: round;" d="M 26.926 477.882 C 26.475 478 26.157 477.934 25.988 477.669 C 26.285 477.749 26.598 477.82 26.926 477.882 Z M 476.365 229.111 C 476.365 340.131 386.365 430.131 275.346 430.131 C 243.339 430.131 213.079 422.649 186.22 409.342 C 171.756 430.081 50.704 498.688 26.926 477.882 C 50.156 464.024 108.973 387.065 114.267 349.39 C 89.182 315.85 74.327 274.216 74.327 229.111 C 74.327 118.092 164.327 28.092 275.346 28.092 C 386.365 28.092 476.365 118.092 476.365 229.111 Z M 170.233 173.657 C 144.71 173.657 124.022 194.346 124.022 219.868 C 124.022 245.39 144.71 266.079 170.233 266.079 C 195.754 266.079 216.443 245.39 216.443 219.868 C 216.443 194.346 195.754 173.657 170.233 173.657 Z M 280.159 173.657 C 254.637 173.657 233.948 194.346 233.948 219.868 C 233.948 245.39 254.637 266.079 280.159 266.079 C 305.681 266.079 326.37 245.39 326.37 219.868 C 326.37 194.346 305.681 173.657 280.159 173.657 Z M 390.087 173.867 C 364.564 173.867 343.876 194.555 343.876 220.078 C 343.876 245.599 364.564 266.289 390.087 266.289 C 415.608 266.289 436.298 245.599 436.298 220.078 C 436.298 194.555 415.608 173.867 390.087 173.867 Z"/>
</svg>