<?xml version="1.0" encoding="utf-8"?>
<svg id="svg11300" viewBox="0 0 48 48" xmlns="http://www.w3.org/2000/svg">
  <g id="layer1">
    <path id="path3057" style="color: rgb(0, 0, 0); fill: rgb(66, 148, 247); stroke: rgb(216, 187, 0);" d="M 15.211 18.962 L 36.909 41.593 C 37.582 42.361 39.711 42.954 41.135 41.593 C 42.509 40.278 42.192 38.423 40.847 37.079 L 19.952 14.908 C 21.647 7.564 17.851 3.604 12.202 3.745 L 11.897 4.054 L 15.968 7.711 L 16.115 12.436 L 12.031 16.162 L 7.238 15.645 L 3.649 12.265 L 3.25 12.751 C 2.898 19.496 10.586 22.565 15.211 18.962 Z"/>
    <path id="path2144" style="color: rgb(0, 0, 0); stroke: rgb(216, 187, 0); fill: rgb(66, 148, 247);" d="M 20.162 30.471 C 21.103 29.664 35.172 15.275 35.172 15.275 L 38.646 15.027 L 44.104 7.46 L 39.557 3.41 L 32.485 9.488 L 32.485 12.961 L 18.096 27.909 C 17.413 28.591 19.293 31.215 20.162 30.471 Z"/>
    <path id="path2142" style="color: rgb(0, 0, 0); fill: rgb(66, 148, 247); stroke: rgb(216, 188, 0);" d="M 4.306 45.71 C 5.793 47.366 9.925 48.115 11.758 44.908 C 12.557 43.509 14.124 39.594 21.115 33.301 C 22.289 32.246 23.533 29.831 22.479 28.53 L 19.749 25.8 C 18.632 24.559 15.529 25.139 14.256 26.874 C 10.46 32.067 4.26 36.202 2.863 36.701 C 0.187 37.657 0.489 41.601 2.258 43.477 L 4.306 45.71 Z"/>
    <path id="path2146" style="color: rgb(0, 0, 0); fill: rgb(66, 148, 247); stroke: rgb(216, 188, 0);" d="M 40.404 39.384 C 40.404 40.435 39.266 41.091 38.357 40.566 C 37.935 40.322 37.674 39.872 37.674 39.384 C 37.674 38.333 38.812 37.676 39.722 38.202 C 40.143 38.446 40.404 38.897 40.404 39.384 Z" stroke-width="1.1386"/>
  </g>
</svg>