<?xml version="1.0" encoding="utf-8"?>
<svg viewBox="0 0 500 500" xmlns="http://www.w3.org/2000/svg" xmlns:bx="https://boxy-svg.com">
  <defs>
    <bx:guide x="436.081" y="-4.922" angle="90"/>
  </defs>
  <path d="M 300.698 603.333 L 309.676 619.495 L 332.439 625.869 L 309.676 632.243 L 300.698 648.405 L 291.72 632.243 L 268.957 625.869 L 291.72 619.495 Z" style="fill: rgb(216, 188, 0); stroke: rgb(66, 148, 247); stroke-width: 7px;" transform="matrix(0.233723, 0.972303, -0.972303, 0.233723, 876.645761, -283.612503)" bx:shape="star 300.698 625.869 31.741 22.536 0.4 4 1@38b3070a"/>
  <path d="M 300.698 577.51 L 314.376 612.191 L 349.057 625.869 L 314.376 639.547 L 300.698 674.228 L 287.02 639.547 L 252.339 625.869 L 287.02 612.191 Z" style="fill: rgb(216, 188, 0); stroke: rgb(66, 148, 247); stroke-width: 7px;" transform="matrix(0.233723, 0.972303, -0.972303, 0.233723, 894.557138, -372.534775)" bx:shape="star 300.698 625.869 48.359 48.359 0.4 4 1@a96fdfbe"/>
  <path d="M 300.698 598.535 L 310.106 618.138 L 333.961 625.869 L 310.106 633.6 L 300.698 653.203 L 291.29 633.6 L 267.435 625.869 L 291.29 618.138 Z" style="fill: rgb(216, 188, 0); stroke: rgb(66, 148, 247); stroke-width: 7px;" transform="matrix(0.233723, 0.972303, -0.972303, 0.233723, 984.577768, -362.775833)" bx:shape="star 300.698 625.869 33.263 27.334 0.4 4 1@faef697c"/>
  <path d="M 300.698 577.51 L 314.376 612.191 L 349.057 625.869 L 314.376 639.547 L 300.698 674.228 L 287.02 639.547 L 252.339 625.869 L 287.02 612.191 Z" style="fill: rgb(216, 188, 0); stroke: rgb(66, 148, 247); stroke-width: 7px;" transform="matrix(0.233723, 0.972303, -0.972303, 0.233723, 974.143625, -258.912247)" bx:shape="star 300.698 625.869 48.359 48.359 0.4 4 1@a96fdfbe"/>
  <g transform="matrix(0.945197, 0.507051, -0.495469, 0.923609, 151.951508, -43.617153)" style="">
    <rect x="129.185" y="91.961" width="27.295" height="380.167" style="fill: rgb(66, 148, 247); stroke: rgb(216, 188, 0); stroke-width: 12px;"/>
    <rect x="127.244" y="67.932" width="31.03" height="21.46" style="stroke: rgb(216, 188, 0); stroke-width: 13px; fill: rgb(66, 148, 247);" rx="1.661" ry="1.661"/>
    <rect x="127.761" y="461.52" width="30.615" height="21.173" style="stroke: rgb(216, 188, 0); stroke-width: 13px; fill: rgb(66, 148, 247);" rx="1.661" ry="1.661"/>
  </g>
</svg>