<?xml version="1.0" encoding="utf-8"?>
<svg id="svg2" viewBox="0 0 156 156" version="1.1" xmlns="http://www.w3.org/2000/svg">
  <circle id="circle4" style="fill: rgb(66, 148, 247); stroke: rgb(216, 188, 0); stroke-width: 8px;" cy="78.711" cx="77.852" r="72.48"/>
  <path id="path6" style="fill: rgb(216, 188, 0);" d="M 12.806 78.711 C 14.731 92.071 19.015 105.312 25.444 117.181 C 28.752 123.29 24.638 103.152 22.47 96.552 C 20.358 90.127 11.842 72.016 12.806 78.711 Z M 26.744 38.382 C 24.289 39.98 32.741 37.775 35.293 36.337 C 44.635 31.076 52.987 24.215 62.056 18.496 C 67.1 15.314 47.539 22.757 47.374 28.718 C 47.213 34.494 72.276 19.428 72.277 19.426 C 73.398 17.772 71.148 13.454 69.303 14.221 C 54.243 20.492 40.42 29.489 26.744 38.382 Z M 42.356 90.791 C 47.647 93.821 56.998 87.521 60.568 92.463 C 68.075 102.853 63.906 118.593 70.419 129.633 C 72.465 133.1 79.119 131.821 82.498 129.633 C 88.557 125.71 93.131 119.415 96.251 112.907 C 97.754 109.771 94.176 105.712 95.507 102.5 C 98.284 95.8 106.521 91.766 107.96 84.658 C 108.591 81.535 101.176 88.852 98.667 86.888 C 92.767 82.27 89.641 74.773 86.587 67.932 C 86.132 66.912 88.591 65.278 89.375 66.073 C 94.182 70.941 94.673 80.982 101.269 82.8 C 106.264 84.176 113.028 77.759 112.977 72.577 C 112.929 67.622 96.834 66.207 101.084 63.658 C 107.214 59.978 116.297 63.072 122.27 67.002 C 127.106 70.186 124.658 85.096 129.889 82.614 C 136.238 79.601 127.623 66.027 133.235 61.798 C 137.131 58.863 145.856 76.681 142.712 72.949 C 126.686 53.917 114.476 30.835 94.579 15.895 C 90.093 12.526 90.636 27.188 86.03 30.391 C 83.91 31.865 81.879 26.027 79.339 26.488 C 74.477 27.368 69.387 29.901 66.516 33.921 C 65.319 35.597 69.029 38.866 70.976 38.196 C 74.344 37.037 74.474 28.893 77.852 30.019 C 81.053 31.086 79.257 38.039 76.551 40.054 C 71.708 43.663 64.31 41.463 58.896 44.144 C 57.306 44.931 59.323 48.472 57.781 49.347 C 55.692 50.532 45.739 42.682 49.604 54.551 C 50.143 56.209 52.981 56.63 54.621 56.037 C 58.564 54.612 60.844 49.219 65.028 48.975 C 67.787 48.815 69.793 52.467 70.604 55.109 C 70.95 56.232 67.757 55.158 67.259 56.223 C 66.887 57.022 68.478 58.201 69.303 57.896 C 70.746 57.362 72.486 55.89 72.277 54.365 C 71.945 51.946 66.105 46.882 68.002 48.418 C 71.173 50.984 72.133 58.047 76.179 57.524 C 80.645 56.946 79.662 48.146 83.8 46.374 C 86.887 45.051 90.411 48.252 93.091 50.276 C 93.78 50.796 92.993 52.459 92.163 52.693 C 88.631 53.685 84.532 52.094 81.198 53.621 C 79.958 54.188 80.007 57.049 81.198 57.71 C 83.64 59.067 87.822 56.08 89.561 58.268 C 91.049 60.141 89.351 65.01 86.959 64.958 C 78.967 64.784 71.898 59.466 64.1 57.71 C 59.983 56.783 54.843 54.442 51.462 56.967 C 44.411 62.232 38.389 88.519 42.356 90.791 Z M 54.249 40.054 C 54.249 42.609 59.64 43.445 61.684 41.913 C 63.666 40.426 64.087 35.08 61.684 34.479 C 58.679 33.728 54.249 36.957 54.249 40.054 Z M 95.507 47.302 C 95.298 45.904 98.204 44.281 99.225 45.258 C 102.007 47.921 103.671 51.857 104.242 55.665 C 104.412 56.796 101.723 57.199 100.898 56.409 C 98.349 53.97 96.031 50.791 95.507 47.302 Z M 97.552 121.456 C 97.761 122.633 100.165 123.702 100.898 122.756 C 103.751 119.071 107.289 114.522 106.473 109.933 C 105.986 107.191 101.114 112.192 99.41 114.393 C 97.921 116.318 97.125 119.059 97.552 121.456 Z"/>
</svg>