<?xml version="1.0" encoding="utf-8"?>
<svg viewBox="0 0 500 500" xmlns="http://www.w3.org/2000/svg">
  <g transform="matrix(0.999522, 0, 0, 1.02182, -12.881913, 106.240822)" style="">
    <circle style="fill: rgb(222, 125, 21);" transform="matrix(0.466424, 0, 0, 0.456245, -115.192352, -66.358772)" cx="1004.2567749023438" cy="383.8006896972656" r="299.7324261706095"/>
    <g style="" transform="matrix(1.042798, 0, 0, 0.822263, -0.82848, 67.243233)">
      <path style="fill: rgb(66, 148, 247); stroke: rgb(216, 188, 0); stroke-width: 12px; stroke-linejoin: round;" d="M 19.358 378.069 C 29.079 359.262 129.411 197.588 130 128.075 C 142.671 105.468 353.613 109.904 388.06 131.013 C 388.238 210.579 471.078 350.459 485.931 378.329 L 19.358 378.069 Z"/>
      <path style="fill: rgb(216, 216, 216); stroke: rgb(0, 0, 0);" d="M 172.396 121.7"/>
      <path style="fill: rgb(216, 216, 216); stroke-width: 12px; stroke: rgb(216, 188, 0);" d="M 158.583 120.552 C 162.943 131.767 129.338 240.623 118.475 250.873"/>
      <path style="fill: rgb(216, 216, 216); stroke-width: 12px; stroke: rgb(216, 188, 0);" d="M 356.152 120.847 C 353.34 124.674 370.571 179.939 375.196 192.737"/>
      <path style="fill: rgb(216, 216, 216); stroke-width: 12px; stroke: rgb(216, 188, 0);" d="M 316.566 116.486 C 318.514 145.444 333.659 189.612 345.261 224.034"/>
    </g>
  </g>
</svg>